<svg xmlns="http://www.w3.org/2000/svg" width="79" height="80" fill="none"><path fill="#EA6D27" d="M73.712 54.833a1.938 1.938 0 0 0-.801-.807c-.481-.483-.962-.645-.962-.645s-.48-.16-1.121-.16h-1.122c-.32 0-.801.16-1.122.322-.32.161-.64.322-.801.483-.48.323-.801.645-1.122.968-.16.161-.16.322-.32.322 0 .161-.16.161-.16.161s.48.162 1.121.323c.32 0 .641.161 1.122.161.32 0 .801 0 1.282-.161l.961-.484c.481-.322.802-.806 1.122-1.128.32-.323.32-.645.32-.645s-.16.322-.16.806c-.16.484-.16.967-.16 1.612 0 .323 0 .645.16 1.129.16.483.32.806.481 1.128.16.323.48.645.641.968l.801.806.16-.161c0-.162.16-.323.321-.484.16-.484.32-1.129.32-1.774 0-.322 0-.806-.16-1.128-.32-.968-.48-1.29-.801-1.612ZM76.276 50.48c-.16-.484-.481-.807-.801-1.13-.321-.322-.641-.483-.802-.644l-.961-.484H72.59c-.32 0-.64 0-1.122.162-.32.16-.8.16-1.121.483-.32.162-.641.484-.962.645-.32.323-.48.484-.64.806-.161.323-.321.484-.321.645-.16.161-.16.323-.16.323s.48.16 1.121.16 1.442 0 2.244-.322c.32-.16.64-.483.961-.806.32-.322.48-.645.641-.806.32-.483.48-.967.48-1.128 0 0-.16.483-.16 1.128v1.129c0 .322.16.806.321 1.128.32.806.962 1.451 1.442 1.935.481.484.962.645.962.645s0-.161.16-.323c0-.16.16-.483.16-.806v-1.29c0-.483-.16-.967-.32-1.45ZM77.879 46.127c-.16-.484-.32-.806-.481-1.29-.32-.322-.48-.645-.801-.967-.32-.322-.641-.484-.962-.484-.64-.322-1.122-.322-1.122-.322s-.48 0-1.121.161c-.32 0-.641.161-1.122.322-.32.162-.801.323-1.122.645-.32.323-.64.484-.8.806-.161.323-.321.645-.482.807l-.32.967h1.122c.64 0 1.442-.161 2.243-.806.32-.323.641-.484.801-.806l.48-.968c.161-.645.321-1.128.321-1.128v1.128c0 .323.16.645.16 1.129.16.322.321.806.481 1.129.481.806 1.122 1.29 1.763 1.612l.962.483s.16-.483.16-1.29c0-.322 0-.644-.16-1.128ZM78.84 41.935c0-.484-.16-1.129-.481-1.774-.16-.322-.32-.644-.641-.967-.641-.645-1.442-.967-2.083-1.128-.641-.162-1.122-.162-1.122-.162s-.48 0-1.122.323c-.64.161-1.442.645-1.922 1.29-.321.322-.481.483-.641.806-.321.483-.481.967-.481 1.45 0 .162 0 .323-.16.484v.162s.48 0 1.121-.162c.641-.16 1.442-.483 2.083-1.128.32-.323.481-.484.641-.806.32-.484.32-1.129.481-1.451v-.806s0 .322.16.806c.16.483.16.967.481 1.612.16.322.32.645.641.967.641.645 1.282 1.129 1.923 1.29.64.322 1.122.322 1.122.322v-1.128ZM63.136 66.118s-.32-.322-.962-.644c-.64-.323-1.282-.645-2.243-.807h-.962c-.64.162-1.121.323-1.442.484l-.64.323.8.806c.481.483 1.282.806 2.084.967h.961c.641-.161 1.122-.322 1.442-.645.802-.161.962-.322.962-.484 0 0-.32.323-.48.645-.321.323-.642.806-.802 1.29-.16.323-.32.645-.32.968-.16.806 0 1.773.16 2.418.16.645.48 1.128.48 1.128s.32-.16.641-.483c.32-.323.802-.806 1.122-1.451.16-.323.32-.645.32-1.129.16-.967-.16-1.773-.32-2.418-.48-.484-.801-.968-.801-.968ZM66.821 62.41s-.48-.322-.961-.483c-.641-.323-1.442-.484-2.244-.484-.16 0-.48 0-.64.161-.16 0-.321.161-.481.161-.32.161-.641.323-.801.484-.321.161-.481.322-.642.322l-.16.162s.32.322.962.645l.961.483c.16 0 .32.161.641.161h.641c.48 0 .801-.16 1.122-.322l.961-.484c.16-.483.481-.806.641-.806l-.64.968-.481.967c-.16.322-.16.806-.16 1.129v.644c0 .162 0 .484.16.645.16.323.16.806.32 1.129.32.645.641.967.641.967l.32-.322c.16-.162.321-.484.481-.645.16-.323.32-.645.481-1.129 0-.161.16-.483.16-.645v-.644c0-.968-.32-1.774-.64-2.258-.321-.483-.642-.806-.642-.806ZM70.667 58.863l-.801-.806s-.48-.162-1.122-.323c-.64-.161-1.442-.322-2.243-.161-.801.161-1.442.645-1.923.967-.16.162-.48.323-.48.484l-.161.161s.48.323.962.484c.64.322 1.442.484 2.243.322.48 0 .801-.16 1.122-.483.32-.162.64-.484.8-.645.161-.161.482-.484.482-.645.16-.161.16-.323.16-.323s-.16.162-.16.323c-.16.161-.16.483-.321.806-.16.322-.16.645-.32 1.129 0 .322-.16.806 0 1.29.16.967.48 1.612.8 2.257.321.644.642.967.642.967s.16-.161.16-.323c.16-.16.32-.483.48-.806.321-.645.642-1.612.482-2.418 0-1.129-.481-1.774-.802-2.257ZM49.034 72.89c-.32-.484-.961-1.29-1.602-1.612l-.962-.484c-.32-.161-.48-.161-.8-.161h-1.282s.16.484.32 1.128c.32.645.801 1.29 1.442 1.774.32.161.64.322.961.322 1.122.323 2.244 0 2.404 0-.16 0-1.122.323-2.083 1.129-.32.161-.48.483-.801.806-.481.645-.801 1.612-.962 2.257-.16.645-.16 1.129-.16 1.129s.32 0 .801-.162c.16 0 .48-.16.801-.322.32-.161.641-.322.802-.484.32-.16.64-.483.8-.806a4.43 4.43 0 0 0 .642-2.257v-1.129s0-.644-.32-1.128ZM54.483 72.084l-.641-.967c-.481-.484-1.122-1.129-1.763-1.451-.32-.162-.801-.323-1.122-.323h-.961c-.641 0-.962.161-.962.161s.16.484.481.968c.32.484.962 1.128 1.763 1.612a3.655 3.655 0 0 0 2.243.161c.481 0 .962-.16.962-.16s-.481.16-.962.644c-.48.322-1.121.967-1.442 1.773-.48.807-.48 1.613-.64 2.258 0 .644.16 1.128.16 1.128s.48-.161 1.121-.484c.32-.16.641-.483.962-.806.32-.322.64-.644.8-1.128.481-.806.481-1.774.321-2.419-.16-.645-.32-.967-.32-.967ZM59.13 69.343l-.801-.807c-.481-.483-1.282-.967-2.083-1.128-.481-.161-.802-.161-1.122-.161-.32 0-.641.16-.962.16-.64.162-.961.323-.961.323l.64.968c.482.483 1.123.967 1.924 1.29.32.16.801.16 1.121.16.321 0 .802-.16.962-.16.801-.323 1.122-.484 1.282-.645 0 0-.48.322-.962.806-.16.16-.48.483-.64.806-.16.322-.481.645-.642 1.128-.32.806-.32 1.774-.16 2.419s.32 1.128.32 1.128.482-.16 1.123-.645c.32-.16.64-.483.8-.806.321-.322.481-.806.642-1.128.32-.806.16-1.774 0-2.419-.32-.806-.481-1.29-.481-1.29ZM33.972 73.858c-.16-.645-.32-1.45-.801-2.257-.16-.322-.481-.484-.641-.806-.16-.161-.481-.323-.641-.484-.16-.16-.481-.322-.641-.322l-.641-.323s-.16.484-.16 1.129.16 1.451.64 2.257c.16.323.481.484.641.806.16.161.481.323.641.484.16.161.481.161.641.322.481.162.641.162.802.162H32.21c-.321 0-.642 0-.802.16-.32 0-.641.162-.962.323-.8.484-1.442.968-1.762 1.612l-.641.968s.32.161.801.161h.801c.32 0 .641 0 .962-.161.32 0 .64-.161 1.121-.323.802-.483 1.282-1.128 1.603-1.773.32-.645.48-1.129.48-1.129s.321-.16.16-.806ZM37.978 72.245c-.32-.322-.641-.484-.962-.806-.32-.161-.64-.322-.801-.484l-.962-.322v1.128c.16.645.321 1.451.962 2.096.32.323.64.484.961.806l.962.484a5.094 5.094 0 0 0 1.122.161s-.481 0-1.122.162c-.32 0-.641.16-.962.322-.32.161-.8.322-1.121.645-.641.484-1.122 1.29-1.443 1.773-.32.645-.48 1.129-.48 1.129h1.282c.8 0 1.602-.323 2.403-.806.802-.645 1.122-1.29 1.282-1.935.16-.645.32-1.128.32-1.128s0-.484-.16-1.129c-.48-.806-.8-1.451-1.281-2.096ZM44.067 74.018c-.32-.645-.64-1.29-1.282-1.934-.32-.323-.64-.484-.961-.645-.32-.161-.641-.162-.962-.323-.64-.161-.961-.161-.961-.161s0 .484.16 1.129c.16.644.48 1.45 1.122 1.934.64.484 1.442.806 2.083.806h1.122s-.481 0-1.122.323c-.64.161-1.282.483-1.923 1.128-.64.645-.961 1.451-1.282 2.096-.16.645-.32 1.129-.32 1.129s.48 0 1.282-.161c.32 0 .8-.162 1.121-.484a4.87 4.87 0 0 0 1.122-.806c.641-.645.962-1.451.962-2.096.16-.645.16-1.129.16-1.129s0-.322-.32-.806ZM19.55 69.02s.16-.483.48-1.128c.16-.645.32-1.451.32-2.257 0-.323-.16-.645-.32-.968a3.516 3.516 0 0 0-.8-1.29c-.161-.16-.161-.322-.321-.322s-.16-.161-.16-.161-.321.323-.641.967c-.321.645-.481 1.451-.481 2.258 0 .322.16.644.32.967.641 1.29 1.603 1.935 1.603 1.935-.16 0-.962-.645-2.244-.968-.32 0-.64-.161-1.122-.161-.8 0-1.762.323-2.243.645-.64.322-.961.645-.961.645l.16.161c.16.161.32.161.48.322.481.323.962.645 1.603.807.32.16.801.16 1.122.16.961 0 1.763-.483 2.243-.805.641-.323.962-.806.962-.806ZM24.037 71.762s.16-.484.32-1.129.16-1.45 0-2.257c-.16-.484-.32-.806-.48-1.129-.16-.16-.161-.322-.321-.483-.16-.161-.16-.323-.32-.323-.321-.483-.802-.645-.802-.645s-.16.484-.48 1.129c-.16.645-.321 1.451-.16 2.257.16.484.32.806.48 1.129.16.322.48.645.64.806.642.322 1.122.645 1.122.645s-.48-.323-1.121-.484c-.32 0-.641-.161-1.122-.161h-1.282c-.801.161-1.602.645-2.083.967l-.801.806s.48.323 1.122.484c.16 0 .32.161.48.161.16 0 .481.162.641.162h1.282c.962-.162 1.603-.645 2.083-1.13.641-.322.802-.805.802-.805ZM29.004 73.696s.16-.484.16-1.129 0-1.45-.48-2.257c-.16-.322-.32-.645-.641-.967-.16-.323-.481-.484-.641-.645-.481-.323-.802-.484-.802-.484s-.16.484-.32 1.129a3.72 3.72 0 0 0 .16 2.257c.16.322.32.645.641.967.32.323.48.484.801.645.481.322.962.484 1.122.484 0 0-.48-.161-1.122-.161h-1.121c-.32 0-.802.16-1.122.16a5.762 5.762 0 0 0-1.923 1.29c-.48.484-.64.968-.64.968s.48.161 1.12.322c.321.162.802.162 1.122.162.481 0 .802 0 1.282-.162.802-.322 1.443-.967 1.923-1.45.16-.645.481-1.13.481-1.13ZM8.012 57.735c.641-.161 1.122-.322 1.122-.322l.801-.806c.16-.162.48-.484.641-.807.16-.322.48-.644.48-1.128.161-.323.161-.645.161-.967 0-.645 0-1.13-.16-1.452 0-.16-.16-.322-.16-.483v-.161s-.481.16-.962.644c-.32.162-.48.484-.801.807-.32.322-.48.645-.641 1.128-.16.323-.16.645-.16.968 0 .644.16 1.128.32 1.612.16.483.32.645.32.806 0 0-.16-.323-.48-.645-.32-.323-.641-.806-1.122-1.129-.32-.16-.64-.483-.961-.483-.48-.161-.801-.323-1.282-.323H4.006c-.64 0-1.122.162-1.122.162l.16.16c0 .162.161.323.321.484.32.484.641.968 1.122 1.451.32.162.64.484.961.645.481.161.802.323 1.282.323.481-.323.962-.323 1.282-.484ZM10.896 62.411c.641-.161.962-.483.962-.483l.801-.807c.32-.483.801-1.29.961-2.096v-1.128c0-.323-.16-.645-.16-.968l-.32-.967-.801.806c-.481.484-.962 1.129-1.122 2.096-.16.806 0 1.613.32 2.257.16.323.32.484.32.645a.5.5 0 0 1 .161.323c-.16-.161-1.122-1.451-2.884-1.935-.802-.161-1.763-.161-2.404 0-.64.161-1.122.322-1.122.322s.32.484.802.968c.32.322.48.483.961.806.32.161.801.484 1.282.484.801 0 1.602-.162 2.243-.323ZM14.582 66.44c.641-.322.961-.644.961-.644s.321-.322.642-.967l.48-.968c0-.16.16-.322.16-.645v-.645c0-.483 0-.806-.16-1.128-.16-.322-.16-.645-.32-.967-.16-.323-.32-.484-.32-.645l-.161-.162-.801.807c-.32.483-.801 1.29-.801 2.096v.644c0 .162.16.323.16.484l.48.967c.321.484.642.807.802.968l-.962-.645-.961-.484c-.16 0-.32-.161-.641-.161-.16 0-.32-.161-.641-.161-.801-.161-1.763.161-2.404.322-.64.161-.961.484-.961.484s.16.161.16.322l.641.645c.32.161.64.484.961.645.32.161.802.323 1.282.323h.641c.16 0 .481 0 .641-.162.481 0 .801-.16 1.122-.322ZM1.442 41.128c.64.645 1.442.968 2.083 1.129.64.161 1.122.161 1.122.161s.48 0 1.121-.322c.641-.161 1.443-.645 1.923-1.29.32-.322.481-.484.641-.806.32-.484.481-.968.481-1.451 0-.161 0-.323.16-.484v-.161s-.48 0-1.121.161-1.443.484-2.084 1.129c-.32.322-.48.483-.64.806-.321.483-.321 1.128-.481 1.45v.807s0-.322-.16-.806c-.16-.484-.16-.968-.481-1.451-.16-.323-.32-.645-.641-.968-.641-.644-1.282-1.128-1.923-1.45C.8 37.258.32 37.258.32 37.258v.806c0 .484.16 1.129.48 1.774.161.645.321.967.642 1.29ZM1.923 46.771c.64.645 1.602.806 2.243.806h1.122s.48-.16.962-.483a5.015 5.015 0 0 0 1.762-1.451c.48-.645.641-1.451.801-1.935V42.741s-.48 0-1.121.322l-.962.484c-.32.161-.64.483-.961.806-.32.322-.481.645-.481 1.128-.16.323-.16.645-.16.968V47.577s0-.16-.16-.322c0-.161-.16-.484-.32-.806l-.482-.968c-.16-.322-.48-.644-.8-.967-.321-.322-.642-.483-1.123-.645-.32-.161-.8-.322-1.121-.322A5.098 5.098 0 0 0 0 43.386v.645c0 .16.16.322.16.483.641.806 1.122 1.612 1.763 2.257ZM5.609 52.898c.64 0 1.121-.162 1.121-.162s.481-.16.962-.644c.48-.484 1.122-.968 1.442-1.774.16-.322.32-.806.32-1.128 0-.323.16-.645.16-.968V47.255s-.48.161-.96.483c-.321.162-.642.323-.962.645-.32.323-.48.645-.801.968-.16.322-.32.806-.32 1.128v1.129c0 .645.16 1.129.32 1.129 0 0-.16-.484-.481-1.13-.16-.322-.32-.644-.641-.805-.32-.323-.48-.645-.962-.806-.32-.162-.8-.484-1.121-.484-.32-.161-.801-.161-1.122-.161H1.442s0 .161.16.322c0 .161 0 .161.16.323 0 .16.161.322.161.483.16.323.32.645.641.968.32.322.641.645.962.806.64.483 1.442.645 2.083.645ZM5.288 25.49c.16.322.48.644.801.806.48.483.961.644.961.644s.481.162 1.122.162h1.122c.32 0 .801-.162 1.122-.323.32-.161.64-.322.8-.483.482-.323.802-.645 1.123-.968.16-.161.16-.322.32-.322 0-.162.16-.162.16-.162s-.48-.16-1.122-.322c-.32 0-.64-.161-1.121-.161-.32 0-.801 0-1.282.161l-.962.484c-.48.322-.8.806-1.121 1.128-.32.323-.32.645-.32.645s.16-.322.16-.806c.16-.484.16-.967.16-1.612 0-.323 0-.645-.16-1.129a7.884 7.884 0 0 0-.481-1.128c-.16-.323-.481-.645-.641-.968l-.801-.806-.16.161c0 .162-.16.323-.16.484-.161.484-.321 1.129-.321 1.774 0 .322 0 .806.16 1.128.32.806.48 1.29.64 1.612ZM2.884 29.682c.16.484.481.806.802 1.129.32.322.64.484.8.645l.962.483H6.57c.32 0 .64 0 1.122-.16.32-.162.8-.162 1.121-.485.32-.16.641-.483.962-.644.32-.323.48-.484.64-.806.161-.323.321-.484.321-.645.16-.162.16-.323.16-.323s-.48-.161-1.121-.161-1.442 0-2.244.322c-.32.162-.64.484-.961.806-.32.323-.48.645-.641.807-.32.483-.48.967-.48 1.128 0 0 .16-.483.16-1.128V29.52c0-.322-.16-.806-.321-1.129-.32-.806-.961-1.45-1.442-1.934-.48-.484-.962-.645-.962-.645s0 .161-.16.322c0 .162-.16.484-.16.806v1.13c0 .805 0 1.128.32 1.611ZM1.122 34.034c.16.484.32.806.48 1.29.32.322.481.645.802.967.32.323.64.484.961.484.641.322 1.122.322 1.122.322s.48 0 1.122-.16c.32 0 .64-.162.961-.323.32-.162.801-.323 1.122-.645.32-.323.64-.484.8-.806.161-.323.321-.645.482-.806l.32-.968H8.172c-.64 0-1.442.161-2.243.806-.32.323-.641.484-.801.806l-.48.968c-.161.645-.321 1.128-.321 1.128V35.97c0-.323-.16-.645-.16-1.129-.16-.322-.321-.806-.481-1.128-.481-.806-1.122-1.29-1.763-1.613l-.962-.483s-.16.483-.16 1.29c.32.322.32.806.32 1.128ZM16.024 14.043s.32.323.962.645c.64.323 1.281.645 2.243.806h.961c.641-.16 1.122-.322 1.443-.483l.64-.323-.8-.806c-.481-.483-1.283-.806-2.084-.967h-.961c-.641.161-1.122.322-1.442.645-.802.322-.962.483-.962.483s.32-.322.48-.644c.321-.323.642-.807.802-1.29.16-.323.32-.645.32-.968.16-.806 0-1.773-.16-2.418-.16-.645-.48-1.129-.48-1.129s-.32.162-.641.484c-.32.323-.802.806-1.122 1.451-.16.323-.32.645-.32 1.129-.16.967 0 1.773.32 2.418.48.645.801.967.801.967ZM12.339 17.911s.48.323.961.484c.641.322 1.442.484 2.243.484.16 0 .481 0 .642-.162.16 0 .32-.16.48-.16l.962-.484c.32-.162.48-.323.64-.323l.16-.161s-.32-.323-.96-.645l-.962-.484c-.16 0-.32-.16-.641-.16h-.641c-.48 0-.801.16-1.122.322l-.961.483c-.48.323-.801.645-.801.806l.64-.967.481-.967c.16-.323.16-.806.16-1.129v-.645c0-.161 0-.483-.16-.645-.16-.322-.16-.806-.32-1.128-.32-.645-.641-.968-.641-.968l-.32.323c-.16.161-.321.483-.481.645-.16.322-.32.645-.481 1.128 0 .162-.16.484-.16.645v.645c0 .967.32 1.774.64 2.257.321.484.642.806.642.806ZM8.493 21.46l.801.806s.48.161 1.122.322c.64.162 1.442.323 2.243.162.801-.162 1.442-.645 1.923-.968.16-.16.48-.322.48-.483l.161-.162s-.48-.322-.961-.483c-.641-.323-1.443-.484-2.244-.323-.48 0-.8.162-1.121.484-.32.161-.641.484-.802.645-.16.161-.48.483-.48.645-.16.161-.16.322-.16.322s.16-.161.16-.322c.16-.162.16-.484.32-.806.16-.323.16-.645.32-.968 0-.322.16-.806 0-1.29-.16-.967-.48-1.612-.8-2.257-.321-.645-.642-.967-.642-.967s-.16.161-.16.322c-.16.162-.32.484-.48.807-.321.644-.642 1.612-.481 2.418 0 .806.32 1.612.801 2.096ZM30.126 7.271c.32.484.961 1.29 1.602 1.613l.962.483c.32.162.48.162.801.162h1.282s-.16-.484-.32-1.129c-.321-.645-.802-1.29-1.443-1.773-.32-.162-.64-.323-.961-.323-1.122-.322-2.244 0-2.404 0 .16 0 1.122-.322 2.083-1.128.32-.162.481-.484.802-.807.48-.644.8-1.612.961-2.257.16-.645.16-1.128.16-1.128s-.32 0-.8.161c-.161 0-.482.161-.802.322-.32.162-.641.323-.801.484-.32.161-.641.484-.802.806a4.43 4.43 0 0 0-.64 2.257v1.129s-.16.645.32 1.128ZM24.677 8.239l.641.967c.481.484 1.122 1.129 1.923 1.29.32.161.801.323 1.122.323h.961c.641 0 .962-.162.962-.162s-.16-.483-.48-.967c-.321-.484-.962-1.129-1.764-1.612a3.655 3.655 0 0 0-2.243-.161c-.64 0-1.122.322-1.122.322s.481-.161.962-.645c.48-.322 1.122-.967 1.442-1.773.48-.806.48-1.613.641-2.257 0-.645-.16-1.13-.16-1.13s-.481.162-1.122.485c-.32.16-.641.483-.962.806-.32.322-.64.645-.8 1.128-.481.806-.481 1.774-.321 2.419l.32.967ZM20.03 10.818l.801.806c.481.484 1.282.968 2.084 1.129.48.161.8.161 1.121.161.32 0 .641-.161.962-.161.64-.161.961-.322.961-.322l-.64-.968a5.76 5.76 0 0 0-1.924-1.29c-.32-.16-.8-.16-1.121-.16-.32 0-.802.16-.962.16-.801.323-1.122.645-1.282.645 0 0 .48-.322.962-.806.16-.161.48-.484.64-.806.16-.322.481-.645.481-1.129.32-.806.32-1.773.16-2.418-.16-.645-.32-1.129-.32-1.129s-.48.162-1.122.645c-.32.162-.64.484-.8.806-.321.323-.482.807-.642 1.129-.32.806-.16 1.773 0 2.418.48.806.641 1.29.641 1.29ZM45.188 6.465c.16.645.321 1.451.802 2.257.16.323.48.484.64.806.16.162.481.323.642.484.16.161.48.322.64.322l.642.323s.16-.484.16-1.129a4.43 4.43 0 0 0-.641-2.257c-.16-.322-.48-.483-.641-.806-.16-.161-.48-.322-.641-.483-.16-.162-.48-.162-.641-.323-.48-.161-.641-.161-.801-.161h1.602c.32 0 .48 0 .801-.161.32-.162.641-.162.962-.323.801-.483 1.442-.967 1.763-1.612l.64-.967s-.32-.162-.8-.162h-.802c-.32 0-.64 0-.961.162-.32 0-.641.16-1.122.322-.801.484-1.282 1.129-1.602 1.774a9.627 9.627 0 0 0-.481 1.128s-.32.161-.16.806ZM41.183 8.078c.32.322.64.483.961.806l.962.483.961.323V8.56c-.16-.645-.32-1.45-.961-2.096-.32-.322-.641-.483-.962-.806l-.961-.483c-.641-.162-1.122-.162-1.122-.162s.48 0 1.122-.16c.32 0 .64-.162.961-.323.32-.162.801-.323 1.122-.645.64-.484 1.122-1.29 1.442-1.774.32-.645.48-1.128.48-1.128h-1.281c-.801 0-1.603.322-2.404.806-.801.645-1.122 1.29-1.282 1.935-.16.644-.32 1.128-.32 1.128s0 .484.16 1.129.48 1.45 1.122 2.096ZM37.817 5.982c-.64-.484-1.442-.806-2.083-.806h-1.122s.481 0 1.122-.323c.641-.161 1.282-.484 1.923-1.128.641-.645.962-1.452 1.282-2.096.16-.645.32-1.129.32-1.129s-.48 0-1.282.161c-.32 0-.8.161-1.121.484a4.87 4.87 0 0 0-1.122.806c-.64.645-.961 1.451-.961 2.096-.16.645-.16 1.129-.16 1.129s.16.483.32 1.128c.32.645.64 1.29 1.282 1.935.32.322.64.483.961.645.32.16.641.16.962.322.64.161.961.161.961.161s0-.483-.16-1.128c0-.806-.48-1.612-1.122-2.257ZM59.61 11.14s-.16.484-.48 1.13c-.16.644-.32 1.45-.32 2.256 0 .323.16.645.32.968.16.483.48.967.801 1.29.16.16.16.322.32.322l.16.161s.321-.322.642-.967c.32-.645.48-1.451.48-2.257 0-.323-.16-.645-.32-.968-.641-1.128-1.602-1.934-1.602-1.934.16 0 .961.645 2.243.967.32 0 .64.161 1.122.161.8 0 1.762-.322 2.243-.645.64-.322.961-.645.961-.645l-.16-.16c-.16-.162-.32-.162-.48-.323-.481-.323-.962-.645-1.603-.806-.32-.162-.801-.162-1.122-.162-.961 0-1.762.484-2.243.806-.641.484-.962.807-.962.807ZM55.124 8.4s-.16.484-.32 1.129c-.161.645-.161 1.45.16 2.257.16.484.32.806.48 1.129.16.16.16.322.32.483.161.161.161.323.321.323.32.483.801.645.801.645s.16-.484.481-1.13c.16-.644.32-1.45.16-2.256-.16-.484-.32-.806-.48-1.129-.16-.322-.481-.645-.641-.806-.801-.322-1.282-.484-1.282-.645 0 0 .48.323 1.121.484.321 0 .641.161 1.122.161h1.282c.801-.161 1.603-.645 2.083-.967l.801-.806s-.48-.323-1.121-.484c-.16 0-.32-.161-.48-.161-.161 0-.482-.162-.642-.162h-1.282c-.961.162-1.602.645-2.083 1.13-.641.483-.801.805-.801.805ZM50.156 6.465s-.16.484-.16 1.129 0 1.451.48 2.257c.161.322.321.645.642.967.16.323.48.484.64.645.482.323.802.484.802.484s.16-.484.32-1.129c.16-.644.16-1.45-.16-2.257-.16-.322-.32-.645-.64-.967-.321-.322-.481-.484-.802-.645-.48-.322-.961-.484-1.122-.484 0 0 .481.162 1.122.162H52.4c.32 0 .801-.162 1.122-.162a5.76 5.76 0 0 0 1.922-1.29c.481-.483.641-.967.641-.967s-.48-.161-1.121-.322c-.32-.161-.801-.161-1.122-.161-.48 0-.801 0-1.282.16-.801.323-1.442.968-1.923 1.452-.32.645-.48 1.128-.48 1.128ZM71.148 22.427c-.64.16-1.121.322-1.121.322l-.802.806c-.16.162-.48.484-.64.806-.16.323-.481.645-.481 1.129-.16.322-.16.645-.16.967 0 .645 0 1.129.16 1.451 0 .162.16.323.16.484v.161s.48-.161.961-.645c.32-.16.481-.483.802-.806.16-.322.48-.645.64-1.128.16-.323.16-.645.16-.968 0-.645-.16-1.128-.32-1.612-.16-.484-.32-.645-.32-.806 0 0 .16.322.48.645.321.322.642.806 1.122 1.128.32.162.641.484.962.484.48.161.801.323 1.282.323h1.121a3.89 3.89 0 0 0 1.122-.162l-.16-.161c0-.161-.16-.322-.32-.484-.321-.483-.642-.967-1.122-1.45-.32-.162-.641-.484-.962-.646-.48-.16-.801-.322-1.282-.322-.48.322-.961.322-1.282.484ZM68.264 17.913c-.64.16-.961.483-.961.483l-.802.806c-.32.484-.8 1.29-.961 2.096v1.129c0 .322.16.645.16.967l.32.968.802-.807c.48-.483.961-1.128 1.122-2.096.16-.806 0-1.612-.32-2.257-.161-.322-.321-.483-.321-.645-.16-.16-.16-.322-.16-.322.16.161 1.121 1.451 2.884 1.935.8.16 1.762.16 2.403 0 .641-.162 1.122-.323 1.122-.323s-.32-.484-.801-.967c-.32-.323-.48-.484-.962-.806-.32-.162-.8-.484-1.282-.484-.8-.161-1.762 0-2.243.323ZM64.578 13.882c-.64.322-.961.645-.961.645s-.32.322-.641.967l-.481.968c0 .16-.16.322-.16.644v.645c0 .484 0 .806.16 1.129.16.322.16.645.32.967.16.323.32.484.32.645l.161.161.801-.806c.32-.483.802-1.29.802-2.096v-.645c0-.16-.16-.322-.16-.483l-.481-.968c-.32-.483-.641-.806-.802-.967l.962.645.961.484c.16 0 .32.16.641.16.16 0 .32.162.641.162.801.161 1.763-.161 2.404-.322.64-.162.961-.484.961-.484s-.16-.161-.16-.322l-.64-.645c-.321-.162-.642-.484-.962-.645-.32-.162-.802-.323-1.282-.323h-.641c-.16 0-.481 0-.641.162-.481 0-.802.16-1.122.322ZM77.077 33.39c-.641-.645-1.602-.806-2.243-.806h-1.122s-.48.161-.962.484a5.015 5.015 0 0 0-1.762 1.45c-.481.646-.641 1.452-.802 1.936V37.42s.481 0 1.122-.322l.962-.484c.32-.161.64-.484.961-.806.32-.323.48-.645.48-1.129.161-.322.161-.645.161-.967v-1.129s0 .161.16.323c0 .16.16.483.32.806l.482.967c.16.323.48.645.8.968.321.322.642.483 1.123.644.32.162.8.323 1.121.323.641.161 1.122.161 1.122.161v-.645c0-.161-.16-.322-.16-.483-.641-.807-.962-1.613-1.763-2.258ZM73.391 27.262c-.64 0-1.121.161-1.121.161s-.481.162-.962.645c-.48.323-1.121.967-1.442 1.774-.16.322-.32.806-.32 1.128 0 .323-.16.645-.16.968V32.905s.48-.161.96-.484c.321-.161.642-.322.962-.645.32-.322.481-.645.801-.967.16-.322.321-.806.321-1.129v-1.128c0-.645-.16-1.129-.32-1.129 0 0 .16.484.48 1.129.16.322.32.645.641.806.32.322.481.645.962.806.32.161.8.484 1.121.484.32.161.802.161 1.122.161h1.122s0-.161-.16-.323c0-.16 0-.16-.16-.322 0-.161-.16-.322-.16-.484-.161-.322-.321-.644-.642-.967-.32-.322-.64-.645-.961-.806-.481-.484-1.282-.645-2.084-.645Z"/><path fill="#AAA" d="M40.32 39.194c2.078.12 3.71.85 4.898 2.193C46.407 42.73 47 44.311 47 46.131c0 1.641-.371 3.103-1.113 4.386-.713 1.253-1.723 2.238-3.029 2.954-1.306.686-2.806 1.029-4.498 1.029-2.82 0-5.256-1.119-7.304-3.356l-.045-.09c0-.12.06-.209.178-.269.149-.089.253-.089.312 0a6.782 6.782 0 0 0 2.45 1.567c.98.358 1.93.537 2.85.537 2.019 0 3.489-.582 4.41-1.745.95-1.194 1.424-2.745 1.424-4.655 0-4.505-2.434-6.758-7.304-6.758-.119 0-.193-.089-.222-.268 0-.209.074-.313.222-.313 2.376 0 4.038-.522 4.988-1.567.98-1.044 1.47-2.52 1.47-4.43 0-1.88-.4-3.267-1.202-4.162-.802-.895-1.916-1.343-3.34-1.343-1.159 0-2.272.299-3.34.895-1.07.567-1.857 1.417-2.361 2.551 0 .03-.045.045-.134.045a.715.715 0 0 1-.312-.09c-.089-.06-.119-.104-.089-.134.653-1.67 1.692-2.983 3.118-3.938 1.425-.985 3.058-1.477 4.899-1.477 2.049 0 3.711.582 4.988 1.745 1.306 1.164 1.96 2.656 1.96 4.476 0 1.61-.52 3.103-1.56 4.475-1.009 1.372-2.374 2.372-4.097 2.998Z"/></svg>