<svg xmlns="http://www.w3.org/2000/svg" width="79" height="80" fill="none"><path fill="#EA6D27" d="M12.194 58.83s-.172-.175 0 0c-.172-.175-.344-.35-.344-.526-.172-.35-.343-.525-.343-.525 0-.526.171-1.051.171-1.577.515 0 1.374-.175 1.718-1.226.171-.525.171-1.226.171-1.926 0-.35 0-.701-.171-.876v-.701c-.516.35-2.405 1.752-2.748 2.627-.172.526-.172.876 0 1.227.171.35.515.525.687.7-.172.175-.172.526-.344.876 0 0-.171-.175-.343-.525l-.515-1.051-.516-1.051c0-.176-.171-.35-.171-.35v-.176l-.516-1.226c0-.35.344-1.051.516-1.577.515 0 1.373 0 1.889-.875.171-.35.343-1.051.343-1.752v-1.751c-.515.174-2.576 1.225-3.091 2.101-.172.175-.172.35-.172.526-.172.7.344 1.226.515 1.401-.171.175-.343.526-.515.7 0 0 0-.174-.172-.35 0-.175-.171-.35-.171-.7l-.344-1.051s0-.175-.171-.35c0-.176-.172-.35-.172-.35l-.344-1.227.687-1.401c.344.175 1.374.175 2.061-.701.344-.35.515-1.051.687-1.752.172-.7.343-1.226.343-1.576-.515.175-2.747.876-3.434 1.576-.687.876-.172 1.752 0 2.102-.172.175-.344.35-.515.701 0 0 0-.175-.172-.526 0-.35-.172-.7-.172-1.226 0-.35-.172-.875-.172-1.226V41.49c.172-.35.687-.876.859-1.227.343.176 1.374.35 2.06-.35.344-.35.688-.876.86-1.576.343-.701.515-1.227.515-1.577-.687 0-2.92.35-3.607 1.051-.171.175-.343.35-.343.526-.344.7 0 1.226.172 1.576-.172.175-.344.35-.687.526v-4.38c.171-.35.687-.875 1.03-1.05.343.175 1.202.7 2.06 0 .344-.35.86-.876 1.203-1.402.343-.525.687-1.05.687-1.401-.687 0-2.92 0-3.778.525-.515.35-.687.701-.687 1.051s0 .701.172.876c-.172.175-.516.35-.687.526v-.526c0-.35.171-.7.171-1.226 0-.525.172-.876.172-1.226s.172-.526.172-.526V31.154c0-.35.172-.7.172-.7.343-.351.858-.701 1.202-.877.343.35 1.03.876 2.06.35.172-.174.516-.35.688-.525l.687-.7c.515-.526.858-1.052 1.03-1.227-.344 0-1.03-.175-1.718-.35-.686 0-1.545 0-2.06.175-.172.175-.344.175-.516.35a1.352 1.352 0 0 0-.343.876v.701c-.172.175-.515.175-.859.35l.344-1.05c0-.176.172-.526.172-.701 0-.175.171-.35.171-.35l.344-.877v-.35s0-.175.171-.35c.172-.35.172-.526.172-.526.344-.35 1.03-.525 1.374-.7.344.35 1.03 1.05 2.061.7.859-.35 2.233-1.751 2.748-2.102-.515-.175-2.748-1.05-3.779-.7a1.769 1.769 0 0 0-1.03.875c-.172.35-.172.701-.172.876-.171 0-.515.175-.858.175 0 0 .171-.175.171-.525l.516-1.051.515-1.05c.172-.351.172-.526.172-.526l.687-1.051c.343-.176 1.03-.35 1.545-.526.172.35.859 1.051 1.89 1.051.514 0 1.03-.35 1.545-.7.343-.176.515-.35.859-.526.171-.175.515-.35.515-.35-.515-.35-2.576-1.402-3.607-1.402-.171 0-.343 0-.515.175-.687.35-.858 1.051-.858 1.227h-.86s0-.176.173-.35c.171-.176.171-.351.343-.526.344-.35.515-.876.515-.876s.172-.175.172-.35c.172-.176.172-.35.172-.35l.343-.526.515-.526c.344-.175 1.03-.175 1.546-.175.172.35.687 1.226 1.717 1.226.516 0 1.203-.175 1.718-.525.687-.175 1.202-.526 1.374-.7-.515-.351-2.233-1.753-3.263-1.753-.516 0-.859.176-1.202.526-.172.35-.344.525-.344.876h-.859l.344-.35.858-.876.516-.526a99504.787 99504.787 0 0 1 .687-.7l.515-.526c.172-.175.515-.35.515-.35h1.546c0 .525.343 1.401 1.374 1.576h.858c.344 0 .687-.175.859-.175.343 0 .687-.175 1.03-.175.344 0 .516-.175.687-.175-.343-.526-2.06-2.102-2.92-2.277h-.686c-.172 0-.344 0-.515.175-.172 0-.172.175-.344.35-.171.175-.343.35-.343.525-.172 0-.515-.175-.859-.175 0 0 .343-.35.859-.7.343-.35.858-.701.858-.701l.687-.526.172-.175s.172 0 .172-.175c.343-.175.515-.35.515-.35.344 0 1.03.175 1.546.175 0 .525.172 1.401 1.202 1.752.515.175 1.202.175 1.889.175.343 0 .687 0 .859-.175h.687c-.344-.526-1.718-2.453-2.576-2.803-.516-.175-.86-.175-1.203 0-.343.175-.515.525-.686.7-.172-.175-.516-.175-.86-.35 0 0 .172-.175.516-.35l1.03-.526c.172-.175 2.061-1.05 3.435-1.926.344.35 1.03.876 1.89.525.858-.35 2.232-2.277 2.575-2.802-.515-.176-2.92-.526-3.778-.176-1.202.526-1.03 1.577-1.03 1.927-.687.35-1.374.526-1.718.7-.343.176-2.06.702-2.06.702 0-.35.171-.701.171-.876.172 0 .515 0 .859-.175.343-.176.687-.526.859-1.051.171-.526.171-1.402.171-2.102 0-.701-.171-1.577-.171-1.752-.172.175-.344.35-.687.525-.344.176-.516.526-.86.701-.686.526-1.201 1.226-1.373 1.752-.343 1.05.343 1.751.687 1.927 0 .175-.172.525-.344.7-.171.35-.171.526-.343.7 0 0-.172 0-.343.176-.172.175-.516.35-.687.525l-1.03.701-.173.175c-.171 0-.171.175-.343.35-.343.176-.515.351-.515.351l-.344.175v-.875c.172 0 .516-.176.859-.351.343-.175.687-.526.687-1.051.172-1.051-.515-3.328-.687-3.854l-.515.526c-.172.35-.515.525-.859.876-.515.7-1.03 1.401-1.03 1.926v.176c0 1.05.687 1.401 1.03 1.576-.172.526-.172 1.226-.343 1.577l-.344.35c-.172.175-.515.525-.859.7-.343.176-.515.526-.858.701l-.344.35s-.343.351-.687.526l-.343.35-.172.176c0-.35-.172-.701-.172-.876.172 0 .516-.175.859-.526.344-.175.515-.7.515-1.226 0-1.05-1.03-3.153-1.202-3.678-.172.35-.687.875-1.03 1.751-.344.701-.687 1.577-.687 2.102 0 1.226.858 1.577 1.374 1.577 0 .525 0 1.226-.172 1.576l-.344.35c-.171.176-.343.35-.515.701-.172.175-.343.526-.515.7-.172.176-.172.351-.172.351s-.171.35-.515.526c-.172.175-.172.35-.343.35 0 .175-.172.175-.172.175l-.172.35c0-.175-.172-.35-.172-.525 0-.175 0-.175-.171-.35.171-.175.515-.35.687-.526.171-.35.343-.7.343-1.226-.172-1.05-1.374-2.978-1.717-3.503l-.86 1.752c-.343.875-.514 1.576-.343 2.277v.175c.172 1.05 1.03 1.226 1.546 1.226 0 .525.172 1.226.172 1.576 0 0-.344.701-.859 1.402-.343.7-.859 1.401-.859 1.401s0 .175-.171.175c0 .175-.172.35-.344.526l-.343.7c-.172-.35-.344-.525-.344-.875.172-.176.515-.35.687-.701.172-.35.344-.7.172-1.401-.344-1.051-1.89-2.628-2.404-3.153 0 .175-.172.525-.344.7-.172.35-.172.7-.343 1.226-.172.876-.172 1.752 0 2.278.343 1.05 1.374 1.226 1.717 1.226.172.525.344 1.226.344 1.576 0 0 0 .175-.172.35-.172.176-.172.526-.344.876-.171.526-.515 1.227-.515 1.227v.175c0 .175-.172.35-.172.525-.171.35-.171.7-.171.7l-.172.351c-.172-.175-.172-.35-.344-.35 0-.175-.171-.175-.171-.35.171-.176.343-.35.515-.876.172-.35.172-.876 0-1.402-.515-.875-2.233-2.452-2.748-2.802-.172.7-.515 3.328 0 4.204 0 0 0 .175.172.175.515.876 1.374.876 1.889.7.172.35.515 1.052.515 1.577 0 0 0 .175-.172.526 0 .35-.171.7-.171 1.05-.172.35-.172.701-.172 1.052 0 .35-.172.525-.172.525s0 .35-.172.876c-.171.35-.171.876-.171.876l-.687-.701c.171-.175.343-.526.343-.876s0-.876-.343-1.401c-.515-.876-2.576-1.927-3.092-2.277v2.102c.172.875.344 1.751.687 2.102.687.876 1.546.7 2.061.525.344.35.687 1.051.859 1.401v4.204c-.172-.175-.344-.175-.344-.35-.171 0-.171-.175-.343-.175.172-.175.172-.526.172-.876s-.172-.876-.515-1.226c-.687-.7-2.92-1.577-3.435-1.752 0 .35.171 1.226.343 1.927.172.876.515 1.577.859 2.102l.172.175c.858.7 1.545.35 1.889.175.343.35.858.876 1.03 1.227v1.576c0 .35 0 .7.172 1.051v.526s0 .525.172.875c0 .35.171.876.171.876-.343-.175-.515-.35-.858-.35.171-.35.343-1.401-.515-2.102-.86-.7-3.092-1.051-3.607-1.051.172.35.343 1.05.687 1.927.343.7.859 1.576 1.202 1.927.859.7 1.718.175 2.061-.176.343.35.859.701 1.202 1.051 0 0 .172.701.344 1.226 0 .35.171.701.171.876 0 .175.172.35.172.35s.172.351.172.701c0 .175.172.35.172.526v.175l.171.35c-.171 0-.343-.175-.515-.175s-.172-.175-.343-.175v-.876c-.172-.35-.344-.7-.86-1.05-.858-.526-3.262-.526-3.777-.526.171.35.515 1.05 1.03 1.751.515.701 1.03 1.402 1.546 1.577h.172c.858.35 1.545-.175 1.889-.526.343.176 1.03.526 1.374.876 0 0 .343.7.515 1.401L7.9 53.05c.172.35.172.525.172.525s0 .175.171.175c0 .175.172.35.344.526.172.35.343.875.343.875-.343 0-.687-.175-.858-.175 0-.175 0-.525-.172-.876-.172-.35-.515-.7-1.03-.875-.516-.175-1.374-.175-2.061-.175-.687 0-1.546.175-1.718.175.172.175.172.35.516.7.171.35.515.526.686.876.516.7 1.203 1.226 1.718 1.401 1.03.35 1.717-.35 1.889-.7.172 0 .515.175.687.35.343.175.515.175.687.35 0 0 0 .176.172.35.171.176.343.526.515.702l.687 1.05.171.176c0 .175.172.175.344.35.172.35.344.525.344.525l.687-.525Z"/><path fill="#EA6D27" d="M66.291 60.407c-.343.35-.686.876-.686.876 0-.35-.172-.7-.172-.876.172 0 .343-.175.515-.35l.344-.35c0-.176.171-.35.171-.526v-.7c-.171-1.052-1.889-2.628-2.232-2.979 0 .176-.172.35-.172.701 0 .35-.172.7-.172 1.051 0 .35-.172.7-.172.876v.876c.172 1.05 1.03 1.401 1.546 1.401v1.577s-.172.175-.343.525l-.516.526-.343.35-.344.35-.515.526-.858.876-.344.35v-.876c.172 0 .515-.175.859-.35.343-.175.515-.7.515-1.226 0-1.051-1.374-2.978-1.717-3.328-.172.175-.344.875-.687 1.4-.344.702-.516 1.402-.516 1.752 0 1.051.86 1.577 1.203 1.752 0 .526-.172 1.226-.172 1.577l-1.03.875s-.172.176-.344.176c-.172.175-.344.175-.344.175s-.343.35-.858.525c-.172.175-.515.35-.515.35-.172.176-.344.176-.344.176v-.876c.343 0 1.03-.175 1.202-.876 0-.175.172-.35.172-.525.172-1.051-1.03-3.153-1.202-3.679 0 .175-.172.35-.344.526-.171.175-.343.525-.515.876-.343.525-.687 1.226-.687 1.576-.172 1.05.515 1.576 1.03 1.927-.171.35-.343 1.05-.515 1.576l-1.03.7s-.172.176-.515.176l-1.03.526c-.344.175-.86.35-1.031.525-.344.175-.515.175-.515.175 0-.35.171-.7.171-.876.172 0 .516 0 .86-.175.343-.175.686-.525.858-1.05.343-1.052-.516-3.154-.687-3.854-.172.175-.172.35-.344.525l-.687.7c-.343.526-.858 1.052-1.03 1.577-.344 1.051.343 1.752.687 2.102l-.687 1.402s-.344.175-.515.175c-.172 0-.344.175-.344.175h-.172l-.858.35s-.172 0-.344.175c-.171 0-.515.176-.687.176l-1.03.35c.172-.35.172-.526.343-.876h.687c.344 0 .516-.175.86-.35.17-.175.17-.35.343-.526.171-.525.171-1.226.171-2.102 0-.7-.171-1.576-.343-1.751-.172.175-.687.525-1.202 1.05l-.687.701c-.172.175-.344.526-.515.7-.516 1.052 0 1.753.343 2.103-.172.35-.687.876-.859 1.226 0 0-.343 0-.687.175h-.171c-2.233.175-5.84.526-5.84.526s-4.121-.175-6.182-.35h-.515c-.344 0-.687-.176-.687-.176a5.321 5.321 0 0 1-.859-1.226c.343-.35.859-1.05.343-2.102-.171-.175-.171-.525-.515-.7l-.687-.701c-.515-.526-1.03-.876-1.202-1.051 0 .35-.172 1.05-.343 1.751 0 .701 0 1.577.171 2.102.172.176.172.35.344.526.172.175.515.35.858.35h.687c.172.175.172.526.344.876l-1.03-.35c-.172 0-.516-.175-.687-.175-.172 0-.344-.176-.344-.176l-.859-.35H29.196c-.172 0-.172-.175-.344-.175-.343-.175-.515-.175-.515-.175l-.687-1.402c.344-.35 1.03-1.05.687-2.102-.171-.525-.515-1.05-1.03-1.576-.172-.175-.344-.526-.687-.7-.172-.176-.344-.351-.344-.526-.171.525-1.03 2.802-.687 3.853.172.526.516.876.86 1.051.343.176.686.176.858.176 0 .175.172.525.172.875 0 0-.172-.175-.516-.175l-1.03-.525-1.03-.526c-.344-.175-.516-.175-.516-.175l-1.03-.7c-.172-.35-.344-1.052-.515-1.577.343-.175 1.03-.876 1.03-1.927 0-.525-.343-1.05-.687-1.576-.172-.35-.343-.526-.515-.876-.172-.175-.344-.526-.344-.526-.343.526-1.374 2.628-1.374 3.679 0 .175 0 .35.172.525.344.7.859.876 1.202.876v.876s-.171 0-.343-.175c-.172-.175-.344-.175-.515-.35-.344-.35-.859-.701-.859-.701s-.172-.175-.344-.175c-.171-.176-.343-.176-.343-.176l-1.374-1.05c-.172-.35-.172-1.052-.172-1.577.344-.175 1.202-.7 1.202-1.752 0-.525-.171-1.226-.515-1.751-.171-.701-.515-1.227-.687-1.402-.343.526-1.717 2.278-1.717 3.328 0 .526.172.876.515 1.227.344.175.515.35.859.35v.876l-.344-.35-.858-.876-.515-.526-.344-.35-.343-.35-.516-.526c-.171-.175-.343-.526-.343-.526v-1.576c.515 0 1.374-.35 1.546-1.401v-.876c0-.35-.172-.7-.172-.876 0-.35-.172-.7-.172-1.051 0-.35-.172-.526-.172-.7-.515.35-2.06 2.101-2.232 2.977v.7c0 .176 0 .351.171.526 0 .175.172.175.344.35.172.176.343.351.515.351 0 .175-.172.526-.172.876 0 0-.343-.35-.687-.876a6.822 6.822 0 0 1-.687-.876l-.686.526.171.35h-.859c0-.175-.171-.526-.343-.876-.172-.35-.515-.7-1.03-.7-1.03-.176-3.263.525-3.779.7l.516.526.858.876c.687.525 1.374 1.05 1.89 1.05h.171c1.03 0 1.374-.7 1.546-1.05.515.175 1.202.175 1.546.35l.343.35c.172.175.343.526.687.876.172.35.515.525.687.876l.343.35s.344.35.516.7l.343.351.172.175c-.344 0-.687.175-.859.175 0-.175-.172-.525-.515-.875-.172-.35-.687-.526-1.202-.526-1.03 0-3.092 1.051-3.607 1.226.344.175.859.701 1.717 1.051.688.35 1.546.7 2.061.7 1.203 0 1.546-.875 1.546-1.4.515 0 1.202 0 1.546.175l.343.35c.172.175.344.35.687.526.172.175.515.35.687.525a.527.527 0 0 0 .344.175s.343.175.515.526c.171.175.343.175.343.35.172 0 .172.175.172.175l.172.175c-.172 0-.344.176-.516.176-.171 0-.171 0-.343.175-.172-.175-.343-.526-.515-.7-.344-.176-.687-.351-1.202-.351-1.03.175-2.92 1.401-3.435 1.751l1.717.876c.859.35 1.546.526 2.233.526h.172c1.03-.175 1.202-1.051 1.202-1.577.515 0 1.202-.175 1.545-.175 0 0 .687.35 1.374.876.687.35 1.374.876 1.374.876s.172 0 .172.175c.172 0 .343.175.515.35.344.175.859.35.859.35-.344.176-.515.35-.859.35-.172-.174-.343-.525-.687-.7-.343-.175-.687-.35-1.374-.175-1.03.35-2.576 1.927-3.091 2.452.172 0 .515.175.687.35.343.176.687.176 1.202.351.859.175 1.718.175 2.233 0 1.03-.35 1.202-1.401 1.202-1.752.515-.175 1.202-.35 1.546-.35 0 0 .171 0 .343.175.172.175.515.175.859.35.515.176 1.202.526 1.202.526h.172c.171 0 .343.175.515.175.343.175.687.175.687.175l.343.176c-.171.175-.343.175-.343.35-.172 0-.172.175-.344.175-.171-.175-.343-.35-.858-.525-.344-.176-.859-.176-1.374 0-.859.525-2.405 2.277-2.748 2.802.687.175 3.263.526 4.122 0 0 0 .171 0 .171-.175.86-.525.687-1.401.687-1.927.344-.175 1.03-.525 1.546-.525 0 0 .172 0 .515.175.344.175.687.175 1.03.35.344.175.688.175 1.031.175h.515c1.03.176 2.576.35 3.95.526h.344c-4.637 1.576-5.84 4.554-5.84 4.554h2.061c.516-1.751 3.435-3.153 5.668-3.853 2.06.875 4.98 2.277 5.667 3.853h2.061s-1.202-2.978-5.839-4.554h.172c1.374-.175 3.778-.35 5.324-.7.172 0 .343 0 .515-.176.343-.175.687-.175 1.03-.35.344 0 .516-.175.516-.175.343.175 1.03.35 1.545.7 0 .35-.172 1.401.687 1.927h.172c1.03.526 3.435.175 4.122 0-.344-.525-1.718-2.452-2.748-2.803-.515-.175-1.03-.175-1.374 0-.344.176-.687.35-.859.526-.172 0-.172-.175-.343-.175-.172-.175-.344-.175-.344-.35l.344-.176s.343-.175.687-.175c.171 0 .343-.175.515-.175h.172s.515-.175 1.202-.526c.343-.175.515-.175.858-.35.172-.175.344-.175.344-.175.515 0 1.202.35 1.546.35 0 .526 0 1.402 1.202 1.752.515.175 1.374.175 2.232 0 .344 0 .86-.175 1.203-.35.343-.176.687-.176.687-.35-.516-.526-2.061-2.103-3.092-2.453-.515-.175-1.03 0-1.374.175-.343.175-.515.526-.687.7-.171-.174-.515-.174-.858-.35l.687-.35c.171-.175.343-.175.515-.35.172 0 .172-.175.172-.175s.687-.35 1.373-.876c.688-.35 1.374-.876 1.374-.876.516 0 1.203 0 1.546.175 0 .35.172 1.226 1.202 1.577h.172c.515.175 1.374-.176 2.233-.35.858-.351 1.545-.701 1.717-.877-.515-.35-2.404-1.751-3.435-1.751-.515 0-1.03.175-1.202.35-.343.175-.515.526-.515.7-.172 0-.172 0-.344-.174-.171 0-.343-.176-.515-.176l.344-.175.171-.175c.172 0 .172-.175.344-.35.343-.175.515-.526.515-.526s.172-.175.344-.175c.171-.175.515-.35.687-.525.171-.176.515-.35.686-.526l.344-.35c.343-.175 1.202-.175 1.546-.175.171.35.515 1.4 1.545 1.4.515 0 1.374-.35 2.061-.7.687-.35 1.374-.876 1.718-1.05-.516-.351-2.577-1.402-3.607-1.227-.515 0-1.03.175-1.202.526-.344.35-.344.7-.515.876-.172 0-.516 0-.86-.176l.173-.175.343-.35.687-.7.344-.351c.171-.175.515-.526.686-.876.172-.35.516-.526.688-.876l.343-.35c.343-.175 1.03-.35 1.546-.35.171.35.686 1.226 1.545 1.05h.172c.515-.175 1.202-.525 1.89-1.05.343-.35.686-.526.858-.701l.515-.526c-.515-.175-2.748-.875-3.778-.7-.516.175-.859.35-1.03.7-.172.35-.344.701-.344.876h-.859l.172-.35-.687-.526c-1.03 0-1.374.526-1.718.876Z"/><path fill="#EA6D27" d="M73.504 47.444c.172-.7.344-1.226.344-1.226.343-.35.859-.7 1.202-1.05.344.35 1.202.875 2.06.174.516-.35.86-1.05 1.203-1.926.343-.701.515-1.577.687-1.927-.687.175-2.92.525-3.606 1.05-.86.701-.688 1.752-.516 2.103-.171.175-.515.35-.858.35 0 0 0-.35.171-.876 0-.525.172-.876.172-.876v-.525c0-.35 0-.7.172-1.051v-1.577c.172-.35.687-.876 1.03-1.226.344.175 1.202.526 1.89-.175 0 0 .171 0 .171-.175.343-.35.687-1.226.859-2.102.171-.876.343-1.577.343-1.927-.515.175-2.748.876-3.434 1.752-.344.35-.516.875-.516 1.226 0 .35.172.7.172.876 0 0-.172.175-.343.175-.172.175-.344.175-.344.35v-4.204c.172-.35.515-1.05.859-1.401.343.175 1.374.35 2.06-.526.344-.35.516-1.226.688-2.102.171-.875.171-1.751 0-2.102-.516.35-2.576 1.402-3.263 2.278-.344.525-.344.875-.344 1.4 0 .351.172.702.344.877l-.687.7s0-.525-.172-.875c0-.35-.172-.876-.172-.876v-.526c0-.35-.172-.7-.172-1.05 0-.351-.171-.701-.171-1.052 0-.35-.172-.525-.172-.525.172-.35.343-1.051.687-1.577.343 0 1.374.175 1.889-.7v-.176c.515-.875.172-3.503 0-4.203-.515.35-2.404 1.751-2.748 2.802-.172.526-.172 1.051 0 1.401.172.35.344.701.515.876 0 .175-.171.175-.171.35-.172.176-.172.35-.344.35l-.172-.35s-.171-.35-.171-.7c0-.175-.172-.35-.172-.526v-.175s-.172-.525-.515-1.226c-.172-.35-.172-.525-.344-.876-.171-.175-.171-.35-.171-.35 0-.526.343-1.051.343-1.576.515 0 1.374 0 1.717-1.227.172-.525.172-1.401 0-2.277 0-.35-.171-.876-.343-1.226-.172-.35-.172-.7-.344-.7-.515.525-2.06 2.101-2.404 3.152-.172.526 0 1.051.172 1.402.172.35.515.525.687.7-.172.175-.172.526-.344.876 0 0-.171-.35-.343-.876-.172-.175-.172-.35-.344-.525 0-.175-.171-.175-.171-.175l-.687-1.402c-.344-.7-.86-1.401-.86-1.401 0-.526 0-1.226.173-1.577.343 0 1.202-.175 1.545-1.226v-.175c.172-.525-.171-1.401-.343-2.277-.344-.876-.687-1.577-.859-1.752-.343.526-1.717 2.453-1.889 3.504 0 .525.172 1.05.343 1.226.172.35.516.525.687.525 0 .175 0 .175-.171.35 0 .176-.172.351-.172.526l-.172-.35-.172-.175c0-.175-.171-.175-.343-.35-.172-.351-.515-.526-.515-.526s-.172-.175-.172-.35c-.172-.176-.343-.526-.515-.701-.172-.175-.344-.526-.515-.7-.172-.176-.172-.351-.172-.351-.172-.35-.172-1.226-.172-1.577.344-.175 1.374-.525 1.374-1.576 0-.526-.343-1.401-.687-2.102-.343-.7-.859-1.401-1.03-1.752-.344.526-1.374 2.628-1.202 3.679 0 .525.171 1.05.515 1.226.343.35.687.35.858.525 0 .175 0 .526-.171.876l-.172-.175c-.172-.175-.172-.35-.343-.35a2.969 2.969 0 0 0-.687-.526l-.344-.35c-.172-.175-.515-.526-.859-.7-.343-.176-.515-.526-.858-.701l-.344-.35c-.172-.351-.343-1.052-.343-1.577.343-.175 1.202-.7 1.03-1.577v-.175c-.172-.525-.515-1.226-1.03-1.927-.344-.35-.515-.7-.859-.876l-.515-.525c-.172.525-.859 2.803-.687 3.854.172.525.343.875.687 1.05.343.176.687.35.859.35v.877l-.172-.175s-.344-.176-.516-.35c-.171-.176-.343-.176-.343-.351-.172 0-.172-.175-.172-.175l-1.03-.7a2.376 2.376 0 0 1-.687-.526c-.172-.176-.344-.176-.344-.176-.171-.175-.171-.525-.343-.7-.172-.35-.172-.526-.343-.7.343-.176 1.202-.877.858-1.928-.172-.525-.687-1.226-1.374-1.751-.343-.35-.687-.526-.858-.701a2.377 2.377 0 0 1-.687-.526c0 .35-.172 1.051-.172 1.752 0 .7 0 1.577.172 2.102.171.526.515.876.858 1.051.344.175.687.175.859.175 0 .175.172.526.172.876l-2.061-.7c-.172-.176-.859-.35-1.718-.701 0-.35.172-1.402-1.03-1.927-.859-.35-3.263 0-3.778 0 .343.525 1.717 2.452 2.576 2.803 1.03.35 1.717-.176 1.889-.526 1.546.876 3.263 1.752 3.435 1.927l1.03.525c.344.176.515.35.515.35-.343.176-.515.176-.858.351-.172-.175-.344-.525-.687-.7-.344-.176-.687-.176-1.202 0-.86.35-2.233 2.277-2.577 2.802h.688c.343 0 .515 0 .858.175.687 0 1.374 0 1.89-.175 1.03-.35 1.202-1.226 1.202-1.752.515-.175 1.03-.175 1.545-.175 0 0 .344.175.515.35.172 0 .172.176.344.176s.172.175.172.175l.687.525s.343.35.858.701c.344.35.859.7.859.7-.344 0-.687.176-.859.176 0-.175-.171-.35-.343-.526l-.344-.35c-.172 0-.343-.175-.515-.175h-.687c-1.03.175-2.576 1.927-2.92 2.277.172 0 .344.175.688.175.343 0 .686.175 1.03.175.343 0 .687.175.859.175h.858a1.612 1.612 0 0 0 1.374-1.576h1.546s.172.175.515.35a7400.79 7400.79 0 0 1 .859.876l.343.35.516.526c.343.35.515.7.858.876l.344.35h-.86c0-.175-.17-.525-.342-.876-.172-.35-.687-.525-1.203-.525-1.03 0-2.92 1.401-3.263 1.752.172.175.859.35 1.374.7.687.35 1.374.526 1.717.526 1.031 0 1.546-.876 1.718-1.226.515 0 1.202.175 1.546.175l.858 1.05s.172.176.172.351c.172.175.172.35.172.35s.343.35.515.876c.172.175.343.526.343.526.172.175.172.35.172.35h-.859c0-.35-.171-1.051-.858-1.226-.172 0-.344-.175-.515-.175-1.03-.175-3.092 1.05-3.607 1.226.172 0 .343.175.515.35s.516.35.859.526c.515.35 1.202.7 1.546.7 1.03.175 1.545-.525 1.889-1.05.343.175 1.03.35 1.545.525l.687 1.05s.172.176.172.526l.515 1.051c.172.35.344.876.516 1.051.171.35.171.526.171.526-.343 0-.687-.175-.858-.175 0-.175 0-.526-.172-.876s-.515-.7-1.03-.876c-1.031-.35-3.092.526-3.779.7.344.35 1.718 1.752 2.748 2.103 1.03.35 1.717-.35 2.06-.701l1.375.7s.171.35.171.526c0 .175.172.35.172.35v.176l.344.875s0 .176.171.35c0 .176.172.526.172.701l.344 1.051c-.344-.175-.516-.175-.859-.35v-.7c0-.35-.172-.526-.344-.876-.171-.176-.343-.176-.515-.35-.515-.176-1.202-.176-2.06-.176-.688 0-1.546.175-1.718.35.172.176.515.701 1.03 1.227l.687.7c.172.175.516.35.687.526 1.03.525 1.718 0 2.061-.35.344.175.859.7 1.202.875 0 0 0 .35.172.7v.526s0 .176.172.526c0 .35.172.7.172 1.226s.171.876.171 1.226v.526a2.377 2.377 0 0 1-.687-.526c0-.175.172-.525.172-.876 0-.35-.172-.7-.687-1.05-.859-.526-3.091-.526-3.778-.526.172.175.343.876.687 1.401.343.526.687 1.226 1.202 1.401.859.526 1.717.176 2.06 0 .344.35.86.701 1.031 1.052V40.437c-.171-.174-.515-.35-.687-.525.172-.35.344-.876.172-1.576-.172-.175-.172-.35-.343-.526-.687-.7-3.092-1.05-3.607-1.05 0 .35.344.875.515 1.576.172.525.516 1.226.859 1.576.687.7 1.717.526 2.06.35.344.35.688.876.86 1.227V43.416c0 .35-.172.7-.172 1.226 0 .35-.172.875-.172 1.226 0 .35-.172.525-.172.525-.171-.175-.343-.525-.515-.7.344-.35.687-1.226 0-2.102-.687-.876-2.748-1.577-3.435-1.577 0 .175.172.876.344 1.577.172.7.343 1.401.687 1.751.687.876 1.546.701 2.06.701l.688 1.401-.344 1.226s0 .176-.172.35c0 .176-.171.351-.171.351l-.344 1.051c0 .175-.171.526-.171.7 0 .176-.172.351-.172.351-.172-.175-.344-.525-.516-.7.344-.176.688-.701.516-1.402 0-.175-.172-.35-.172-.525-.515-.876-2.576-1.927-3.091-2.102v1.751c0 .7.171 1.402.343 1.752.515.876 1.374 1.05 1.89.876.171.35.514 1.05.514 1.576l-.515 1.226v.176s-.171.175-.171.35l-.516 1.05-.515 1.052c-.172.35-.343.525-.343.525-.172-.35-.172-.525-.344-.875.172-.176.515-.35.687-.701.172-.35.172-.7 0-1.226-.343-.876-2.233-2.277-2.748-2.628v.7c0 .351 0 .526-.171.877 0 .7 0 1.401.171 1.927.344 1.05 1.203 1.226 1.718 1.226.171.525.171 1.05.171 1.576 0 0-.171.35-.343.526-.172.175-.172.35-.172.35 0 .175-.172.175-.172.175l-.515.7.687.526s.172-.35.344-.525c.171-.175.171-.35.343-.35 0-.176.172-.176.172-.176l.687-1.05c.172-.351.343-.526.515-.701.172-.175.172-.35.172-.35.172-.176.515-.176.687-.351.343-.175.515-.175.687-.35.171.35.858 1.226 1.889.7.515-.175 1.202-.7 1.717-1.4.344-.351.516-.702.687-.877.172-.35.344-.525.515-.7-.343 0-1.03-.176-1.717-.176s-1.546 0-2.06.176a1.77 1.77 0 0 0-1.031.875c-.172.35-.172.701-.172.876-.172 0-.515.175-.859.175l.344-.7c.172-.175.172-.35.343-.526 0-.175.172-.175.172-.175s0-.175.172-.525l.515-1.051c.343-.701.515-1.402.515-1.402.344-.35.859-.7 1.374-.876.344.35.859.876 1.89.526h.171c.515-.175 1.03-.876 1.546-1.577.515-.7.858-1.4 1.03-1.751-.687 0-2.92 0-3.778.525-.515.35-.687.7-.859 1.051-.172.35 0 .7 0 .876-.172 0-.172.175-.343.175-.172 0-.344.175-.516.175l.172-.35v-.175c0-.175.172-.35.172-.526.172-.35.172-.7.172-.7s0-.175.171-.35c-.171-.701-.171-.876 0-1.227Z"/><path fill="#AAA" d="M33.396 53.5c-.059 0-.088-.092-.088-.275 0-.183.03-.274.088-.274 1.292 0 2.26-.076 2.906-.229.675-.183 1.16-.488 1.453-.915.293-.457.44-1.128.44-2.012V32.779c0-2.074-.47-3.11-1.409-3.11-.704 0-1.834.579-3.39 1.738l-.088.046c-.117 0-.205-.061-.264-.183-.059-.153-.059-.26 0-.32l8.497-6.359a.689.689 0 0 1 .308-.091c.059 0 .118.03.176.091.059.061.088.122.088.183v25.02c0 .916.132 1.587.396 2.013.265.427.72.732 1.365.915.675.153 1.673.229 2.994.229.088 0 .132.091.132.274 0 .183-.044.275-.132.275-1.174 0-2.099-.015-2.774-.046l-3.962-.046-3.83.046c-.705.03-1.673.046-2.906.046Z"/></svg>