<svg xmlns="http://www.w3.org/2000/svg" width="267" height="77" fill="none"><path fill="#C90117" d="M265.561 38.754a.352.352 0 0 1-.068-.169c.023.054.045.115.068.17.023-.491-.032-.947-.194-1.37-.393-1.02-.774-2.047-1.161-3.074-.15-.931-.605-1.618-1.028-2.107-1.234-1.436-2.674-2.224-4.209-2.535-.244-.27-.529-.055-.788-.157-1.787-.718-3.601-.55-5.415-.127-.281.066-.559-.025-.836.118-.699.355-1.437.32-2.155.494-.952.236-1.919.338-2.873.627-.575.172-1.156.296-1.731.433-.586.135-1.173.271-1.759.401a.7.7 0 0 0-.413.092c-.507.036-1.017-.06-1.517.186-.071.004-.143.003-.214.007-1.52.066-3.034-.107-4.553.15-2.015-.13-4.029-.286-6.008-.949-.367-.122-.725-.304-1.107-.277-.486-.09-.875-.535-1.296-.85-.333-.248-.642-.566-.962-.85-.262-.28-.563-.39-.858-.51-.392-.285-.784-.575-1.176-.86-.753-.622-1.507-1.238-2.26-1.86.019-.341-.15-.495-.283-.66-.474-.603-.979-1.154-1.522-1.592-.637-.517-1.136-1.331-1.729-1.944-.267-.281-.53-.742-.67.404-.171-.597-.366-.913-.598-1.176.065-.447.129-.912-.034-1.311-.473-1.149-.277-2.425-.201-3.632.12-1.805.288-3.615-.101-5.33-.318-1.414-.756-2.79-1.666-3.565-.109-.194-.254-.37-.411-.255-.236.168-.381-.003-.5-.245-.205-.418-.489-.508-.798-.534-.212-.34-.48-.352-.76-.317l.001-.03c-.197-.244-.432-.112-.646-.147-.024.03-.049.041-.072.04.024-.017.048-.022.072-.04-1.069-.348-2.158-.128-3.241-.141-3.936-.01-7.877-.012-11.812-.02-.281.047-.553-.014-.833-.014-2.322-.019-4.644-.001-6.966.004-.149-.004-.292-.001-.441-.004-.107-.009-.213-.023-.321-.026-9.394-.011-18.783-.028-28.177-.033-3.858-.001-7.717.01-11.575.01l-.637.002c-4.262-.004-8.519-.014-12.782-.019l-8.108-.01c-1.852-.008-3.709-.028-5.561-.023-3.566 0-7.132.006-10.693.012-1.518 0-3.03-.005-4.548-.005l-.649.002-.22-.005c-.179-.01-.357-.026-.541-.03-4.501-.01-9.002-.02-13.503-.018-3.405-.002-6.805.014-10.21.017-.108-.002-.221.001-.328-.001l-1.739-.005c-2.56 0-5.126-.007-7.686-.007-.25-.012-.505-.03-.755-.03-3.638-.008-7.275-.015-10.913-.017-3.364-.001-6.734.01-10.098.014-.291 0-.577-.001-.869.004-.214-.005-.428-.046-.643-.015-.4.056-.822.034-1.19.26-.64.391-.836 1.332-.918 2.324-.104.111-.096.291-.112.458-.205 1.857-.148 3.738-.269 5.609-.056.878-.314 1.704-.257 2.597l-.043 1.065c-.304.531.058 1.336-.33 1.836-.538.125-1.023.478-1.423 1.05-.345.494-.724.91-1.103 1.338a1.472 1.472 0 0 0-.577.208c-2.156 1.303-4.154 3.23-6.386 4.226-.445.199-.886.458-1.326.693-1.143.237-2.26.701-3.422.722-1.245.024-2.485-.178-3.727-.016-1.63-.068-3.25-.25-4.882-.007-1.397-.35-2.8-.694-4.197-1.044-.817-.18-1.642-.278-2.44-.554-.932-.321-1.876-.433-2.822-.485-1.73-.101-3.442.302-5.14.86-.646-.146-1.228.325-1.84.502-.864.057-1.614.782-2.42 1.158-.701.684-1.51 1.192-2.086 2.088-1.063 1.657-1.47 3.796-1.335 6.14.078 1.24.204 2.465.559 3.593.146.632.25 1.304.639 1.709-.011.209.026.377.112.547.807 1.635 1.9 2.714 3.067 3.508 2.409 1.63 4.981 1.858 7.589 1.602.256-.023.523.055.765-.15.178.035.36.135.528.085 1.486-.39 2.99-.319 4.477-.75 2.266-.66 4.572-.737 6.86-1.055.675-.098 1.35-.213 2.032-.323.748.06 1.503.113 2.252.172.43.166.855.362 1.287.486 1.33.39 2.66.786 3.976 1.296 1.221.472 2.31 1.485 3.547 1.831 1.855.876 3.519 2.268 4.91 4.407.62.949 1.027 2.155 1.58 3.174.61 1.128.843 2.408.856 3.88.01 1.839-.075 3.68.156 5.5.172 1.314.447 2.536 1.018 3.549.303.797.686 1.483 1.18 2.003.976-.001 1.947.004 2.923.003.107.002.214-.001.327.001l16.134.02 3.358.007c.143-.002.292.001.435-.002.976 0 1.946.004 2.923.003l4.876.007 11.264.013 12.234.018c5.704.009 11.407.017 17.111.019.107.002.214-.001.327.002.363.002.72-.001 1.084.001l19.277.022c.435-.002.869.002 1.298 0 5.596.006 11.193.012 16.783.024 1.768 0 3.536.005 5.304.004 1.447.005 2.888.002 4.335.007 1.405.003 2.815.006 4.221.003 4.477.003 8.954.013 13.425.016 3.899.008 7.799.01 11.692.017.107.003.215 0 .328.002.363.002.72-.001 1.083.001 1.298 0 2.602.002 3.9.008l1.732.005.869.002c.685-.002 1.37.003 2.06 0l5.739.01c.215-.001.435-.002.649.003.685-.002 1.37.002 2.06 0 .229-.377.603-.566.659-1.181.133-.326.342-.602.346-1.033.101-.764.185-1.54.41-2.253.09-.285-.029-.546-.052-.822-.096-1.253-.347-2.462-.359-3.737.147-.661.451-1.217.545-1.915.026-.322.19-.48.32-.687.272-.185.448-.552.663-.846.485-.39.794-1.13 1.246-1.599a28.195 28.195 0 0 1 3.653-3.2c1.539-1.143 3.083-2.226 4.741-2.852.407-.331.867-.428 1.257-.814.018-.006.037-.017.055-.053.51-.161 1.035-.209 1.53-.496.242-.168.498-.162.754-.18.989-.001 1.956-.38 2.946-.422.703-.025 1.404-.23 2.104-.37a.365.365 0 0 0 .173-.037c1.941.26 3.89-.089 5.829.005.548.252 1.119.266 1.673.506 1.338.57 2.691 1.033 4.036 1.543.833.517 1.724.633 2.607.792.723.125 1.459.226 2.193.183.53-.03 1.07-.19 1.585-.07 1.616.379 3.206.392 4.77-.565 1.346-.507 2.53-1.479 3.502-3.072.212-.175.419-.355.552-.687.563-.927 1.104-1.878 1.458-3.049.664-1.888.607-3.78.188-5.688Z"/><path fill="#fff" d="M71.692 25.264h12.732v4.865h-7.821v9.802h6.732v4.883h-6.732V59.48h-4.91V25.264ZM101.47 52.832c0 4.787-2.35 7.187-7.059 7.199-4.696 0-7.04-2.4-7.04-7.2V31.906c0-4.787 2.344-7.18 7.04-7.18 4.708 0 7.059 2.393 7.059 7.18v20.927Zm-4.91-20.927c0-1.531-.708-2.31-2.13-2.321h-.037c-1.41 0-2.112.772-2.112 2.322v20.926c0 1.544.708 2.322 2.13 2.322 1.435 0 2.15-.772 2.15-2.322V31.905ZM119.386 52.832c0 4.787-2.351 7.187-7.059 7.199-4.696 0-7.041-2.4-7.041-7.2V31.906c0-4.787 2.345-7.18 7.041-7.18 4.708 0 7.059 2.393 7.059 7.18v20.927Zm-4.91-20.927c0-1.531-.708-2.31-2.131-2.321h-.035c-1.411 0-2.113.772-2.113 2.322v20.926c0 1.544.708 2.322 2.13 2.322 1.435 0 2.149-.772 2.149-2.322V31.905ZM132.392 14.175h4.91v38.657c0 4.787-2.351 7.187-7.059 7.199-4.696 0-7.041-2.4-7.041-7.2V31.924c0-4.787 1.798-7.186 5.393-7.198 1.559 0 2.827.365 3.797 1.095V14.175Zm0 17.73c-.012-1.531-.72-2.303-2.131-2.303-1.434 0-2.148.772-2.148 2.322v20.908c0 1.544.708 2.322 2.13 2.322 1.435 0 2.149-.772 2.149-2.322V31.906ZM150.271 25.264h4.91v14.66h4.285v-14.66h4.911v34.21h-4.911v-14.66h-4.285V59.48h-4.91V25.264ZM182.638 52.832c0 4.788-2.351 7.187-7.059 7.199-4.696 0-7.041-2.4-7.041-7.199V25.264h4.911v27.568c0 1.544.708 2.322 2.13 2.322 1.435 0 2.149-.772 2.149-2.322V25.264h4.91v27.568ZM193.322 25.263h3.797v4.865h-3.797v29.346h-4.911V30.128h-3.523v-4.865h3.523V14.175h4.911v11.088Z"/></svg>