<svg xmlns="http://www.w3.org/2000/svg" width="230" height="38" fill="none"><path fill="#FF513E" d="M10.567 14.321c2.864 0 6.355-.22 7.66-.63 0 2.671-1.56 3.74-2.714 3.856-1.56.11-3.497.295-5.764.295-.522 0-1.078 0-1.6.075-.185.52-.296 1.076-.446 1.63-.969 4.261-1.45 6.672-1.45 8.117 0 .74.371 1.446.371 1.856-.852.596-2.377.89-3.641.89-1.82 0-2.418-.63-2.418-2 0-.85.186-1.74.412-2.67.336-1.48.632-2.926 1.003-4.412C3.84 14.287 5.36 8.951 5.36 5.84c0-.555.035-1.225-.185-1.15-.482.11-.969.11-1.189.11-.11-.035-.15-.22-.11-.63 0-.336.075-.706.22-1.035.667-1.336.968-1.596 2.116-1.706 3.12-.294 6.28-.445 9.44-.445 1.484 0 2.864-.15 3.902-.15 1.484 0 2.081.15 2.563.665-.261 1.78-1.3 3.856-2.934 3.856-.447 0-1.154-.925-3.12-.925H14.69c-1.038 0-2.006-.075-2.789-.075h-1.71c.371.41.522.78.522 1.185 0 .22 0 .37-.035.63a207.672 207.672 0 0 1-1.82 8.151h1.71ZM28.742 9.616c4.053 0 6.802 2.48 6.802 6.596 0 6.967-5.427 14.008-12.043 14.008-4.088 0-6.801-2.595-6.801-6.89 0-3.597 1.264-6.817 3.606-9.563 2.302-2.561 5.201-4.15 8.436-4.15Zm-1.119 2.74c-3.31 0-5.461 7.117-5.461 11.378 0 2.185.666 3.78 2.452 3.78 3.27 0 5.387-7.04 5.387-11.302.005-2.19-.592-3.855-2.378-3.855ZM48.625 9.616c4.053 0 6.801 2.48 6.801 6.596 0 6.967-5.427 14.008-12.042 14.008-4.088 0-6.801-2.595-6.801-6.89 0-3.597 1.264-6.817 3.606-9.563 2.308-2.561 5.207-4.15 8.436-4.15Zm-1.113 2.74c-3.31 0-5.462 7.117-5.462 11.378 0 2.185.667 3.78 2.453 3.78 3.27 0 5.386-7.04 5.386-11.302 0-2.19-.591-3.855-2.377-3.855ZM78.028 22.918c.15 0 .22.11.22.335 0 2.74-3.936 6.706-6.58 6.706-2.157 0-3.346-1.26-3.346-4.04 0-.89.11-2.11.22-2.857-3.05 5.001-6.169 7.117-8.731 7.117-2.343 0-3.752-1.965-3.752-4.931 0-6.932 5.427-15.419 11.747-15.419 1.45 0 2.487.37 3.566.966.557-2.185.852-4.186.852-5.706 0-.596-.075-1.15-.37-1.63 1.298-.74 2.713-1.11 3.791-1.11 1.415 0 2.082.74 2.082 2.075 0 1.15-.22 2.226-.482 3.336-1.86 7.931-3.681 13.603-3.681 16.748 0 .74.22 1.225.411 1.555.371-.075 1.079-.596 1.82-1.295 1.155-1.26 1.903-1.85 2.233-1.85Zm-7.578-7.781c-.26-1.446-1.56-2.446-2.974-2.446-2.975 0-6.019 6.377-6.019 11.672.076 1.295.447 1.925 1.189 1.925 1.003 0 2.638-1.815 4.5-4.89a55.116 55.116 0 0 0 3.304-6.261Z"/><path fill="#454342" d="M113.269 10.8c0 10.528-8.216 19.604-17.174 19.604-2.603 0-5.166-.85-7.248-2.445-.034-.335.035-.705.186-1.41 1.525-6.782 3.496-14.303 4.349-18.94.075-.37.11-.665.11-.89 0-1.11-1.114-.78-1.114-1.596a5 5 0 0 1 .853-2.78c2.377-.89 5.688-1.596 8.882-1.596 6.883.012 11.156 3.012 11.156 10.053Zm-5.578 1c0-4.856-2.192-7.746-6.279-7.746-.597 0-1.896.15-2.9.37.186.555.262 1.11.262 1.705 0 2.781-2.749 13.118-3.937 18.899.336 1.445 1.264 2 3.42 2 5.346 0 9.434-7.781 9.434-15.227ZM129.844 24.029a2.633 2.633 0 0 1-.221 2.925c-.632.78-1.559 1.48-2.789 2-1.861.85-3.792 1.26-5.873 1.26-4.349 0-6.836-1.89-7.027-5.706-.186-3.815 1.154-7.561 3.716-10.336 2.488-2.966 5.688-4.556 8.993-4.556 3.119 0 4.61 1.336 4.569 3.856 0 2.52-3.27 5.747-8.285 7.522-1.189.41-3.607 1.48-3.642 2.445-.034.89.076 1.665.412 2.15.818 1.186 2.157 1.89 3.566 1.706 2.644-.266 4.65-1.41 6.581-3.266Zm-10.182-3.11c.632-1.37 1.745-1.856 3.12-2.596 2.377-1.295 3.049-2.521 3.42-3.816.372-1.295-.075-2.41-1.414-2.41-2.006 0-3.682 2.555-4.761 7.15.006 0-.144.63-.365 1.671ZM140.587 25.253c1.67-1.225 2.975-2.26 3.346-2.26.295 0 0 .705-1.154 2.555-1.711 2.67-5.387 4.52-7.248 4.52-1.971 0-3.31-1.074-3.31-3.37-.035-.815.11-1.705.336-3.11.075-.295.11-.63.151-.965-1.34.965-1.896 1.335-2.006 1.335-.151 0 .707-.78 1.82-1.74-.035.035.076-.075.336-.295 1.375-5.856 3.01-11.822 4.761-17.603.185-.555.666-1.186 1.264-1.596a2.845 2.845 0 0 1 1.82-.48c1.079.075 2.116.37 3.16 1.15.151.15.261.336.296.556 0 .034.11.48.11 1.335 0 .37 0 .815-.075 1.295-.186 1.555-.893 3.41-1.67 5.226-1.264 2.89-3.12 5.411-3.827 6.336l-.035.22c-.075.335-.15.705-.261 1.075-.261 1.185-.927 4.261-.927 5.186 0 .74 0 1.555.371 1.555 1.072 0 1.959-.37 2.742-.925Zm-1.374-9.192c.818-1.185 1.821-2.856 2.603-4.706.783-1.74 1.45-3.52 1.601-4.931.034-.52.075-1 .034-1.37 0-.37-.481-.52-.666-.185-.11.185-.221.41-.296.63a64.72 64.72 0 0 0-1.67 5c-.603 1.822-1.125 3.706-1.606 5.562ZM152.183 24.884c1.636-1.78 2.453-2.26 2.453-1.52 0 .37-.185 1.034-.597 2-1.038 2.41-4.053 4.706-5.984 4.706-1.971 0-3.16-1.11-3.31-3.411-.076-.815 0-3.186.742-5.966.632-2.226.968-4.411 1.229-5.782.151-.74.185-1.445.185-2 0-.705-.185-1.295-.556-1.855 1.299-.48 2.563-.781 3.716-.781.632 0 1.415.11 1.862.595.446.48.597 1.11.446 1.926-.11.595-.22 1.185-.412 1.855-.556 2.076-1.229 4.411-1.449 5.446-.296 1.295-.557 3.411-.557 4.486 0 .74.035 1.596.412 1.596.446 0 1.078-.595 1.82-1.295Zm1.786-24.09c-1.786 0-3.531.335-5.056.925.076.185.186.335.186.52.035 1.48-.597 3.596-.597 4.671 0 .596.411 1.37 1.971 1.035 2.157-.445 2.116-.41 3.751-2.925.969-1.48 1.299-2.11 1.485-2.815.034-.185.034-.295.034-.446-.029-.56-.62-.965-1.774-.965ZM169.837 11.356c0-.665-.411-1.89-.852-2.37a9.998 9.998 0 0 1 1.374-.11c2.679 0 3.867.705 3.867 2.706 0 1.595-1.229 4.486-3.902 8.596-3.792 5.856-7.062 10.042-11.259 10.042-.261 0-.522 0-.783-.075 0-.52.075-1.295.075-1.925.035-2.671-.412-7.597-1.154-11.933-.521-3-.893-4.555-1.71-5.185 1.449-.89 2.864-1.37 4.163-1.37 1.56 0 2.487 1.075 2.638 3.37.371 2.706.481 6.521.481 9.672 0 .85 0 1.665-.034 2.52a60.496 60.496 0 0 0 5.015-7.706c1.49-2.636 2.081-4.752 2.081-6.232ZM189.76 24.029a2.633 2.633 0 0 1-.221 2.925c-.632.78-1.559 1.48-2.789 2-1.861.85-3.792 1.26-5.873 1.26-4.349 0-6.836-1.89-7.027-5.706-.186-3.815 1.154-7.561 3.716-10.336 2.488-2.966 5.688-4.556 8.993-4.556 3.119 0 4.61 1.336 4.569 3.856 0 2.52-3.27 5.747-8.285 7.522-1.189.41-3.607 1.48-3.642 2.445-.034.89.076 1.665.412 2.15.818 1.186 2.157 1.89 3.566 1.706 2.644-.266 4.65-1.41 6.581-3.266Zm-10.182-3.11c.632-1.37 1.745-1.856 3.12-2.596 2.377-1.295 3.049-2.521 3.42-3.816s-.075-2.41-1.414-2.41c-2.006 0-3.682 2.555-4.761 7.15.006 0-.139.63-.365 1.671ZM208.015 25.103c-1.23 2.48-4.5 4.931-6.465 4.931-2.082 0-3.456-1.075-3.16-3.52.15-1.521.852-3.816 1.264-5.117.371-1.335 2.046-6.151 2.267-6.931.22-.74.371-1.11-.11-1.035-.337.075-1.821.295-3.27.295-.261.74-.667 1.89-1.34 3.11-.667 1.185-1.525 2.41-2.342 3.04-.969.706-2.082 1.035-3.085.63 1.896-2.225 2.604-4.075 2.748-6.78-3.496-1.295-.446-6.117 1.114-5.782-.035.966-2.157 3.556 7.137 1.966 1.229-.295 3.902-.965 4.383 1.26.522 2.52-1.078 5.371-1.861 7.857-.632 2.11-1.339 3.925-1.449 5.26-.035.816-.11 1.74.336 1.706.412-.034 1.113-.665 1.971-1.37 2.72-2.815 3.352-2.561 1.862.48Z"/><path fill="#454342" d="M204.969 35.48c0-.705.296-1.63.667-2.41.337.294 1.264.595 1.861.595 2.302 0 4.569-1.89 6.28-4.336.261-.37.336-1 .336-1.706 0-.63-.075-1.295-.151-1.855-1.038-8.412-2.342-13.638-3.682-14.673 1.485-.89 2.9-1.37 4.198-1.37 1.374 0 2.302.966 2.604 3.041.556 3.78 1.037 8.377 1.298 12.042 3.682-5.186 6.28-10.192 6.28-12.857 0-.665-.412-1.89-.853-2.37.447-.076 1.079-.11 1.374-.11 2.714 0 3.903.815 3.903 2.52 0 2.336-3.868 8.822-9.776 16.563-5.462 7.227-8.732 9.117-11.486 9.117-1.6 0-2.603-.595-2.824-1.78-.029-.116-.029-.26-.029-.41Z"/></svg>