<svg xmlns="http://www.w3.org/2000/svg" width="171" height="72" fill="none"><path fill="#06C167" d="M69.03 13.534c-4.44-7.68-13.74-14.33-18.79-11.42-5.05 2.92-3.94 14.29.5 21.98 2.85 4.94 6.39 7.15 9.89 7.32 1.97.1 3.79 1.07 4.78 2.78l20.45 35.41c.7 1.22 2.17 1.86 3.5 1.4a2.906 2.906 0 0 0 1.59-4.21l-20.5-35.51c-.99-1.71-.92-3.78-.02-5.53 1.6-3.11 1.45-7.27-1.4-12.22Z"/><path fill="#06C167" d="M50.928 15.784c.24.84.63 1.64 1.02 2.42.38.79.8 1.56 1.24 2.31.88 1.5 1.85 2.95 3.01 4.23.57.65 1.19 1.24 1.87 1.75.67.52 1.41.95 2.2 1.26 1.58.64 3.38.56 5.05-.03-.78.42-1.64.7-2.53.82-.9.11-1.83.01-2.7-.27-1.75-.56-3.23-1.73-4.42-3.06-1.2-1.34-2.17-2.85-2.97-4.44-.4-.79-.76-1.61-1.07-2.44-.15-.42-.29-.84-.42-1.26-.12-.42-.25-.85-.28-1.29ZM102.679 6.854l-7.35 12.73-1.3-.75 7.35-12.73c.3-.52.12-1.19-.4-1.49-.52-.3-1.19-.12-1.49.4l-7.35 12.73-1.3-.75 7.35-12.73c.3-.52.12-1.19-.4-1.49-.52-.3-1.19-.12-1.49.4l-7.35 12.73-1.3-.75L95 2.424c.3-.52.12-1.19-.4-1.49l-.23-.14c-.52-.3-1.19-.12-1.49.4l-12.14 21.09a6.806 6.806 0 0 0-.66 5.3c.45 1.61.27 3.33-.57 4.78l-20.22 35.03c-.7 1.22-.52 2.81.54 3.73 1.43 1.24 3.55.83 4.44-.73l20.27-35.11c.84-1.45 2.24-2.47 3.86-2.88 1.73-.44 3.3-1.55 4.26-3.22l12.17-21.08c.3-.52.12-1.19-.4-1.49l-.27-.15c-.51-.31-1.18-.13-1.48.39Z"/><path fill="#06C167" d="M83.07 28.024c-.51-.91-.84-1.92-.95-2.99-.06-.54-.02-1.09.12-1.64.03-.14.08-.27.14-.4.06-.13.11-.27.2-.39.08-.12.17-.25.25-.35l.23-.3c.62-.8 1.21-1.64 1.82-2.47.6-.83 1.21-1.67 1.86-2.48-.4.96-.87 1.89-1.39 2.78-.52.9-1.08 1.77-1.72 2.6l-.25.31c-.08.1-.13.18-.2.28-.12.19-.22.39-.29.61-.15.44-.21.93-.22 1.42 0 1 .17 2.01.4 3.02Z"/><path fill="#FF441F" d="M1.239 44.814v-14.13h3.07c1.05 0 1.88.16 2.49.48.61.32 1.05.8 1.31 1.44.26.64.39 1.44.39 2.39v5.2c0 1-.13 1.84-.39 2.53-.26.69-.69 1.21-1.27 1.56-.59.36-1.38.53-2.36.53h-3.24Zm1.97-1.41h1.12c.72 0 1.23-.14 1.54-.42.3-.28.49-.69.55-1.22.06-.53.1-1.18.1-1.94v-4.59c0-.73-.05-1.33-.14-1.78-.09-.45-.3-.79-.61-1-.31-.21-.81-.31-1.48-.31h-1.08v11.26ZM11.409 44.814l3-14.13h1.9l3.02 14.13h-1.87l-.65-3.56h-2.88l-.68 3.56h-1.84Zm2.79-4.97h2.35l-1.19-6.37-1.16 6.37ZM22.608 44.814v-14.13h1.94v14.13h-1.94ZM28.579 44.814v-14.13h1.97v12.72h3.61v1.41h-5.58ZM38.92 44.814v-4.99l-3.05-9.14h1.83l2.16 6.82 2.13-6.82h1.85l-3.04 9.14v4.99h-1.88ZM96.96 46.394v-14.13h3.07c1.05 0 1.88.16 2.49.48.61.32 1.05.8 1.31 1.44.26.64.39 1.44.39 2.39v5.2c0 1-.13 1.84-.39 2.53-.26.69-.69 1.21-1.27 1.56-.59.36-1.38.53-2.36.53h-3.24Zm1.97-1.41h1.12c.72 0 1.23-.14 1.54-.42.3-.28.49-.69.55-1.22.06-.53.1-1.18.1-1.94v-4.59c0-.73-.05-1.33-.14-1.78-.09-.45-.3-.79-.61-1-.31-.21-.81-.31-1.48-.31h-1.06v11.26h-.02ZM107.889 46.394v-14.13h5.48v1.47h-3.51v4.67h2.84v1.4h-2.84v5.18h3.54v1.41h-5.51ZM116.739 46.394v-14.13h1.97v12.72h3.61v1.41h-5.58ZM125.51 46.394v-14.13h1.941v14.13h-1.941ZM133.94 46.394l-3.16-14.13h1.85l2.23 10.42 2.13-10.42h1.8l-3.12 14.13h-1.73ZM142.03 46.394v-14.13h5.48v1.47H144v4.67h2.84v1.4H144v5.18h3.54v1.41h-5.51ZM150.88 46.394v-14.13h2.84c.94 0 1.72.12 2.34.38.62.25 1.07.65 1.37 1.2.3.55.45 1.28.45 2.17 0 .55-.06 1.04-.17 1.49-.12.45-.3.83-.56 1.13-.26.31-.59.53-1.01.67l2.01 7.08h-1.9l-1.85-6.63h-1.54v6.63h-1.98v.01Zm1.97-8.04h.75c.56 0 1.01-.07 1.36-.21.35-.14.6-.38.77-.71.16-.34.24-.81.24-1.41 0-.83-.15-1.42-.45-1.79-.3-.37-.9-.55-1.8-.55h-.87v4.67ZM163.84 46.394v-4.99l-3.05-9.14h1.83l2.16 6.82 2.13-6.82h1.85l-3.04 9.14v4.99h-1.88ZM120.809 67.144c-.39-.3-.58-.7-.58-1.19 0-.1 0-.17.01-.21h.86c-.02.31.08.58.29.8.21.22.53.34.97.34.43 0 .78-.1 1.03-.3.26-.2.38-.48.38-.83 0-.22-.06-.4-.19-.55-.12-.15-.28-.27-.46-.37-.18-.1-.43-.21-.74-.33-.38-.15-.69-.3-.92-.43-.23-.13-.43-.32-.59-.55-.16-.23-.23-.52-.22-.87 0-.37.1-.7.3-.99.2-.29.47-.51.82-.67.35-.16.75-.23 1.19-.23.43 0 .81.07 1.13.22.32.15.55.35.71.61.16.26.23.56.21.88h-.91a.812.812 0 0 0-.11-.48.96.96 0 0 0-.4-.37c-.18-.1-.41-.14-.68-.14-.42 0-.75.1-1 .29-.25.19-.38.46-.38.8 0 .2.06.37.18.51s.27.27.45.36c.18.1.42.22.74.35.38.16.69.31.92.45.24.14.44.32.61.55.17.23.25.52.25.86 0 .37-.1.7-.29.99a2 2 0 0 1-.82.69c-.36.17-.77.25-1.25.25-.62.01-1.13-.14-1.51-.44ZM129.46 61.534l-.4 2.29h2.42l-.12.67h-2.42l-.42 2.35h2.72l-.12.69h-3.59l1.19-6.69h3.58l-.12.69h-2.72ZM139.19 61.283c.34.29.51.67.51 1.15 0 .08-.01.21-.04.38a2.4 2.4 0 0 1-.61 1.22c-.33.35-.76.58-1.31.7l1.18 2.8h-1.04l-1.11-2.73h-1.04l-.49 2.73h-.87l1.19-6.68h2.15c.64 0 1.14.14 1.48.43Zm-.4 1.21c0-.31-.1-.54-.3-.71-.2-.17-.51-.25-.92-.25h-1.27l-.45 2.56h1.28c.47 0 .85-.12 1.12-.35.27-.23.45-.54.52-.93.01-.12.02-.22.02-.32ZM143.689 60.853l1.06 5.74 3.11-5.74h.94l-3.71 6.68h-1.01l-1.34-6.68h.95ZM152.549 60.853l-1.19 6.68h-.87l1.19-6.68h.87ZM155.779 62.424c.39-.52.86-.93 1.42-1.22.56-.29 1.14-.44 1.76-.44.73 0 1.33.18 1.82.53.48.35.79.85.93 1.49h-1.04c-.11-.39-.33-.69-.64-.91-.31-.21-.71-.32-1.2-.32a2.818 2.818 0 0 0-2.34 1.24c-.28.4-.47.86-.56 1.38-.03.17-.05.36-.05.57 0 .63.18 1.12.55 1.49.37.37.86.55 1.47.55.49 0 .92-.1 1.31-.32s.71-.51.96-.9h1.04c-.36.64-.85 1.13-1.45 1.48-.6.35-1.27.52-2 .52-.54 0-1.03-.11-1.45-.34-.42-.23-.75-.55-.99-.96-.24-.41-.35-.89-.35-1.42a4.036 4.036 0 0 1 .81-2.42ZM166.009 61.534l-.4 2.29h2.42l-.12.67h-2.42l-.42 2.35h2.72l-.12.69h-3.59l1.19-6.69h3.58l-.12.69h-2.72ZM53.14 50.983H.2v1.75h52.94v-1.75ZM170.46 50.983H92.88v1.75h77.58v-1.75Z"/><path fill="#fff" d="M77.45 57.104c-.23 0-.46-.12-.59-.34l-10.88-18.6a.683.683 0 0 1 .24-.93c.32-.19.74-.08.93.24l10.89 18.6c.19.32.08.74-.24.93-.11.07-.23.1-.35.1ZM82.6 51.474c-.23 0-.46-.12-.59-.34l-10.89-18.6a.683.683 0 0 1 .24-.93c.32-.19.74-.08.93.24l10.89 18.6c.19.32.08.74-.24.93-.1.07-.22.1-.34.1Z"/></svg>