<svg xmlns="http://www.w3.org/2000/svg" width="238" height="42" fill="none"><path fill="#142328" d="M.964 40.766V8.506c0-2.83.75-4.95 2.24-6.36 1.41-1.33 3.73-2 6.95-2 .78 0 1.41.04 1.88.12.86 0 1.53.04 2 .12v6.47h-2.12c-1.1 0-1.88.16-2.35.47-.4.32-.59.94-.59 1.89v2.12h5.06v1.77c0 1.18-.39 2.14-1.18 2.88-.79.75-1.69 1.12-2.71 1.12h-1.17v23.66H.964ZM20.314 37.936c-1.65-1.41-2.83-3.32-3.53-5.71-.71-2.39-1.06-4.89-1.06-7.48 0-2.12.29-4.24.88-6.36.59-2.12 1.51-3.88 2.77-5.3 2.04-2.35 4.67-3.75 7.89-4.18 3.22-.43 6.12-.18 8.71.76 2.98 1.18 5.18 3.22 6.59 6.12 1.33 2.59 2 5.61 2 9.07 0 2.51-.28 4.67-.82 6.48-.55 1.81-1.26 3.34-2.12 4.59-1.88 2.59-4.28 4.2-7.18 4.83-2.59.71-5.2.77-7.83.18-2.63-.59-4.73-1.59-6.3-3Zm5.65-20.72c-1.65 1.81-2.39 4.49-2.24 8.06.16 3.57.82 6.06 2 7.48.47.63 1.3 1.16 2.47 1.59 1.18.43 2.37.47 3.59.12 1.22-.35 2.3-1.24 3.24-2.65.94-1.41 1.45-3.69 1.53-6.83 0-2.83-.45-4.94-1.35-6.36-.9-1.41-1.94-2.31-3.12-2.71a5.754 5.754 0 0 0-3.53-.06c-1.18.36-2.04.81-2.59 1.36ZM51.554 37.935c-1.65-1.41-2.83-3.32-3.53-5.71-.71-2.39-1.06-4.88-1.06-7.47 0-2.12.29-4.24.88-6.36.59-2.12 1.51-3.88 2.77-5.3 2.04-2.35 4.67-3.75 7.89-4.18 3.22-.43 6.12-.18 8.71.76 2.98 1.18 5.18 3.22 6.59 6.12 1.33 2.59 2 5.61 2 9.07 0 2.51-.28 4.67-.82 6.48-.55 1.81-1.26 3.34-2.12 4.59-1.88 2.59-4.28 4.2-7.18 4.83-2.59.71-5.2.77-7.83.18-2.63-.6-4.73-1.6-6.3-3.01Zm5.65-20.72c-1.65 1.81-2.39 4.49-2.24 8.06.16 3.57.82 6.06 2 7.48.47.63 1.3 1.16 2.47 1.59 1.18.43 2.37.47 3.59.12 1.22-.35 2.3-1.24 3.24-2.65.94-1.41 1.45-3.69 1.53-6.83 0-2.83-.45-4.94-1.35-6.36-.9-1.41-1.94-2.31-3.12-2.71a5.754 5.754 0 0 0-3.53-.06c-1.18.36-2.04.81-2.59 1.36ZM99.634.146h4c1.1 0 2.04.41 2.83 1.24.78.82 1.18 1.75 1.18 2.77v22.96c0 5.57-1.61 9.34-4.83 11.3-3.22 1.96-6.71 2.94-10.48 2.94-2.04 0-4.04-.34-6-1-1.96-.67-3.53-1.75-4.71-3.24-2.28-2.9-3.41-6.87-3.41-11.89 0-4.94 1.14-8.91 3.41-11.89 2.36-3.06 5.38-4.59 9.06-4.59 1.96 0 3.69.39 5.18 1.18 1.57.94 2.82 2.16 3.77 3.65V.146Zm-13.43 24.72c0 3.14.59 5.53 1.77 7.18 1.18 1.65 2.86 2.47 5.06 2.47 2.12 0 3.77-.83 4.94-2.47 1.1-1.65 1.65-4.04 1.65-7.18 0-2.83-.59-5.06-1.77-6.71-1.26-1.57-2.94-2.36-5.06-2.36-2.04 0-3.65.83-4.83 2.47-1.17 1.58-1.76 3.78-1.76 6.6Z"/><path fill="#06C167" d="M132.634 31.106h5.89c-.87 3.3-2.51 5.81-4.95 7.53-2.43 1.81-5.49 2.71-9.18 2.71-4.47 0-7.97-1.45-10.48-4.36-2.51-2.83-3.77-6.87-3.77-12.13 0-5.02 1.22-8.95 3.65-11.77 2.51-2.9 6-4.36 10.48-4.36 4.71 0 8.36 1.41 10.95 4.24 1.41 1.73 2.43 3.73 3.06 6h-8.24c-.39-.78-.79-1.37-1.18-1.77-1.02-1.1-2.47-1.65-4.36-1.65-1.73 0-3.14.55-4.24 1.65-1.41 1.57-2.12 4.16-2.12 7.77 0 3.61.71 6.16 2.12 7.65 1.02 1.26 2.55 1.88 4.59 1.88 1.33 0 2.47-.27 3.41-.83.23-.08.45-.21.65-.41l.65-.65c.16-.24.47-.55.94-.94.48-.36 1.19-.56 2.13-.56ZM145.515 37.936c-1.65-1.41-2.83-3.32-3.53-5.71-.71-2.39-1.06-4.89-1.06-7.48 0-2.12.29-4.24.88-6.36.59-2.12 1.51-3.88 2.77-5.3 2.04-2.35 4.67-3.75 7.89-4.18 3.22-.43 6.12-.18 8.71.76 2.98 1.18 5.18 3.22 6.59 6.12 1.33 2.59 2 5.61 2 9.07 0 2.51-.28 4.67-.83 6.48-.55 1.81-1.26 3.34-2.12 4.59-1.88 2.59-4.28 4.2-7.18 4.83-2.59.71-5.2.77-7.83.18-2.63-.59-4.72-1.59-6.29-3Zm5.65-20.72c-1.65 1.81-2.39 4.49-2.24 8.06.16 3.57.82 6.06 2 7.48.47.63 1.29 1.16 2.47 1.59 1.18.43 2.37.47 3.59.12 1.22-.35 2.29-1.24 3.24-2.65.94-1.41 1.45-3.69 1.53-6.83 0-2.83-.45-4.94-1.35-6.36-.9-1.41-1.94-2.31-3.12-2.71a5.754 5.754 0 0 0-3.53-.06c-1.18.36-2.04.81-2.59 1.36ZM200.175 9.446v18.37c0 5.57-1.45 9.22-4.36 10.95-2.9 1.73-6.08 2.59-9.54 2.59-3.38-.16-6.46-1.1-9.24-2.83-2.79-1.73-4.18-5.3-4.18-10.71V9.445h8.24v20.01c0 1.88.55 3.26 1.65 4.12 1.1.86 2.35 1.3 3.77 1.3 1.41 0 2.69-.43 3.83-1.3 1.14-.86 1.71-2.24 1.71-4.12v-16.01c0-1.1.37-2.04 1.12-2.83.74-.78 1.71-1.18 2.88-1.18h4.12v.01ZM203.284 40.766v-15.19c0-3.06.45-5.63 1.35-7.71.9-2.08 2.14-3.75 3.71-5 1.49-1.18 3.24-2.04 5.24-2.59 2-.55 4.06-.82 6.18-.82h1.18v8.36h-2.71c-2.28 0-3.96.55-5.06 1.65-1.1 1.1-1.65 2.83-1.65 5.18v16.13h-8.24v-.01ZM237.465 40.766c-2.59.16-5.4.12-8.42-.12-3.02-.24-4.53-2.16-4.53-5.77V.266h4.24c1.02 0 1.92.39 2.71 1.18.78.79 1.18 1.73 1.18 2.83v5.3h4.83v1.65c0 1.18-.39 2.14-1.18 2.88-.79.75-1.73 1.12-2.83 1.12h-.82v17.42c0 1.33.78 2 2.35 2h2.47v6.12Z"/></svg>