<svg xmlns="http://www.w3.org/2000/svg" width="191" height="25" fill="none"><path fill="#FF3008" d="M55.34 6.978v10.816h2.43a4.252 4.252 0 0 0 1.8-.436 4.671 4.671 0 0 0 1.504-1.179c.873-1.026 1.351-2.39 1.332-3.802a5.856 5.856 0 0 0-.313-2.055 5.439 5.439 0 0 0-1-1.764 4.583 4.583 0 0 0-1.514-1.172 4.17 4.17 0 0 0-1.809-.41h-2.428l-.001.002Zm2.43-3.391c4.528 0 7.953 3.894 7.953 8.79 0 4.896-3.425 8.812-7.953 8.812h-5.358a.357.357 0 0 1-.149-.035.392.392 0 0 1-.125-.095.472.472 0 0 1-.11-.307V4.042c0-.242.172-.439.384-.439l5.358-.016ZM77.395 18.17c2.056.006 3.913-1.398 4.705-3.558a6.499 6.499 0 0 0 .298-3.333 6.14 6.14 0 0 0-1.386-2.975c-.699-.809-1.603-1.363-2.591-1.589a4.532 4.532 0 0 0-2.947.32c-1.9.892-3.141 3-3.145 5.34 0 3.191 2.263 5.78 5.066 5.795Zm.001-14.983c4.766 0 8.41 4.17 8.41 9.189 0 5.02-3.644 9.189-8.411 9.189-4.766 0-8.379-4.15-8.379-9.19 0-5.04 3.645-9.188 8.38-9.188ZM97.382 18.17c2.804-.008 5.072-2.599 5.07-5.79-.004-3.192-2.277-5.778-5.08-5.779-2.804 0-5.079 2.584-5.082 5.776 0 1.537.536 3.011 1.491 4.098a5.042 5.042 0 0 0 1.645 1.252 4.604 4.604 0 0 0 1.956.444Zm0-14.982c4.75 0 8.394 4.149 8.394 9.189s-3.659 9.189-8.395 9.189c-4.735 0-8.41-4.15-8.41-9.19 0-5.04 3.644-9.188 8.41-9.188Zm19.506 3.79h-3.425v4.655h3.425c.271.013.541-.035.794-.142.253-.108.484-.271.678-.481a2.442 2.442 0 0 0 .627-1.64c.01-.315-.038-.63-.14-.924a2.384 2.384 0 0 0-.455-.789 2 2 0 0 0-.687-.514 1.828 1.828 0 0 0-.817-.161v-.004Zm-6.739-2.936c0-.242.173-.439.385-.439h6.45c3.075 0 5.3 2.565 5.3 5.785.023 2.179-1.049 4.18-2.759 5.155l2.974 5.986a.488.488 0 0 1 .015.468.403.403 0 0 1-.154.166.347.347 0 0 1-.21.048h-2.611a.355.355 0 0 1-.205-.062.41.41 0 0 1-.144-.175l-2.867-5.924h-2.873v5.688a.467.467 0 0 1-.11.308.383.383 0 0 1-.125.096.356.356 0 0 1-.149.035h-2.514a.356.356 0 0 1-.149-.035.397.397 0 0 1-.208-.238.492.492 0 0 1-.028-.166l-.017-16.695-.001-.001Zm20.772 3.018v10.818h2.428a4.248 4.248 0 0 0 1.799-.433 4.668 4.668 0 0 0 1.506-1.176c.874-1.026 1.353-2.389 1.335-3.8a5.869 5.869 0 0 0-.311-2.058 5.44 5.44 0 0 0-.999-1.768 4.579 4.579 0 0 0-1.517-1.174 4.167 4.167 0 0 0-1.812-.407l-2.429-.002Zm2.428-3.395c4.528 0 7.953 3.899 7.953 8.804s-3.425 8.804-7.953 8.804h-5.342a.357.357 0 0 1-.149-.035.393.393 0 0 1-.125-.096.467.467 0 0 1-.11-.308V4.126c0-.244.172-.44.384-.44l5.342-.021Zm18.058 4.302-1.88 5.784h3.755l-1.875-5.784Zm-2.982 9.052-1.231 3.851a.42.42 0 0 1-.145.224.356.356 0 0 1-.239.078h-2.668a.347.347 0 0 1-.198-.038.392.392 0 0 1-.153-.146.48.48 0 0 1-.033-.437l5.766-16.694a.414.414 0 0 1 .148-.216.356.356 0 0 1 .236-.072h2.985a.358.358 0 0 1 .237.072.428.428 0 0 1 .149.216l5.765 16.694a.487.487 0 0 1-.035.437.395.395 0 0 1-.152.145.35.35 0 0 1-.198.038h-2.667a.356.356 0 0 1-.239-.078.42.42 0 0 1-.145-.224l-1.231-3.85h-5.952Zm13.713-8.677c0-2.764 2.098-5.154 5.412-5.154 1.785-.044 3.513.697 4.807 2.061a.474.474 0 0 1 0 .644l-1.478 1.67a.377.377 0 0 1-.125.096.344.344 0 0 1-.296 0 .384.384 0 0 1-.124-.095c-.696-.725-1.611-1.135-2.565-1.151-1.325 0-2.305.876-2.305 1.886 0 3.268 7.833 1.382 7.833 7.67-.004 3.186-2.118 5.597-5.857 5.597a7.078 7.078 0 0 1-3.028-.647 7.756 7.756 0 0 1-2.561-1.908.461.461 0 0 1-.124-.322.462.462 0 0 1 .124-.322l1.43-1.628a.388.388 0 0 1 .127-.1.345.345 0 0 1 .304 0 .388.388 0 0 1 .127.1c.899.99 2.111 1.552 3.378 1.568 1.656 0 2.748-1.007 2.748-2.268 0-3.269-7.83-1.382-7.83-7.67m25.367-4.35v6.607h-6.63V4.02a.489.489 0 0 0-.028-.166.435.435 0 0 0-.083-.141.382.382 0 0 0-.273-.13h-2.515a.36.36 0 0 0-.149.034.393.393 0 0 0-.125.096.464.464 0 0 0-.11.307v16.69c0 .242.173.44.384.44h2.515c.21 0 .384-.197.384-.44V14h6.625v6.71c0 .242.173.44.384.44h2.515c.212 0 .384-.197.384-.44V4.02a.465.465 0 0 0-.11-.307.397.397 0 0 0-.126-.096.355.355 0 0 0-.148-.035h-2.515a.372.372 0 0 0-.27.133.46.46 0 0 0-.109.305ZM37.912 5.81C36.166 2.221 32.753-.014 29.041 0H.96a.9.9 0 0 0-.533.18 1.056 1.056 0 0 0-.354.477 1.157 1.157 0 0 0-.054.61c.037.205.128.393.262.54l6.117 6.739c.54.596 1.276.93 2.042.93h19.797c1.41-.016 2.564 1.224 2.58 2.769.014 1.544-1.117 2.81-2.528 2.824H14.64a.9.9 0 0 0-.533.179 1.055 1.055 0 0 0-.356.476 1.156 1.156 0 0 0-.056.611c.037.206.129.394.263.541l6.121 6.744c.543.597 1.277.931 2.042.93h6.173c8.031 0 14.104-9.406 9.617-18.744"/></svg>