<svg xmlns="http://www.w3.org/2000/svg" width="166" height="30" fill="none"><path fill="#D70F64" d="M34.003 9.333h2.38V7.048c0-2.761 1.525-4.571 4.57-4.571l1.526.288v2.76l-1.62-.288c-.953 0-1.33.576-1.33 1.526v2.57h3.044v2.76h-3.048v11.428H36.48V12.094h-2.477v-2.76Zm16.283-.284c3.905 0 7.43 3.045 7.43 7.429s-3.427 7.425-7.43 7.425c-4.002 0-7.425-3.045-7.425-7.425 0-4.478 3.52-7.43 7.425-7.43Zm0 12.093c2.858 0 4.38-2.095 4.38-4.664 0-2.57-1.522-4.669-4.38-4.669-2.858 0-4.38 2.095-4.38 4.669 0 2.472 1.526 4.664 4.38 4.664ZM66.382 9.05c3.905 0 7.425 3.045 7.425 7.429s-3.426 7.425-7.425 7.425c-3.999 0-7.429-3.045-7.429-7.425.094-4.478 3.524-7.43 7.43-7.43Zm0 12.093c2.854 0 4.38-2.095 4.38-4.664 0-2.57-1.526-4.669-4.38-4.669s-4.38 2.095-4.38 4.669c0 2.472 1.522 4.664 4.38 4.664Zm23.237 2.38h-2.764l-.288-1.235-.187-.19-.191.19c-.954.95-2.38 1.522-3.905 1.522-3.906 0-7.235-3.048-7.235-7.428s3.33-7.43 7.235-7.43c1.526 0 3.048.576 3.905 1.527l.19.19.191-.19V2.574h3.049V23.52Zm-7.144-11.806c-2.858 0-4.38 2.095-4.38 4.665s1.522 4.668 4.38 4.668c2.573 0 4.38-2.099 4.38-4.668 0-2.477-1.807-4.665-4.38-4.665Zm10.189-2.383h2.764l.285 1.238.19.191.191-.19c.95-.95 2.38-1.523 3.905-1.523 3.902 0 7.235 3.045 7.235 7.429s-3.333 7.425-7.235 7.425c-1.526 0-3.048-.569-3.905-1.523l-.19-.19-.191.19V30H92.76V9.333h-.097Zm7.047 11.81c2.858 0 4.381-2.096 4.381-4.665 0-2.57-1.523-4.669-4.38-4.669-2.57 0-4.381 2.095-4.381 4.669 0 2.472 1.81 4.664 4.38 4.664Zm15.049-6.476h2.472v-.666c0-1.716-1.14-2.476-2.76-2.476-1.332 0-2.188.666-2.664 1.904l-2.667-.572c.569-2.38 2.664-3.905 5.428-3.905 3.808 0 5.712 1.907 5.712 5.618v8.858h-2.476l-.288-1.908c-.95 1.433-2.473 2.099-4.474 2.099-2.57 0-4.38-1.523-4.38-4.38-.094-2.761 2.382-4.572 6.097-4.572Zm-1.332 6.475c.95 0 1.9-.288 2.57-.953.759-.666 1.141-1.523 1.141-2.664v-.288h-2.57c-1.81 0-2.951.857-2.951 2.192 0 .95.666 1.713 1.806 1.713h.004Zm9.52-11.809h2.761l.288 1.238.19.191.188-.19c.575-.95 2.098-1.523 3.336-1.523 3.617 0 5.712 2.379 5.712 5.712v8.76h-3.048v-8.76c-.094-1.904-1.044-3.045-3.045-3.045-1.811 0-3.24 1.429-3.333 3.24v8.565h-3.049V9.333Zm28.758 14.188h-2.76l-.288-1.234-.188-.19-.19.19c-.954.95-2.383 1.522-3.906 1.522-3.905 0-7.234-3.048-7.234-7.428s3.329-7.43 7.234-7.43c1.523 0 3.049.576 3.906 1.527l.19.19.191-.19V2.574h3.045V23.52Zm-7.047-11.805c-2.854 0-4.38 2.095-4.38 4.665s1.526 4.668 4.38 4.668c2.573 0 4.384-2.099 4.384-4.668 0-2.477-1.811-4.665-4.384-4.665Zm15.714 2.951h2.476v-.666c0-1.716-1.141-2.476-2.76-2.476-1.332 0-2.192.666-2.667 1.904l-2.664-.572c.569-2.38 2.664-3.905 5.424-3.905 3.812 0 5.716 1.907 5.716 5.618v8.858h-2.476l-.288-1.908c-.95 1.433-2.476 2.099-4.474 2.099-2.574 0-4.38-1.523-4.38-4.38-.098-2.761 2.285-4.572 6.093-4.572Zm-1.332 6.475c.951 0 1.904-.288 2.57-.953.763-.666 1.145-1.523 1.145-2.664v-.288h-2.574c-1.81 0-2.951.857-2.951 2.192 0 .95.666 1.713 1.81 1.713ZM12.94 19.047c1.717 0 3.146-1.238 3.146-2.76H9.798c0 1.522 1.329 2.76 3.143 2.76Z"/><path fill="#D70F64" d="M23.521 5.907c.764-.573 1.145-1.527 1.145-2.574C24.666 1.43 23.144 0 21.236 0c-1.235 0-2.286.572-2.854 1.526A12.328 12.328 0 0 0 12.857.288a13.065 13.065 0 0 0-5.521 1.238C6.76.57 5.716 0 4.478 0a3.394 3.394 0 0 0-3.43 3.333 3.6 3.6 0 0 0 1.144 2.574A12.417 12.417 0 0 0 0 13.047a12.864 12.864 0 0 0 12.857 12.86 12.863 12.863 0 0 0 12.856-12.856c0-2.663-.763-5.143-2.192-7.14v-.004Zm-10.567 18.95c-6.482 0-11.81-5.334-11.81-11.806 0-2.48.76-4.765 1.999-6.67A11.194 11.194 0 0 1 7.81 2.384c1.522-.763 3.333-1.145 5.14-1.145 1.806 0 3.617.382 5.14 1.145 1.907.95 3.43 2.285 4.668 3.999 1.238 1.907 1.997 4.19 1.997 6.665 0 6.48-5.33 11.806-11.806 11.806l.004.004Z"/><path fill="#D70F64" d="M12.937 15.524c.195.094 2.196-.666 2.196-1.62 0-.572-1.62-.665-2.196-.665-.575 0-2.188.093-2.188.665-.094.954 1.998 1.714 2.188 1.62Zm7.43-8.001c-1.142-.76-3.618-1.141-4.572.097 0 0-1.238 1.332 0 2.663 1.238 1.332 2.095 2.671 2.383 3.719.288 1.14.76 1.522 1.62 1.522.86 0 2.57-1.332 2.854-3.524a4.784 4.784 0 0 0-2.286-4.477Zm-2.57 2.764a.651.651 0 0 1-.666-.666c0-.378.288-.67.665-.67.378 0 .666.289.666.67a.651.651 0 0 1-.666.666ZM9.985 7.62c-.95-1.238-3.426-.857-4.571-.097C4.27 8.283 2.939 9.808 3.129 12c.191 2.192 1.908 3.524 2.858 3.524.857 0 1.332-.475 1.62-1.522.288-1.145 1.238-2.383 2.379-3.715 1.238-1.429 0-2.667 0-2.667Zm-1.807 2.663a.651.651 0 0 1-.67-.662c0-.378.289-.67.67-.67.382 0 .666.289.666.67a.648.648 0 0 1-.666.662Z"/></svg>