<svg xmlns="http://www.w3.org/2000/svg" width="227" height="56" fill="none"><path fill="#FF441F" d="M76.819 48.869c0-20.61-16.71-37.32-37.32-37.32s-37.31 16.71-37.31 37.32h74.63Z"/><path fill="#FF441F" d="M44.782 8.017a5.42 5.42 0 1 0-10.55-2.491 5.42 5.42 0 0 0 10.55 2.491Z"/><path fill="#fff" d="M8.567 41.539c.19-3.26 1.23-6.45 2.67-9.42 1.46-2.97 3.43-5.7 5.81-8.04 2.37-2.35 5.17-4.25 8.18-5.64 3.02-1.35 6.24-2.22 9.49-2.42-3.01 1.24-5.88 2.57-8.55 4.19-2.66 1.63-5.13 3.52-7.33 5.68-2.2 2.16-4.16 4.58-5.86 7.21-.85 1.31-1.66 2.66-2.38 4.08-.75 1.4-1.41 2.85-2.03 4.36Z"/><path fill="#FF441F" d="M85.558 26.648c.38 0 1.56.26 3.53.79.45-3.9 1.73-8.14 3.82-12.71.74-1.67 1.62-2.5 2.64-2.5.19 0 .38.2.55.61.18.4.27.9.27 1.5 0 .71-.38 2.68-1.12 5.89-.75 3.21-1.24 6.01-1.48 8.39 1.57.36 2.96.54 4.16.54 1.2 0 2.3-.32 3.3-.95 1-.63 1.86-1.45 2.57-2.45 1.48-2.12 2.21-4.66 2.21-7.64-.02-5.5-2.21-8.25-6.57-8.25-1.55.02-4.28.71-8.21 2.07-.76.26-1.43.39-2 .39-.57 0-.86-.17-.86-.5 0-.45.33-.99 1-1.61.67-.62 1.52-1.21 2.57-1.79 2.57-1.38 5.07-2.07 7.5-2.07 3.33 0 6.07.89 8.21 2.68 2.52 2.12 3.77 5.33 3.75 9.64 0 1.83-.29 3.64-.86 5.43-.57 1.79-1.44 3.37-2.61 4.77-1.17 1.39-2.64 2.52-4.43 3.37-1.79.86-3.89 1.29-6.32 1.29-.98 0-2.21-.21-3.71-.64-.17.45-.58.68-1.25.68-1.24 0-2.08-.21-2.52-.62-.44-.41-.7-1.1-.77-2.05-1.14-.64-2.09-1.31-2.84-2s-1.12-1.3-1.12-1.82c.02-.3.21-.44.59-.44ZM121.328 29.358c1.86 0 3.65-.74 5.39-2.21.64-.55 1.17-1.05 1.57-1.52.4-.46.71-.7.93-.7.33 0 .5.33.5 1 0 .67-.18 1.41-.54 2.23-.36.82-.95 1.62-1.79 2.41-2.05 1.93-4.85 2.89-8.43 2.89-2.83 0-4.76-1.02-5.78-3.07-.36-.71-.54-1.74-.54-3.07 0-1.33.26-2.72.79-4.16.52-1.44 1.22-2.68 2.09-3.73a9.545 9.545 0 0 1 3.02-2.45c1.14-.58 2.36-.87 3.66-.87 1.3 0 2.3.32 3 .96.7.64 1.05 1.48 1.05 2.5s-.26 1.86-.77 2.52c-.51.66-1.17 1.2-1.98 1.64-.81.44-1.71.83-2.7 1.18-.99.35-1.96.73-2.91 1.16v.89c.02.86.38 1.46 1.07 1.82.71.37 1.49.56 2.37.58Zm-.61-10.07c-1.24 0-2.09 1.44-2.57 4.32.5-.33.97-.63 1.41-.89.44-.26.83-.51 1.16-.75.71-.52 1.08-1.12 1.11-1.79 0-.59-.37-.89-1.11-.89Z"/><path fill="#FF441F" d="M135.898 33.359c-3.4.02-5.72-1.25-6.96-3.82-.43-.9-.64-2.04-.64-3.41s.12-2.83.36-4.37c.48-3.09 1.39-5.95 2.75-8.57.69-1.33 1.46-2.47 2.32-3.43 1.88-2.09 3.97-3.13 6.28-3.11 1.02 0 1.83.28 2.41.84.58.56.87 1.36.87 2.41s-.31 2.1-.93 3.16c-.62 1.06-1.41 2.15-2.37 3.28-.96 1.13-2.03 2.32-3.19 3.55a53.609 53.609 0 0 0-3.43 4.03v1.43c0 1.33.29 2.31.86 2.93.57.62 1.24.93 2 .93 2.05 0 3.86-1.01 5.43-3.03.64-.83 1.13-1.25 1.46-1.25.33 0 .5.41.5 1.21 0 .81-.22 1.64-.66 2.48a9.356 9.356 0 0 1-4.19 4.05c-.92.45-1.9.69-2.87.69Zm1.92-19.17c.5-.62.89-1.18 1.18-1.68.29-.5.43-1.02.43-1.55 0-.54-.19-.8-.57-.8-.83 0-1.76.86-2.77 2.57s-1.77 3.96-2.27 6.75c.81-1.24 1.55-2.27 2.23-3.11.68-.84 1.27-1.56 1.77-2.18Z"/><path fill="#FF441F" d="M145.778 33.358c-2.38 0-3.57-2.23-3.57-6.68 0-2.43.3-4.63.89-6.6.93-3.05 1.98-4.57 3.14-4.57.69 0 1.24.46 1.64 1.39.33.71.49 1.42.46 2.11 0 .95-.29 2.63-.86 5.03-.55 2.09-.82 3.39-.82 3.89s.12.84.38 1.04c.25.19.55.29.89.29.34 0 .78-.23 1.3-.68.52-.45 1.05-.95 1.57-1.48.52-.54 1.01-1.03 1.45-1.48.44-.45.74-.68.91-.68.33 0 .5.41.5 1.21 0 1.67-.84 3.29-2.52 4.87-1.66 1.58-3.45 2.36-5.36 2.34Zm1.47-20.74c-.64-.95-.97-1.98-.97-3.07 0-1.09.17-2 .52-2.73.34-.73.67-1.26.98-1.61.31-.34.67-.52 1.07-.52.67 0 1.27.49 1.82 1.48s.82 1.81.82 2.48c0 1.24-.43 2.21-1.3 2.91-.87.71-1.85 1.06-2.94 1.06Z"/><path fill="#FF441F" d="M166.058 24.828c.43 0 .64.36.64 1.09 0 .73-.18 1.5-.55 2.34-.37.83-.93 1.64-1.68 2.41-.75.77-1.71 1.43-2.87 1.98-1.17.55-2.54.82-4.12.82s-2.97-.47-4.16-1.41-1.79-2.3-1.79-4.07c0-1.77.28-3.38.84-4.82.56-1.44 1.3-2.68 2.21-3.73.92-1.05 1.96-1.86 3.12-2.45 1.17-.58 2.27-.87 3.32-.87 1.83 0 2.75.73 2.75 2.18 0 .83-.17 1.5-.52 2s-.7.75-1.05.75c-.48 0-.89-.17-1.25-.5-.36-.33-.75-.51-1.18-.52-.43-.01-.84.2-1.23.62-.39.43-.72.98-.98 1.64-.52 1.33-.79 2.89-.79 4.68.02.86.42 1.5 1.18 1.93.52.29 1.14.43 1.86.45.71.01 1.4-.22 2.05-.7.65-.48 1.25-.99 1.8-1.55s1.03-1.08 1.45-1.55c.42-.48.74-.72.95-.72Z"/><path fill="#FF441F" d="M169.198 33.358c-2.38 0-3.57-2.23-3.57-6.68 0-2.43.3-4.63.89-6.6.93-3.05 1.98-4.57 3.14-4.57.69 0 1.24.46 1.64 1.39.33.71.49 1.42.46 2.11 0 .95-.29 2.63-.86 5.03-.55 2.09-.82 3.39-.82 3.89s.12.84.38 1.04c.25.19.55.29.89.29.34 0 .78-.23 1.3-.68.52-.45 1.05-.95 1.57-1.48.52-.54 1.01-1.03 1.45-1.48.44-.45.74-.68.91-.68.33 0 .5.41.5 1.21 0 1.67-.84 3.29-2.52 4.87-1.66 1.58-3.45 2.36-5.36 2.34Zm1.47-20.74c-.64-.95-.96-1.97-.96-3.07 0-1.09.17-2 .52-2.73.34-.73.67-1.26.98-1.61.31-.34.67-.52 1.07-.52.67 0 1.27.49 1.82 1.48s.82 1.81.82 2.48c0 1.24-.43 2.21-1.3 2.91-.88.71-1.86 1.06-2.95 1.06Z"/><path fill="#FF441F" d="M189.729 30.218c-1.88 2.21-4.14 3.32-6.77 3.32s-4.6-.67-5.91-2.02c-1.31-1.34-1.95-3.02-1.93-5.02-.02-2.83.87-5.27 2.68-7.32 1.81-2.05 4.18-3.07 7.1-3.07 1.33 0 2.4.17 3.21.5 1.4.57 2.11 1.11 2.11 1.61 0 .38-.98.58-2.95.59-1.97.01-3.61.69-4.93 2.04-1.32 1.34-1.98 3.04-1.98 5.09 0 1.07.31 1.97.95 2.7.63.73 1.52 1.09 2.68 1.09 1.15 0 2.11-.24 2.87-.71-1.69-1.14-2.53-2.8-2.53-4.96-.02-1.14.39-2.18 1.23-3.12s1.93-1.42 3.25-1.43c1.32-.01 2.27.35 2.84 1.09.57.74.86 1.68.86 2.84s-.27 2.37-.82 3.66h.21c1.05-.02 1.95-.39 2.71-1.11.29-.29.53-.54.73-.75.2-.21.41-.32.62-.32.33 0 .5.39.5 1.18 0 1.45-.43 2.54-1.29 3.27-.86.73-1.8 1.09-2.84 1.09-1.04 0-1.89-.1-2.6-.24Zm-.32-4.14c.4-.86.61-1.69.61-2.5s-.26-1.21-.79-1.21c-.21 0-.39.16-.54.46-.14.31-.21.61-.21.89 0 .95.31 1.74.93 2.36Z"/><path fill="#FF441F" d="M205.788 18.189c0-1.59 1.24-2.39 3.71-2.39.62 0 1.01.2 1.16.61.15.41.23 1.02.23 1.86 0 1.17-.26 2.98-.79 5.43-.53 2.45-.77 4.11-.75 4.96 0 .41.13.61.39.61.36 0 .8-.23 1.32-.68.52-.45 1.05-.95 1.57-1.48l1.45-1.48c.44-.45.74-.68.91-.68.33 0 .5.41.5 1.21 0 1.67-.82 3.27-2.46 4.82-2.76 1.62-4.51 2.43-5.25 2.43-.07 0-.13-.01-.18-.04-.9 0-1.54-.3-1.91-.89-.37-.59-.6-1.34-.7-2.25a7.08 7.08 0 0 1-1.96 2.27c-.83.63-1.79.95-2.86.95-1.88 0-3.33-.36-4.34-1.07-1.01-.71-1.52-1.77-1.52-3.18 0-.62.09-1.19.27-1.71.18-.52.47-1.17.87-1.93l1.04-8.78c.74-.57 1.8-.86 3.18-.86 1.09 0 1.71.71 1.86 2.14.12 1.17.07 2.21-.16 3.12-.23.92-.53 2.07-.91 3.46-.38 1.39-.57 2.62-.57 3.69 0 .86.54 1.29 1.61 1.29 1.17 0 2.18-1.02 3.03-3.07.67-1.57 1.12-3.32 1.36-5.25-.02-.19-.04-.43-.05-.73-.01-.3-.02-.59-.04-.88-.01-.29-.02-.57-.02-.86v-.64h.01Z"/><path fill="#FF441F" d="M221.859 15.958c1.59-.01 2.78.29 3.57.89.79.61 1.18 1.48 1.18 2.61s-.34 2.09-1.02 2.89c-.68.8-1.51 1.36-2.48 1.7.69.71 1.31 1.44 1.87 2.18.56.74.84 1.51.84 2.32 0 1.59-.63 2.83-1.89 3.69-1.26.87-3.02 1.3-5.27 1.3-2.25 0-3.93-.45-5.05-1.34-1.12-.89-1.68-1.9-1.68-3.04 0-1.13.28-2.16.84-3.09.56-.93 1.16-1.39 1.8-1.39.38 0 .65.14.82.41.17.27.48 1.07.93 2.37.17.48.44.93.82 1.36.88.98 2.27 1.46 4.18 1.46-.29-.9-.74-1.68-1.37-2.34-.63-.65-1.26-1.29-1.87-1.91a13.26 13.26 0 0 1-1.64-1.98c-.48-.7-.71-1.53-.71-2.48 0-1.71.64-3.11 1.93-4.18 1.2-.94 2.6-1.42 4.2-1.43Zm-.14 6.62c.95-1.02 1.43-1.84 1.43-2.46 0-.29-.1-.54-.3-.77-.2-.23-.49-.34-.87-.34s-.74.05-1.09.14c-.35.1-.62.17-.84.21-.01.91.55 1.98 1.67 3.22Z"/><path fill="#06C167" d="M89.669 45.499v2.98h4.73v1.54h-4.73v3.75h-1.82v-9.8h7.15v1.53h-5.33ZM99.929 53.26c-.8-.43-1.43-1.04-1.89-1.81-.46-.77-.69-1.63-.69-2.58 0-.95.23-1.81.69-2.58a4.91 4.91 0 0 1 1.89-1.81c.8-.44 1.7-.65 2.7-.65 1 0 1.9.22 2.7.65.8.43 1.43 1.03 1.89 1.8.46.77.69 1.63.69 2.59s-.23 1.83-.69 2.59c-.46.76-1.09 1.36-1.89 1.8-.8.43-1.7.65-2.7.65-1 0-1.9-.22-2.7-.65Zm4.46-1.39c.52-.29.93-.7 1.23-1.23.3-.53.45-1.12.45-1.77 0-.65-.15-1.24-.45-1.77-.3-.53-.71-.94-1.23-1.23-.52-.29-1.11-.44-1.76-.44-.65 0-1.24.15-1.76.44-.52.29-.93.71-1.23 1.23-.3.52-.45 1.12-.45 1.77 0 .65.15 1.24.45 1.77.3.53.71.94 1.23 1.23.52.29 1.11.44 1.76.44.65 0 1.24-.14 1.76-.44ZM113.118 53.26c-.8-.43-1.43-1.04-1.89-1.81-.46-.77-.69-1.63-.69-2.58 0-.95.23-1.81.69-2.58a4.91 4.91 0 0 1 1.89-1.81c.8-.44 1.7-.65 2.7-.65 1 0 1.9.22 2.7.65.8.43 1.43 1.03 1.89 1.8.46.77.69 1.63.69 2.59s-.23 1.83-.69 2.59c-.46.76-1.09 1.36-1.89 1.8-.8.43-1.7.65-2.7.65-1 0-1.9-.22-2.7-.65Zm4.46-1.39c.52-.29.93-.7 1.23-1.23.3-.53.45-1.12.45-1.77 0-.65-.15-1.24-.45-1.77-.3-.53-.71-.94-1.23-1.23-.52-.29-1.11-.44-1.76-.44-.65 0-1.24.15-1.76.44-.52.29-.93.71-1.23 1.23-.3.52-.45 1.12-.45 1.77 0 .65.15 1.24.45 1.77.3.53.71.94 1.23 1.23.52.29 1.11.44 1.76.44.65 0 1.24-.14 1.76-.44ZM124.429 43.969h4.28c1.04 0 1.97.2 2.79.61.81.41 1.44.98 1.89 1.72.45.74.67 1.6.67 2.57 0 .97-.22 1.83-.67 2.57a4.5 4.5 0 0 1-1.89 1.72c-.81.41-1.74.61-2.79.61h-4.28v-9.8Zm4.2 8.26c.72 0 1.35-.14 1.9-.41.55-.27.97-.67 1.26-1.18.29-.51.44-1.1.44-1.77 0-.67-.15-1.26-.44-1.77-.29-.51-.71-.9-1.26-1.18-.55-.28-1.18-.41-1.9-.41h-2.38v6.72h2.38ZM142.649 43.969h4.28c1.04 0 1.97.2 2.79.61.81.41 1.44.98 1.89 1.72.45.74.67 1.6.67 2.57 0 .97-.22 1.83-.67 2.57a4.5 4.5 0 0 1-1.89 1.72c-.81.41-1.74.61-2.79.61h-4.28v-9.8Zm4.2 8.26c.72 0 1.35-.14 1.9-.41.55-.27.97-.67 1.26-1.18.29-.51.44-1.1.44-1.77 0-.67-.15-1.26-.44-1.77-.29-.51-.71-.9-1.26-1.18-.55-.28-1.18-.41-1.9-.41h-2.38v6.72h2.38ZM162.968 52.25v1.53h-7.35v-9.8h7.15v1.53h-5.33v2.55h4.73v1.5h-4.73v2.7h5.53v-.01ZM166.399 43.969h1.82v8.26h5.12v1.54h-6.94v-9.8ZM176.179 43.969h1.82v9.8h-1.82v-9.8ZM190.939 43.969l-4.27 9.8h-1.79l-4.28-9.8h1.97l3.26 7.56 3.29-7.56h1.82ZM200.728 52.25v1.53h-7.35v-9.8h7.15v1.53h-5.33v2.55h4.73v1.5h-4.73v2.7h5.53v-.01ZM210.569 53.769l-2-2.87c-.08.01-.21.01-.38.01h-2.21v2.86h-1.82v-9.8h4.03c.85 0 1.59.14 2.22.42.63.28 1.11.68 1.45 1.2.34.52.5 1.14.5 1.86 0 .74-.18 1.37-.54 1.9-.36.53-.88.93-1.55 1.19l2.25 3.22h-1.95v.01Zm-.66-7.75c-.41-.34-1.01-.5-1.81-.5h-2.13v3.91h2.13c.79 0 1.4-.17 1.81-.51.41-.34.62-.82.62-1.45 0-.64-.21-1.12-.62-1.45ZM219.878 50.309v3.46h-1.82v-3.43l-3.85-6.37h1.95l2.87 4.77 2.9-4.77h1.79l-3.84 6.34Z"/><path fill="#fff" d="M36.639 8.689c-.49-.49-.73-1.08-.86-1.7-.12-.62-.1-1.28.12-1.93.22-.64.66-1.27 1.29-1.65.63-.38 1.39-.41 2-.15-.47.52-.79.88-1 1.27-.2.38-.33.74-.48 1.15-.14.41-.27.87-.43 1.36-.17.5-.35 1.03-.64 1.65Z"/><path fill="#FF441F" d="M76.458 55.249h-73.9a2.28 2.28 0 0 1-2.28-2.28v-.22c0-1.26 1.02-2.28 2.28-2.28h73.9c1.26 0 2.28 1.02 2.28 2.28v.22a2.28 2.28 0 0 1-2.28 2.28Z"/></svg>