<svg xmlns="http://www.w3.org/2000/svg" width="228" height="44" fill="none"><path fill="#142328" d="M31.597 7.17C35.843 2.607 43.252-.482 46.25 2.31c2.998 2.79.45 10.402-3.796 14.963-2.731 2.934-5.496 3.889-7.92 3.454-1.365-.244-2.765.14-3.708 1.153L11.263 42.9c-.672.723-1.779.93-2.614.405a2.042 2.042 0 0 1-.426-3.132l19.613-21.077c.944-1.014 1.226-2.438.884-3.783-.608-2.383.146-5.209 2.877-8.143Z"/><path fill="#fff" d="M43.627 11.553c-.3.538-.69 1.02-1.078 1.494a25.99 25.99 0 0 1-1.208 1.387c-.838.89-1.733 1.728-2.725 2.42a8.877 8.877 0 0 1-1.556.904 6.283 6.283 0 0 1-1.705.514c-1.181.19-2.402-.15-3.45-.811.466.41 1.01.738 1.603.963.598.22 1.25.293 1.89.24 1.287-.106 2.482-.674 3.507-1.397a14.331 14.331 0 0 0 2.729-2.573c.399-.478.77-.98 1.113-1.499.17-.26.33-.527.485-.798.15-.271.309-.542.395-.844Z"/><path fill="#142328" d="m2.337 6.706 7.264 7.33.745-.738-7.262-7.33A.763.763 0 1 1 4.17 4.892l7.263 7.33.748-.74-7.264-7.33a.763.763 0 1 1 1.085-1.076l7.263 7.33.745-.74-7.26-7.329a.763.763 0 0 1 .003-1.08l.137-.137a.763.763 0 0 1 1.08.005L20 13.267a4.81 4.81 0 0 1 1.395 3.483 4.354 4.354 0 0 0 1.24 3.148l19.985 20.17c.694.702.857 1.815.3 2.63a2.045 2.045 0 0 1-3.148.3L19.732 22.772a4.335 4.335 0 0 0-3.134-1.267 4.809 4.809 0 0 1-3.47-1.429L1.098 7.934a.763.763 0 0 1 .004-1.08l.153-.152a.766.766 0 0 1 1.082.004Z"/><path fill="#fff" d="M19.434 17.584c.183-.71.23-1.457.11-2.202a3.187 3.187 0 0 0-.377-1.092 1.16 1.16 0 0 0-.17-.249c-.065-.077-.12-.163-.204-.227-.075-.066-.159-.14-.232-.196l-.211-.159c-.567-.427-1.116-.895-1.676-1.349a41.462 41.462 0 0 0-1.706-1.351c.44.584.928 1.124 1.442 1.642a16.67 16.67 0 0 0 1.635 1.46l.225.163c.073.053.122.101.186.152.114.105.22.227.304.366.18.27.304.59.399.925.183.67.251 1.387.275 2.117Z"/><path fill="#FC7E10" d="M91.596 2.445H79.27a2.791 2.791 0 0 0 0 5.582h12.325a2.791 2.791 0 0 0 0-5.582ZM84.269 14.074a2.791 2.791 0 1 0 0 5.583 2.791 2.791 0 0 0 0-5.583ZM58.796 37.406H55.11c-1.54 0-2.79-1.25-2.79-2.791v-.326c0-1.541 1.25-2.791 2.79-2.791H67.17c.103 0 .207.006.306.017a2.79 2.79 0 0 0 2.484-2.773v-.326c0-1.54-1.25-2.79-2.79-2.79h-5.432v-.047a2.791 2.791 0 0 1-2.443-2.767v-.326a2.79 2.79 0 0 1 2.443-2.767v-.046h12.045c1.54 0 2.79-1.25 2.79-2.79v-.327c0-1.54-1.25-2.79-2.79-2.79H61.737v-.023h-6.57c-1.54 0-2.79-1.25-2.79-2.79v-.327c0-1.54 1.25-2.79 2.79-2.79h6.57v-.023h6.8c1.541 0 2.791-1.25 2.791-2.79v-.327c0-1.54-1.25-2.79-2.79-2.79H45.71c.189.118.368.25.533.403 2.998 2.79.45 10.402-3.796 14.963-2.731 2.935-5.496 3.89-7.92 3.455-1.365-.245-2.765.139-3.709 1.153l-3.013 3.238 14.812 14.948c.694.701.857 1.815.3 2.63-.172.25-.384.446-.618.591h16.5a2.94 2.94 0 1 0-.004-5.881ZM81.944 25.702H75.78a2.791 2.791 0 0 0 0 5.582h6.164a2.791 2.791 0 0 0 0-5.582ZM73.57 37.33h-6.163a2.791 2.791 0 0 0 0 5.58h6.164a2.792 2.792 0 0 0 0-5.58Z"/><path fill="#142328" d="M104.991 12.473h11.024l-.886 4.19h-6.774l-1.804 8.441h5.827l-.886 4.206h-5.827l-2.687 12.632h-4.25l6.263-29.47ZM125.31 18.196c.051-.25.075-.476.075-.677 0-.882-.496-1.322-1.485-1.322h-.031c-1.233.01-1.989.676-2.269 1.997l-.84 3.966h-4.25l.84-3.966c.882-4.125 3.36-6.188 7.434-6.188 3.344 0 5.015 1.39 5.015 4.175 0 .61-.08 1.28-.241 2.013l-3.829 18.021c-.881 4.136-3.355 6.203-7.42 6.203-3.355-.008-5.03-1.41-5.03-4.206 0-.602.079-1.267.24-1.997l1.051-4.94c.871-4.125 2.868-6.192 5.992-6.203 1.351 0 2.379.315 3.08.945l1.668-7.821Zm-7.539 18.021c-.05.24-.075.465-.075.677 0 .882.505 1.323 1.517 1.323 1.232 0 1.988-.666 2.268-1.998l1.052-4.955c.051-.24.075-.46.075-.661 0-.882-.501-1.323-1.501-1.323-1.242 0-2.002.666-2.284 1.997l-1.052 4.94ZM132.868 18.196c.881-4.125 3.355-6.188 7.42-6.188 3.353 0 5.03 1.397 5.03 4.19 0 .602-.079 1.268-.24 1.998l-.842 3.965h-4.25l.842-3.965c.05-.24.075-.461.075-.662 0-.881-.501-1.327-1.501-1.335h-.031c-1.222 0-1.973.665-2.253 1.997l-.571 2.674a2.095 2.095 0 0 0-.044.45c0 1.22 1 2.678 3.004 4.37 1.804 1.513 2.703 3.27 2.703 5.272 0 .491-.055 1-.165 1.532l-.796 3.725c-.882 4.136-3.355 6.204-7.42 6.204-3.356-.01-5.031-1.411-5.031-4.206 0-.602.079-1.268.24-1.998l.84-3.965h4.25l-.839 3.965c-.051.24-.075.465-.075.677 0 .882.504 1.323 1.516 1.323 1.233 0 1.989-.666 2.269-1.998l.721-3.363c.039-.17.059-.34.059-.512 0-1.3-.996-2.793-2.989-4.475-1.792-1.501-2.69-3.265-2.69-5.286 0-.52.06-1.06.181-1.623l.587-2.766ZM155.544 12.473h3.289l-.887 4.19h-3.289l-5.376 25.277h-4.25l5.376-25.277h-3.049l.887-4.19h3.048l2.028-9.552h4.251l-2.028 9.552Z"/><path fill="#FC7E10" d="M168.713 12.473h11.025l-.886 4.19h-6.775l-1.803 8.441h5.826l-.886 4.206h-5.826l-2.687 12.632h-4.251l6.263-29.47ZM189.454 36.217c-.882 4.125-3.36 6.192-7.434 6.203-3.344 0-5.015-1.397-5.015-4.19 0-.6.079-1.272.24-2.013l3.83-18.021c.881-4.125 3.355-6.188 7.42-6.188 3.353 0 5.03 1.397 5.03 4.19 0 .602-.079 1.268-.24 1.998l-3.831 18.021Zm-.419-18.021c.051-.24.075-.461.075-.662 0-.881-.501-1.327-1.501-1.335h-.031c-1.222 0-1.973.665-2.253 1.997l-3.829 18.021a3.421 3.421 0 0 0-.075.677c0 .882.5 1.323 1.501 1.323 1.241 0 2.002-.666 2.284-1.998l3.829-18.023ZM204.969 36.217c-.881 4.125-3.359 6.192-7.433 6.203-3.344 0-5.015-1.397-5.015-4.19 0-.6.079-1.272.24-2.013l3.829-18.021c.882-4.125 3.355-6.188 7.42-6.188 3.353 0 5.031 1.397 5.031 4.19 0 .602-.079 1.268-.24 1.998l-3.832 18.021Zm-.421-18.021c.051-.24.075-.461.075-.662 0-.881-.5-1.327-1.501-1.335h-.031c-1.221 0-1.973.665-2.253 1.997l-3.829 18.021a3.421 3.421 0 0 0-.075.677c0 .882.5 1.323 1.501 1.323 1.241 0 2.002-.666 2.284-1.998l3.829-18.023ZM223.309 2.92h4.25l-7.074 33.297c-.882 4.124-3.36 6.192-7.433 6.203-3.345 0-5.016-1.397-5.016-4.19 0-.6.08-1.272.241-2.013l3.829-18.008c.871-4.125 2.868-6.192 5.991-6.204 1.352 0 2.379.316 3.08.946l2.132-10.03Zm-3.245 15.275c.051-.24.075-.46.075-.66 0-.883-.501-1.323-1.501-1.323-1.242 0-2.002.665-2.284 1.997l-3.829 18.008a3.422 3.422 0 0 0-.075.677c0 .882.5 1.322 1.501 1.322 1.241 0 2.002-.665 2.284-1.997l3.829-18.024Z"/></svg>