<svg xmlns="http://www.w3.org/2000/svg" width="33" height="31" fill="none"><path fill="#fff" stroke="#101A24" stroke-linecap="round" stroke-linejoin="round" stroke-width="1.5" d="M13.816 29.286a1.571 1.571 0 1 0 0-3.143 1.571 1.571 0 0 0 0 3.143ZM24.816 29.286a1.571 1.571 0 1 0 0-3.143 1.571 1.571 0 0 0 0 3.143Z"/><path stroke="#101A24" stroke-linecap="round" stroke-linejoin="round" stroke-width="2" d="M1.244 1h4.863l3.646 20.665h19.45"/><path stroke="#101A24" stroke-linecap="round" stroke-linejoin="round" stroke-width="2" d="m9.102 16.665 19.604.137a.608.608 0 0 0 .596-.488l2.188-10.94a.607.607 0 0 0-.596-.728H7.117"/></svg>