<svg xmlns="http://www.w3.org/2000/svg" width="25" height="23" fill="none"><path fill="#fff" d="M17.339 1.94a5.083 5.083 0 0 1 3.498 1.392 4.654 4.654 0 0 1 1.455 3.348v9.478a4.653 4.653 0 0 1-1.455 3.348 5.083 5.083 0 0 1-3.498 1.392H7.434a5.083 5.083 0 0 1-3.498-1.392 4.653 4.653 0 0 1-1.455-3.348V6.68a4.653 4.653 0 0 1 1.455-3.348A5.083 5.083 0 0 1 7.434 1.94h9.905Zm0-1.896H7.434C3.62.044.5 3.03.5 6.68v9.478c0 3.65 3.12 6.636 6.934 6.636h9.905c3.813 0 6.933-2.986 6.933-6.636V6.68c0-3.65-3.12-6.636-6.933-6.636Z"/><path fill="#fff" d="M18.825 6.68c-.294 0-.581-.084-.826-.24a1.437 1.437 0 0 1-.547-.638 1.365 1.365 0 0 1-.085-.822c.058-.275.2-.529.407-.728.208-.198.473-.334.76-.389.289-.055.588-.026.86.081.27.108.503.29.666.524a1.378 1.378 0 0 1-.184 1.796 1.489 1.489 0 0 1-.482.308 1.54 1.54 0 0 1-.57.108Zm-6.438.947c.783 0 1.55.223 2.2.64a3.833 3.833 0 0 1 1.46 1.701c.3.693.378 1.455.226 2.19a3.745 3.745 0 0 1-1.085 1.942 4.02 4.02 0 0 1-2.029 1.038 4.128 4.128 0 0 1-2.289-.216 3.93 3.93 0 0 1-1.778-1.396 3.677 3.677 0 0 1-.668-2.107 3.715 3.715 0 0 1 1.162-2.68 4.059 4.059 0 0 1 2.8-1.112Zm0-1.895a6.135 6.135 0 0 0-3.302.958 5.75 5.75 0 0 0-2.19 2.553 5.46 5.46 0 0 0-.337 3.286 5.616 5.616 0 0 0 1.626 2.912 6.03 6.03 0 0 0 3.043 1.556 6.192 6.192 0 0 0 3.434-.323 5.895 5.895 0 0 0 2.667-2.095 5.515 5.515 0 0 0 1.002-3.16 5.566 5.566 0 0 0-1.741-4.022 6.081 6.081 0 0 0-4.202-1.665Z"/></svg>