<svg xmlns="http://www.w3.org/2000/svg" width="276" height="149" fill="none"><g opacity=".1"><path fill="#fff" d="M223.023 119.697c.678-.644.522-1.461.504-2.296.024-1.092.135-2.18.331-3.254a36.47 36.47 0 0 0 3.967.487c1.461 0 2.505-.713 2.505-1.739a6.815 6.815 0 0 0-.626-3.028 14.779 14.779 0 0 0-6.838-6.228 66.312 66.312 0 0 0-13.553-5.22 8.083 8.083 0 0 1 1.27-.365c1.497 0 3.01 0 4.489-.156a14.237 14.237 0 0 0 3.688-.975c2.21-.922 2.645-2.14 1.74-4.297-.365-.818-.852-1.6-1.531-2.888 2.697.922 4.889 1.635 7.046 2.436 1.618.591 3.149 1.392 4.785 1.913a23.984 23.984 0 0 1 6.959 3.48 51.3 51.3 0 0 0 5.219 3.48 3.593 3.593 0 0 0 3.324.552 3.58 3.58 0 0 0 2.313-2.449c.226-.47.383-.957.609-1.548.887.296 1.74.644 2.575.835 2.905.661 4.367-.957 3.479-3.775a6.957 6.957 0 0 0-4.749-4.698l-2.958-1.235.157-.452c2.87.678 5.741 1.305 8.699 2.018 4.053 1.044 8.09 2.21 12.178 3.166a4.28 4.28 0 0 0 4.906-2.296c.87-1.462.557-2.871-.939-4.68-.505-.61-.94-1.27-1.496-2.036 1.183-.591 2.14-1.009 3.027-1.548a2.296 2.296 0 0 0 1.409-2.14c-.087-.974-.852-1.305-1.74-1.6a27.418 27.418 0 0 0-14.649-.784 34.025 34.025 0 0 1-10.525.975c1.966-1.236 3.949-2.454 5.915-3.706a2.523 2.523 0 0 0 1.444-2.958c-.313-1.583-.835-2.21-2.523-2.366a22.797 22.797 0 0 0-3.758.209c-.481.081-.958.192-1.426.33a3.912 3.912 0 0 0-5.428-2.157c-4.332 1.41-7.655 4.367-11.118 7.081a49.989 49.989 0 0 1-10.021 6.96c-1.148-.766-2.348-1.74-3.653-2.367a10.126 10.126 0 0 0-3.48-1.34c-2.296-.226-4.628 0-6.959-.174a3.917 3.917 0 0 1-3.149-.904 6.96 6.96 0 0 1 4.106-.192c3.375.47 5.115-1.235 4.28-4.088a1.425 1.425 0 0 1 0-.505c.348-.209.73-.417 1.096-.678 1.74-1.131.957-2.732-.383-3.323a3.237 3.237 0 0 0-1.514-.313c-2 .121-4.001.313-6.002.522-.922.087-1.861.522-2.696-.314a6.136 6.136 0 0 1 5.41-1.74c3.655.295 7.274.942 10.804 1.932a61.896 61.896 0 0 0 6.612 1.357c3.34.383 5.219-2.036 4.262-5.22l-.331-1.113a16.002 16.002 0 0 0 1.566-.557c1.601-.8 1.636-1.392.627-2.957a4.408 4.408 0 0 0-4.889-1.914 2.821 2.821 0 0 1-2.592-.696c.986-.54 2.031-.965 3.114-1.27a32.69 32.69 0 0 1 8.229-.887 32.677 32.677 0 0 0 5.55-.679 4.768 4.768 0 0 0 3.88-4.663 4.6 4.6 0 0 0-3.167-4.453 10.274 10.274 0 0 1-1.74-.957c-.4-3.689-.939-4.193-4.436-4.28h-.661c-2.698.06-5.318.913-7.533 2.453a16.895 16.895 0 0 1-5.794 2.749c.905-1.74 1.044-3.08-.087-4.228-1.74-1.74-3.375-.696-4.941.348l-.539-.626c-1.218-1.444-2.001-1.531-3.288-.192a8.692 8.692 0 0 0-1.984 2.68c-2.053 5.22-4.732 10.438-5.811 16.04a2.552 2.552 0 0 1-1.74 2.193l-4.854 1.74c-.991-1.914-2.54-2.332-4.871-1.932.626-.852.87-1.566 1.27-1.74 1.409-.365 1.549-1.53 1.74-2.592.139-.763.203-1.538.191-2.314l-2.47-2.035a7.966 7.966 0 0 1 3.288-3.288 19.731 19.731 0 0 0 6.959-6.42 7.096 7.096 0 0 1 6.263-4.089c.818 0 1.636-.226 2.453-.278l13.205-.8a17.175 17.175 0 0 0 6.49-1.74 3.753 3.753 0 0 0 2.158-3.146 3.75 3.75 0 0 0-1.706-3.413c-.296-.191-.539-.452-.992-.818 2.019-1.253 1.862-2.957 1.531-4.837-.208-1.252-.852-1.74-1.913-1.74a25.06 25.06 0 0 0-3.723.714c-.766.157-1.514.383-2.767.713.293-.611.643-1.194 1.044-1.74 2.488-2.487 5.011-4.94 7.533-7.393a8.263 8.263 0 0 0 3.167-6.386 3.854 3.854 0 0 0-3.148-3.717 3.845 3.845 0 0 0-1.741.081c-.678.21-1.374.366-2.192.592 0-.748 0-1.183-.139-1.618A4.543 4.543 0 0 0 226.381 0c-2.436.104-4.298.974-4.68 3.601-.209 1.71-.57 3.4-1.079 5.046-.887 2.61-1.966 5.22-3.027 7.707a8.753 8.753 0 0 1-1.044 1.514l-.487-.14a10.987 10.987 0 0 1-.331-2.07c0-2.088.157-4.193.174-6.28a19.133 19.133 0 0 0-.174-4.298 3.056 3.056 0 0 0-1.846-2.262 3.064 3.064 0 0 0-2.903.314 6.952 6.952 0 0 0-4.054 4.558 1.593 1.593 0 0 1-.838 1.277 1.6 1.6 0 0 1-1.528-.007 2.105 2.105 0 0 0-2.366.887 3.478 3.478 0 0 0 .295 4.698c.383.417.957.87 1.01 1.374.57 3.244.698 6.55.382 9.83-.295 1.844-.556 3.706-.696 5.567a7.688 7.688 0 0 1-2.592 5.22 29.127 29.127 0 0 1-2.262-1.914c-.313-.348-.609-1.062-.452-1.375 1.096-2.21.609-5.063 2.784-6.82.192-.231.308-.517.33-.817.157-2.245.418-4.489.4-6.716-.017-2.227-.539-2.627-2.87-2.627a2.075 2.075 0 0 1-.679-.278 5.25 5.25 0 0 1 .122-1.305 3.858 3.858 0 0 0-.261-3.045 2.365 2.365 0 0 0-4.384-.47 13.336 13.336 0 0 0-1.061 3.48 21.5 21.5 0 0 1-1.531-4.593 13.472 13.472 0 0 0-2.593-6.141 3.858 3.858 0 0 0-3.288-2.036 3.148 3.148 0 0 0-3.236 2.262 3.64 3.64 0 0 1-.626.8h-.348c-.853-.435-1.74-.905-2.558-1.34a2.625 2.625 0 0 0-3.545.45 2.64 2.64 0 0 0-.561 1.168 4.437 4.437 0 0 0 .627 4.28c1.409 1.844 2.923 3.602 4.367 5.428.325.487.61.999.852 1.531l-.383.279c-.748-.435-1.861-.714-2.174-1.375-.922-1.966-2.801-2.435-4.437-3.236a3.48 3.48 0 0 0-4.906 2.175 3.372 3.372 0 0 0 .557 4.14c.191.157.208.523.348.905-.348.227-.661.418-.94.627-2.592 2-2.87 3.932-.522 6.21a14.512 14.512 0 0 0 4.489 2.82c2.627 1.06 5.428 1.739 8.09 2.661a14.907 14.907 0 0 1 6.454 4.158 2.93 2.93 0 0 1-.226.54c-1.426 2.261-3.479 4.14-4.349 6.767a7.533 7.533 0 0 1-3.306 3.619c.192-1.13.348-1.862.435-2.575.221-1.023.332-2.067.331-3.114a3.765 3.765 0 0 0-1.74-3.201c-.8-.4-2.384.66-3.253 1.983-.522.8-1.097 1.548-1.636 2.331a4.332 4.332 0 0 0-6.611 4.054 10.827 10.827 0 0 1-1.026 5.22 7.293 7.293 0 0 0-2.488-.262 5.356 5.356 0 0 0-3.741 2.976c-.487 1.16-.957 2.32-1.409 3.479a3.49 3.49 0 0 1-1.583 2.262 10.22 10.22 0 0 1 .4-1.88c1.339-3.079 2.818-6.123 4.071-9.255a33.248 33.248 0 0 0 1.74-5.776 2.766 2.766 0 0 0-1.618-2.975 2.664 2.664 0 0 0-3.323.278c-.209.192-.487.331-.714.54-.852.765-1.513.4-2.07-.366a10.949 10.949 0 0 1-.591-1.2c-.992-1.74-2.819-1.862-4.507-1.966-1.687-.104-2.366 1.061-2.992 2.331a7.348 7.348 0 0 0-.713 5.602 16.34 16.34 0 0 1 .661 6.96 5.458 5.458 0 0 0-3.375-3.48c-1.549-.644-2.61-.557-2.836.922-.47 3.01-2.262 3.775-4.854 3.793-.122 0-.261-.122-.313-.14-1.218-4.14-2.384-8.229-3.636-12.3-1.253-4.07-2.245-4.453-5.864-2.888-1.061-.783-2.226-1.479-3.601-.47a5.222 5.222 0 0 0-1.618 6.681c-1.322-1.13-2.157-1.861-3.01-2.557a27.123 27.123 0 0 0-2.662-2.053 4.363 4.363 0 0 0-4.846-.283 4.367 4.367 0 0 0-2.113 4.371c.051.558.144 1.11.279 1.653-.627.522-1.27 1.027-1.879 1.566-2.61 2.21-2.453 5.184.313 6.924a7.687 7.687 0 0 0 4.836 1.549 4.33 4.33 0 0 1 1.966.4 519.182 519.182 0 0 1 9.674 4.088c.121 0 .121.366.156.488-2.262-.244-4.488-.557-6.715-.714a3.112 3.112 0 0 0-3.376 2.07 3.483 3.483 0 0 0 1.201 4.21c.644.523 1.357.94 2.001 1.462.278.226.713.592.678.835-.261 1.531.226 3.236-.957 4.558a8.372 8.372 0 0 0 4.611 3.898 7.314 7.314 0 0 1 2.401 1.583 5.513 5.513 0 0 1 .922 7.498c-.783 1.288-1.966 1.636-3.828 1.931.522-.887.8-1.34 1.061-1.74a2.186 2.186 0 0 0-.389-3.03 2.196 2.196 0 0 0-1.02-.449 4.21 4.21 0 0 0-4.193.87 22.903 22.903 0 0 1-3.479 2.314A27.24 27.24 0 0 0 115.678 73c-.4-3.48-3.288-3.48-5.863-3.723 0-.365 0-.66-.087-.94a4.015 4.015 0 0 0-3.479-3.479 3.881 3.881 0 0 0-4.158 1.6 4.158 4.158 0 0 0-.401 4.09 68.711 68.711 0 0 0 1.74 5.132 8.851 8.851 0 0 1 .507 3.455 8.855 8.855 0 0 1-.872 3.382c-.348-1.74-.54-3.27-.992-4.75a2.9 2.9 0 0 0-1.73-1.79 2.904 2.904 0 0 0-2.48.207c-.495.314-.972.657-1.427 1.027a5.219 5.219 0 0 0-6.106.748 4.749 4.749 0 0 0 0 7.463 4.75 4.75 0 0 1 1.548 5.046c-.3 1.083-.464 2.2-.487 3.323a4.784 4.784 0 0 1-2.262 4.158 12.282 12.282 0 0 1-3.392 1.74c-2.819.8-5.69 1.391-8.525 2.122a137.982 137.982 0 0 0-15.658 5.707c-4.402 1.739-8.7 3.671-13.084 5.463a87.808 87.808 0 0 0-12.996 5.636c-2.818 1.74-5.724 3.289-8.403 5.22-4.332 3.044-8.316 6.576-13.257 9.064.142.487.366.945.661 1.357a6.646 6.646 0 0 0 8.02.766c1.914-1.183 3.723-2.54 5.637-3.689a314.631 314.631 0 0 1 9.97-5.689 295.112 295.112 0 0 1 9.76-5.097 26.11 26.11 0 0 0 2.592-1.549 82.785 82.785 0 0 1 16.232-8.229 109.556 109.556 0 0 1 14.457-4.28 40.812 40.812 0 0 1 12.179-.957c1.94.06 3.878-.186 5.741-.73 3.689-.957 7.29-2.28 10.996-3.149a16.51 16.51 0 0 1 7.794.522c.157 0 .244.313.539.695-.974.157-1.739.296-2.557.383-2.071.261-4.176.366-6.229.731-4.871.87-9.76 1.74-14.562 2.818-7.359 1.74-14.823 3.062-22.008 5.515a131.272 131.272 0 0 0-16.336 6.751c-3.671 1.844-7.238 3.88-10.77 5.985a52.315 52.315 0 0 0-4.68 3.479c-.459.377-.961.698-1.496.957-2.47 1.079-4.958 2.157-7.481 3.114-2.244.853-4.523 1.601-6.82 2.332-2.296.73-4.315 1.2-6.455 1.861-4.714 1.462-9.36 3.167-14.388 3.306a2.226 2.226 0 0 0-2 1.218c-.714 1.548-1.6 3.079-2.61 4.819.678.477 1.38.918 2.105 1.322 1.813.753 3.821.9 5.724.418a81.992 81.992 0 0 0 17.99-5.933c.128.246.279.479.452.696 2.557 2.47 4.645 3.862 7.69 2.349a2.754 2.754 0 0 0 1.514-1.479 6.629 6.629 0 0 1 1.739-1.966c.487-.47 1.079-.8 1.583-1.253 2.506-2.122 4.959-4.349 7.516-6.402a27.156 27.156 0 0 1 4.14-2.662 17.604 17.604 0 0 1 3.115-1.183c.992-.348 2.035-.557 3.01-.94a113.523 113.523 0 0 1 15.45-4.888 34.25 34.25 0 0 1 17.484 1.043 45.318 45.318 0 0 1 7.707 3.062 15.48 15.48 0 0 1 5.985 5.22 48.286 48.286 0 0 0 4.175 5.55c2.019 2.209 4.333 1.913 6.159-.557l1.27-1.74 2.001.905c2.453 1.044 3.723.33 3.932-2.314a4.256 4.256 0 0 0-.505-2.14 10.143 10.143 0 0 0-4.54-4.21c-.94-.505-1.845-1.114-2.767-1.74a4.329 4.329 0 0 1 2.68.157c3.653 1.739 7.324 3.479 10.891 5.219 2.783 1.496 5.515.957 6.541-1.74a7.676 7.676 0 0 0 .209-3.288 9.06 9.06 0 0 0-.713-2.175 2.39 2.39 0 0 1 .73-.139c1.932.4 2.61-1.044 2.349-2.766a4.389 4.389 0 0 0-2.714-3.619 14.967 14.967 0 0 0-8.299-1.531 8.712 8.712 0 0 1-1.739 0c-1.862 0-3.741 0-5.603-.157a23.91 23.91 0 0 1-3.34-.417c-.348 0-.644-.557-1.166-1.044a22.64 22.64 0 0 1 2.888-.974 3.713 3.713 0 0 0 2.836-1.74 3.481 3.481 0 0 1 1.984-1.34c2.053-.643 4.158-1.252 6.071.54.54.323 1.127.558 1.74.696a31.2 31.2 0 0 1 7.429 4.279 2.276 2.276 0 0 1 1.027 2.645c-.157.644 0 1.74.348 2.035a2.91 2.91 0 0 1 .991 3.48 6.749 6.749 0 0 0-.139 1.566 1.94 1.94 0 0 0 .633 1.521 1.922 1.922 0 0 0 1.577.48 6.364 6.364 0 0 0 2.227-.923c.817-.469 1.565-1.078 2.609-1.826a4.331 4.331 0 0 1-.261 1.026c-1.218 1.879-2.592 3.689-3.619 5.654a6.978 6.978 0 0 0-.574 3.48 3.058 3.058 0 0 0 1.071 2.666 3.059 3.059 0 0 0 2.809.605 10.484 10.484 0 0 0 2.14-.626c.426-.146.844-.315 1.253-.505.121.47.174.748.261 1.026a3.741 3.741 0 0 0 4.888 2.558 6.308 6.308 0 0 0 2.627-2.366c1.305-2.314 2.836-4.732 2.749-7.533 0-.244.227-.47.505-1.01.4 1.149.731 1.984.992 2.836a3.867 3.867 0 0 0 2.487 2.401c1.097.47 1.618-.296 2.367-.783a15.56 15.56 0 0 1 1.861-.609c.713-.33 1.74-.608 2.018-1.2a4.525 4.525 0 0 0 .557-4.263 17.395 17.395 0 0 1-.609-2.4 19.467 19.467 0 0 0-2.975-7.464c-1.531-1.896-2.94-3.88-4.68-6.176 1.74 0 2.923 0 4.158.191a11.467 11.467 0 0 0 5.498-.905c.504-.208 1.305-.783 1.252-1.078-.26-1.583.505-3.288-.487-4.785-.33-.469-.591-.974-1.061-1.739a8.705 8.705 0 0 0 7.899-3.619 40.804 40.804 0 0 1-3.306 10.769 7.59 7.59 0 0 0-.939 2.749c-.227 2.784.922 4.454 3.479 4.262a9.728 9.728 0 0 1 1.183 0c.226.505.47.957.679 1.444a2.973 2.973 0 0 0 2.992 2.175 3.164 3.164 0 0 0 2.749-1.983c.835-2.227 1.862-4.384 2.818-6.594 2.106.505 2.106.505 3.793-1.148.226.4.418.783.661 1.148 2.366 3.48 4.367 4.21 8.403 2.888 1.74-.591 1.74-.557 3.063.905a5.316 5.316 0 0 0 1.739 1.357c1.253.574 2.14.243 2.436-1.079.487-2.192.939-4.489-.609-6.472-1.096-1.409-2.331-2.714-3.479-4.071-.627-.713-1.584-1.2-1.532-2.505.311.054.594.214.801.452 2.157 2.175 4.367 4.297 6.472 6.507 1.026 1.096 1.74 2.383 2.783 3.479 1.183 1.444 2.332 2.923 3.637 4.245a4.154 4.154 0 0 0 4.627 1.497 8.904 8.904 0 0 0 2.471-1.949Zm-75.246-35.648c0-2.732 0-2.732-1.74-5.098a7.917 7.917 0 0 1 5.063-1.096c1.448.096 2.901.096 4.35 0h.904c-1.078 2.436-4.993 5.272-8.577 6.194Zm-54.542 29.037c-4.576 1.148-9.134 2.418-13.762 3.358a121.466 121.466 0 0 0-18.963 5.55c-.922.348-1.862.591-2.801.87a2.386 2.386 0 0 1-.61 0c14.04-8.108 29.334-12.179 45.009-14.91l.209.417a7.769 7.769 0 0 1-1.149.887c-2 1.131-3.88 2.088-5.828 3.097-.675.315-1.38.56-2.105.731Zm28.011-6.959c-2.28.957-4.628 1.74-6.855 2.436l-3.045-2.297 16.928-2.523c0 .192 0 .366.122.557-2.227 1.148-4.871.87-7.15 1.827Z"/><path fill="#101A24" d="m156.041 119.314 1.74-1.739c1.131.609.244 1.548.418 2 1.496 1.566 2.888 2.888 4.105 4.367.905 1.131.749 1.496-.278 2.419l-4.228-4.576c-1.183 2.523-2.07 4.784-3.253 6.959-1.183 2.175-2.61 3.897-3.967 5.88-1.113-.574-1.131-1.078-.626-1.878 1.079-1.74 2.036-3.48 3.236-5.516-.669.181-1.349.32-2.036.418-.33 0-.922-.139-.956-.331a1.343 1.343 0 0 1 .226-1.165c.819-.523 1.667-1 2.54-1.427.974-.522 2.54-.209 2.714-1.896.104-1.044.226-2.192.365-3.515Zm-2.018 16.024c-.974.261-1.357 1.044-1.74 1.879.818-.435 1.653-.818 1.74-1.879Zm-11.987-38.989c-1.218 1.74-.922 2.94.922 4.089a5.219 5.219 0 0 0-.922-4.089Zm78.621 25.436a4.156 4.156 0 0 1-4.628-1.496c-1.305-1.323-2.453-2.801-3.636-4.245-.957-1.149-1.74-2.436-2.784-3.48-2.105-2.21-4.314-4.332-6.472-6.507a1.371 1.371 0 0 0-.8-.452c0 1.305.905 1.74 1.531 2.505 1.183 1.357 2.418 2.662 3.479 4.071 1.549 1.984 1.097 4.28.609 6.472-.295 1.322-1.183 1.74-2.435 1.079a5.31 5.31 0 0 1-1.74-1.357c-1.322-1.462-1.305-1.496-3.062-.905-4.036 1.322-6.037.661-8.403-2.888-.244-.365-.435-.748-.661-1.148-1.74 1.74-1.74 1.74-3.793 1.148-.957 2.21-1.983 4.367-2.819 6.594a3.167 3.167 0 0 1-2.748 1.983 2.977 2.977 0 0 1-2.993-2.174c-.209-.488-.452-.94-.678-1.444a9.34 9.34 0 0 0-1.183 0c-2.61.191-3.758-1.479-3.48-4.263a7.59 7.59 0 0 1 .939-2.749 40.756 40.756 0 0 0 3.306-10.769 8.696 8.696 0 0 1-7.899 3.619c.47.8.731 1.305 1.062 1.74.991 1.496.226 3.201.487 4.784 0 .296-.748.87-1.253 1.079a11.464 11.464 0 0 1-5.515.835c-1.235-.122-2.488-.122-4.158-.192 1.74 2.297 3.149 4.28 4.68 6.177a19.463 19.463 0 0 1 2.975 7.463c.146.814.349 1.616.609 2.401a4.528 4.528 0 0 1-.557 4.263c-.313.591-1.305.869-2.018 1.2a15.56 15.56 0 0 0-1.861.609c-.749.487-1.271 1.253-2.367.783a3.887 3.887 0 0 1-2.522-2.558c-.261-.852-.592-1.739-.992-2.835-.278.539-.504.765-.504 1.009 0 2.87-1.497 5.219-2.767 7.602a6.316 6.316 0 0 1-2.627 2.367 3.75 3.75 0 0 1-4.196-1.183 3.76 3.76 0 0 1-.693-1.375c-.087-.278-.139-.557-.261-1.026-.408.19-.826.359-1.252.504-.689.285-1.407.495-2.14.626a3.056 3.056 0 0 1-2.76-.609 3.067 3.067 0 0 1-1.085-2.609 6.957 6.957 0 0 1 .574-3.48c1.027-1.966 2.401-3.775 3.619-5.654a4.38 4.38 0 0 0 .261-1.026c-1.044.748-1.74 1.357-2.61 1.826a6.344 6.344 0 0 1-2.227.922 1.927 1.927 0 0 1-2.209-2.018 6.7 6.7 0 0 1 .139-1.566 2.9 2.9 0 0 0-.992-3.479c-.4-.279-.504-1.392-.348-2.036a2.28 2.28 0 0 0-1.096-2.662 31.23 31.23 0 0 0-7.516-4.175 5.924 5.924 0 0 1-1.74-.696c-1.913-1.74-4.018-1.183-6.071-.539a3.48 3.48 0 0 0-1.897 1.235 3.701 3.701 0 0 1-2.888 1.844c-.983.26-1.948.585-2.888.974.522.488.818.975 1.166 1.044 1.102.217 2.218.357 3.34.418 1.862.087 3.741.122 5.602.156a8.575 8.575 0 0 0 1.74 0 14.967 14.967 0 0 1 8.299 1.531 4.385 4.385 0 0 1 2.853 3.637c.261 1.739-.417 3.166-2.349 2.766a2.332 2.332 0 0 0-.73.139 9.06 9.06 0 0 1 .713 2.175 7.676 7.676 0 0 1-.209 3.288c-1.026 2.697-3.758 3.236-6.541 1.74-3.48-1.914-7.238-3.602-10.891-5.22a4.336 4.336 0 0 0-2.68-.156c.922.574 1.74 1.183 2.767 1.74a10.132 10.132 0 0 1 4.54 4.21c.353.657.527 1.395.505 2.14-.209 2.644-1.479 3.358-3.932 2.314l-2.07-1.044-1.27 1.74c-1.827 2.47-4.141 2.766-6.159.556a48.179 48.179 0 0 1-4.176-5.55 15.484 15.484 0 0 0-5.984-5.219 45.287 45.287 0 0 0-7.725-3.045 34.25 34.25 0 0 0-17.485-1.043 113.58 113.58 0 0 0-15.432 4.888c-.974.383-2.018.592-3.01.94a17.603 17.603 0 0 0-3.114 1.183 27.29 27.29 0 0 0-4.158 2.731c-2.557 2.053-5.01 4.28-7.516 6.403-.504.452-1.096.783-1.583 1.252a6.641 6.641 0 0 0-1.74 1.966 2.744 2.744 0 0 1-1.513 1.479c-3.045 1.514-5.133.122-7.69-2.349a4.268 4.268 0 0 1-.453-.695 82.012 82.012 0 0 1-17.989 5.863 9.1 9.1 0 0 1-5.724-.366A23.617 23.617 0 0 1 0 146.142c1.01-1.74 1.896-3.323 2.766-4.889a2.224 2.224 0 0 1 2.001-1.218c5.028-.139 9.673-1.844 14.388-3.305 2.14-.661 4.315-1.201 6.455-1.862a117.81 117.81 0 0 0 6.82-2.331c2.522-.957 5.01-2.036 7.48-3.114a7.578 7.578 0 0 0 1.497-.957 52.326 52.326 0 0 1 4.68-3.48c3.48-2.105 7.098-4.141 10.77-5.985a131.122 131.122 0 0 1 16.336-6.75c7.185-2.453 14.649-3.775 22.008-5.515 4.802-1.149 9.691-1.949 14.562-2.819 2.053-.365 4.158-.469 6.228-.73.801-.087 1.584-.227 2.558-.383-.296-.383-.383-.661-.539-.696a16.512 16.512 0 0 0-7.795-.522c-3.705.87-7.307 2.192-10.995 3.149a18.453 18.453 0 0 1-5.741.731 40.779 40.779 0 0 0-12.179.957 109.397 109.397 0 0 0-14.457 4.279 82.78 82.78 0 0 0-16.39 8.299 26.03 26.03 0 0 1-2.592 1.34c-3.253 1.74-6.541 3.34-9.76 5.097a334.28 334.28 0 0 0-9.969 5.69c-1.914 1.148-3.723 2.505-5.637 3.688a6.65 6.65 0 0 1-8.02-.766 4.479 4.479 0 0 1-.557-1.357c4.941-2.488 8.925-6.019 13.257-9.064 2.68-1.896 5.585-3.48 8.404-5.219a87.813 87.813 0 0 1 12.996-5.637c4.367-1.74 8.699-3.741 13.083-5.463a138.184 138.184 0 0 1 15.658-5.707c2.836-.73 5.706-1.322 8.525-2.122 1.215-.4 2.36-.987 3.393-1.74a4.784 4.784 0 0 0 2.261-4.158c.006-1.05.134-2.095.383-3.114a4.75 4.75 0 0 0-1.531-5.22 4.75 4.75 0 0 1 0-7.463 5.22 5.22 0 0 1 6.107-.748c.455-.37.931-.713 1.426-1.027a2.906 2.906 0 0 1 4.211 1.583c.452 1.48.643 3.062.991 4.75a8.836 8.836 0 0 0 .366-6.837c-.575-1.74-1.184-3.48-1.74-5.133a4.16 4.16 0 0 1 .4-4.088 3.88 3.88 0 0 1 4.158-1.6 4.02 4.02 0 0 1 3.48 3.479c0 .278 0 .574.087.94 2.574.33 5.462.173 5.863 3.722a27.254 27.254 0 0 1-4.002 12.753 22.92 22.92 0 0 0 3.48-2.314 4.21 4.21 0 0 1 4.193-.87 2.187 2.187 0 0 1 1.687 1.342c.141.35.19.73.142 1.105-.049.375-.194.73-.42 1.033-.261.47-.54.922-1.061 1.74 1.861-.296 3.044-.644 3.827-1.932a5.518 5.518 0 0 0-.887-7.446 7.315 7.315 0 0 0-2.401-1.583 8.372 8.372 0 0 1-4.611-3.897c1.183-1.322.696-3.027.957-4.558 0-.244-.4-.61-.678-.836-.644-.522-1.357-.939-2.001-1.461a3.476 3.476 0 0 1-1.2-4.21 3.112 3.112 0 0 1 3.375-2.07c2.227.156 4.454.47 6.715.713 0-.122 0-.435-.156-.487a519.094 519.094 0 0 0-9.673-4.089 4.334 4.334 0 0 0-1.966-.4 7.688 7.688 0 0 1-4.889-1.427c-2.819-1.74-2.975-4.645-.435-6.854.609-.54 1.253-1.044 1.879-1.566a11.006 11.006 0 0 1-.279-1.653 4.367 4.367 0 0 1 6.96-4.088c.974.6 1.91 1.263 2.801 1.983a84.477 84.477 0 0 1 3.009 2.557 5.223 5.223 0 0 1 1.618-6.68c1.375-1.01 2.541-.314 3.602.47 3.601-1.619 4.541-1.27 5.828 2.87 1.288 4.14 2.418 8.16 3.636 12.3 0 0 .192.14.313.14 2.593 0 4.385-.783 4.854-3.793.227-1.48 1.288-1.566 2.836-.922a5.462 5.462 0 0 1 3.393 3.496 16.34 16.34 0 0 0-.661-6.959 7.34 7.34 0 0 1 .504-5.462c.627-1.27 1.462-2.401 2.993-2.332 1.531.07 3.479.174 4.506 1.966.172.412.37.813.591 1.2.557.766 1.218 1.131 2.071.366.226-.209.504-.348.713-.54a2.66 2.66 0 0 1 3.323-.278 2.767 2.767 0 0 1 1.618 2.993 33.247 33.247 0 0 1-1.74 5.776c-1.253 3.131-2.731 6.176-4.071 9.255a10.22 10.22 0 0 0-.4 1.88 3.476 3.476 0 0 0 1.583-2.262c.452-1.16.922-2.32 1.409-3.48a5.354 5.354 0 0 1 3.741-2.975 7.29 7.29 0 0 1 2.488.261 10.816 10.816 0 0 0 1.026-5.22 4.336 4.336 0 0 1 4.334-4.712 4.33 4.33 0 0 1 2.277.659c.54-.783 1.114-1.531 1.636-2.331.87-1.323 2.453-2.384 3.253-1.984a3.752 3.752 0 0 1 1.74 3.201c.001 1.047-.11 2.091-.331 3.115 0 .713-.243 1.444-.435 2.575a7.533 7.533 0 0 0 3.306-3.62c.957-2.626 2.923-4.505 4.349-6.767.094-.172.169-.352.227-.54a14.91 14.91 0 0 0-6.455-4.157c-2.662-.975-5.463-1.601-8.09-2.662a14.524 14.524 0 0 1-4.489-2.819c-2.348-2.279-2.07-4.21.522-6.21.279-.21.592-.4.94-.627-.139-.383-.157-.748-.348-.905a3.376 3.376 0 0 1-.557-4.14 3.483 3.483 0 0 1 3.528-2.704c.537.02 1.063.166 1.535.425 1.635.8 3.48 1.27 4.436 3.236.314.66 1.427.939 2.175 1.374l.383-.279a10.807 10.807 0 0 0-.853-1.53c-1.444-1.74-2.957-3.584-4.366-5.429a4.436 4.436 0 0 1-.575-4.332 2.635 2.635 0 0 1 1.607-1.914 2.629 2.629 0 0 1 2.482.296c.87.435 1.74.905 2.557 1.34h.348c.245-.236.456-.506.627-.8a3.147 3.147 0 0 1 3.236-2.262 3.863 3.863 0 0 1 3.288 2.036 13.47 13.47 0 0 1 2.592 6.141c.336 1.584.85 3.124 1.531 4.593a13.413 13.413 0 0 1 1.061-3.48 2.367 2.367 0 0 1 4.385.47 3.869 3.869 0 0 1 .261 3.045 5.157 5.157 0 0 0-.122 1.305c.208.132.437.226.678.278 2.332 0 2.836.33 2.871 2.627.035 2.297-.244 4.471-.4 6.716-.022.3-.138.586-.331.817-2.174 1.74-1.74 4.61-2.783 6.82-.157.313.139 1.027.452 1.375.72.693 1.475 1.35 2.262 1.966a7.692 7.692 0 0 0 2.592-5.22c.139-1.861.4-3.723.696-5.567a36.546 36.546 0 0 0-.383-9.83c0-.504-.626-.957-1.009-1.374a3.48 3.48 0 0 1-.296-4.698 2.111 2.111 0 0 1 2.366-.887 1.603 1.603 0 0 0 2.11-.525c.146-.223.234-.479.256-.745a6.969 6.969 0 0 1 4.054-4.558 3.06 3.06 0 0 1 4.767 1.896 19.1 19.1 0 0 1 .244 4.245c0 2.088-.157 4.193-.174 6.28.04.718.151 1.428.33 2.123l.487.14a8.644 8.644 0 0 0 1.044-1.514c1.062-2.557 2.14-5.098 3.028-7.707.509-1.647.87-3.335 1.078-5.046.383-2.627 2.245-3.48 4.68-3.601a4.542 4.542 0 0 1 4.245 4.21c0 .435 0 .87.14 1.618.817-.226 1.513-.382 2.192-.591a3.842 3.842 0 0 1 4.923 3.705 8.263 8.263 0 0 1-3.166 6.386c-2.523 2.453-5.046 4.906-7.533 7.394a10.743 10.743 0 0 0-1.044 1.74c1.252-.331 2-.557 2.766-.714a25.085 25.085 0 0 1 3.723-.713c1.061-.087 1.74.452 1.914 1.74.33 1.879.487 3.584-1.531 4.836.452.366.696.626.992.818a3.758 3.758 0 0 1-.453 6.559 17.17 17.17 0 0 1-6.489 1.74l-13.205.8c-.818 0-1.636.278-2.453.278a7.097 7.097 0 0 0-6.263 4.089 19.734 19.734 0 0 1-6.96 6.42 7.97 7.97 0 0 0-3.392 3.2l2.749 2.019c.012.776-.052 1.55-.192 2.314-.278 1.061-.417 2.227-1.74 2.592-.4.105-.643.818-1.27 1.74 2.332-.4 3.88 0 4.872 1.931l4.854-1.74a2.56 2.56 0 0 0 1.74-2.192c1.078-5.654 3.758-10.752 5.811-16.04a8.688 8.688 0 0 1 1.983-2.68c1.287-1.34 2.07-1.253 3.288.191l.539.627c1.566-1.044 3.254-2.053 4.941-.348 1.131 1.148.992 2.575.087 4.227a16.895 16.895 0 0 0 5.794-2.748 13.724 13.724 0 0 1 7.533-2.453h.661c3.48.087 4.037.591 4.437 4.28.547.374 1.13.694 1.739.956a4.59 4.59 0 0 1 3.167 4.454 4.767 4.767 0 0 1-3.88 4.663 32.677 32.677 0 0 1-5.55.678 32.695 32.695 0 0 0-8.229.888 14.94 14.94 0 0 0-3.097 1.322 2.82 2.82 0 0 0 2.593.696 4.399 4.399 0 0 1 4.888 1.913c1.009 1.566.975 2.158-.626 2.958-.512.212-1.035.398-1.566.557l.331 1.113c.939 3.236-.922 5.655-4.263 5.22a61.878 61.878 0 0 1-6.611-1.357 56.957 56.957 0 0 0-11.065-1.862 6.143 6.143 0 0 0-5.411 1.74c.835.835 1.74.4 2.697.313 2.001-.209 4.002-.4 6.002-.522a3.237 3.237 0 0 1 1.514.313c1.34.592 2.088 2.192.383 3.323-.366.261-.748.47-1.096.679-.03.167-.03.337 0 .504.835 2.853-.905 4.558-4.28 4.089a6.96 6.96 0 0 0-4.106.191 3.909 3.909 0 0 0 3.149.905c2.314.122 4.645 0 6.959.174 1.233.227 2.413.681 3.48 1.34 1.304.695 2.505 1.6 3.653 2.365a50.017 50.017 0 0 0 10.021-6.959c3.48-2.714 6.785-5.671 11.117-7.08a3.917 3.917 0 0 1 5.429 2.157c.468-.139.944-.25 1.426-.33a22.786 22.786 0 0 1 3.758-.21c1.74.157 2.21.783 2.523 2.367a2.524 2.524 0 0 1-1.444 2.957c-1.966 1.253-3.95 2.47-5.915 3.706a34.027 34.027 0 0 0 10.525-.974 27.418 27.418 0 0 1 14.649.783c.8.295 1.566.626 1.74 1.6a2.298 2.298 0 0 1-1.409 2.14c-.888.54-1.844.957-3.027 1.549.556.765.991 1.426 1.496 2.035 1.496 1.74 1.74 3.219.939 4.68a4.277 4.277 0 0 1-4.906 2.297c-4.071-.957-8.107-2.123-12.178-3.167-2.871-.713-5.742-1.34-8.699-2.018l-.157.452 2.992 1.149a6.956 6.956 0 0 1 4.75 4.697c.87 2.819-.591 4.436-3.479 3.775-.853-.191-1.74-.539-2.575-.835-.227.592-.383 1.079-.609 1.549a3.59 3.59 0 0 1-2.381 2.385 3.579 3.579 0 0 1-3.308-.646 51.063 51.063 0 0 1-5.22-3.48 23.974 23.974 0 0 0-6.959-3.479c-1.635-.522-3.166-1.322-4.784-1.913-2.158-.8-4.35-1.514-7.046-2.436.678 1.287 1.165 2.07 1.531 2.888.974 2.157.539 3.375-1.74 4.297-1.18.489-2.421.816-3.689.974-1.478.174-2.992.105-4.488.157a8.022 8.022 0 0 0-1.27.365 66.312 66.312 0 0 1 13.553 5.22 14.767 14.767 0 0 1 6.767 6.35c.439.948.653 1.983.627 3.027 0 1.044-1.044 1.74-2.505 1.74a36.688 36.688 0 0 1-3.967-.487 20.652 20.652 0 0 0-.331 3.253c0 .835.174 1.74-.504 2.297a8.93 8.93 0 0 1-2.314 2.105ZM31.194 141.932a4.365 4.365 0 0 0 3.689-1.044l8.037-6.611c-3.2.313-9.655 4.68-11.726 7.655Zm191.742-57.518c-1.009.679-1.531 1.305-1.253 2.575 1.149.418 2.279.835 3.48 1.218a63.244 63.244 0 0 1 14.875 6.82c1.357.94 2.697 1.896 4.123 2.697 1.74.991 2.21.765 2.975-1.114.609-1.461 1.096-1.74 2.593-1.322.574.157 1.096.505 1.739.609.644.104 1.514.174 2.436.278a4.43 4.43 0 0 0-2.679-3.966c-1.253-.522-2.471-1.097-3.706-1.601a3.028 3.028 0 0 1-2.001-4.489c1.062.122 2.245.192 3.375.418 1.131.226 2.628.644 3.932.991 3.671.975 7.342 2.001 11.048 2.923 1.74.435 3.671.662 5.498.992 1.026.191 1.479-.557 2-1.2.522-.644.296-1.375-.243-2.001a23.989 23.989 0 0 1-1.618-2.157 2.398 2.398 0 0 1 .007-3.358 2.403 2.403 0 0 1 1.054-.627l1.984-1.043a10.068 10.068 0 0 0-2.001-.818 38.281 38.281 0 0 0-10.735-.122c-2.14.261-4.28.696-6.419.922-2.14.226-3.88.226-5.829.313a2.017 2.017 0 0 1-2.261-1.322c-.383-1.183.661-1.53 1.409-1.983 1.914-1.166 3.862-2.314 5.758-3.48a2.224 2.224 0 0 0 1.253-2.627c-1.009.087-1.966.105-2.871.261-.904.157-1.583.54-2.383.696a1.844 1.844 0 0 1-2.262-.992c-.957-1.826-.974-1.74-2.836-1.252-4.123 1.165-6.959 4.175-10.438 6.593-3.48 2.419-6.612 4.854-10.004 7.168Zm-15.902-21.886c-.609.765-1.844 1.044-2.801 1.514a28.876 28.876 0 0 1-3.479 1.565 8.698 8.698 0 0 0-3.915 2.523 9.549 9.549 0 0 1-1.983 2.035c-3.602 2.14-7.255 4.193-10.874 6.281-.247.16-.479.34-.696.54a15.103 15.103 0 0 0 3.567-1.34 7.304 7.304 0 0 1 6.263-.835 1.93 1.93 0 0 0 1.461 0c3.184-1.74 6.699-1.531 10.091-1.931.679 0 1.375-.122 1.74 1.148-3.758 1.13-8.055.278-11.065 2.522-.226 1.618-.4 2.819-.574 4.002l5.219.905a8.18 8.18 0 0 1 5.133 2.053c-1.932.591-3.48-.244-5.011-.366-1.531-.122-3.375-.383-4.871-.574-.505.974-.836 1.74-1.27 2.384-1.236 1.861-3.254 2.035-5.22 2.21-1.474.086-2.92.446-4.262 1.06.556 1.218.556 1.305 1.27 1.288 3.149 0 6.333.209 9.308-1.148.56-.353 1.141-.673 1.739-.957 2.349-.766 4.68-1.6 7.081-2.14a42.634 42.634 0 0 1 7.081-1.027 5.637 5.637 0 0 1 5.463 3.724 6.964 6.964 0 0 0 1.601-.453c1.513-.835 2.087-3.27.904-4.14a8.558 8.558 0 0 0-5.219-2.28c-2.227 0-4.454 0-6.681-.121a4.888 4.888 0 0 1-4.784-2.332c-.766-1.426-.505-2.157 1.009-2.783a9.413 9.413 0 0 1 5.098-.14 2.695 2.695 0 0 0 2.627-.66c-.331-.975-.644-1.862-.975-2.784l1.566-1.34a3.786 3.786 0 0 0-.87-.244c-4.071.522-8.125 1.062-12.178 1.566-1.096.14-2.279.33-2.819-1.218a7.677 7.677 0 0 0 1.479-.94 17.067 17.067 0 0 1 8.699-5.097 22.371 22.371 0 0 1 9.986.731c3.341.818 6.716 1.479 10.056 2.297 1.357.33 2.123-.122 2.436-.922a28.037 28.037 0 0 1-.522-3.672c0-1.409 1.74-1.043 2.697-2.192-1.166-.208-2.001-.4-2.853-.487-.853-.087-2.106 0-3.115-.243-1.009-.244-2.383-1.253-2.383-2.105 0-1.218.783-1.845 1.74-2.35a17.88 17.88 0 0 1 6.454-1.739c2.888-.313 5.811-.47 8.699-.626a5.632 5.632 0 0 0 3.984-1.827c.888-.922 1.009-1.566.226-2.557a7.66 7.66 0 0 0-1.861-1.566 15.117 15.117 0 0 0-1.862-.818 1.85 1.85 0 0 1-1.291-1.624 1.835 1.835 0 0 1 .091-.725c.06-.357.101-.717.122-1.078a8.805 8.805 0 0 0-4.767-.296 23.859 23.859 0 0 0-8.456 3.775c-1.03.605-2.12 1.1-3.253 1.479a1.289 1.289 0 0 1-1.74-.505 4.052 4.052 0 0 1-.278-2.087c0-.453.661-.818.835-1.288.122-.465.175-.946.156-1.426a5.219 5.219 0 0 0-1.635 0c-.47.139-.8.66-1.235.94-1.357.886-1.653.817-2.714-.523-.122-.156-.348-.209-.661-.365-.489.57-.921 1.188-1.288 1.844-1.061 2.314-2.105 4.628-3.01 6.96-.904 2.33-1.74 5.08-2.609 7.637-.348.887-.227 2.157-.801 2.888Zm-12.683-6.56c-.104 0-.226.14-.469.297.347.417.695.835 1.2 1.409.591-1.2.087-1.549-.748-1.705h.017Zm-10.23 5.464c-2.296 3.044-4.436 6.193-6.733 9.238a7.328 7.328 0 0 1-2.157 1.914 2.297 2.297 0 0 1-1.74 0c-.365-.174-.574-.975-.574-1.496.018-.67.178-1.329.47-1.932.731-1.53 1.548-3.027 2.383-4.593-.313-.66-.643-1.357-.939-2.018-.676.519-1.392.984-2.14 1.392-.922.435-1.461-.435-2.157-.818a3.482 3.482 0 0 0-4.854 1.514 8.711 8.711 0 0 1-1.41 2.018 2.667 2.667 0 0 0-.73 2.645 12.445 12.445 0 0 1-1.305 7.829 17.276 17.276 0 0 1-8.908 8.229 31.69 31.69 0 0 1-5.341 1.74c-1.514.348-3.097.278-4.628.539-.845.295-1.652.692-2.401 1.183a10.34 10.34 0 0 0 1.74.26c2.07-.26 4.158-.504 6.211-.904 1.583-.313 3.114-1.026 4.698-1.252 1.931-.296 3.914-.21 4.941-2.314.086-.157.4-.192.591-.313 2.123-1.34 4.28-2.662 6.368-4.054.403-.308.691-.743.817-1.235a50.403 50.403 0 0 0 1.966-10.77c0-.156.279-.295.453-.47.226.122.539.175.574.314.957 3.392-.366 6.593-.905 10.073a25.723 25.723 0 0 0 8.508-4.61c3.305-3.062 7.115-5.568 9.725-9.36.258-.305.543-.584.853-.835.278.174.487.226.521.313.14.487.244.991.348 1.461 2.019.505 2.019.505 2.053 1.88l-1.304-.123c-.52-.07-1.043-.104-1.566-.104a2.09 2.09 0 0 0-1.992 1.313 2.09 2.09 0 0 0-.148.827c.127.548.344 1.072.643 1.548l-1.548.453c-.72.092-1.42.304-2.07.626-1.862 1.374-3.584 2.923-5.428 4.332a26.394 26.394 0 0 1-3.028 1.931 48.632 48.632 0 0 1-3.253 1.74c1.241.439 2.533.714 3.845.818 1.183.156 2.349.435 3.479.66.789.196 1.592.324 2.401.383 2.019 0 4.037-.121 6.055 0a1.354 1.354 0 0 1 1.026.87c0 .696-.417 1.027-1.165.957-1.497-.139-2.975-.26-4.472-.365l-4.262-.226c-2.471-.122-4.924-.296-7.394-.313-1.131 0-2.297.782-3.341-.331-.139-.14-.782 0-1.026.191-1.409 1.131-2.749 2.332-4.384 3.74h13.083c2.627 0 5.219 0 7.864-.277 2.644-.279 5.219-.714 7.898-1.097a2.247 2.247 0 0 0 2.036-1.426l-1.305-2.453c.487-.4.835-.661 1.148-.957a1.51 1.51 0 0 0 .574-1.966 1.737 1.737 0 0 0-1.861-.992c-.886.132-1.752.378-2.575.731-1.949.783-3.897 1.6-5.793 2.505a2.056 2.056 0 0 1-2.61-.574 1.747 1.747 0 0 1-.558-1.346 1.73 1.73 0 0 1 .662-1.298 18.442 18.442 0 0 1 2.993-2.332c1.131-.713 2.401-1.217 3.479-1.896 2.262-1.322 4.524-2.627 6.698-4.071a7.556 7.556 0 0 0 3.202-3.845c-3.48 0-4.35-1.113-3.637-4.158v-.209c.627-2.557-.417-3.653-2.922-2.975a10.945 10.945 0 0 0-5.759 4.14h.017Zm-18.755 36.1a5.35 5.35 0 0 1 2.213 1.197 5.349 5.349 0 0 1 1.424 2.074l1.183-3.619c-2.54-1.34-3.863-2.592-.94-5.219.731-.644 1.74-1.114 1.879-2.314-4.558-1.53-17.398-.383-24.165 2.123 0 .887.139 1.618 1.391 1.426a11.142 11.142 0 0 1 2.019 0 3.254 3.254 0 0 1 3.305 1.862 3.583 3.583 0 0 1-1.531 3.845l-5.672 3.914.105.505c.483.12.983.155 1.479.104a28.036 28.036 0 0 0 9.081-3.566 33.595 33.595 0 0 1 3.619-1.74 6.958 6.958 0 0 1 4.61-.592Zm-24.809-7.62-.226-.348-6.089 2.14 1.305 2.036 5.01-3.828Zm11.396-14.18c2.138.594 4.389.66 6.559.192a8.268 8.268 0 0 0-6.559-.191Zm7.62-1.739c0-1.148.122-2.018.209-3.34l-3.897 2.418.104.4 3.584.522Zm-13.605 4.958c1.879 2.367 1.879 2.367 1.74 5.098 3.584-.922 7.498-3.758 8.507-6.107h-.904a32.956 32.956 0 0 1-4.35 0 7.916 7.916 0 0 0-4.993 1.01Zm32.047-15.901a.96.96 0 0 0-.366.748c.174 1.914-1.148 3.149-1.983 4.61a3.93 3.93 0 0 0-.278 1.01l.33.173 5.968-8.142-.348-.348a53.057 53.057 0 0 0-3.323 1.949Zm12.978-9.917c-.8.574-1.739.818-1.478 1.896 1.861-.278 1.861-.278 1.478-1.896Zm-7.463 2.21c-2.384 1.896-4.402 3.48-6.403 5.132-.121.104-.121.4-.226.818a20.75 20.75 0 0 0 5.533-3.48c.522-.4.626-1.374 1.096-2.47Zm20.877-19.4c-1.444 2.002-3.097 3.846-4.593 5.812-.905 1.218-1.74 2.505-2.557 3.758h-.105c-.974-.47-1.652.122-2.331.713-.679.592-1.461 1.061-2.244.087.139-.661.295-1.287.435-1.914l-.435-.191a27.462 27.462 0 0 1-6.646 7.986 16.075 16.075 0 0 0-1.618 2.261c.121.122.226.244.348.348a23.714 23.714 0 0 0 5.115-2.923c1.739-1.252 3.479-2.522 5.219-3.74.974-.661 1.931-1.305 2.07-2.61v-.087a8.867 8.867 0 0 0 1.74-1.026c2.314-2.001 4.506-4.141 6.837-6.107a5.747 5.747 0 0 1 2.749-1.34c2.31-.39 4.654-.536 6.994-.434a72.256 72.256 0 0 0 14.51-1.097 4.631 4.631 0 0 0 3.845-3.183c-.626-.348-1.183-.557-1.653-.888a1.998 1.998 0 0 1-.981-2.78 2 2 0 0 1 .755-.786 1.73 1.73 0 0 0 .78-1.174 1.747 1.747 0 0 0-.345-1.366c-1.183.278-2.384.591-3.619.87-.647.174-1.303.313-1.966.417a2.244 2.244 0 0 1-2.453-3.305 11.06 11.06 0 0 1 1.983-2.958c1.392-1.444 3.028-2.662 4.472-4.071a55.57 55.57 0 0 0 4.262-4.558c.541-.71.862-1.563.922-2.454a2.08 2.08 0 0 0-.594-1.864 2.082 2.082 0 0 0-1.876-.554c-.67.083-1.333.217-1.984.4-1.826.348-2.296 0-2.714-1.879a10.287 10.287 0 0 0-.817-2.296 1.48 1.48 0 0 0-.835-.644 3.22 3.22 0 0 0-3.306 2.036c-.487 1.74-.8 3.357-1.374 4.958-.94 2.61-2.019 5.22-3.062 7.742a8.396 8.396 0 0 1-.94 1.74 2.104 2.104 0 0 1-3.897-.296 4.097 4.097 0 0 1-.487-1.74v-6.472c.096-1.419.096-2.843 0-4.262-.174-1.27-1.027-1.618-2.14-.957a6.107 6.107 0 0 0-3.097 3.584 3.316 3.316 0 0 1-1.37 2.25 3.301 3.301 0 0 1-2.579.534c.254 1.734.728 3.43 1.409 5.045.397 1.283.642 2.609.731 3.95 0 2.678-.139 5.375-.244 8.072a13.312 13.312 0 0 1-2.296 7.394h-.018Zm-7.429.297c-1.478 1.409-1.096 3.253-1.148 5.045 1.079-1.166 2.94-1.53 3.253-3.375l-2.105-1.67Zm-4.297 5.706c.002.27.037.54.104.8h.453c.209-.887.435-1.74.644-2.661.313-1.305.556-2.627.904-3.915.348-1.287.766-2.436 1.183-3.636a26.072 26.072 0 0 1 2.018-5.428c1.74-2.87 1.357-5.828 1.253-8.89l-1.34-.192c-1.739-.243-2.296-.922-2.053-2.68.07-.447.175-.89.314-1.321a2.247 2.247 0 0 0-.783-2.366c-1.236 1.026-1.253 1.009-1.323 1.966-.069.956 0 1.513 0 2.261a3.653 3.653 0 0 1-.191 1.531 2.941 2.941 0 0 1-1.34 1.305 1.444 1.444 0 0 1-1.739-1.044c-.152-.346-.285-.7-.4-1.061a36.916 36.916 0 0 0-1.01-3.915c-.991-2.661-2.087-5.219-3.253-7.88-.504-1.15-1.166-1.236-2.088-.4a8.844 8.844 0 0 0-1.357 1.739 2.525 2.525 0 0 1-2.917 1.49 2.52 2.52 0 0 1-1.049-.533c-.662-.383-1.357-.679-2.071-1.044-.8 1.966.557 2.8 1.34 3.81 1.009 1.287 2.262 2.4 3.271 3.688 1.374 1.74 2.053 4.385-.557 6.09-.731-.4-1.479-.731-2.175-1.166-1.74-1.096-3.479-2.244-5.219-3.323-.905-.54-2.001-1.148-2.819 0-.817 1.148.14 1.74.731 2.557.974 1.34.835 2.158-.365 3.323-.374.371-.769.72-1.183 1.044-1.323 1.027-1.392 2.018 0 2.923a18.644 18.644 0 0 0 3.601 1.74c2.784 1.079 5.759 1.566 8.577 2.592a21.641 21.641 0 0 1 6.49 3.706c2.818 2.314 4.784 5.045 4.366 8.89h-.017Zm-23.922 9.308c0 1.427-.47 2.645-2.053 2.888 0 1.061 0 1.931-.104 2.923 1.739.278 2.018 1.53 1.826 3.201a13.48 13.48 0 0 0 4.315-8.35c0-1.828.226-3.637.365-5.464h.644c1.514 3.932.435 7.742-.991 11.622a7.684 7.684 0 0 0 2.018-1.096 105.007 105.007 0 0 0 12.178-10.439 5.88 5.88 0 0 0 1.74-3.706 5.563 5.563 0 0 0-.8-4.297 6.648 6.648 0 0 0-3.028 3.219c-.765 1.461-1.339 3.01-2.157 4.436a26.303 26.303 0 0 1-2.923 4.263c-.783.904-1.6.73-2.557 0a2.871 2.871 0 0 1-.94-2.854c.226-1.617.487-3.253.679-4.888 0-.783.209-1.653-.87-2.07l-2.227 3.722c-1.096 1.74-1.862 1.74-3.045 0a8.125 8.125 0 0 0-.626-.66 7.902 7.902 0 0 0-1.305 4.418c-.139 1.027-.139 2.07-.139 3.132Zm-27.036 1.079c-.887 3.323-1.096 3.48-4.437 3.288-.121 0-.243.122-.539.278.296 1.148-.922 2.158-.191 3.48a20.022 20.022 0 0 1 1.252 14.231c0 .418 0 .853-.122 1.114l5.22 1.548c1.009-.435 2.523-1.061 4.001-1.74 2.436-1.13 4.854-2.314 7.273-3.48a12.44 12.44 0 0 0 5.219-3.81 13.071 13.071 0 0 1 2.401-2.261c.487-.383 1.374-.418 1.74-.887.904-1.427 1.618-2.993 2.418-4.524a3.466 3.466 0 0 0-.679-.765 2.676 2.676 0 0 1-1.165-3.132c.174-.609-.435-1.427-.661-2.088-2.175.192-2.749 1.636-3.375 3.132a34.463 34.463 0 0 1-2.227 4.628 2.076 2.076 0 0 1-1.797 1.21 2.07 2.07 0 0 1-1.892-1.054 2.797 2.797 0 0 1-.504-2.957c.783-2.018 1.739-4.002 2.488-6.02 1.217-3.062 2.401-6.107 3.479-9.186a1.095 1.095 0 0 0-.278-.974 1.292 1.292 0 0 0-1.027-.087c-.335.159-.651.357-.939.591-2.401 1.514-3.48 1.27-5.22-1.13-.208-.296-.347-.662-.556-.975a1.737 1.737 0 0 0-2.224-.797 1.744 1.744 0 0 0-.682.519 4.327 4.327 0 0 0-.817 3.932c.678 3.67 1.096 7.394 1.531 11.117a7.898 7.898 0 0 1-.314 2.436 3.59 3.59 0 0 1-1.933 2.257 3.582 3.582 0 0 1-2.973.022c-1.287-.627-1.044-1.88-1.444-2.958 1.74 0 1.34-1.357 1.444-2.331.192-1.549.453-3.167-1.444-4.228-.295.261-.522.383-.609.557a4.719 4.719 0 0 0-.452 1.044h.035Zm-14.005 32.916a25.708 25.708 0 0 0 7.22-9.29 15.869 15.869 0 0 0 1.322-4.958 19.85 19.85 0 0 0-2.157-11.535 6.563 6.563 0 0 1-.488-1.496c-.4-1.601-.765-3.184-1.165-4.785-.157-.644-.348-1.287-.54-1.948-.939-3.306-1.861-6.629-2.835-9.934a11.057 11.057 0 0 0-1.044-1.932c-1.74.557-3.341 2.001-4.907 0-2.035 1.618-2.209 2.75-.782 4.263.817.852 1.739 1.566 2.644 2.418a1.844 1.844 0 0 1 .278 2.366 1.947 1.947 0 0 1-2.505.974 5.745 5.745 0 0 1-1.74-1.252 57.38 57.38 0 0 0-7.463-6.768 3.133 3.133 0 0 0-3.149-.296 2.939 2.939 0 0 0-.696 3.097c.8 2.592.765 2.749-1.409 4.524-.905.748-1.392 1.548-.905 2.487l2.557 1.01c.381.212.783.38 1.201.504a35.13 35.13 0 0 1 10.23 3.254 16.523 16.523 0 0 1 3.618 2.244c1.288 1.044 1.34 2 .592 3.619a2.524 2.524 0 0 1-3.062 1.74c-1.74-.262-3.48-.662-5.306-.958a14.096 14.096 0 0 0-1.984 0c3.706 2.158 4.854 4.89 3.984 8.49-.243 1.027.314 1.514 1.305 1.74a5.737 5.737 0 0 1 4.315 2.54 12.358 12.358 0 0 1 2.488 7.273c.033.88.161 1.756.383 2.61Zm-28.324 14.823a59.697 59.697 0 0 0 6.959-3.01c3.775-1.948 7.464-4.07 11.9-4.262.644 0 1.444-.992 1.74-1.74.296-.748-.383-1.27-.992-1.74-2.001-1.548-2.053-2.226-.487-4.21.09-.159.161-.328.209-.504-1.357-.696-2.157.139-3.08.783a32.546 32.546 0 0 1-3.81 2.314 1.948 1.948 0 0 1-2.227-.435 2.328 2.328 0 0 1-.278-2.558c.25-.454.523-.896.818-1.322a29.684 29.684 0 0 0 1.983-3.74 33.118 33.118 0 0 0 1.131-4.35c.818-3.48.417-3.897-3.132-3.932-1.739 0-2.296-.522-2.488-2.192v-.453c-.174-1.357-.904-2.122-1.913-2.018a2.19 2.19 0 0 0-2.018 2.697 34.96 34.96 0 0 0 1.444 4.715 13.09 13.09 0 0 1 .365 8.386 3.887 3.887 0 0 1-1.027 1.74c-1.461 1.46-2.992 1.078-3.479-.923-.261-1.078-.279-2.21-.47-3.323-.139-.748-.383-1.479-.748-2.8-.87 1.026-1.427 1.582-1.844 2.191-1.375 2.019-1.444 2.036-3.48.627-1.148-.8-1.879-.679-2.627.435a2.158 2.158 0 0 0 0 2.714c.373.47.773.918 1.2 1.34a5.723 5.723 0 0 1 1.74 4.906c-.243 1.74-.556 3.48-.817 5.219a8.247 8.247 0 0 1-8.195 6.959c-2.91.014-5.795.538-8.525 1.548a368.451 368.451 0 0 0-13.918 5.028c-4.332 1.74-8.699 3.48-12.927 5.22a113.145 113.145 0 0 0-13.065 5.985c-1.931 1.13-4.002 2.035-5.88 3.27-3.689 2.401-7.308 4.924-10.91 7.447-1.026.713-1.913 1.583-2.87 2.383l.4.592c.31-.031.61-.12.888-.261.416-.394.857-.761 1.322-1.096 1.566-.801 3.218-1.462 4.802-2.279 2.783-1.462 5.532-3.01 8.298-4.507l10.317-5.462c2.192-1.149 4.437-2.21 6.594-3.48a112.023 112.023 0 0 1 16.615-7.951 69.067 69.067 0 0 1 6.629-2.244c3.48-.853 6.854-1.531 10.334-2.123 2.262-.4 4.628-.313 6.837-.852a78.442 78.442 0 0 0 8.682-2.732Zm22.008-6.385c-.46.199-.893.456-1.287.766 2.174 1.13 4.175-.853 6.072.26.104 0 .434-.347.713-.451 2.383-.94 3.984 0 3.653 2.348a3.098 3.098 0 0 0 3.584-1.513c-.713-1.444-2.314-2.35-2.122-4.437.974-.54 2.035-1.2 3.184-1.74 2.122-.957 4.68-1.113 6.019-3.48.139-.243.679-.225.975-.4a19.328 19.328 0 0 0 2.975-1.844 2.07 2.07 0 0 0 .487-1.74c-.209-.782-1.009-.678-1.74-.521a8.7 8.7 0 0 1-1.74.226c-2.035 0-2.488-.644-1.74-2.627.062-.258.109-.52.14-.783-2.854-.905-3.932-.47-5.498 2.035a17.516 17.516 0 0 1-4.402 5.463c-2.209 1.549-4.506 2.975-6.785 4.385-.765.47-1.583.8-1.235 2.053a14.927 14.927 0 0 0 5.219-3.08 21.453 21.453 0 0 1 6.959-3.897c1.392-.417 2.732-1.044 4.141-1.6 1.131.991 1.113 1.879-.104 2.4-.358.11-.725.186-1.097.227a22.94 22.94 0 0 0-7.95 3.48 27.356 27.356 0 0 1-8.421 4.47Zm4.123 5.22c0-.8 0-1.6-.087-2.575a2.541 2.541 0 0 0-.452-.087c-3.723 0-7.446-.14-11.152-.122a7.375 7.375 0 0 0-2.575.644c-1.653.66-3.392 1.53-5.132 2.4a7.306 7.306 0 0 0-1.218.853 25.487 25.487 0 0 0 5.793-1.044c2.453-.646 5.047-.5 7.412.418 2.012.542 4.066.909 6.141 1.096 1.166.087 1.392-.331 1.27-1.566v-.017Zm2.854 2.435c4.193.331 5.619-.435 5.463-3.01l-5.22.227a72.371 72.371 0 0 0-.243 2.801v-.018Zm0 2.941c0-.192-.087-.366-.122-.557l-16.911 2.54 3.062 2.297c2.158-.696 4.558-1.479 6.838-2.436 2.279-.957 4.923-.679 7.133-1.74v-.104Zm-48.906 12.283c4.628-.94 9.186-2.21 13.762-3.358a10.9 10.9 0 0 0 2.105-.783 262.314 262.314 0 0 0 5.828-2.975c.41-.26.794-.557 1.149-.887l-.209-.418c-15.658 2.801-30.968 6.803-45.008 14.91.202.027.407.027.609 0 .94-.278 1.879-.522 2.8-.87a121.358 121.358 0 0 1 18.964-5.619Zm34.309-3.254c.4 0 .818-.191 1.218-.278a3.183 3.183 0 0 0-1.914-.574c-1.74 0-2.053-.47-1.74-2.21 0-.365.157-.713.279-1.218a6.205 6.205 0 0 0-5.046-.209c-1.74.644-3.358 1.636-5.063 2.419a81.186 81.186 0 0 1-7.776 3.479c-2.019.714-4.298.696-6.35 1.323-3.724 1.13-7.656 1.565-11.135 3.479-.402.138-.832.18-1.253.122a10.424 10.424 0 0 0-2.575.104c-2.68.801-5.22 1.74-7.916 2.61-5.34 1.74-10.7 3.48-15.971 5.324-3.306 1.183-6.507 2.679-9.743 4.053a192.201 192.201 0 0 1-20.425 6.96c-3.723 1.096-7.533 1.983-11.291 2.975-1.74.452-2.401 1.287-2.766 3.479 2.261-.47 4.436-.991 6.646-1.374 8.385-1.496 15.901-5.22 23.522-8.838 4.54-2.123 9.255-3.897 13.918-5.776.957-.383 2.018-.522 2.992-.888a128.191 128.191 0 0 1 7.76-3.01 11.04 11.04 0 0 1 1.27-.469c2.192-.644 4.384-1.34 6.593-1.914 3.898-1.096 7.795-2.157 11.761-2.836a18.769 18.769 0 0 1 6.003 0c1.228.345 2.4.866 3.48 1.549l10.647 4.819a15.31 15.31 0 0 1 5.219 3.827c1.253 1.392 2.54 2.749 3.81 4.106l3.48 3.584c.383-.661.643-1.009.835-1.392 1.148-2.331 2.001-2.575 4.193-1.218.591.366 1.252.627 1.931.957.661-1.218.696-2.105-.191-2.87-.888-.766-1.879-1.74-2.906-2.384-1.635-1.183-3.358-2.227-5.01-3.479a1.945 1.945 0 0 1-.638-2.39 1.95 1.95 0 0 1 2.221-1.09c1.624.262 3.228.634 4.802 1.113 2.731 1.027 5.341 2.349 8.055 3.48 1.913.783 3.879 1.427 5.637 2.053 1.2-.748 1.409-1.514.956-2.488l-.835-1.74c-.956-2.07-.313-3.114 2.001-3.323l1.34-.139a2.512 2.512 0 0 0-1.74-2.053 22.193 22.193 0 0 0-3.619-1.113 56.077 56.077 0 0 0-10.943-.4 10.084 10.084 0 0 1-4.837-.731 2.19 2.19 0 0 1-1.339-2.123 3.058 3.058 0 0 1 2.453-3.288Zm31.873 10.439-3.184-1.74c-.644 1.531-1.183 2.853-1.74 4.402 2.227-.087 2.888-2.088 4.924-2.68v.018Zm7.359-10.439.939.957c2.036 2.07 2.001 2.523-.208 4.419a1.737 1.737 0 0 0-.644 1.357c.261 1.844-.939 2.558-2.279 3.167-.87.382-1.74.643-2.697.956a10.442 10.442 0 0 1-1.983 6.751c-.94 1.74-2.314 3.271-2.366 5.219 1.143.259 2.308.411 3.479.452 1.636 0 2.784.366 3.202 2.106l1.739-1.375c.47 1.253-1.479 1.392-1.252 2.54 1.287.331 1.444.348 2.105-.417a11.012 11.012 0 0 0 2.783-6.211 33.36 33.36 0 0 1 1.027-5.046c.243-.939.609-1.913 1.896-1.879a2.422 2.422 0 0 1 2.14 1.984c.087.442.087.897 0 1.339a5.217 5.217 0 0 0 1.096 3.88l5.028-1.287s0 .191 0 0c-.435-4.802-1.061-9.534-4.558-13.31a11.996 11.996 0 0 1-1.949-2.453c-1.635-3.375-4.366-3.271-7.411-3.097l-.087-.052Zm14.005-8.333a2.314 2.314 0 0 1-.678-3.184c.133-.287.244-.583.33-.888a3.044 3.044 0 0 0-3.758-1.287 9.814 9.814 0 0 0-3.131 1.235 42.202 42.202 0 0 1-10.439 4.506 4.354 4.354 0 0 1-3.48-.174 2.203 2.203 0 0 1-1.095-.675 2.207 2.207 0 0 1 .556-3.378c.467-.383.962-.732 1.479-1.044 1.166-.8 2.401-1.531 3.48-2.401.695-.54 1.739-1.027 1.304-2.366a4.207 4.207 0 0 0-1.096-.174c-.817 0-1.618.243-2.435.348-.818.104-1.914.174-2.523-.905-1.096-2-2.297-2.262-4.332-1.235-1.566.8-2.018 2.314-2.697 3.723a22.057 22.057 0 0 1-6.785 8.699 5.902 5.902 0 0 1-2.14 1.009c-2.992.748-6.002 1.374-8.995 2.07a4.754 4.754 0 0 0-1.13.679 3.73 3.73 0 0 0 1.739 0c2.088-.174 4.176-.974 6.246-.174a32.831 32.831 0 0 1 5.063 2.383c4.123 2.436 8.107 5.098 12.178 7.499a16.652 16.652 0 0 0 4.611 1.6c.8.209 1.74-.121 1.74-1.235a2.988 2.988 0 0 1 1.844-3.288v-.557l-2.262-1.218a9.052 9.052 0 0 1-1.74-.887c-1.374-1.113-1.148-2.523.505-3.079a7.098 7.098 0 0 1 2.436-.313c4.036.104 8.072.313 12.178.365a15.76 15.76 0 0 0 4.436-.505c1.879-.522 2.14-1.426 1.027-2.975a13.36 13.36 0 0 0-2.436-2.174Zm2.384-.801-.766-2.174c-.696 1.165-.156 1.635.783 2.174h-.017Zm16.11 10.352c.169-1.035.479-2.042.922-2.992.39-.622.839-1.204 1.34-1.74l1.74 1.948c.8-3.618-.4-9.168-2.401-10.856.065.892 0 1.789-.192 2.662-.956 2.557-2.035 5.063-3.183 7.551-.209.487-.87.8-1.549 1.391a5.226 5.226 0 0 0-.504-1.374c-1.34-1.74-1.34-1.966.591-2.644 1.114-.383 1.305-.957.783-1.827-.522-.87-.313-1.74.661-1.897 1.305-.33 1.444-1.27 1.74-2.331.276-2.14.074-4.315-.592-6.368a9.495 9.495 0 0 0-2.975-5.323c-.261 1.078.731 2.348-.956 2.905l-.836-1.896c-2.192 0-.835 2.905-2.696 3.08a2.656 2.656 0 0 1 .034-3.235 2.66 2.66 0 0 1 .888-.733c.939-.626 1.931-1.183 2.905-1.74l-.156-.469c-2.001.087-4.002.122-5.985.278a1.583 1.583 0 0 0-1.027.766 76.256 76.256 0 0 0-2.679 4.68c.315.056.624.143.922.26 1.375.645 1.618 1.253 1.044 2.61-.14.265-.297.521-.47.766-1.078 1.879-1.009 2.61.244 3.219s1.74.104 2.644-1.618c.436-.945.966-1.843 1.584-2.68.678-.852 2.122-.904 2.505-.121a11.432 11.432 0 0 1 1.218 3.775 9.993 9.993 0 0 1-.609 3.479c-.801 2.784-1.74 5.568-2.575 8.351a5.224 5.224 0 0 0-.209 3.48c.203.066.413.107.626.122 2.071-.279 2.906.348 3.115 2.296.004.442.093.879.261 1.288.174.365.591.939.8.904a1.737 1.737 0 0 0 1.113-.835 15.2 15.2 0 0 0 1.932-5.132h-.018Zm14.562-8.995a2.209 2.209 0 0 1 .296-2.888c.87-.852 1.74-.435 2.697 0 .956.435 1.739 1.027 2.661 1.583a2.005 2.005 0 0 0 .054-1.628 2.018 2.018 0 0 0-1.167-1.138 20.89 20.89 0 0 0-2.384-1.287 29.55 29.55 0 0 0-6.524-2.54c0 .87-.174 1.583-.261 2.296.888.383 1.984.487 1.584 1.931l-.836-.121h-.817c0 2.07 0 2.331.87 2.94 1.948 1.252 1.478 3.305 1.948 5.028 0 .226-.313.574-.487.887-.365-.226-.974-.4-1.009-.661a7.913 7.913 0 0 1 .191-1.983c-.574-.662-1.165-1.34-1.739-2.036a6.678 6.678 0 0 1-1.514-6.75c.574-1.584.331-2.053-1.096-2.94l-1.74-1.027c-.922-.557-.957-1.218-.156-2.07l2.661 1.496 3.219-1.114 1.27-2.348 1.601 1.53c1.739-.417 3.479-.452 4.001-2.487 0-.209.992-.4 1.322-.244.331.157.783.835 1.149 1.253 1.478 0 2.905 0 3.584-1.74l1.844 1.27c-.644.644-1.062 1.375-1.636 1.549-1.496.434-3.096.539-4.593.939a25.721 25.721 0 0 0-7.69 2.644 11.4 11.4 0 0 0 6.055 2.54 3.165 3.165 0 0 1 3.358-2.348h4.662a53.02 53.02 0 0 0 5.985-.73 2.003 2.003 0 0 0 1.375-1.253c0-.435-.575-1.08-1.044-1.48-.557-.359-1.138-.678-1.74-.956-.8-.505-1.74-.905-2.262-1.74s-.209-1.74-.296-2.853c-.608-.279-1.391-.94-2.087-.87-2.465.203-4.909.61-7.307 1.218-2.436.678-4.733 1.844-7.116 2.714a26.619 26.619 0 0 1-10.247 1.322 59.637 59.637 0 0 0 3.044 8.42 40.855 40.855 0 0 1 4.384 11.988 4.827 4.827 0 0 0 1.845 2.975 2.466 2.466 0 0 0 1.852.642 2.457 2.457 0 0 0 1.732-.921c1.635-1.739 2.157-1.635 3.775.105l2.888 3.097a7.206 7.206 0 0 0-2.262-7.308 37.92 37.92 0 0 1-2.261-2.487 16.405 16.405 0 0 1-1.636-2.419Zm21.556 12.179c.12-.806.161-1.622.122-2.436.104-3.184.939-3.81 4.054-3.097.348.138.721.203 1.096.192a9.474 9.474 0 0 0 1.583-.574 15.418 15.418 0 0 0-7.742-7.221 121.08 121.08 0 0 0-15.102-5.602c-.156 0-.382.122-.574.192-.191.07 0 .208 0 .243.418.418.835.835 1.27 1.236 2.854 2.592 5.898 4.801 9.969 4.958.4 0 1.166.383 1.149.504-.227 1.375 1.096 1.74 1.583 2.714.168.566.267 1.151.296 1.74l-3.48-2.053c0 .87.139 1.479.226 2.279-2.279-.278-2.053-2.174-2.575-3.375l-4.454-2.488c-.139.488-.295.957-.487 1.601l-1.739-1.218-.279.365c.52.638 1.103 1.221 1.74 1.74a16.358 16.358 0 0 1 4.628 4.837c.939 1.357 1.74 2.749 2.853 4.036a13.583 13.583 0 0 0 2.679 2.697 1.946 1.946 0 0 0 1.897.255 1.957 1.957 0 0 0 1.2-1.49l.087-.035Zm-75.489-9.291c1.548-.174 3.184-.957 4.332.192 2.227-.47 4.193-.766 6.107-1.305 1.913-.539 3.74-1.27 5.358-1.844-.191-.905-.383-1.74-.661-2.993-.818.557-1.601.853-1.966 1.427a4.454 4.454 0 0 1-3.114 1.879c-1.166.278-2.262.783-3.48 0-.209-.122-.574 0-.852 0-3.08.539-6.142 1.183-9.221 1.635-1.3.032-2.6-.067-3.88-.295 1.183-1.236 2.071-2.036 2.784-2.958.713-.922 1.931-1.618 1.444-3.48l-2.836 2.767c-.348-.644-.661-1.183-1.235-2.193-.279.94-.609 1.427-.505 1.74a3.618 3.618 0 0 1-1.531 4.124c-1.444-.105-2.905-.261-4.384-.279a1.399 1.399 0 0 0-1.131.766c-.104.33.278.939.626 1.217a6.419 6.419 0 0 0 4.193 1.166 8.698 8.698 0 0 1 5.324 1.879c1.409 1.131 2.958 2.088 4.436 3.132l.366-.366c-.713-2.54-3.288-3.479-4.75-5.376 1.514-.208 3.027-.643 4.576-.835Zm69.261-47.53c.435 0 1.131 0 1.287.226 1.183 1.896 3.48.956 5.011 2.07.174.122.73-.278 1.113-.452a5.711 5.711 0 0 0-.539-1.08 1.863 1.863 0 0 0-.766-.451l-6.42-2.384c.461-.527.981-1 1.549-1.41 1.931-1.113 3.88-2.26 5.915-3.183 3.949-1.74 7.968-3.48 11.97-5.097.783-.314 1.513-.557 1.74-1.74-1.914-.748-3.306.904-5.22 1.078.331-.47.47-.713.644-.922.452-.504 1.079-1.113.383-1.74-.696-.626-1.444.122-1.74.696a25.24 25.24 0 0 0-1.357 3.08l-6.281 2.14c-.295-.661-.4-1.444-.783-1.636-.8-.382-1.426.105-1.739.94-.174.487-.331.992-.54 1.461-.208.47-.4 1.044-.783 1.305-1.304.905-2.679 1.74-4.471 2.784.54-1.827.905-3.184 1.34-4.506.435-1.323.922-2.384 1.27-3.602.261-.887.191-1.74-.974-2.053-.731 1.949-1.427 3.741-2.088 5.568a5.227 5.227 0 0 0-.453 1.496 7.098 7.098 0 0 1-1.739 3.828c-.453.608-.94 1.183-1.34 1.74-.678 1.113-.209 1.896 1.114 1.86 1.322-.034 2.644-.017 3.897-.017Zm18.476 19.798a2.521 2.521 0 0 1-.678 1.34 14.882 14.882 0 0 1-3.202 1.74 1.738 1.738 0 0 0-1.217 1.74c0 .87.713 1.043 1.426 1.06 2.013.231 3.91 1.062 5.446 2.384 1.287.887 2.592 1.74 3.932 2.61a2.329 2.329 0 0 0 2.853.122l-2.349-2.019c.435-.47.783-.87 1.131-1.27a8.271 8.271 0 0 0-1.409-.817 4.285 4.285 0 0 0-1.566-.14 6.566 6.566 0 0 1-4.854-2.192l10.213-.417a3.617 3.617 0 0 1 1.374-.626 46.81 46.81 0 0 1 6.246-.157c4.541.33 9.064.835 13.605 1.253a6.138 6.138 0 0 0 1.392-.33c-.975-1.097-2.262-1.74-1.74-3.585a10.074 10.074 0 0 0-3.48.626 8.227 8.227 0 0 1-5.619.679 51.573 51.573 0 0 0-12.996 0c-2.071.348-4.176.505-6.264.696a7.217 7.217 0 0 1-1.739-.383c.643-.435.939-.609 1.218-.835a33.454 33.454 0 0 1 8.925-5.95c.522-.191.835-.853 1.322-1.374a2.54 2.54 0 0 0-3.341.295 2.329 2.329 0 0 1-3.149 0s-.26.105-.539.226c0 .644.122 1.34.192 1.984l-2.854 2.088-1.861-1.584c-.192 1.496-.244 2.175-.418 2.767v.07Zm-79.16 53.272-.539 1.201.939-.905-.4-.296Zm38.014-103.378a4.783 4.783 0 0 1 .574-5.532 11.163 11.163 0 0 0 1.096-3.306c.099-.429.163-.865.192-1.305-2.453.192-1.914 3.202-4.036 3.793-.836-2.4-1.636-4.75-2.488-7.063a3.28 3.28 0 0 0-1.009-1.618 5.214 5.214 0 0 1-2.227-3.254c-.435-1.392-.957-2.766-1.444-4.158h-.714c0 .661-.417 1.41-.226 1.984a18.659 18.659 0 0 0 2.94 6.959c.773.92 1.411 1.945 1.897 3.044a7.716 7.716 0 0 1 1.009 3.95l-4.576-1.74c-.313-.783.522-2.14-1.131-2.175-.365.661-.73 1.27-1.061 1.862a14.146 14.146 0 0 0-5.341-1.079c.174 1.427 1.096 1.844 2.122 2.123 2.106.556 4.228.991 6.298 1.74 2.523.834 4.889 1.948 5.62 4.923.146.58.44 1.114.852 1.548a1.446 1.446 0 0 0 1.218.174 1.06 1.06 0 0 0 .435-.904v.034Zm-84.031 84.328c.609-.505.904-1.009.4-1.74a.79.79 0 0 0-.731 0c-.504.661-.4 1.235.331 1.74Zm42.92-64.25c-.278 1.2-.87 2.54.905 3.566.4-2.105.783-4.001 1.183-6.02-2.07-.07-1.862 1.41-2.088 2.453Zm-11.187 10.873c.922 1.079 1.984 2.036 2.888 3.132 1.984 2.4 1.74 4.401-.522 6.402-.351.28-.667.6-.939.957a1.228 1.228 0 0 0-.283 1.1 1.242 1.242 0 0 0 .735.866 17.112 17.112 0 0 0 4.158-3.48 6.259 6.259 0 0 1 1.636-1.409c1.618-.748 3.305-1.357 4.976-2.018.678-.26 1.635-.365 1.27-1.427-.366-1.06-1.166-.73-1.914-.487-.426.134-.844.29-1.253.47-.8.348-1.583.73-2.47 1.13-.105-.869-.174-1.478-.296-2.365-.574.452-.887.748-1.253.974a7.101 7.101 0 0 1-.957.487l-5.897-7.429a2.13 2.13 0 0 0-.603 1.575 2.14 2.14 0 0 0 .724 1.522Zm10.022 1.566c.765-2.018 1.357-3.584 1.896-5.22 0-.19-.226-.504-.435-.939-1.74 1.288-1.601 3.097-2.192 4.576-.105.313.313.748.731 1.583ZM109.015 93.67c.8-1.061.122-1.862-.331-2.853l-5.219.191c.939-1.148 1.74-2.122 2.592-3.184a38.717 38.717 0 0 0 2.679-4.053 3.168 3.168 0 0 0-.139-3.654 20.613 20.613 0 0 1-7.829 10.439 32.293 32.293 0 0 1-1.6-4.61c-.261-1.427.348-3.01-.679-4.594a9.06 9.06 0 0 0-.765 1.01 5.213 5.213 0 0 0-.366.817c-.748.209-1.566-.713-1.879.418-.313 1.13.522 1.165 1.079 1.461.403.2.83.345 1.27.435.261 1.34.487 2.366.644 3.48.313 2.244.487 4.488-1.566 6.176a2.33 2.33 0 0 0-.4.748c1.079.73 1.74 0 2.174-.626a6.802 6.802 0 0 1 4.246-1.984c.539.644.956 1.183 1.618 1.966l.539-2.105c1.601-1.183 2.61.592 3.932.522Zm.591-19.799a7.203 7.203 0 0 0-.765 4.785c1.67-2.106 1.827-2.993.765-4.785Zm21.574-.957a8.838 8.838 0 0 0 .435-5.671l2.157-1.131-2.471-1.549v-2.07l1.74-.348c.609-1.74-1.322-1.374-1.74-2.053v-4.175c-1.983 1.183-1.026 3.062-1.931 4.732a11.895 11.895 0 0 0-4.384-6.716c-.226-.835.922-1.879-.417-2.662l-1.201.488c-1.166-.61-2.192-1.218-3.271-1.74-1.078-.522-1.496-.974-1.322-2.07.104-.644 0-1.236-.939-1.288l-1.044 1.827-2.836-.992c0-1.392.487-2.888-1.061-3.845-1.114 1.253.4 2.384 0 3.323l-1.375.835c.309.449.671.858 1.079 1.218a7.96 7.96 0 0 0 1.496.505c2.766 1.06 5.811 1.6 8.003 3.862.887.905 1.74 1.879 2.61 2.749a18.781 18.781 0 0 1 4.506 7.916c.239.957.425 1.927.556 2.905-1.983-.643-3.096-2.557-5.219-2.035a2.527 2.527 0 0 1-1.253 2.366c-.243.139-.208.817-.365 1.53l4.176-1.2 3.479 2.053c-.261.766-.504 1.462-.765 2.245h-2.749c-.887 0-1.427.609-.957 1.618l3.34.087a4.873 4.873 0 0 0 .661 5.445 17.43 17.43 0 0 0 .609-2.244c.008-1.316.148-2.627.418-3.915h.035Zm-23.696 42.416c-1.357-.313-1.375-.313-2.036-1.444-.348-.591-.696-.991-1.531-.365l.609 2.749a41.039 41.039 0 0 1-5.671 1.914c-1.184.243-2.697.417-3.48-.696-1.74 0-3.306.261-4.837.226-1.026 0-1.304.4-1.322 1.409l1.827.209c1.267.005 2.534.08 3.793.226a9.718 9.718 0 0 1 3.131 1.009 17.719 17.719 0 0 1 2.94 2.192 9.007 9.007 0 0 1 2.158 2.227c.904 1.74 2.679 2.384 4.106 3.967a2.124 2.124 0 0 0-.748-2.714 20.63 20.63 0 0 1-2.036-2.018c-.591-.644-1.096-1.375-1.74-2.036-.643-.661-.852-.852-1.252-1.253l19.381 2.314 1.009 2.819c1.74-.261.47-1.566 1.2-2.401.438.013.874.059 1.305.139.483.182.977.334 1.479.452.365 0 .731-.278 1.096-.435a7.187 7.187 0 0 0-.626-.922c-.279-.278-.801-.435-.905-.748-.609-1.653-.957-1.931-2.453-1.165a5.027 5.027 0 0 1-3.01.417c-4.384-.487-8.699-.887-13.17-1.392a36.379 36.379 0 0 1-3.48-.817c1.166-1.914 3.932-1.479 4.263-3.863Zm46.539 19.956v-.192.192Zm68.669-102.63a23.241 23.241 0 0 0 5.22-.644c.313 0 .522-.609.765-.922a3.626 3.626 0 0 0-.974-.679 4.283 4.283 0 0 0-1.34 0l-4.836.348c0-.94 1.374-1.322.4-2.557-.887.54-1.74 1.113-2.714 1.653-.435.243-.905.66-1.34.643-1.74 0-3.479-.226-5.637-.382 1.392-1.183 2.488-1.966 3.48-2.906a5.74 5.74 0 0 1 4.767-2.47c.4 0 .835-.453 1.252-.696l-.661-1.061c-.121-.174-.261-.314-.417-.54 1.096-1.34 2.227-2.627 3.253-3.966 1.583-2.07 3.167-4.141 4.628-6.299a3.742 3.742 0 0 0 .278-3.253l-1.739 2.123-1.027-1.01a1.382 1.382 0 0 0-.926.856 1.371 1.371 0 0 0 .161 1.25 2.337 2.337 0 0 1-.522 2.68 24.6 24.6 0 0 1-1.74 2.052 282.961 282.961 0 0 1-4.489 4.662c-1.74 1.862-3.671 3.724-5.55 5.533-.681.505-1.402.953-2.157 1.34.122-1.966.226-3.48.331-4.924l1.426-1.41-2.07-1.443c-.366-1.375-1.166-2.87.87-3.793a1.113 1.113 0 0 0 .278-1.113 1.18 1.18 0 0 0-1.096-.4c-.711.28-1.392.63-2.036 1.043v2.488c.157 3.114.348 6.211.47 9.325a3.009 3.009 0 0 1-1.357 3.097c-.226.122-.33.453-.487.661 1.079 1.166 1.114 1.166 2.175.54.539-.313 1.148-.8 1.74-.766 3.949.261 7.794.748 11.621.94Zm6.629-19.799c.505-.107.992-.29 1.444-.54.33-.26.435-.782.644-1.182-.47-.105-1.009-.418-1.375-.279a1.253 1.253 0 0 0-.678 2.001h-.035Z"/></g></svg>