<svg xmlns="http://www.w3.org/2000/svg" width="181" height="258" fill="none"><g opacity=".1"><path fill="#fff" d="M179.887 129.809a39.864 39.864 0 0 1-3.737 3.038c-5.235 3.609-10.485 7.133-15.806 10.7a20.882 20.882 0 0 1-4.65 2.225 33.79 33.79 0 0 0-7.561 3.965c-3.466 2.297-6.889 4.65-10.37 6.933a18.668 18.668 0 0 1-7.019 2.511 73.827 73.827 0 0 0-10.57 3.209c-2.011.714-4.066 1.327-6.091 2.012a28.539 28.539 0 0 0-9.687 5.349c-3.223 2.853-5.35 6.363-7.817 9.687-.085.128 0 .327-.143.869a87.2 87.2 0 0 1 1.84-1.426 46.918 46.918 0 0 1 9.23-6.647c2.397-1.199 4.865-2.226 7.275-3.381 1.926-.913 3.81-1.926 5.706-2.854a26.319 26.319 0 0 1 9.372-3.195 43.959 43.959 0 0 0 6.548-1.711c4.608-1.128 9.216-2.283 13.866-3.267a13.768 13.768 0 0 1 4.279 0c.628 0 1.198.627 1.926 1.027-.342.556-.485 1.055-.827 1.312a51.145 51.145 0 0 1-9.986 6.719c-2.525 1.184-4.849 2.768-7.303 4.123-1.556.856-3.182 1.597-4.736 2.439-2.04 1.084-4.051 2.24-6.077 3.353a10.985 10.985 0 0 0-3.167 1.811 9.351 9.351 0 0 1-2.853 2.026 9.526 9.526 0 0 0-4.579 5.906 10.663 10.663 0 0 1-.899 2.11 41.89 41.89 0 0 1-5.249 7.404c-1.427 1.612-2.569 3.423-3.909 5.078a32.7 32.7 0 0 1-2.995 3.296c-2.612 2.425-5.307 4.75-7.904 7.132a120.754 120.754 0 0 0-5.264 5.307 43.705 43.705 0 0 1-6.519 6.049c-2.939 2.11-5.792 4.364-8.816 6.376a23.532 23.532 0 0 1-5.391 2.682 8.46 8.46 0 0 0-4.694 4.122c-1.74 2.982-3.58 5.906-5.207 8.945-1.427 2.853-2.696 5.706-4.137 8.559a24.244 24.244 0 0 1-2.068 3.095 1.63 1.63 0 0 1-1.897.642c-.57-.156-1.155-.3-1.727-.471-2.468-.741-2.853-2.853-1.812-4.992 2.155-4.28 4.594-8.332 6.834-12.525a46.722 46.722 0 0 0 1.897-4.408c.1-.214.1-.485.228-.656 1.612-2.311 2.054-5.008 2.853-7.632a12.187 12.187 0 0 0 0-5.421c-.428-2.696-.855-5.392-1.127-8.102-.452-3.459-.7-6.94-.74-10.428a66.219 66.219 0 0 1 3.479-20.67c1.084-3.01 2.597-5.863 3.852-8.816.956-2.24 1.826-4.523 2.696-6.805.87-2.282 1.712-4.579 2.625-6.833.2-.471.699-.813 1.283-1.426.243.524.426 1.075.543 1.64.085 1.826.128 3.666.128 5.492 0 3.909.086 7.832-.142 11.727-.3 5.206-.9 10.399-1.313 15.605-.114 1.355 0 2.725 0 4.094a13.798 13.798 0 0 1-.471 3.153 43.392 43.392 0 0 0-1.583 7.86 69.712 69.712 0 0 1-1.427 7.133c0 .285-.085.57-.156 1.098a3.61 3.61 0 0 0 1.626-2.126 20.49 20.49 0 0 1 4.379-8.287 8.7 8.7 0 0 0 1.626-3.866c.47-1.913 1.07-3.79 1.798-5.621 1.184-3.038 2.496-6.034 3.78-9.03.514-1.198 1.142-2.339 1.669-3.537a15.472 15.472 0 0 0 1.569-6.719c.029-2.155.48-4.282 1.327-6.263 2.168-5.706 4.28-11.326 6.719-16.918 1.17-2.767 2.853-5.363 4.165-8.06 1.312-2.696 2.682-5.578 4.18-8.288 1.726-3.109 3.594-6.148 5.477-9.173 1.427-2.382 3.024-4.679 4.58-7.003a4.05 4.05 0 0 1 .727-.657c.179.093.336.221.465.376a1.52 1.52 0 0 1 .177 1.693c-.514 1.64-.998 3.295-1.498 4.964-1.427 4.679-2.724 9.373-4.136 14.037-1.998 6.548-4.066 13.067-6.092 19.6-.636 2-1.165 4.034-1.583 6.092.699-.814 1.426-1.598 2.082-2.468 2.24-3.053 4.38-6.177 6.662-9.202 1.912-2.553 3.995-4.993 5.963-7.517a13.035 13.035 0 0 0 1.427-2.754 57.608 57.608 0 0 0 3.124-10.599 22.091 22.091 0 0 0 0-7.803c-.314-2.51-.914-5.007-1.056-7.532-.29-3.022-.165-6.07.371-9.058 0-.343.129-.699.171-1.055.257-2.226.372-4.48.784-6.691a17.404 17.404 0 0 0-.37-7.96 17.835 17.835 0 0 1 .086-8.46c.023-.178.076-.35.156-.512 1.427-2.682 2.24-5.635 3.966-8.16.371-.528.628-1.127.956-1.683.328-.556.899-.785 1.426-.186.367.435.63.947.77 1.498.4 1.726.785 3.467 1.042 5.221s.329 3.652.5 5.463c0 .828.27 1.64.299 2.468a18.34 18.34 0 0 1 0 4.28 22.103 22.103 0 0 0-.157 6.576c.228 2.125.471 4.28.813 6.348.171 1.113.613 2.168.842 3.281.328 1.555.57 3.138.856 4.722 0 .213.085.427.171.913a17.044 17.044 0 0 0 2.297-3.966c1.34-2.654 2.639-5.32 4.051-7.946 1.27-2.353 2.653-4.65 3.979-6.96.172-.382.387-.74.643-1.07a36.148 36.148 0 0 0 3.766-6.02c1.826-2.982 3.695-5.935 5.548-8.902 1.855-2.968 3.596-5.706 5.393-8.559 2.197 0 2.682.613 2.126 2.653-.357 1.326-.856 2.61-1.185 3.938-.556 2.31-1.155 4.607-1.54 6.96a29.936 29.936 0 0 1-3.153 9.615c-1.711 3.124-3.095 6.434-4.679 9.629-1.198 2.397-2.51 4.736-3.737 7.133-.613 1.212-1.17 2.468-1.726 3.709a46.908 46.908 0 0 0-2.497 6.391c.463-.29.906-.609 1.327-.956 2.653-2.468 5.264-4.964 7.903-7.432.955-.899 1.997-1.698 2.853-2.625a450.807 450.807 0 0 0 6.875-6.961c4.08-4.166 8.118-8.36 12.226-12.497a7.516 7.516 0 0 1 2.026-1.041 5.126 5.126 0 0 1 .456 4.422 26.255 26.255 0 0 1-5.706 11.141c-2.283 2.853-4.379 5.906-6.534 8.887-2.995 4.123-5.535 8.559-9.201 12.198-.426.47-.905.891-1.426 1.254a60.122 60.122 0 0 0-9.015 7.775 8.199 8.199 0 0 1-2.226 1.426 30.334 30.334 0 0 0-6.89 4.28 62.694 62.694 0 0 1-5.549 3.837 22.547 22.547 0 0 0-7.347 6.619c-.185.3-.527.528-.599 1.056 1.041-.613 2.111-1.198 3.124-1.883a1387.41 1387.41 0 0 0 11.013-7.503 33.28 33.28 0 0 0 5.121-3.823 8.37 8.37 0 0 1 3.695-2.097c2.254-.714 4.279-1.997 6.533-2.768a88.734 88.734 0 0 1 10.385-3.153 34.535 34.535 0 0 0 9.045-3.138 26.156 26.156 0 0 1 6.404-2.111c1.427-.329 2.853-.714 4.28-.913a3.525 3.525 0 0 1 2.011.413 1.424 1.424 0 0 1 .057 2.497ZM78.091 149.48a41.734 41.734 0 0 0 5.792-6.505c.728-1.083 1.427-2.211 2.211-3.223a64.808 64.808 0 0 0 5.706-8.559 63.56 63.56 0 0 0 6.776-15.692c.17-.622.215-1.273.129-1.912a4.044 4.044 0 0 0-.7-1.312c-.427.257-.984.4-1.254.77-1.898 2.511-3.853 4.994-5.535 7.647a18.608 18.608 0 0 1-2.825 3.652c-1.969 1.783-3.352 4.037-5.706 5.463-.143.085-.228.271-.343.399-1.554 1.869-3.052 3.795-4.707 5.578-2.269 2.425-4.68 4.721-7.004 7.133-1.127 1.141-2.282 2.267-3.295 3.494a27.91 27.91 0 0 1-4.28 4.508 36.345 36.345 0 0 0-3.295 2.996 304.481 304.481 0 0 0-5.25 5.321 43.923 43.923 0 0 0-3.095 3.424c-1.57 1.997-3.024 4.065-4.551 6.091h-.457c.017-.346.064-.69.144-1.027 1.041-3.353 2.11-6.705 3.166-9.986a21.252 21.252 0 0 1 6.648-10.327c2.182-1.826 4.208-3.853 6.419-5.706 2.21-1.855 4.85-3.553 7.132-5.507 2.283-1.955 4.68-4.365 6.99-6.576 1.156-1.099 2.24-2.297 3.467-3.31a65.193 65.193 0 0 0 8.017-7.917 19.918 19.918 0 0 0 1.882-2.853c.729-1.212 1.313-2.511 2.04-3.738 1.84-3.124 3.71-6.233 5.578-9.329.556-.913 1.17-1.797 1.67-2.74 1.155-2.21 2.268-4.45 3.38-6.675 1.113-2.225 2.198-4.365 3.238-6.576.357-.77.786-1.627.172-2.468-1.726-.171-1.741-.186-2.64.927-.527.643-.984 1.34-1.426 1.983-1.427 1.769-2.753 3.567-4.194 5.292a40.204 40.204 0 0 1-3.723 4.066c-3.039 2.753-6.234 5.321-9.272 8.06-3.567 3.224-7.048 6.548-10.543 9.842-1.682 1.584-3.38 3.153-4.949 4.865a206.717 206.717 0 0 0-7.132 8.188c-1.741 2.111-3.325 4.279-4.95 6.533-.77 1.027-1.499 2.112-2.24 3.168l-.371-.157c.185-.771.414-1.527.556-2.311a48.592 48.592 0 0 1 4.579-13.481c.316-.64.597-1.297.841-1.968 1.256-3.224 2.454-6.449 3.724-9.658a402.193 402.193 0 0 1 3.723-8.887c.457-1.056.628-2.311 1.925-2.853.215-.1.315-.485.457-.742.556-1.312 1.227-2.596 1.983-3.895a16.061 16.061 0 0 1 1.84-2.853 28.524 28.524 0 0 1 10.314-7.403c1.94-.856 3.794-1.94 5.706-2.853a8.563 8.563 0 0 1 3.125-1.213c1.94-.213 3.865-.6 5.79-.984 2.23-.66 4.556-.925 6.877-.784.23.05.468.05.699 0 2.696-.742 5.421-1.427 8.06-2.283 3.866-1.312 7.703-2.767 11.54-4.194 3.053-1.141 6.091-2.354 9.129-3.523.614-.229 1.242-.414 1.841-.684 2.611-1.157 5.149-2.454 7.817-3.44 1.513-.555 2.967-1.611 4.765-1.126.242 0 .57-.156.842-.271 1.355-.585 2.724-1.17 4.065-1.812a2.844 2.844 0 0 0 1.283-.856c.381-.6.963-1.045 1.641-1.255.357-.171.585-.614.885-.927a4.815 4.815 0 0 0-1.056-.842 2.845 2.845 0 0 0-1.056 0h-7.132a33.272 33.272 0 0 0-3.709-.37c-2.363.17-4.695.65-6.933 1.426a55.304 55.304 0 0 1-15.363 2.853c-.3 0-.599 0-.899-.086-2.596-.1-5.221-.37-7.818-.27a51.56 51.56 0 0 0-18.687 4.764l-.5.2a56.28 56.28 0 0 0-10.47 5.705c-.328.214-.656.4-1.24.743a8.02 8.02 0 0 1 .27-1.1c1.199-2.523 2.383-5.063 3.624-7.56 1.241-2.496 2.853-5.235 3.98-7.988a32.805 32.805 0 0 0 2.168-10.2 8.67 8.67 0 0 1 .342-2.096c.956-2.953 1.884-5.92 2.981-8.816a33.955 33.955 0 0 0 2.012-10.072c-.005-.713.062-1.425.2-2.125a65.136 65.136 0 0 1 4.037-11.412c1.112-2.411 1.897-4.993 2.853-7.518a1.245 1.245 0 0 0 .001-1 1.257 1.257 0 0 0-.729-.683c-.684-.3-1.056.285-1.426.727-.785.9-1.555 1.798-2.397 2.625-1.982 1.97-4.151 3.766-5.963 5.863-2.125 2.468-3.965 5.178-5.905 7.817a48.29 48.29 0 0 0-4.565 7.005 39.509 39.509 0 0 0-2.768 7.888c-1.426 5.421-2.995 10.799-4.55 16.177-.528 1.84-1.213 3.623-1.854 5.564-.214-.942-.4-1.798-.586-2.64a37.015 37.015 0 0 1-1.426-9.842 27.354 27.354 0 0 0-.428-5.165 1.945 1.945 0 0 0-.942-1.326c-.642-.257-1.041.385-1.311.927-.234.421-.42.866-.557 1.327-.728 3.309-1.512 6.604-2.125 9.985-.343 1.868-.286 3.809-.543 5.706-.385 2.854-.898 5.62-1.427 8.43 0 .215-.099.414-.214.9l-.599-.9a28.875 28.875 0 0 0-3.323-5.049 3.537 3.537 0 0 1-.642-1.241c-.3-.77-.457-1.612-.813-2.34a47.02 47.02 0 0 1-2.925-9.172 176.89 176.89 0 0 0-1.883-6.833 43.905 43.905 0 0 1-1.612-12.696c0-1.427-.17-2.981.928-4.15-.856-1.342-1.313-1.585-1.84-.871a19.087 19.087 0 0 0-3.252 6.305 26.725 26.725 0 0 0-.529 9.03 13.17 13.17 0 0 1-.813 5.606 16.597 16.597 0 0 0-.927 8.916c.713 3.423 1.427 6.847 2.41 10.214.757 2.767 1.798 5.449 2.753 8.345-2.182-1.541-4.179-2.853-6.12-4.28-3.75-2.782-8.173-3.752-12.61-4.65a55.138 55.138 0 0 1-10.855-2.854c-2.254-.927-4.593-1.655-6.905-2.41-.456-.157-1.326-.186-1.426 0a3.23 3.23 0 0 0-.185 1.797c.107.464.316.898.613 1.27a8.472 8.472 0 0 0 3.053 2.667c2.268 1.299 4.608 2.582 6.848 4.008 3.874 2.542 7.999 4.678 12.31 6.377a36.333 36.333 0 0 1 10.984 6.605 56.558 56.558 0 0 1 8.074 9.23 21.602 21.602 0 0 1 3.224 5.107c.3.827.856 1.554 1.227 2.368.225.473.347.988.356 1.512-.142 5.52-2.324 10.456-4.535 15.82-.243-.799-.386-1.227-.486-1.655-.599-2.596-1.17-5.206-1.797-7.803-.685-2.853-1.426-5.706-2.126-8.46-.157-.641-.228-1.298-.442-1.911-.385-1.14-.956-1.255-1.783-.428-.271.271-.628.442-.9.728-.27.285-.726.67-.784 1.056-.228 1.426-.342 2.938-.442 4.422-.1 1.483 0 2.596-.185 3.88-.742 5.549-1.54 11.07-2.325 16.604 0 .5-.271.971-.5 1.84l-.356-.998c-1.213-3.581-1.313-7.347-2.04-11.013a51.997 51.997 0 0 0-1.655-7.133 39.462 39.462 0 0 1-1.597-5.82 15.788 15.788 0 0 0-2.04-5.862c-1.1-1.626-2.168-3.267-3.281-4.865a517.854 517.854 0 0 0-5.521-7.903 16.082 16.082 0 0 0-6.548-5.605 3.639 3.639 0 0 1-1.426-1 3.724 3.724 0 0 0-3.538-1.24c-1.213 0-1.74 1.083-1.07 2.154a13.032 13.032 0 0 0 1.812 2.167 11.713 11.713 0 0 1 2.853 3.581c.527 1.199 1.056 2.397 1.427 3.638a28.703 28.703 0 0 1 1.155 3.794c.67 3.51 1.212 7.033 1.897 10.528s1.427 6.604 2.097 9.986a46.905 46.905 0 0 0 5.706 15.107c.927 1.597 1.769 3.238 2.71 4.821.543.913 1.256 1.726 1.855 2.596a14.83 14.83 0 0 1 2.853 5.478 22.199 22.199 0 0 0 1.113 3.951 16.237 16.237 0 0 1 1.284 4.979c.266 1.564.385 3.149.356 4.736-.3 3.32-.4 6.654-.3 9.986a12.52 12.52 0 0 1-.527 2.753c-.13.57-.414 1.113-.585 1.683-.842 2.853-1.655 5.706-2.482 8.559a4.698 4.698 0 0 1-.329.585 7.88 7.88 0 0 1-.613-1.155c-.841-2.396-1.74-4.794-2.467-7.233-1.227-4.108-2.326-8.245-3.495-12.353a15.523 15.523 0 0 0-.942-2.497c-1.526-3.224-3.267-6.348-4.579-9.658a25.234 25.234 0 0 0-3.552-6.604c-3.152-3.937-6.448-7.76-9.686-11.626-.642-.77-1.212-1.626-1.926-2.325-2.083-2.026-4.28-4.009-6.348-5.978a153.838 153.838 0 0 0-3.994-3.537c-.613-.528-1.313-.457-1.426.185-.286 1.555-1.213 3.01-.628 4.694.175.814.299 1.637.37 2.468.4 2.618.977 5.205 1.727 7.746a67.906 67.906 0 0 0 3.908 8.159c1.298 2.468 2.853 4.778 4.137 7.275 2.083 4.28 4.066 8.559 5.934 12.968a81.574 81.574 0 0 0 3.652 8.373c.999 1.755 1.769 3.638 2.74 5.392a29.751 29.751 0 0 0 3.365 5.449 62.076 62.076 0 0 1 6.734 9.643 18.677 18.677 0 0 1 2.468 12.839 17.849 17.849 0 0 0-.243 2.126c-.128 4.621-.214 9.257-.356 13.88-.086 3.152-.272 6.291-.386 9.444a3.153 3.153 0 0 0 2.54 3.18c3.11 0 6.19-2.254 5.706-5.563-.214-1.427-.357-2.953-.485-4.436a25.144 25.144 0 0 1-.214-4.28c.214-2.596.67-5.179.998-7.76.143-1.128.243-2.24.37-3.367.458-3.88.458-7.86 2.854-11.298a34.263 34.263 0 0 1 3.324-5.236 94.457 94.457 0 0 1 8.987-8.059 165.494 165.494 0 0 0 9.3-8.06 67.056 67.056 0 0 0 8.132-8.231 22.986 22.986 0 0 1 2.34-2.782Z"/><path fill="#101A24" d="M179.83 127.312a3.525 3.525 0 0 0-2.011-.413c-1.427.199-2.853.584-4.28.913a26.156 26.156 0 0 0-6.404 2.111 34.574 34.574 0 0 1-9.045 3.139 88.538 88.538 0 0 0-10.385 3.152c-2.225.771-4.279 2.054-6.533 2.768a8.364 8.364 0 0 0-3.68 2.097 33.337 33.337 0 0 1-5.122 3.823c-3.671 2.52-7.342 5.021-11.012 7.503-1.013.685-2.083 1.27-3.125 1.883 0-.528.414-.756.599-1.056a22.533 22.533 0 0 1 7.347-6.618 62.917 62.917 0 0 0 5.549-3.838 30.378 30.378 0 0 1 6.89-4.28 8.199 8.199 0 0 0 2.226-1.426 60.152 60.152 0 0 1 8.887-7.831 8.439 8.439 0 0 0 1.426-1.256c3.667-3.609 6.206-8.074 9.202-12.196 2.153-2.982 4.279-6.006 6.533-8.888a26.265 26.265 0 0 0 5.706-11.14 5.125 5.125 0 0 0-.457-4.424 7.521 7.521 0 0 0-2.025 1.042c-4.109 4.137-8.146 8.331-12.225 12.496a455.573 455.573 0 0 1-6.876 6.962c-.913.927-1.955 1.726-2.853 2.625-2.639 2.468-5.25 4.964-7.903 7.432-.421.347-.864.666-1.327.956a46.778 46.778 0 0 1 2.497-6.391c.556-1.242 1.112-2.496 1.726-3.71 1.226-2.367 2.539-4.706 3.737-7.132 1.583-3.195 2.967-6.505 4.679-9.628a29.966 29.966 0 0 0 3.152-9.615c.386-2.354.985-4.65 1.541-6.962.328-1.327.828-2.61 1.184-3.937.556-2.04 0-2.596-2.125-2.653l-5.392 8.559a825.506 825.506 0 0 0-5.55 8.902 36.073 36.073 0 0 1-3.765 6.02c-.255.33-.471.689-.642 1.07-1.327 2.31-2.711 4.606-3.981 6.961-1.426 2.624-2.709 5.292-4.051 7.945a17.002 17.002 0 0 1-2.182 4.037c-.086-.485-.129-.699-.171-.913-.286-1.583-.528-3.167-.856-4.721-.229-1.113-.671-2.169-.842-3.281-.342-2.112-.585-4.28-.813-6.348a22.107 22.107 0 0 1 .157-6.577 18.34 18.34 0 0 0 0-4.28c0-.827-.229-1.64-.299-2.467-.171-1.812-.243-3.652-.5-5.464-.257-1.811-.642-3.495-1.042-5.221a3.753 3.753 0 0 0-.798-1.44c-.513-.6-1.013-.5-1.427.185-.414.684-.585 1.155-.955 1.683-1.712 2.412-2.554 5.407-3.952 8.118-.08.16-.133.334-.157.513a17.848 17.848 0 0 0-.086 8.46c.719 2.582.831 5.296.329 7.93-.414 2.211-.528 4.465-.785 6.691 0 .356-.1.712-.172 1.055a33.253 33.253 0 0 0-.37 9.058c.143 2.525.742 5.022 1.056 7.532a22.091 22.091 0 0 1 0 7.803 57.456 57.456 0 0 1-3.125 10.599 13.032 13.032 0 0 1-1.426 2.754c-1.969 2.524-4.051 4.964-5.962 7.518-2.283 3.024-4.423 6.148-6.663 9.201-.628.87-1.426 1.654-2.083 2.468a58.406 58.406 0 0 1 1.584-6.091c2.026-6.534 4.095-13.053 6.091-19.601 1.427-4.664 2.753-9.358 4.138-14.037.498-1.669.984-3.324 1.497-4.964.094-.178.153-.373.172-.573a1.518 1.518 0 0 0-.814-1.496 4.05 4.05 0 0 0-.727.657c-1.555 2.324-3.125 4.621-4.58 7.003-1.882 3.025-3.751 6.064-5.478 9.173-1.426 2.71-2.766 5.535-4.179 8.288-1.412 2.753-2.996 5.293-4.166 8.06-2.367 5.592-4.55 11.255-6.718 16.918a16.458 16.458 0 0 0-1.327 6.263 15.486 15.486 0 0 1-1.57 6.719c-.527 1.198-1.154 2.339-1.669 3.537-1.283 2.996-2.596 5.992-3.78 9.03a42.979 42.979 0 0 0-1.74 5.621 8.71 8.71 0 0 1-1.754 3.823 20.504 20.504 0 0 0-4.38 8.287 3.61 3.61 0 0 1-1.626 2.126c0-.528.1-.813.157-1.098a69.902 69.902 0 0 0 1.427-7.133 43.392 43.392 0 0 1 1.583-7.86 13.84 13.84 0 0 0 .47-3.153c.086-1.426-.085-2.738 0-4.094.415-5.206 1.014-10.399 1.313-15.605.228-3.895.129-7.818.143-11.727 0-1.826 0-3.666-.129-5.492a7.572 7.572 0 0 0-.542-1.64c-.584.656-1.084.998-1.284 1.426-.912 2.254-1.74 4.551-2.624 6.834-.885 2.281-1.74 4.564-2.697 6.804-1.255 2.953-2.767 5.806-3.851 8.816a66.227 66.227 0 0 0-3.324 20.67 88.52 88.52 0 0 0 .742 10.428c.27 2.71.699 5.406 1.127 8.102a12.184 12.184 0 0 1 0 5.421c-.756 2.625-1.198 5.321-2.853 7.632-.128.171-.128.442-.229.656a46.61 46.61 0 0 1-1.896 4.408c-2.24 4.194-4.68 8.288-6.834 12.525-1.099 2.154-.656 4.28 1.812 4.992.57.172 1.156.315 1.726.471.342.121.715.123 1.059.006a1.62 1.62 0 0 0 .838-.648 24.25 24.25 0 0 0 2.068-3.095c1.427-2.853 2.654-5.706 4.138-8.559 1.626-3.039 3.466-5.963 5.207-8.945a8.457 8.457 0 0 1 4.693-4.122 23.572 23.572 0 0 0 5.392-2.681c3.024-2.013 5.877-4.28 8.816-6.377a43.699 43.699 0 0 0 6.533-6.049 110.955 110.955 0 0 1 5.264-5.307c2.596-2.439 5.292-4.764 7.903-7.132a32.823 32.823 0 0 0 2.996-3.253c1.34-1.655 2.496-3.466 3.909-5.078a41.92 41.92 0 0 0 5.249-7.403c.375-.67.676-1.378.898-2.111a9.557 9.557 0 0 1 1.686-3.421 9.542 9.542 0 0 1 2.894-2.485 9.351 9.351 0 0 0 2.853-2.026 10.993 10.993 0 0 1 3.166-1.811c2.027-1.113 4.038-2.269 6.078-3.353 1.554-.842 3.18-1.583 4.735-2.439 2.454-1.355 4.779-2.939 7.305-4.123a51.198 51.198 0 0 0 9.985-6.719c.342-.257.484-.756.827-1.312-.728-.4-1.298-.971-1.926-1.027a13.768 13.768 0 0 0-4.279 0c-4.651.984-9.259 2.139-13.866 3.267a43.99 43.99 0 0 1-6.548 1.711A26.294 26.294 0 0 0 120.53 166c-1.912.927-3.794 1.94-5.706 2.853-2.41 1.155-4.878 2.182-7.275 3.381a46.918 46.918 0 0 0-9.23 6.647c-.527.442-1.07.856-1.84 1.426.086-.542 0-.741.143-.869 2.425-3.267 4.608-6.834 7.774-9.687a28.555 28.555 0 0 1 9.672-5.406c2.026-.685 4.08-1.298 6.091-2.012a74.096 74.096 0 0 1 10.571-3.209 18.701 18.701 0 0 0 7.019-2.51c3.48-2.283 6.904-4.637 10.37-6.934a33.811 33.811 0 0 1 7.561-3.965 20.842 20.842 0 0 0 4.65-2.226c5.321-3.495 10.57-7.132 15.806-10.699a39.71 39.71 0 0 0 3.751-2.981 1.42 1.42 0 0 0 .708-1.265 1.434 1.434 0 0 0-.765-1.232Zm-38.002 13.267c.414-.613 1.512-.741 2.296-1.099a21.352 21.352 0 0 1-4.593 6.177l-.327-.199a48.082 48.082 0 0 1 2.624-4.879Zm-4.808 3.809c.614-1.255 1.227-2.539 2.982-2.853-1.07 1.954-2.068 3.852-3.167 5.706a2.14 2.14 0 0 1-1.526.756c.571-1.184 1.127-2.397 1.711-3.609Zm-1.554.114a37.169 37.169 0 0 1-2.211 4.708c-.471.756-1.57 1.126-2.383 1.669a8.636 8.636 0 0 1 4.594-6.377Zm13.623-28.688.356.172c-.441.97-.813 1.969-1.326 2.853-.514.884-.385 2.183-2.14 2.724 1.255-2.025 1.826-4.079 3.11-5.749Zm-2.567 7.291a67.387 67.387 0 0 0 7.132-6.748c1.184-1.156 2.325-2.368 3.481-3.567.385-.413.741-.856 1.426-1.568-.685 0-1.098 0-1.284.086a26.29 26.29 0 0 0-2.853 2.681 19.811 19.811 0 0 1-4.208 3.795c.556-1.356 1.098-2.711 1.683-4.052.18-.305.422-.568.714-.771a49.438 49.438 0 0 0 6.204-6.375c2.198-2.398 4.494-4.722 6.762-7.133a231.375 231.375 0 0 1 3.724-3.795c.285-.285.613-.513 1.198-1.013a12.668 12.668 0 0 1-2.225 5.208 144.933 144.933 0 0 1-5.364 8.401c-.942 1.427-2.082 2.597-3.138 3.894a9.066 9.066 0 0 0-.614.642c-2.068 2.853-4.137 5.706-6.148 8.559a29.08 29.08 0 0 1-4.979 5.535c-3.053 2.639-5.891 5.507-8.887 8.203-.684.541-1.431.996-2.225 1.355a29.493 29.493 0 0 0-2.996 1.527c-1.911 1.312-3.737 2.752-5.606 4.123-.699.513-1.426.984-2.14 1.426l-.357-.385c.756-1.113 1.427-2.283 2.269-3.353a30.373 30.373 0 0 1 8.031-7.703 51.175 51.175 0 0 0 8.559-7.261 15.605 15.605 0 0 1 1.841-1.711Zm-1.285-3.096c-1.14 1.997-1.098 4.778-3.851 5.706 1.027-2.04 1.441-4.551 3.851-5.706Zm-5.349 4.807c-.385 1.156-.699 2.111-1.027 3.053-.085.271-.128.642-.328.785a26.815 26.815 0 0 1-5.008 3.438c1.684-3.067 3.367-5.636 6.363-7.276Zm-13.866-17.118h.385c.5 2.425 1.013 4.836 1.427 7.261.242 1.133.409 2.282.499 3.438a6.974 6.974 0 0 1-.185 2.853 41.929 41.929 0 0 1-2.996 6.262 10.41 10.41 0 0 1 0-1.997c.276-1.411.305-2.858.086-4.279-.229-2.054-.272-4.137-.414-6.206a4.947 4.947 0 0 0-.142-1.212c-.628-2.325.584-4.123 1.34-6.049v-.071Zm-.542-2.938c.342 1.426-.613 2.096-1.113 2.995a5.301 5.301 0 0 1 1.113-2.995Zm-.399-3.767c.442 1.241 0 2.112-1.27 2.853l1.27-2.853Zm-3.88 23.981c-.399-3.411-.77-6.834-.928-10.257a80.92 80.92 0 0 1 .771-13.125 47.6 47.6 0 0 0-.1-6.019c0-2.44 0-4.879.1-7.304a4.66 4.66 0 0 0 0-.884c-.442-2.155.499-3.952 1.427-5.778.484-.97.898-1.983 1.34-2.981h.371c.314 2.182.642 4.364.913 6.562.364 2.224.602 4.467.713 6.719a16.453 16.453 0 0 1-.97 7.132 1.68 1.68 0 0 1-.228.485c-2.126 2.34-2.139 5.135-1.826 8.046.171 1.655.086 3.324.185 4.978.101 1.655.286 3.181.429 4.765.142 1.583.327 3.052.385 4.593 0 1.298-.114 2.596-.085 3.908 0 1.77.185 3.538.241 5.321a3.69 3.69 0 0 1-.214 1.527c-1.098 2.368-2.267 4.708-3.423 7.047a.92.92 0 0 1-.657.485c.084-.482.198-.959.343-1.426a29.487 29.487 0 0 0 1.213-13.794Zm-22.91 21.953c1.113-2.496 2.182-5.006 3.338-7.489.656-1.426 1.427-2.739 2.154-4.08 1.426-2.468 2.853-4.921 4.279-7.375a9.564 9.564 0 0 1 1.427-2.097c-.065.482-.161.957-.285 1.426-2.268 7.518-4.594 15.008-6.891 22.468-.926 3.01-1.655 6.106-2.639 9.101-1.24 3.781-2.653 7.504-4.022 11.255-.742 2.012-1.54 3.995-2.311 5.992a3.069 3.069 0 0 1-.47.97c-1.67 1.912-2.155 4.436-3.367 6.591-1.213 2.153-2.269 4.279-3.424 6.447a4.653 4.653 0 0 1-1.426 1.583 30.368 30.368 0 0 1 1.426-4.065 28.244 28.244 0 0 0 1.983-4.75c.556-1.811 1.426-3.538 2.111-5.307.828-2.039 1.67-4.065 2.497-6.105a58.347 58.347 0 0 1 2.853-6.819c.367-.99.616-2.019.741-3.067.556-2.126 1.07-4.28 1.698-6.363a263.623 263.623 0 0 1 2.738-8.658c.443-1.327 1.071-2.597 1.612-3.894l-.599-.243-3.195 7.347a2.925 2.925 0 0 1-.228-2.868Zm-8.302 38.801 1.64-2.939c-.17 1.812-.385 2.197-1.64 2.968v-.029Zm6.733-35.52c.142 1.826 1.041 3.381-.243 5.078-.128-1.712-1.212-3.252.243-5.049v-.029Zm-1.797 3.852c.64 1.298 0 2.525.156 3.694a6.82 6.82 0 0 1-.285 3.852 27.193 27.193 0 0 1-.97-4.607 8.92 8.92 0 0 1 1.099-2.939Zm-14.366 38.943c1.713-3.723 3.624-7.361 5.179-11.14a27.878 27.878 0 0 0 1.427-6.049 67.614 67.614 0 0 1 3.337-10.898c.543-1.569 1.212-3.096 1.854-4.636.19-.36.41-.704.657-1.027.414 1.811.799 3.394 1.14 4.978a1.94 1.94 0 0 1-.241.841c-1.584 4.094-3.11 8.217-4.75 12.297-1.028 2.582-2.212 5.107-3.296 7.674-.67 1.584-1.298 3.196-1.926 4.794a32.987 32.987 0 0 1-5.293 9.215 5.583 5.583 0 0 1 .115-1.426c.556-1.599 1.07-3.167 1.797-4.68v.057Zm-12.354-.926c-.712-1.427 0-2.853 1.984-4.409.527 2.054-1.184 2.939-1.984 4.351v.058Zm2.398-8.36v2.011l-2.098 1.184-.242-.214 1.926-3.052.414.071Zm-18.93 71.625-1.427-1.911c.742-1.17 1.697-1.285 3.095-1.013l-1.668 2.924Zm63.665-83.308a11.043 11.043 0 0 1 6.091-4.808c.71-.299 1.401-.642 2.069-1.026a16.781 16.781 0 0 1 5.434-1.669c2.269-.4 4.523-.899 6.748-1.427 4.708-1.255 9.386-2.625 14.108-3.851a7.457 7.457 0 0 1 2.354.185l.086.513c-.308.246-.632.47-.971.671-4.978 2.567-9.986 5.107-14.921 7.703-.884.471-1.655 1.169-2.496 1.698-1.569.969-3.139 1.896-4.722 2.853-1.27.755-2.625 1.426-3.837 2.254a78.372 78.372 0 0 1-14.893 7.974 46.108 46.108 0 0 0-4.779 2.339c-3.039 1.741-5.949 3.709-9.044 5.349-3.095 1.641-6.106 2.853-9.5 4.408.256-.57.327-1.055.613-1.283 2.853-2.297 5.834-4.623 8.859-6.776 1.525-1.099 3.295-1.855 4.921-2.853l9.986-5.849c.77-.442 1.569-.842 2.353-1.27a3853.16 3853.16 0 0 0 8.759-4.764c.386-.24.756-.503 1.113-.785l-.171-.328-10.072 4.408c.727-1.455 1.327-2.554 1.912-3.666Zm-27.803 34.55c-2.111 2.154-4.536 4.008-6.79 6.034a108.918 108.918 0 0 0-4.793 4.494c-1.17 1.155-2.268 2.396-3.396 3.608-.156.186-.284.414-.428.614-.142-.186-.27-.385-.399-.571a97.016 97.016 0 0 1 7.133-12.097c.193-.222.374-.456.542-.698a21.496 21.496 0 0 1 5.706-6.719 91.939 91.939 0 0 1 11.783-8.559 69.716 69.716 0 0 1 7.475-3.267 200.993 200.993 0 0 0 6.148-2.853c.984-.456 1.969-.956 2.953-1.426l.186.313-5.136 3.938-12.453 9.543a79.318 79.318 0 0 0-8.53 7.646Zm-.257 4.779c-.142-.657-.271-1.199-.428-1.94l3.795-3.709c.128 2.824-1.926 3.979-3.367 5.649Zm-1.597-.443c-.842 1.612-1.227 3.538-3.067 4.508 1.012-1.455 1.027-3.68 3.067-4.508Zm21.255-34.878c.214-.285.585-.527.655-.827.343-1.755 1.813-2.197 3.153-2.853 1.341-.656 2.497-1.055 3.752-1.584l.256.257c-1.91 2.339-3.323 5.064-5.706 7.047.543-1.925 2.098-3.366 2.668-5.249a2.546 2.546 0 0 0-.299-.229 2.676 2.676 0 0 0-.613.443 444.319 444.319 0 0 0-3.952 5.249 4.792 4.792 0 0 0-.685 1.241c-.299.785-.898 1.013-1.812 1.227a16.532 16.532 0 0 1 2.583-4.722Zm-5.278 4.693a17.104 17.104 0 0 0 1.426-2.696c.513-1.74 1.911-2.382 3.494-2.952l-5.42 7.817-.385-.214c.257-.656.556-1.313.885-1.955Zm.441-2.425-2.553 3.81c-.327.498-.627 1.012-.97 1.426a2.966 2.966 0 0 1-.784.927 55.434 55.434 0 0 0-11.883 9.829c-.442.471-.728 1.07-1.113 1.569a125.81 125.81 0 0 1-2.44 3.052c-.827.999-1.611 1.356-1.426 2.668 0 .457-.585.984-.898 1.427l-1.298 1.911c-1.07 1.641-2.026 3.352-3.224 4.893a31.65 31.65 0 0 0-3.125 5.592 69.473 69.473 0 0 1-5.706 9.8 4.4 4.4 0 0 0-.613 1.099c-.086.228 0 .685.1.77.293.171.637.231.97.171.256 0 .457-.357.684-.571a37.49 37.49 0 0 0 3.48-3.737 48.565 48.565 0 0 1 5.479-5.349c1.654-1.498 3.438-2.853 5.493-4.551-.039.402-.12.8-.243 1.184a20.197 20.197 0 0 0-1.64 3.11 6.296 6.296 0 0 1-2.269 3.11c-2.326 1.826-4.679 3.609-7.019 5.42a3.662 3.662 0 0 0-.428.529c1.056.142 1.626-.5 2.254-.942 2.583-1.783 5.136-3.624 7.69-5.435.1 0 .241-.1.299-.185 1.426-2.454 3.81-3.866 5.706-5.835 1.426-1.427 2.853-3.01 4.365-4.408 1.512-1.398 2.853-2.326 4.28-3.552 1.854-1.67 3.637-3.41 5.391-5.164a13.609 13.609 0 0 0 1.427-1.926c-1.069-.271-1.427.342-1.868.77l-7.704 7.433c-.17.171-.356.327-.67.599 0-1.113 0-1.912-.114-2.981a288.428 288.428 0 0 1 23.195-18.36 9.225 9.225 0 0 1-2.853 4.066 22.792 22.792 0 0 0-4.593 5.877 36.782 36.782 0 0 1-4.037 4.964c-1.342 1.426-2.853 2.611-4.28 3.966-2.254 2.111-4.436 4.279-6.719 6.391-3.395 3.053-6.733 6.19-10.314 9.015a39.193 39.193 0 0 1-9.557 6.119c-.769.335-1.495.756-2.168 1.256a38.443 38.443 0 0 1-7.49 3.723c-.385.5-.77.999-1.227 1.627l.642 1.183c-2.738 5.222-5.449 10.414-8.259 15.792h-2.482c.134-.41.296-.81.485-1.198 1.94-3.053 3.994-6.035 5.806-9.158a53.5 53.5 0 0 0 2.282-5.421 4.284 4.284 0 0 1 2.753-2.853 2.967 2.967 0 0 1-.499 0 5.642 5.642 0 0 1-.541-.271c.213-.827.484-1.712.684-2.597.189-.789.326-1.59.413-2.396a129.4 129.4 0 0 0 .371-5.292v-3.181c.053-.336.139-.666.257-.985v-.114c-1.14-1.426-.827-3.224-.956-4.85-.17-2.297-.1-4.622 0-6.933 0-4.151 0-8.303.328-12.439a32.77 32.77 0 0 1 1.284-7.546c2.125-6.819 4.494-13.567 6.833-20.514a6.007 6.007 0 0 1 .5 3.438c-.128 4.28-.342 8.417-.514 12.625 0 .799-.114 1.426-1.027 1.868-.413.171-.67.728-.999 1.114l-.342-.129c.171-.942.385-1.883.514-2.853.128-.97.171-1.868.256-2.853-.927-.228-1.155.3-1.241.942-.313 2.254-.684 4.479-.912 6.733-.486 4.551-.828 9.115-1.356 13.651-.342 2.953-.913 5.863-1.326 8.802a51.655 51.655 0 0 0-.985 8.873v.071l1.427-1.298c-.16-2.732.144-5.472.898-8.103a72.46 72.46 0 0 0 1.555-11.996c0-1.698 1.084-2.34 2.483-3.296a35.307 35.307 0 0 1-.243 3.524c-.286 1.697-.784 3.352-1.056 5.05-.428 2.639-.7 5.292-1.113 7.931-.227 1.426-.64 2.853-.955 4.279-.229 1.042-.428 2.083-.642 3.125-.414 2.097-.898 4.179-1.242 6.291-.185 1.155.13 1.34 1.128 1.241 1.312-2.554 2.51-5.008 3.837-7.39 1.583-2.853 3.281-5.706 4.936-8.559a6.038 6.038 0 0 1 2.297-2.668 1.432 1.432 0 0 0 .656-.984c.256-2.853 1.769-5.22 3.41-7.803.498 1.256-.657 1.941-.358 3.11a85.596 85.596 0 0 1 21.426-21.07Zm1.027-12.125c0 .242.172.557 0 .699a27.807 27.807 0 0 1-2.182 2.853 56.024 56.024 0 0 0-6.847 9.686 13.927 13.927 0 0 1-1.712 2.183 68.97 68.97 0 0 1 8.359-13.98c.942.171 1.184-.585 1.555-1.17h-1.427l1.941-2.254c.293-.288.566-.598.813-.927 2.853-4.279 5.92-8.289 8.973-12.354.542-.727 1.426-1.212 2.025-1.897a23.867 23.867 0 0 0 1.641-2.282 9.477 9.477 0 0 1-1.968 3.909 27.54 27.54 0 0 0-2.583 3.651c.828.513 1.427.314 1.755-.199a8.444 8.444 0 0 1 3.21-3.21.832.832 0 0 0 .299-.428c.512-.996.919-2.043 1.213-3.124.456-2.425 2.026-4.28 3.067-6.391 1.041-2.111 2.51-3.909 3.095-6.205.143-.543.742-.971 1.084-1.426a12.25 12.25 0 0 1 .328-2.725c.743-1.983 1.655-3.924 2.525-5.863a.959.959 0 0 1 .259-.314.94.94 0 0 1 .369-.172c.927 0 1.17-.613 1.141-1.284-.171-3.508 1.527-6.447 3.011-9.386 2.495-4.992 5.206-9.885 7.845-14.807.208-.428.452-.839.728-1.227a123.221 123.221 0 0 0 7.574-12.254 25.707 25.707 0 0 1 4.793-6.134c-.271 1.056-.499 2.112-.798 3.153-.3 1.042-.657 1.669-.828 2.525a47.635 47.635 0 0 1-3.281 9.23 34.792 34.792 0 0 0-2.853 7.488 11.952 11.952 0 0 1-1.212 2.954c-1.754 3.709-3.538 7.389-5.307 11.097a101.928 101.928 0 0 1-6.49 12.297c-2.226 3.438-4.551 6.805-6.919 10.143-.671.956-1.955 1.541-2.41 2.539a20.885 20.885 0 0 1-1.342 3.139c-1.698 2.51-3.252 5.135-5.15 7.489-2.539 3.166-4.878 6.576-8.416 8.787a1.319 1.319 0 0 0-.528.471 13.745 13.745 0 0 1-5.35 5.72Zm72.838-36.376c-3.067 2.225-6.162 4.422-9.257 6.633a74.716 74.716 0 0 1-11.085 6.078c-1.326.641-2.596 1.426-3.908 2.096a114.989 114.989 0 0 0-11.498 7.504 36.835 36.835 0 0 1-9.244 4.536c-1.968.642-4.065.884-6.091 1.327a45.105 45.105 0 0 0-9.244 3.195c-2.439 1.099-4.807 2.354-7.132 3.524-.3.142-.614.257-1.284.527.21-.403.443-.794.699-1.169.228-.286.599-.457.756-.756 1.597-2.968 4.636-4.137 7.247-5.85 3.081-2.011 6.134-4.079 9.187-6.147a323.38 323.38 0 0 0 6.076-4.28 6.569 6.569 0 0 1-.499 1.284 19.963 19.963 0 0 0-1.697 2.482 7.626 7.626 0 0 1-4.052 3.567c-2.853 1.426-5.706 2.681-8.559 4.022-.171.085-.285.328-.614.713.388.055.783.055 1.171 0 2.196-.884 4.393-1.797 6.59-2.71.97-.399 1.954-.798 2.953-1.17 2.682-.999 4.636-3.195 7.132-4.465a65.86 65.86 0 0 0 5.892-3.652c.362-.19.739-.352 1.127-.484.314-.144.756-.187.913-.428 1.055-1.599 2.853-2.141 4.38-2.853 1.811-.885 3.58-1.855 5.391-2.74.942-.456 1.926-.784 2.925-1.198-.329-1.127-.428-1.27-1.513-.784-1.725.756-3.394 1.697-5.078 2.567l-3.623 1.712c.018-.485.104-.966.257-1.426a6.705 6.705 0 0 1 3.366-3.567c2.711-1.083 5.421-2.139 8.203-3.01 1.783-.556 3.694-.798 5.52-1.298a28.434 28.434 0 0 0 3.838-1.326c1.583-.671 3.11-1.427 4.678-2.183a14.337 14.337 0 0 1 1.884-.557c1.312-.351 2.624-.693 3.937-1.027a7.472 7.472 0 0 1 1.127-.113l.128.271a9.3 9.3 0 0 1-.999 1.155Zm-50.812-37.261c.1.357.314.67.228.856-.456 1.142-.955 2.254-1.426 3.367-.243.485-.371 1.312-1.199.898-.827-.413-.527-1.041-.214-1.569.714-1.212 1.071-2.725 2.611-3.552ZM78.077 149.48a41.734 41.734 0 0 0 5.792-6.505c.727-1.083 1.427-2.211 2.211-3.223a64.799 64.799 0 0 0 5.706-8.559 63.557 63.557 0 0 0 6.776-15.692c.17-.622.214-1.273.128-1.912a4.06 4.06 0 0 0-.698-1.312c-.428.257-.985.4-1.256.77-1.897 2.511-3.851 4.994-5.535 7.647a18.593 18.593 0 0 1-2.81 3.652c-1.969 1.783-3.352 4.037-5.706 5.463-.143.085-.228.271-.343.399-1.554 1.869-3.052 3.795-4.707 5.578-2.269 2.425-4.68 4.721-7.004 7.133-1.127 1.141-2.282 2.268-3.295 3.494a27.91 27.91 0 0 1-4.28 4.508 36.345 36.345 0 0 0-3.295 2.996 304.127 304.127 0 0 0-5.25 5.321 43.923 43.923 0 0 0-3.095 3.424c-1.57 1.997-3.024 4.065-4.551 6.091h-.457c.017-.346.064-.69.144-1.027 1.041-3.353 2.11-6.705 3.166-9.986a21.252 21.252 0 0 1 6.648-10.327c2.182-1.826 4.208-3.853 6.419-5.706 2.21-1.855 4.85-3.553 7.132-5.507 2.283-1.955 4.68-4.365 6.99-6.576 1.156-1.099 2.24-2.297 3.467-3.31a65.186 65.186 0 0 0 8.017-7.917 19.918 19.918 0 0 0 1.882-2.853c.729-1.212 1.313-2.511 2.04-3.738 1.84-3.124 3.71-6.233 5.578-9.329.556-.913 1.17-1.797 1.67-2.74 1.155-2.21 2.268-4.45 3.38-6.675 1.113-2.225 2.198-4.365 3.238-6.576.357-.77.786-1.627.172-2.468-1.726-.171-1.741-.186-2.64.927-.527.643-.984 1.34-1.426 1.983-1.427 1.769-2.753 3.567-4.194 5.292a40.204 40.204 0 0 1-3.723 4.066c-3.039 2.753-6.234 5.321-9.272 8.06-3.567 3.224-7.048 6.548-10.543 9.842-1.682 1.584-3.38 3.153-4.949 4.865a206.717 206.717 0 0 0-7.132 8.188c-1.741 2.111-3.325 4.279-4.95 6.533-.77 1.027-1.499 2.112-2.24 3.168l-.371-.157c.185-.771.414-1.527.556-2.311a48.592 48.592 0 0 1 4.579-13.481c.316-.64.597-1.297.841-1.968 1.256-3.224 2.454-6.449 3.724-9.658a402.193 402.193 0 0 1 3.723-8.887c.457-1.056.628-2.311 1.925-2.853.215-.1.315-.485.457-.742.556-1.312 1.227-2.596 1.983-3.895a16.061 16.061 0 0 1 1.84-2.853 28.524 28.524 0 0 1 10.314-7.403c1.94-.856 3.794-1.94 5.706-2.853a8.563 8.563 0 0 1 3.125-1.213c1.94-.213 3.865-.6 5.79-.984 2.23-.66 4.556-.925 6.877-.784.23.05.468.05.699 0 2.696-.742 5.421-1.427 8.06-2.283 3.866-1.312 7.703-2.767 11.54-4.194 3.053-1.141 6.091-2.354 9.129-3.523.614-.229 1.242-.414 1.841-.684 2.611-1.157 5.149-2.454 7.817-3.44 1.513-.555 2.967-1.611 4.765-1.126.242 0 .57-.156.842-.271 1.355-.585 2.724-1.17 4.065-1.812a2.844 2.844 0 0 0 1.283-.856c.381-.6.963-1.045 1.641-1.255.357-.171.585-.614.885-.927a4.815 4.815 0 0 0-1.056-.842 2.845 2.845 0 0 0-1.056 0h-7.132a33.272 33.272 0 0 0-3.709-.37c-2.363.17-4.695.65-6.933 1.426a55.304 55.304 0 0 1-15.363 2.853c-.3 0-.599 0-.899-.086-2.596-.1-5.221-.37-7.818-.27a51.56 51.56 0 0 0-18.687 4.764l-.5.2a56.28 56.28 0 0 0-10.47 5.705c-.328.214-.656.4-1.24.743a8.02 8.02 0 0 1 .27-1.1c1.199-2.523 2.383-5.063 3.624-7.56 1.241-2.496 2.853-5.235 3.98-7.988a32.805 32.805 0 0 0 2.168-10.2 8.67 8.67 0 0 1 .342-2.096c.956-2.953 1.884-5.92 2.981-8.816a33.955 33.955 0 0 0 2.012-10.072c-.005-.713.062-1.425.2-2.125a65.136 65.136 0 0 1 4.037-11.412c1.112-2.411 1.897-4.993 2.853-7.518a1.245 1.245 0 0 0 .001-1 1.257 1.257 0 0 0-.729-.683c-.684-.3-1.056.285-1.426.727-.785.9-1.555 1.798-2.397 2.625-1.982 1.97-4.151 3.766-5.963 5.863-2.125 2.468-3.965 5.178-5.905 7.817a48.29 48.29 0 0 0-4.565 7.005 39.509 39.509 0 0 0-2.768 7.888c-1.426 5.421-2.995 10.799-4.55 16.177-.528 1.84-1.213 3.623-1.854 5.564-.214-.942-.4-1.798-.586-2.64a37.015 37.015 0 0 1-1.426-9.842 27.354 27.354 0 0 0-.428-5.165 1.945 1.945 0 0 0-.942-1.326c-.642-.257-1.041.385-1.311.927-.234.421-.42.866-.557 1.327-.728 3.309-1.512 6.604-2.125 9.985-.343 1.868-.286 3.809-.543 5.706-.385 2.854-.898 5.62-1.427 8.43 0 .215-.099.414-.214.9l-.599-.9a28.875 28.875 0 0 0-3.323-5.049 3.536 3.536 0 0 1-.642-1.241c-.3-.77-.457-1.612-.813-2.34a47.024 47.024 0 0 1-2.925-9.172 176.89 176.89 0 0 0-1.883-6.833 43.905 43.905 0 0 1-1.612-12.696c0-1.427-.17-2.981.928-4.15-.856-1.342-1.313-1.585-1.84-.871a19.087 19.087 0 0 0-3.252 6.305 26.725 26.725 0 0 0-.529 9.03 13.17 13.17 0 0 1-.813 5.606 16.597 16.597 0 0 0-.927 8.916c.713 3.423 1.427 6.847 2.41 10.214.757 2.767 1.798 5.449 2.754 8.345-2.183-1.541-4.18-2.853-6.12-4.28-3.751-2.782-8.174-3.752-12.61-4.65a55.138 55.138 0 0 1-10.856-2.854c-2.254-.927-4.593-1.655-6.905-2.41-.456-.157-1.326-.186-1.426 0a3.23 3.23 0 0 0-.185 1.797c.107.464.316.898.613 1.27a8.471 8.471 0 0 0 3.053 2.667c2.268 1.299 4.608 2.582 6.848 4.008 3.874 2.542 7.999 4.678 12.31 6.377a36.333 36.333 0 0 1 10.984 6.605 56.555 56.555 0 0 1 8.074 9.23 21.6 21.6 0 0 1 3.224 5.107c.3.827.856 1.554 1.227 2.368.225.473.347.988.356 1.512-.142 5.52-2.324 10.456-4.535 15.82-.243-.799-.386-1.227-.486-1.655-.599-2.596-1.17-5.206-1.797-7.803-.685-2.853-1.426-5.706-2.126-8.46-.157-.641-.228-1.298-.442-1.911-.385-1.14-.956-1.255-1.783-.428-.271.271-.628.442-.9.728-.27.285-.726.67-.784 1.056-.228 1.426-.342 2.938-.442 4.422-.1 1.483 0 2.596-.185 3.88-.742 5.549-1.54 11.07-2.325 16.604 0 .5-.271.971-.5 1.84l-.356-.998c-1.213-3.581-1.313-7.347-2.04-11.013a51.997 51.997 0 0 0-1.655-7.133 39.462 39.462 0 0 1-1.597-5.82 15.788 15.788 0 0 0-2.04-5.862c-1.1-1.626-2.168-3.267-3.281-4.865a517.35 517.35 0 0 0-5.521-7.903 16.081 16.081 0 0 0-6.548-5.605 3.639 3.639 0 0 1-1.426-1 3.724 3.724 0 0 0-3.538-1.24c-1.213 0-1.74 1.083-1.07 2.154a13.032 13.032 0 0 0 1.812 2.167 11.713 11.713 0 0 1 2.853 3.581c.527 1.199 1.056 2.397 1.427 3.638a28.703 28.703 0 0 1 1.155 3.794c.67 3.51 1.212 7.033 1.897 10.528s1.427 6.604 2.097 9.986a46.905 46.905 0 0 0 5.706 15.107c.927 1.597 1.769 3.238 2.71 4.821.543.913 1.256 1.726 1.855 2.596a14.83 14.83 0 0 1 2.853 5.478 22.199 22.199 0 0 0 1.113 3.951 16.237 16.237 0 0 1 1.284 4.979c.266 1.564.385 3.149.356 4.736-.3 3.32-.4 6.654-.3 9.986-.071.934-.25 1.858-.527 2.753-.13.57-.414 1.113-.585 1.683-.842 2.853-1.655 5.706-2.482 8.559a4.698 4.698 0 0 1-.329.585 7.88 7.88 0 0 1-.613-1.155c-.841-2.396-1.74-4.794-2.467-7.233-1.227-4.108-2.326-8.245-3.495-12.353a15.523 15.523 0 0 0-.942-2.497c-1.526-3.224-3.267-6.348-4.579-9.658a25.234 25.234 0 0 0-3.552-6.604c-3.152-3.937-6.448-7.76-9.686-11.626-.642-.77-1.212-1.626-1.926-2.325-2.083-2.026-4.28-4.009-6.348-5.978a153.838 153.838 0 0 0-3.994-3.537c-.613-.528-1.313-.457-1.426.185-.286 1.555-1.213 3.01-.628 4.694.175.814.299 1.637.37 2.468.4 2.618.977 5.205 1.727 7.746a67.906 67.906 0 0 0 3.908 8.159c1.298 2.468 2.853 4.778 4.137 7.275 2.083 4.28 4.066 8.559 5.934 12.968a81.574 81.574 0 0 0 3.652 8.373c.999 1.755 1.769 3.638 2.74 5.392a29.751 29.751 0 0 0 3.365 5.449 62.124 62.124 0 0 1 6.734 9.643 18.677 18.677 0 0 1 2.468 12.839 17.849 17.849 0 0 0-.243 2.126c-.128 4.621-.214 9.257-.356 13.88-.086 3.152-.272 6.291-.386 9.444a3.153 3.153 0 0 0 2.54 3.18c3.11 0 6.19-2.254 5.706-5.563-.214-1.427-.357-2.953-.485-4.436a25.144 25.144 0 0 1-.214-4.28c.214-2.596.67-5.179.998-7.76.143-1.128.243-2.24.37-3.367.458-3.88.458-7.86 2.854-11.298a34.263 34.263 0 0 1 3.324-5.236 94.457 94.457 0 0 1 8.987-8.059 165.494 165.494 0 0 0 9.3-8.06 67.056 67.056 0 0 0 8.132-8.231 22.986 22.986 0 0 1 2.34-2.782h-.015Zm-8.759-3.38.086-.214c1.655-1.698 3.338-3.352 4.935-5.079 3.04-3.309 6.42-6.29 9.244-9.8 1.584-1.968 3.538-3.623 5.307-5.42l.37.299c-1.212 1.698-2.395 3.409-3.608 5.093-1.213 1.683-2.083 3.11-3.224 4.536-1.426 1.712-2.853 3.324-4.28 5.007-1.426 1.683-2.596 3.21-3.908 4.808-.556.684-1.127 1.426-2.211.642-.356.941-1.612 1.426-.913 2.553-.6.57-.927 1.527-2.168 1.527.37-.743.656-1.427.998-1.998.11-.165.183-.349.218-.544a1.442 1.442 0 0 0-.273-1.114 1.413 1.413 0 0 0-.445-.382l-.113.129a327.7 327.7 0 0 1-1.598 3.866c0 .099-.3.099-.457.156l-.071.143c-.171.685-.342 1.426-.499 2.068l-.428-.171c.313-.628.613-1.27.927-1.897v-.2c-.214-1.855 1.056-2.867 2.126-4.008h-.015Zm-5.02 5.535c.228-.514.827-.871 1.255-1.284l.37.257-2.34 4.878-.541-.171c.414-1.255.756-2.511 1.27-3.68h-.015Zm-1.998 1.426a11.719 11.719 0 0 1-2.325 5.792c.185-.557.356-1.127.57-1.683.214-.556.5-1.227-.299-1.798l2.053-2.311Zm18.103-42.595c4.164-3.339 7.974-7.133 12.082-10.514a62.056 62.056 0 0 0 6.847-6.705c.842-.955 1.569-2.025 2.468-2.952a13.068 13.068 0 0 1-3.295 5.492c-1.427 1.426-3.01 2.853-4.494 4.28a82.442 82.442 0 0 0-2.496 2.524c-3.452 3.652-6.89 7.332-10.328 10.984a6.45 6.45 0 0 1-.728.543v-1.855c-2.053 1.641-2.053 4.393-4.208 6.134.885-3.182 1.598-5.891 4.152-7.931Zm-9.758 9.229c.562-.52 1.163-.998 1.798-1.427v-.157a11.545 11.545 0 0 1 3.224-3.024 13.172 13.172 0 0 1-3.994 7.689c.37-1.127.727-2.154 1.069-3.195.17-.556.413-1.141-.3-1.427l-.085.072c-.941 2.325-1.87 4.636-2.853 6.962a4.199 4.199 0 0 1-1.67 2.039 5.811 5.811 0 0 1 .8-2.853c.256-.528.756-1.17.613-1.612-.314-1.512.599-2.24 1.398-3.067Zm-1.426 8.844c1.925-1.954 3.595-4.094 5.363-6.162.856-.985 1.356-2.411 3.11-2.211.214 0 .614-.528.727-.885a6.76 6.76 0 0 1 1.798-2.853c2.354-2.439 4.708-4.879 6.99-7.374 2.282-2.497 4.464-5.122 6.89-7.633 1.156-1.241 2.51-2.297 3.966-3.623-.085.456 0 .67-.157.77-2.767 3.267-4.366 7.233-6.505 10.856a53.506 53.506 0 0 1-7.489 10.599c-1.227 1.227-2.653 2.311-3.894 3.481-3.039 2.853-6.02 5.706-9.102 8.559-1.897 1.655-3.923 3.195-5.906 4.879-2.539 2.125-5.05 4.279-7.746 6.29 1.698-2.396 3.538-4.707 5.079-7.132 1.797-3.053 4.464-5.164 6.819-7.561h.057Zm-16.677 15.264c1.1-1.954 2.497-3.737 3.767-5.606a113.566 113.566 0 0 1 7.046-9.6c1.427-1.67 2.853-3.31 4.28-4.965l.2.171c-.699 1.883-1.427 3.766-2.097 5.706a1.89 1.89 0 0 1-.543.671c-2.338 1.783-3.68 4.337-5.335 6.661a77.559 77.559 0 0 1-5.862 8.46c-1.227 1.426-2.269 2.853-3.366 4.379a13.891 13.891 0 0 0-2.754 7.589 7.784 7.784 0 0 1-.328 1.427c-.97 3.809-1.955 7.617-2.853 11.412a27.93 27.93 0 0 1-2.653 6.905 4.505 4.505 0 0 1-.186-1c.3-2.709.6-5.42.956-8.131.128-.998.442-1.968.656-2.966.499-2.326.956-4.651 1.427-6.976.228-.999.17-2.154 1.426-2.697.314-.128.5-.642.684-1.012 1.84-3.495 3.567-7.018 5.479-10.428h.056Zm46.276-75.334c.771-1.427 1.584-2.854 2.383-4.28.428-.784 1.155-.84 2.054-.912-1.426 2.225-2.853 4.279-4.28 6.418l-.37-.17c.026-.36.099-.715.213-1.056Zm-12.666 3.737c1.17-.885 2.467-1.569 3.666-2.311l.385-.556 2.781-1.27.086-.128h.085a26.046 26.046 0 0 1 6.976-3.538c-.4.742-.613 1.241-.912 1.683a35.451 35.451 0 0 0-3.695 5.236c-.072.186-.471.228-.9.413.258-1.968 2.127-2.995 2.154-4.864-2.196 1.684-3.238 4.28-5.006 6.277l-.357-.186c.385-.741.742-1.427 1.127-2.225.385-.799.757-1.326 1.084-2.026.328-.698-.071-.698-.456-.856h-.114a232.017 232.017 0 0 1-1.955 3.153c-.655 1.041-1.283 2.154-1.954 3.167-.142.213-.414.328-.913.3.571-1.013 1.084-2.04 1.698-3.01a1.973 1.973 0 0 0 .3-2.14c0 .157-.1.37-.215.442l-.2.128c-.799 1.127-1.598 2.24-2.368 3.396-.498.727-.898 1.526-1.426 2.254-.26.232-.553.424-.87.57l-.257-.257c.328-.698.67-1.427.999-2.083a1.77 1.77 0 0 0-.229-.227 3.83 3.83 0 0 0-.899.57c-.599.713-1.14 1.427-1.711 2.254a4.273 4.273 0 0 1-3.224 1.526c.157-.37.171-.642.328-.756 1.925-1.655 3.952-3.338 5.992-4.907v-.029Zm-.614-44.82a46.815 46.815 0 0 1 7.66-11.94c1.427-1.798 2.853-3.709 4.28-5.436 1.797-2.04 3.752-3.908 5.706-5.862l.428.256a30.178 30.178 0 0 1-1.284 3.723 76.109 76.109 0 0 0-5.706 16.305c-.214.928-.186 1.912-.443 2.853-.599 2.17-1.227 4.28-2.011 6.449a59.656 59.656 0 0 0-2.967 11.568 41.333 41.333 0 0 1-1.426 5.122c-.142.453-.314.896-.514 1.326-.813 1.912-1.683 3.81-2.454 5.706-.77 1.897-1.64 3.88-2.268 5.863a25.888 25.888 0 0 1-3.28 6.919c-.942 1.355-1.64 2.853-2.483 4.28a8.187 8.187 0 0 1-.813 1.027 3.16 3.16 0 0 1 .1-2.569c1.284-4.507 2.71-8.987 3.851-13.537.813-3.28 1.142-6.676 1.883-9.985.428-1.898 1.227-3.71 1.84-5.564a43.782 43.782 0 0 0 1.427-4.565 52.913 52.913 0 0 1 3.767-10.799c.926-1.94 1.84-3.866 2.853-5.706 1.012-1.84 1.84-3.351 2.695-5.02.372-.686.7-1.427 1.041-2.084.728-1.426 1.427-2.966 2.184-4.464.186-.466.344-.943.47-1.427a2.184 2.184 0 0 0-1.925 1.427l-4.28 8.559c-1.584 3.324-3.01 6.733-4.608 10.057-2.853 5.82-4.28 12.139-6.462 18.16a32.843 32.843 0 0 0-1.099 5.59c-.441 2.326-.827 4.665-1.34 6.99-.6 2.726-1.327 5.435-2.011 8.146a5.685 5.685 0 0 1-.315.756l-.27-.114c.182-1.337.272-2.686.27-4.037a25.404 25.404 0 0 0-.67-4.38 10.42 10.42 0 0 1 0-4.407 231.69 231.69 0 0 1 6.248-22.725c.5-2.139 1.013-4.364 1.926-6.462ZM72.357 81.593c0-.513 1.055-1.127 1.698-1.612.76-.553 1.55-1.064 2.367-1.526a20.799 20.799 0 0 1 1.984-.928 6.756 6.756 0 0 1-3.196 4.436l-.828-.57c-1.07.356-1.326 1.341-1.854 2.112-.528.77-.628 1.683-1.925 1.954.2-.47.356-.728.442-1.013.328-.97 1.297-1.584 1.24-2.825l.072-.028Zm-2.71-28.374c.37-2.923.556-5.877.826-8.816a17.05 17.05 0 0 1 1.941-7.132c.121.31.212.63.271.956.143 2.197.242 4.379.385 6.576.023.886.118 1.77.285 2.64a80.058 80.058 0 0 1 1.797 15.52 2.353 2.353 0 0 0 0 .713c1.1 3.195.586 6.42.343 9.672a8.305 8.305 0 0 1-.656 3.195 5.816 5.816 0 0 1-1.013 1.14l-.285-.199c0-.584.085-1.155.172-1.725a23.12 23.12 0 0 0-.8-8.09c-.3-1.426-.2-2.952-.414-4.421a67.1 67.1 0 0 1-.585-9.401c0-.1-.113-.185-.299-.442a7.614 7.614 0 0 0-.343.913c-.884 3.537 0 7.133 0 10.628.08 2.071.362 4.13.842 6.148a6.259 6.259 0 0 1 0 3.652c-.4-1.541-.741-3.096-1.241-4.608a17.996 17.996 0 0 0-1.427-3.395 7.678 7.678 0 0 1-1.083-5.121c.342-2.782.927-5.578 1.283-8.403ZM62.1 58.612c1.84 3.438 3.653 6.904 5.535 10.342a17.312 17.312 0 0 1 2.597 10.442l-2.027 1.826a49.383 49.383 0 0 0-1.283-4.922c-.728-1.996-1.67-3.923-2.54-5.877a206.061 206.061 0 0 0-2.98-6.648 3.892 3.892 0 0 1-.115-3.094c.2-.72.343-1.456.428-2.198.17 0 .343 0 .385.129Zm-1.427-3.567c.286.657.5 1.142.572 1.342l-1.427 4.28c-1.027-1.228-.129-2.084 0-2.954a4.28 4.28 0 0 1 .927-2.668h-.072Zm-1.44-3.695c.371.743.756 1.427 1.127 2.24-1.94.856-.984 3.053-2.354 4.28.054-2.146.317-4.282.785-6.376l.442-.144Zm-4.736 9.173a28.301 28.301 0 0 1-1.926-8.288c-.085-1.526-.513-3.038-.727-4.565a38.401 38.401 0 0 1-.514-4.422 10.965 10.965 0 0 1 .385-3.31 34.07 34.07 0 0 0 .885-12.01 6.906 6.906 0 0 1 .67-3.895l.357.072c.09.58.123 1.167.1 1.754-.4 3.637.627 7.132 1.426 10.57.8 3.439 1.784 7.133 2.71 10.685.257.984.614 1.926.914 2.853-1.427 1.426-1.198 3.281-1.912 5.035-.499-.484-.77-.826-.585-1.54.385-1.427.628-2.853.927-4.28a8.591 8.591 0 0 0 0-.913c-.285 0-.542 0-.585.158-1.155 2.425-2.254 4.821-.941 7.602a36.223 36.223 0 0 0 3.124 5.578 30.817 30.817 0 0 1 2.61 4.993c1.427 3.267 2.854 6.548 4.124 9.857.39 1.105.724 2.228.998 3.367l-.286.243c-.313-.158-.77-.229-.927-.486a33.353 33.353 0 0 1-1.683-3.153 29.497 29.497 0 0 0-3.895-5.706 24.506 24.506 0 0 1-2.496-4.107 55.102 55.102 0 0 1-2.753-6.035v-.057Zm-11.113 4.28c-1.07-.742-.57-1.84-.94-3.025 1.411.7 1.469.984.94 3.053v-.029Zm20.257 24.92a40.052 40.052 0 0 1-.928-4.135c-.156.085-.498.227-1.04.47a147.493 147.493 0 0 1-3.81-4.579c-1.426-1.812-2.752-3.724-4.28-5.478a25.837 25.837 0 0 0-7.76-5.606c-4.693-2.553-9.457-4.98-14.265-7.433-.798-.414-1.654-.67-2.482-1.013a54.212 54.212 0 0 1-10.97-6.575 1.24 1.24 0 0 1-.513-.957c1.227.5 2.482.957 3.709 1.427a70.422 70.422 0 0 0 14.451 3.98l1.055.2c1.84.4 1.77.414 1.94 2.268.072.77-.156 1.855 1.312 2.283v-3.267c.7-.328 1.213-.114 1.099.47-.442 2.369 1.127 3.424 2.853 4.438a49.887 49.887 0 0 1 7.56 5.577c.2.13.39.274.571.428 3.567 3.894 7.49 7.474 10.442 11.897a23.61 23.61 0 0 1 1.427 2.497c.285.556.599.698 1.155.142a23.647 23.647 0 0 0-5.706-8.56c-1.626-1.654-3.166-3.38-4.864-4.95-1.969-1.782-4.08-3.437-6.135-5.135a14.733 14.733 0 0 0-1.896-1.34 2.854 2.854 0 0 1-1.427-3.467 42.568 42.568 0 0 1 3.88 2.168c1.74 1.227 3.395 2.583 5.036 3.952a10.04 10.04 0 0 1 1.683 1.797c.57.756 1.427.941 2.125 1.427a15.486 15.486 0 0 1 3.139 3.124c1.626 2.11 3.138 4.28 4.622 6.533.279.589.475 1.213.584 1.855-.556.599-1.283 1.155-.627 2.11.656.957 1.07.871 1.798.272.328-.337.625-.705.884-1.099.693-.949 1.514-1.799 2.439-2.524a6.7 6.7 0 0 0-1.07 2.11 6.72 6.72 0 0 1-1.997 3.924c-.428.485-.67 1.027.286 1.426 1.041-1.056 2.082-2.153 3.18-3.195a50.307 50.307 0 0 1 3.795-3.396 70.477 70.477 0 0 1 6.205-4.45 49.902 49.902 0 0 1 5.706-2.853c3.238-1.427 6.52-2.853 9.744-4.35 2.182-1.028 4.279-2.241 6.462-3.339 1.013-.514 2.068-.913 3.067-1.426 2.425-1.242 4.893-.542 7.346-.2 1.056.142 2.098.527 2.981-.514l1.427 1.284c.271-.157.543-.228.656-.4a2.484 2.484 0 0 1 2.54-1.312.898.898 0 0 0 .342 0c4.279-1.427 8.83-1.925 12.995-3.794 2.155-.97 4.423-1.726 6.605-2.625a17.282 17.282 0 0 0 2.069-1.155c0-.115 0-.243-.115-.372-.299 0-.655-.242-.912-.157-3.51 1.27-7.133 2.126-10.471 3.967a9.47 9.47 0 0 1-2.553.77c-2.273.485-4.542.96-6.805 1.426-.328.072-.671 0-1.227.114l1.612-2.61c-.099-.1-.185-.214-.286-.328-.34.094-.663.244-.955.442-.77.742-1.427 1.584-2.211 2.325-.484.393-1 .745-1.54 1.056 0-1.655 1.925-2.011 1.597-3.666a2.952 2.952 0 0 0-1.027.428c-.842.827-1.626 1.725-2.453 2.581-.571.6-1.142 1.27-2.312.628l1.812-2.368c-.556-.613-.956-.343-1.312 0a14.545 14.545 0 0 0-1.798 1.954c-.371.529-.727.813-1.312.642-2.34-.698-4.28.315-6.248 1.427-.885.471-1.741.97-2.611 1.426l-.243-.299 3.082-5.578a35.905 35.905 0 0 1 4.351-1.127 40.982 40.982 0 0 1 11.412-.456c2.414.287 4.849.354 7.275.2.113.013.229.013.343 0 3.751-.956 7.517-1.812 11.212-2.853 2.853-.828 5.506-1.755 8.559-1.284 1.797.285 3.638.285 5.564.7a7.83 7.83 0 0 1-1.299.626 74.584 74.584 0 0 0-9.728 3.937c-2.853 1.256-5.85 2.34-8.788 3.481-.328.142-.685.214-.998.385a29.069 29.069 0 0 1-8.602 3.01 57.926 57.926 0 0 0-6.134 2.383c-3.709 1.24-7.433 2.482-11.213 3.452a38.576 38.576 0 0 1-5.32.4c-1.427.156-2.853.527-4.18.798l-4.694.913a41.366 41.366 0 0 0-11.254 4.394 34.767 34.767 0 0 0-6.706 4.65 13.486 13.486 0 0 0-3.137 3.538 4.362 4.362 0 0 0-.628 2.14 3.281 3.281 0 0 1-.457 1.84 71.77 71.77 0 0 0-6.191 13.052 44.433 44.433 0 0 1-2.853 5.706 18.34 18.34 0 0 0-.927 2.311 46.034 46.034 0 0 1-3.866 9.016 9.706 9.706 0 0 1 .999-6.704c.357-.446.672-.923.94-1.427.23-.557.3-1.142 1.128-1.142.6 0 .87-.413.927-1.083.114-.881.305-1.75.571-2.597.627-2.411 1.27-4.821 1.883-7.232 0-.329-.085-.714 0-1.056a4.9 4.9 0 0 1 .798-2.853 3.433 3.433 0 0 0 .428-1.854 24.222 24.222 0 0 1-.028-2.582 10.83 10.83 0 0 0-.499-5.393v-.028ZM40.974 101.28c.755 3.722 1.426 7.46 2.111 11.184 0 .356 0 .712.143 1.055l2.439 10.742a1.138 1.138 0 0 1-.185.998c-.842-2.239-1.655-4.493-2.511-6.747a66.36 66.36 0 0 0-1.512-3.595c-.771-1.669-1.584-3.324-2.383-4.979a2.288 2.288 0 0 1 0-2.04c.357-.912.585-1.868.928-2.966-1.427 0-1.213 1.612-2.425 1.911-.172-.599-.6-1.227-.486-1.74.614-2.639 1.355-5.235 2.14-8.189a11.628 11.628 0 0 1 1.74 4.366Zm-2.853-8.987.485.085c.441 3.367-1.427 6.22-2.24 9.572a1.782 1.782 0 0 1-.757-2.24 451.4 451.4 0 0 0 2.512-7.431v.014Zm7.832 52.295a17.544 17.544 0 0 1 0-1.954 26.584 26.584 0 0 0-.786-6.519 33.323 33.323 0 0 0-1.882-6.434c-.942-2.067-1.97-4.15-2.996-6.091-2.082-3.722-4.35-7.346-6.405-11.098a39.11 39.11 0 0 1-4.48-13.437c-.328-2.412-1.026-4.75-1.426-7.133-.57-2.982-1.041-5.963-1.598-8.945a34.534 34.534 0 0 0-5.035-13.081 4.644 4.644 0 0 1-.314-.898 14.978 14.978 0 0 1 5.62 3.994c1.898 2.439 3.623 5.022 5.336 7.589 1.712 2.568 3.28 5.093 4.893 7.646.362.546.671 1.123.926 1.726.125.327.125.687 0 1.013-1.054 2.325-2.196 4.608-3.266 6.976a1.431 1.431 0 0 1-.357-1.684 57.184 57.184 0 0 0 1.142-3.751 7.582 7.582 0 0 0 0-1.626c-1.427.984-1.099 2.61-2.383 3.409l-1.711-4.28c-.87.671-.486 1.427-.315 1.898.514 1.655 1.128 3.267 1.727 4.879.741 1.996 1.64 3.95 2.225 5.99a50.09 50.09 0 0 0 3.738 9.045c2.096 4.279 3.609 8.659 5.292 13.052.641 1.712.927 3.553 1.427 5.335.299 1.141.655 2.269.941 3.424.149.569.235 1.152.257 1.741a31.616 31.616 0 0 0 0 4.037 17.808 17.808 0 0 1-.4 7.046c-.042-.628-.128-1.255-.17-1.882v.013Zm4.907-11.754c.185-1.583.499-3.153.684-4.75.286-2.468.514-4.935.784-7.403a11.15 11.15 0 0 1 .286-1.556c.64-3.036.615-6.175-.072-9.201a2.494 2.494 0 0 0-.356.799c-.142 1.84-.228 3.666-.328 5.506 0 .657 0 1.313-.1 1.955-.685 4.28-1.427 8.673-2.069 13.01-.17 1.14-.242 2.297-.356 3.452 0 .827 0 1.655-.1 2.468h-.485a3.188 3.188 0 0 1 .585-2.425v-.101c-.114-.142-.328-.284-.313-.413.356-4.55.798-9.087 1.083-13.638.185-2.667.086-5.335.2-8.002.114-2.426.356-4.851.543-7.29.099-1.426.227-2.696.299-4.051.128-2.254.185-4.522.314-6.762.049-.456.25-.883.57-1.212.414 1.569.856 3.124 1.241 4.707.913 3.795 1.826 7.59 2.668 11.412a13.86 13.86 0 0 1-.243 7.917c-.899 2.398-.713 4.893-1.012 7.361 0 .585-.13 1.171-.243 1.755-.457 2.51-.9 5.021-1.427 7.518-.327 1.569-.798 3.11-1.226 4.778 1.24.757.813 1.827.257 2.853-1.128 2.012-2.312 4.009-3.61 6.263a10.514 10.514 0 0 1 .757-5.392 19.044 19.044 0 0 0 1.226-4.636c.27-1.612.256-3.296.443-4.936v.014Zm-28.66-4.45c.206.376.34.787.4 1.212a14.132 14.132 0 0 1-1.811 5.706c-.357-2.425.94-4.508.984-6.847l.428-.071Zm-1.27-.571c-.498 1.711-1.026 3.409-1.554 5.107 0 .185-.3.314-.542.571-.157-.315-.371-.529-.342-.686.428-2.324.87-4.621 1.354-7.132.9.57 1.37 1.169 1.085 2.097v.043Zm6.806 35.891c-2.14-3.481-3.81-7.261-5.706-10.913a19.572 19.572 0 0 0-1.156-2.396c-2.325-3.31-3.267-7.219-4.779-10.885a55.205 55.205 0 0 0-4.95-9.001c-1.569-2.539-3.224-4.978-4.793-7.532a17.235 17.235 0 0 1-1.284-2.853c-.784-2.111-1.426-4.28-2.282-6.362a19.634 19.634 0 0 1-.77-7.133c7.132 4.979 11.854 11.712 17.118 17.846l-1.969 6.762a7.526 7.526 0 0 1 .186-3.752c.142-1.156.299-2.311.47-3.552-.756-.185-.984.142-1.112.77a20.87 20.87 0 0 1-.984 3.681 5.393 5.393 0 0 1 .085-3.609c.228-.6.357-1.128-.556-1.541-.357 1.041-.671 1.997-1.127 3.367-1.341-1.912-2.369-3.439-3.524-5.051-.67.372-.57 1.056-.2 1.669.585.956 1.298 1.826 1.94 2.754.9 1.312 1.784 2.653 2.682 3.965.9 1.313 1.698 2.554 2.653 3.738.956 1.184 2.397 2.582 3.496 3.952a7.996 7.996 0 0 1 1.284 2.31c1.17 3.053 2.268 6.134 3.366 9.201a22.806 22.806 0 0 1 1.597 6.719c.228 1.753.774 3.45 1.612 5.007 1.299 2.853 2.754 5.792 4.195 8.659a10.434 10.434 0 0 1 1.426 3.466c-2.482-3.238-4.964-6.091-6.918-9.329v.043Zm12.282 51.212a2.257 2.257 0 0 1-2.44 1.526 1.433 1.433 0 0 1-.907-.792 1.432 1.432 0 0 1 .023-1.205 1.92 1.92 0 0 1 2.34-1.112c.855.27 1.226.869.984 1.54v.043Zm.742-18.73c-.414 2.938-.885 5.891-1.113 8.844-.157 2.169 0 4.351.086 6.634l-2.853.299a7.435 7.435 0 0 1-.087-1.27c.172-1.783.429-3.552.6-5.335.4-4.079.8-8.159 1.127-12.239.086-.928-.214-1.898-.157-2.853.1-1.798.342-3.595.485-5.407a4.993 4.993 0 0 0-.1-1.726c-.314-1.127-.77-2.239-1.127-3.352a11.083 11.083 0 0 1-.855-4.152 7.995 7.995 0 0 0-.572-2.767 37.466 37.466 0 0 0-1.426-3.851c-.713-1.612-1.54-3.168-2.34-4.751l-2.381-4.636 1.598-4.779c-1.427-.085-1.185 1.342-1.884 1.84-.856-1.312-.94-1.426-.086-3.709.457-1.155.443-2.61 1.799-3.481l-.628-1.183c-1.755.685-1.07 2.725-2.326 3.78a1.84 1.84 0 0 1-.342-1.755c.47-1.34 1.013-2.639 1.427-3.979a2.1 2.1 0 0 0 .113-1.142 11.539 11.539 0 0 0-.613-1.655c-.556 1.599-1.112 3.196-1.655 4.794l-.499-.128c-1.27-2.184.513-3.938 1.042-5.92-.243-.486-.642-.486-.942-.072-.57.813-1.056 1.698-1.726 2.853-.785-2.126-1.426-4.08-2.225-6.091a7.494 7.494 0 0 0 1.526-4.965c-1.427-.484-.913 1.113-1.67 1.427a8.72 8.72 0 0 1 .657-4.222c1.17.541 1.355 1.697 1.698 2.596a56.278 56.278 0 0 0 3.722 8.245c.145.377.246.769.3 1.17a7.69 7.69 0 0 1 2.297 3.88 36.29 36.29 0 0 1 1.027 3.937l1.199 4.75c1.426 4.009 2.852 8.003 4.05 12.068.322 1.573.47 3.175.443 4.78.087 3.08.513 6.141 1.27 9.129.157.556.613 1.041.698 1.598.214 1.597 1.156 3.223.942 4.678-.386 2.668-.129 5.393-.5 8.075v.043Zm8.972-24.865c-1.868 2.311-3.623 4.708-5.406 7.133-.413.557-.756 1.184-1.327 2.083a4.47 4.47 0 0 1 0-1.184 19.385 19.385 0 0 1 3.495-7.133 33.768 33.768 0 0 0 2.625-3.894 118.096 118.096 0 0 1 9.9-11.912c.161-.172.332-.334.514-.484l.356.113c-.05.373-.132.74-.243 1.099-.741 1.612-1.426 3.224-2.281 4.807-.27.514-.6.993-.986 1.426-2.225 2.654-4.479 5.236-6.647 7.904v.042Zm7.732-5.392a28.049 28.049 0 0 1-3.366 2.14l-.257-.328c.414-.371.784-.77 1.212-1.113.428-.342.813-.385 1.013-.699 2.853-4.707 7.133-8.188 10.913-12.054 1.826-1.854 3.894-3.466 5.706-5.278 1.812-1.811 3.538-3.666 5.293-5.506.77-.813 1.569-1.626 2.281-2.482.3-.449.553-.927.757-1.427.184-.517.455-.998.799-1.426a16.777 16.777 0 0 0 3.081-4.451 31.258 31.258 0 0 1 2.853-3.381 21.553 21.553 0 0 0 2.069-2.895 3.236 3.236 0 0 0 .128-1.955c2.158-3.157 4.317-6.3 6.476-9.43l.3.186c-.885 1.726-1.77 3.452-2.668 5.164l-5.948 11.412a40.322 40.322 0 0 1-5.093 7.275c-3.495 4.123-6.962 8.246-10.542 12.297a145.546 145.546 0 0 1-15.007 13.908v.043Zm65.62-25.962c.09-.285.205-.562.342-.828.984-1.426 2.011-2.938 2.953-4.465.613-.998 1.084-2.097 1.626-3.153l1.099-2.025c.238-.359.458-.73.656-1.112 2.767-6.262 6.163-12.24 8.345-18.759a35.555 35.555 0 0 1 1.954-3.995c1.426-2.853 2.667-5.591 4.052-8.345a12.075 12.075 0 0 1 2.011-2.853l.556.315c-.142.413-.242.827-.413 1.212a1975.478 1975.478 0 0 0-3.395 7.133c-.714 1.426-1.513 2.966-2.183 4.493-.842 1.897-1.526 3.866-2.382 5.706-1.128 2.497-2.326 4.95-3.538 7.39-1.627 3.281-3.438 6.49-4.936 9.828a37.58 37.58 0 0 1-5.606 8.816 1.615 1.615 0 0 1-1.155.599l.014.043Zm-89.87 15.135.67.671c-.086.214-.185.428-.442 1.027-.214-.771-.342-1.17-.457-1.584l.228-.114Z"/></g></svg>