<svg xmlns="http://www.w3.org/2000/svg" width="140" height="69" fill="none"><path fill="#EA6D27" d="M70.127 58.47c-12.525 0-22.723-10.193-22.723-22.73s10.197-22.724 22.723-22.724c12.525 0 22.722 10.194 22.722 22.731S82.652 58.471 70.127 58.471Zm0-44.728C58 13.742 48.13 23.609 48.13 35.747c0 12.138 9.87 21.998 21.997 21.998 12.126 0 21.997-9.867 21.997-22.005 0-12.138-9.87-21.998-21.997-21.998Z"/><path fill="#EA6D27" d="M70.13 62.824a27.43 27.43 0 0 1-5.454-.551 26.972 26.972 0 0 1-5.084-1.575 27.322 27.322 0 0 1-4.598-2.496 26.866 26.866 0 0 1-4.004-3.308 27.722 27.722 0 0 1-3.307-4.005.315.315 0 0 1 .522-.348 26.48 26.48 0 0 0 11.633 9.584 26.355 26.355 0 0 0 4.961 1.538c3.481.711 7.173.711 10.662 0a26.35 26.35 0 0 0 4.96-1.538 26.596 26.596 0 0 0 8.406-5.666 26.125 26.125 0 0 0 3.228-3.918.314.314 0 0 1 .522.348 26.965 26.965 0 0 1-3.307 4.005 27.328 27.328 0 0 1-4.004 3.308 26.594 26.594 0 0 1-4.598 2.496 26.968 26.968 0 0 1-5.084 1.575 27.43 27.43 0 0 1-5.454.55ZM92.316 21.091a.327.327 0 0 1-.261-.138A26.487 26.487 0 0 0 80.42 11.37a26.354 26.354 0 0 0-4.96-1.538 26.91 26.91 0 0 0-10.662 0 26.196 26.196 0 0 0-4.96 1.538 26.842 26.842 0 0 0-4.49 2.438 26.476 26.476 0 0 0-7.144 7.146.314.314 0 0 1-.522-.348A26.965 26.965 0 0 1 50.99 16.6a27.719 27.719 0 0 1 4.004-3.308 27.096 27.096 0 0 1 4.598-2.496 27.535 27.535 0 0 1 5.084-1.582 27.336 27.336 0 0 1 10.908 0c1.74.356 3.452.885 5.084 1.582A26.961 26.961 0 0 1 89.27 16.6a27.722 27.722 0 0 1 3.307 4.005.314.314 0 0 1-.087.435.349.349 0 0 1-.174.051Z"/><path fill="#EA6D27" d="M71.224 43.83c-1.632 0-3.22-.349-4.722-1.03a8.333 8.333 0 0 1-3.539.783c-4.656 0-8.45-3.795-8.45-8.453 0-3.961 2.778-7.407 6.63-8.249a11.437 11.437 0 0 1 10.08-6.008c6.042 0 11.025 4.68 11.43 10.695a6.518 6.518 0 0 1 3.083 5.521c0 3.584-2.915 6.501-6.498 6.501-1.11 0-2.205-.29-3.184-.842a11.26 11.26 0 0 1-4.83 1.082ZM66.502 42l.16.073a10.685 10.685 0 0 0 9.261-.066l.174-.087.167.102a5.797 5.797 0 0 0 2.981.834 5.78 5.78 0 0 0 5.773-5.775 5.793 5.793 0 0 0-2.894-4.999l-.174-.101-.007-.196c-.29-5.718-4.997-10.201-10.72-10.201a10.72 10.72 0 0 0-9.522 5.775l-.08.152-.166.037c-3.598.718-6.216 3.903-6.216 7.574 0 4.259 3.467 7.727 7.724 7.727a7.745 7.745 0 0 0 3.38-.784l.16-.065Z"/><path fill="#EA6D27" d="M78.636 50.606H61.62v-7.85l.406.05c.356.044.653.066.936.066a7.745 7.745 0 0 0 3.38-.784l.16-.087.159.073a10.685 10.685 0 0 0 9.261-.066l.174-.087.167.102c.631.377 1.32.631 2.067.755l.305.05v7.778Zm-16.29-.726h15.565v-6.442a6.402 6.402 0 0 1-1.85-.697 11.4 11.4 0 0 1-9.559.066 8.333 8.333 0 0 1-3.54.783c-.195 0-.398-.007-.616-.029v6.32ZM62.911 32.649a.36.36 0 0 1-.362-.363c0-4.723 3.844-8.569 8.565-8.569a.36.36 0 0 1 .363.363.36.36 0 0 1-.363.363c-4.322 0-7.84 3.519-7.84 7.843a.36.36 0 0 1-.363.363ZM139.389 25.952H90.47a.36.36 0 0 1-.363-.363.36.36 0 0 1 .363-.363h48.919a.36.36 0 0 1 .363.363.36.36 0 0 1-.363.363ZM139.389 46.26H90.47a.36.36 0 0 1-.363-.363.36.36 0 0 1 .363-.363h48.919a.36.36 0 0 1 .363.363.36.36 0 0 1-.363.363ZM49.782 25.952H.862a.36.36 0 0 1-.362-.363.36.36 0 0 1 .363-.363h48.919a.36.36 0 0 1 .362.363.364.364 0 0 1-.362.363ZM49.782 46.26H.862a.36.36 0 0 1-.362-.363.36.36 0 0 1 .363-.363h48.919a.36.36 0 0 1 .362.363.364.364 0 0 1-.362.363ZM28.176 37.531H15.63a1.796 1.796 0 0 1-1.791-1.792c0-.986.805-1.792 1.791-1.792h13.534a.36.36 0 0 1 .362.363.36.36 0 0 1-.362.363H15.629c-.587 0-1.066.479-1.066 1.066 0 .588.479 1.067 1.066 1.067h12.54a.36.36 0 0 1 .363.363c0 .203-.16.362-.356.362Z"/><path fill="#EA6D27" d="M7.656 40.861c-3.808 0-6.912-2.292-6.912-5.115 0-2.822 3.097-5.115 6.912-5.115 3.808 0 6.912 2.293 6.912 5.115 0 2.823-3.097 5.115-6.912 5.115Zm0-9.511c-3.409 0-6.187 1.973-6.187 4.39 0 2.415 2.778 4.389 6.187 4.389 3.409 0 6.186-1.974 6.186-4.39 0-2.416-2.77-4.39-6.186-4.39ZM123.82 37.532h-12.54a.36.36 0 0 1-.363-.363.36.36 0 0 1 .363-.363h12.54c.587 0 1.066-.478 1.066-1.066 0-.588-.479-1.067-1.066-1.067h-13.534a.359.359 0 0 1-.362-.363c0-.203.159-.362.362-.362h13.534c.986 0 1.791.805 1.791 1.792s-.805 1.792-1.791 1.792Z"/><path fill="#EA6D27" d="M130.701 39.136h-2.422a3.4 3.4 0 0 1-3.394-3.396 3.4 3.4 0 0 1 3.394-3.395h2.422v6.79Zm-2.422-6.059a2.672 2.672 0 0 0-2.669 2.67 2.672 2.672 0 0 0 2.669 2.67h1.697v-5.332h-1.697v-.008Z"/><path fill="#EA6D27" d="M138.347 33.078h-8a.36.36 0 0 1-.363-.363.36.36 0 0 1 .363-.363h8a.363.363 0 0 1 0 .725ZM138.347 36.102h-8a.36.36 0 0 1-.363-.362.36.36 0 0 1 .363-.363h8a.363.363 0 0 1 0 .725ZM138.347 39.135h-8a.36.36 0 0 1-.363-.363.36.36 0 0 1 .363-.362h8a.363.363 0 0 1 0 .725ZM47.826 40.862h-6.338a.36.36 0 0 1-.363-.363.36.36 0 0 1 .363-.362h6.338a.36.36 0 0 1 .363.362.36.36 0 0 1-.363.363ZM47.512 35.456H35.48a.36.36 0 0 1-.363-.362.36.36 0 0 1 .363-.363h12.032a.36.36 0 0 1 .363.363.36.36 0 0 1-.363.362ZM48.313 30.051h-6.339a.36.36 0 0 1-.363-.363.36.36 0 0 1 .363-.362h6.339a.36.36 0 0 1 .362.362.36.36 0 0 1-.362.363ZM47.818 38.156h-9.414a.36.36 0 0 1-.363-.363.36.36 0 0 1 .363-.363h9.414a.36.36 0 0 1 .362.363.364.364 0 0 1-.362.363ZM47.769 32.715h-9.414a.36.36 0 0 1-.363-.363.36.36 0 0 1 .363-.363h9.414a.36.36 0 0 1 .362.363.36.36 0 0 1-.362.363ZM98.76 30.698h-6.339a.36.36 0 0 1-.362-.363.36.36 0 0 1 .362-.363h6.339a.36.36 0 0 1 .363.363.36.36 0 0 1-.363.363ZM104.772 36.102H92.74a.36.36 0 0 1-.363-.362.36.36 0 0 1 .363-.363h12.032c.203 0 .362.16.362.363a.359.359 0 0 1-.362.362ZM98.272 41.508h-6.34a.36.36 0 0 1-.362-.363.36.36 0 0 1 .363-.363h6.339a.36.36 0 0 1 .362.363.36.36 0 0 1-.362.363ZM101.849 33.404h-9.414a.36.36 0 0 1-.363-.363.36.36 0 0 1 .363-.363h9.414c.203 0 .362.16.362.363a.359.359 0 0 1-.362.363ZM101.9 38.845h-9.414a.36.36 0 0 1-.363-.363.36.36 0 0 1 .363-.362h9.414c.203 0 .362.16.362.362a.364.364 0 0 1-.362.363ZM46.202 53.835l-3.62.929-.573-.907 1.465-1.734-2.212.551-.572-.907 2.386-2.873.55.878-1.537 1.821 2.321-.58.493.783-1.552 1.828 2.336-.594.515.805ZM47.18 58.914l-.566.53-1.958-2.076 2.59-2.437 1.914 2.031-.566.53-1.225-1.306-.45.413L48 57.746l-.543.515-1.08-1.147-.472.443 1.276 1.357ZM50.496 58.166l.79.625-1.711 2.162 1.327 1.052-.493.624-2.118-1.676 2.205-2.787ZM52.889 64.029a1.738 1.738 0 0 1-.283-.914 1.794 1.794 0 0 1 .254-.958c.174-.312.406-.544.689-.704.283-.16.595-.24.935-.225.334.008.668.11.987.29.283.16.507.356.682.588.174.232.275.479.319.755l-.849.181c-.065-.355-.24-.617-.522-.776a1.04 1.04 0 0 0-.508-.145.857.857 0 0 0-.479.137 1.158 1.158 0 0 0-.37.4 1.03 1.03 0 0 0-.152.522.89.89 0 0 0 .13.486c.088.145.218.269.385.363.283.16.595.181.936.05l.268.82c-.254.102-.53.138-.812.11a2.174 2.174 0 0 1-.849-.284 1.975 1.975 0 0 1-.761-.696ZM57.762 66.437a1.823 1.823 0 0 1-.443-.863 1.826 1.826 0 0 1 .08-.98c.116-.333.305-.602.566-.805.254-.203.551-.334.885-.384.333-.051.681-.008 1.037.116.355.123.645.319.87.566.225.254.377.537.443.863a1.82 1.82 0 0 1-.08.98 1.702 1.702 0 0 1-.566.805c-.254.21-.551.334-.885.384a2.12 2.12 0 0 1-1.03-.116 2.14 2.14 0 0 1-.877-.566Zm1.653-.174a.93.93 0 0 0 .45-.218c.13-.115.232-.268.297-.457.066-.188.087-.37.058-.544a.884.884 0 0 0-.203-.45.98.98 0 0 0-.914-.326.932.932 0 0 0-.45.218 1.006 1.006 0 0 0-.297.457c-.065.188-.087.37-.058.544a.92.92 0 0 0 .616.74.983.983 0 0 0 .501.036ZM65.965 68.68l.276-1.865-1.139 1.378-.442-.065-.675-1.603-.283 1.813-.92-.145.543-3.511.82.123.92 2.22 1.517-1.843.82.124-.53 3.511-.907-.138ZM72.195 68.085l.015.776-2.85.058-.073-3.555 2.785-.058.015.776-1.792.036.015.603 1.58-.037.015.755-1.58.036.014.653 1.856-.043ZM77.526 65.219l-1.052.282-.21-.769 3.075-.827.21.77-1.052.282.719 2.663-.972.261-.718-2.662ZM82.87 66.169a1.747 1.747 0 0 1-.913-.312 1.73 1.73 0 0 1-.624-.755 1.83 1.83 0 0 1-.16-.972c.037-.326.16-.624.37-.892.21-.269.479-.48.82-.639.34-.16.682-.225 1.022-.203.341.022.646.123.914.312.276.189.479.436.624.762.145.326.196.646.16.972-.037.327-.16.624-.37.893-.21.268-.479.478-.827.638a2.1 2.1 0 0 1-1.015.196Zm1.067-1.277a.946.946 0 0 0 .166-.472 1.106 1.106 0 0 0-.101-.537 1.052 1.052 0 0 0-.334-.428.921.921 0 0 0-.957-.094.9.9 0 0 0-.392.32.946.946 0 0 0-.166.47 1.09 1.09 0 0 0 .101.538c.08.181.196.326.334.428a.92.92 0 0 0 .957.094.9.9 0 0 0 .392-.319ZM90.69 61.554a1.81 1.81 0 0 1-.965-.05 1.748 1.748 0 0 1-.805-.559 1.802 1.802 0 0 1-.414-.892 1.74 1.74 0 0 1 .117-.958c.123-.312.333-.595.623-.834.29-.24.595-.4.928-.472a1.74 1.74 0 0 1 .965.05c.312.11.58.291.805.56.225.268.363.565.414.892.05.326.014.646-.117.958a2.074 2.074 0 0 1-.623.834 2.06 2.06 0 0 1-.928.471Zm.681-1.516a.95.95 0 0 0 .037-.493 1.071 1.071 0 0 0-.247-.486 1.148 1.148 0 0 0-.435-.327.884.884 0 0 0-.493-.05.955.955 0 0 0-.457.217.959.959 0 0 0-.29.414.95.95 0 0 0-.037.493c.037.174.116.334.247.486.13.152.275.261.435.327a.89.89 0 0 0 .493.05.954.954 0 0 0 .457-.217.902.902 0 0 0 .29-.414ZM94.694 57.542c-.406.044-.813-.108-1.219-.45l-1.508-1.262.645-.769 1.487 1.24c.435.363.798.37 1.088.03.283-.341.21-.697-.225-1.06l-1.487-1.24.639-.762 1.508 1.263c.406.34.624.71.66 1.124.036.414-.116.82-.457 1.219-.355.406-.725.624-1.131.667ZM98.181 51.724l-.275.471.812.479-.508.87-3.067-1.791.82-1.408c.159-.276.347-.493.558-.646.21-.152.435-.232.674-.246.232-.015.472.05.696.181.225.13.385.297.493.493.102.204.146.421.131.675l1.349-.087-.544.929-1.139.08Zm-1.21-1.256c-.131.044-.247.16-.356.334l-.283.486.9.523.282-.486c.102-.182.145-.334.116-.472-.021-.138-.109-.247-.254-.327-.145-.08-.275-.101-.406-.058ZM41.008 16.157c.044.356.218.74.537 1.147.014.007.007.029-.014.058-.022.029-.044.036-.059.029-.188-.174-.435-.392-.74-.668a15.427 15.427 0 0 0-.696-.587c-.029-.022-.029-.044-.007-.073.022-.029.044-.036.073-.014.116.087.283-.015.5-.312.356-.443.754-.958 1.211-1.568a36.3 36.3 0 0 0 .718-.994l.392-.544c.152-.196.247-.355.29-.464a.307.307 0 0 0-.022-.297c-.014-.022-.014-.044 0-.073.022-.029.044-.029.058-.014.153.137.385.34.704.602.319.26.58.471.783.624.015.014.015.029-.007.058s-.044.043-.058.036c-.443-.247-.834-.348-1.168-.297-.333.05-.63.239-.877.573-.11.145-.182.268-.203.355a.292.292 0 0 0 .029.247c.05.072.145.16.282.268l3.627 2.721c.16.123.29.196.391.218.095.021.196 0 .29-.08a2.35 2.35 0 0 0 .378-.42c.014-.015.036-.015.065.014.029.021.043.043.029.058-.138.181-.247.326-.334.428l-.493.638-.45.617c-.08.116-.188.268-.333.464-.007.008-.03.008-.058-.021-.03-.03-.044-.044-.036-.051.152-.204.253-.363.297-.486.043-.116.043-.218-.007-.312-.051-.095-.153-.196-.312-.312l-3.641-2.728c-.138-.102-.247-.167-.326-.182a.29.29 0 0 0-.24.044c-.08.05-.167.145-.275.283-.24.326-.334.66-.298 1.015ZM53.78 10.825c.023.029.03.05.015.065a6.823 6.823 0 0 1-.42.341l-.551.457-.631.544c-.087.08-.203.19-.356.313-.014.014-.036.007-.058-.03-.022-.029-.029-.05-.014-.065.188-.16.319-.29.384-.384a.329.329 0 0 0 .05-.29c-.028-.095-.108-.218-.238-.378l-1.466-1.734-2.574 2.177 1.465 1.734c.123.152.24.246.326.297a.354.354 0 0 0 .297 0c.11-.05.262-.152.45-.312.007-.007.03 0 .051.03.029.028.036.05.022.057a5.698 5.698 0 0 1-.406.327l-.631.522-.544.472a6.297 6.297 0 0 1-.392.34c-.007.008-.029 0-.05-.028-.023-.03-.03-.051-.023-.058.182-.153.305-.276.363-.378a.328.328 0 0 0 .05-.29c-.028-.101-.108-.225-.239-.37l-2.937-3.475c-.13-.152-.24-.247-.326-.29a.353.353 0 0 0-.297 0c-.11.043-.247.137-.428.29-.008.007-.03 0-.051-.03-.03-.028-.037-.05-.022-.057l.406-.327c.24-.181.42-.333.551-.442.175-.145.378-.327.61-.544l.391-.341c.008-.008.03 0 .051.029.022.029.029.05.022.058-.189.16-.312.29-.37.391a.359.359 0 0 0-.05.305c.028.102.108.225.231.377l1.298 1.531 2.575-2.176-1.298-1.531a1.259 1.259 0 0 0-.326-.298.37.37 0 0 0-.305-.007c-.109.044-.261.145-.45.305-.014.014-.036.007-.058-.03-.029-.028-.029-.05-.014-.064l.362-.298c.247-.196.465-.37.653-.522.138-.116.312-.276.537-.48l.406-.355c.015-.014.036-.007.058.03.029.028.029.05.015.065a1.842 1.842 0 0 0-.363.377.35.35 0 0 0-.044.29c.03.094.11.218.232.37l2.938 3.475c.123.153.24.247.326.298.094.05.189.05.29 0 .102-.044.247-.145.428-.298.036-.021.058-.014.08.015ZM57.385 7.292a.136.136 0 0 1 .058-.015c.022 0 .029.007.036.007.181.472.363.886.559 1.256.021.043.036.087.029.116-.008.029-.037.058-.087.087l-3.765 2.017c-.014.007-.036 0-.05-.037-.022-.036-.022-.058 0-.065.195-.109.333-.196.406-.276a.342.342 0 0 0 .094-.268c-.007-.102-.065-.24-.16-.414L52.36 5.688c-.095-.174-.174-.29-.254-.355a.33.33 0 0 0-.276-.073c-.108.022-.26.08-.45.182-.014.007-.036 0-.05-.037-.022-.036-.022-.058 0-.065l3.604-1.93c.058-.029.102-.022.13.03l.625 1.116c.007.015-.008.03-.037.051-.029.022-.05.03-.065.015-.493-.588-1.066-.697-1.733-.341l-.348.188c-.21.11-.334.225-.385.349-.043.123-.021.275.073.45l.95 1.77.834-.45c.638-.341.841-.726.61-1.154-.008-.014 0-.036.035-.05.037-.015.051-.015.058 0l.4.761.224.407c.109.181.196.326.261.442.008.015-.007.03-.043.044-.037.021-.058.021-.058.014-.269-.5-.726-.573-1.371-.225l-.849.428 1.052 1.967c.102.188.21.304.32.34.115.037.26.008.441-.094l.428-.225c.776-.413 1.067-1.052.87-1.915-.006-.015.008-.022.03-.036ZM60.148 2.01c-.195.297-.304.704-.326 1.219 0 .014-.015.021-.05.029-.037.007-.059 0-.059-.015-.029-.254-.08-.58-.138-.98a10.047 10.047 0 0 0-.16-.899c-.006-.029.008-.05.044-.058.037-.007.058 0 .066.036.036.138.224.167.587.087a51.383 51.383 0 0 0 1.93-.42c.377-.088.775-.19 1.196-.298l.645-.16c.247-.058.421-.116.523-.174a.322.322 0 0 0 .174-.24c0-.028.014-.043.05-.05.03-.007.051 0 .059.03.029.202.08.507.152.913.072.407.138.733.196.987.007.022-.008.036-.044.044-.036.007-.058 0-.072-.015-.182-.479-.414-.805-.704-.98-.29-.18-.638-.217-1.037-.13a1.321 1.321 0 0 0-.384.138.268.268 0 0 0-.13.21c-.008.087.006.218.043.392l1.022 4.419c.044.195.102.333.16.42.058.08.152.124.268.13.123.008.312-.02.559-.079.021-.007.029.015.043.05.007.037 0 .059-.014.066-.225.051-.4.087-.53.116l-.79.174-.747.182c-.131.036-.32.087-.552.138-.014 0-.021-.015-.029-.051-.007-.036-.007-.058.008-.058.246-.058.428-.116.536-.174a.353.353 0 0 0 .196-.24c.022-.101.007-.246-.036-.442l-1.03-4.433a1.017 1.017 0 0 0-.13-.356.302.302 0 0 0-.21-.123 1.04 1.04 0 0 0-.392.043 1.252 1.252 0 0 0-.893.552ZM72.55 6.051c0 .036-.015.058-.05.058a8.023 8.023 0 0 1-.603 0c-.276-.007-.479 0-.602 0-.167.007-.355.022-.58.036a5.904 5.904 0 0 1-.522.037c-.03 0-.044-.022-.044-.058 0-.037.015-.059.037-.059a1.06 1.06 0 0 0 .413-.08.21.21 0 0 0 .123-.217c-.007-.102-.065-.261-.181-.493l-1.139-2.119-1.777.058-.696 1.727c-.08.196-.116.377-.109.537.008.232.095.399.261.515.167.109.4.167.697.152.029 0 .05.015.05.058 0 .037-.014.058-.043.058-.116.008-.29.008-.515 0-.247-.007-.464 0-.653 0-.174.008-.384.022-.616.044-.21.022-.385.036-.523.036-.028 0-.05-.014-.05-.058 0-.036.014-.058.05-.058a.966.966 0 0 0 .457-.123c.124-.08.24-.21.349-.4.116-.188.239-.47.391-.848L68.62.022c.029-.007.058-.022.109-.022.043 0 .072.007.08.029l2.574 4.774c.247.464.45.784.61.95.159.167.326.247.507.24.03 0 .044.014.05.058Zm-4.816-3.076 1.552-.051-.87-1.625-.682 1.676ZM74.69 2.075c.087.203.21.385.37.552.152.166.37.362.645.602.298.261.53.479.697.66.167.181.297.392.399.631.094.24.123.5.072.791-.05.334-.188.61-.399.842-.21.232-.486.391-.827.486-.34.094-.71.109-1.11.043a3.501 3.501 0 0 1-.819-.24c-.275-.115-.478-.239-.616-.37-.051-.05-.073-.115-.066-.202l.182-1.488v-.007c.007-.029.022-.036.058-.036.029 0 .05.014.05.043.124.574.298 1.052.523 1.437.217.384.544.617.972.682.275.043.522.007.732-.116.21-.123.348-.363.406-.718a1.53 1.53 0 0 0-.065-.777 1.874 1.874 0 0 0-.377-.61c-.16-.173-.385-.384-.667-.645a9.195 9.195 0 0 1-.646-.631 1.948 1.948 0 0 1-.362-.588 1.416 1.416 0 0 1-.073-.747c.058-.334.196-.602.42-.805.226-.204.501-.334.82-.4.32-.065.646-.072.972-.014.218.036.435.094.646.167.21.08.391.16.529.247.058.029.087.058.102.094a.199.199 0 0 1 .014.116l-.181 1.328c0 .021-.022.029-.058.036-.037.007-.058-.007-.058-.036a4.268 4.268 0 0 0-.348-1.154c-.167-.355-.465-.566-.9-.638-.29-.044-.537 0-.732.137-.196.138-.32.356-.37.646-.05.254-.022.472.065.682ZM79.767 1.98c-.326.146-.638.429-.936.85-.007.014-.021.014-.058 0-.036-.015-.043-.03-.043-.044.109-.232.246-.53.42-.9.175-.37.283-.645.356-.841.014-.03.036-.044.065-.03.036.015.044.037.036.066-.05.138.102.269.443.392.522.21 1.139.443 1.85.697.362.13.753.26 1.16.399l.63.217c.233.087.414.13.53.138a.312.312 0 0 0 .276-.109c.014-.021.036-.029.065-.014.029.014.043.029.036.05-.087.182-.21.472-.37.85-.16.384-.282.696-.37.935-.007.022-.028.022-.058.008-.036-.015-.05-.03-.05-.051.109-.5.087-.9-.058-1.205-.145-.304-.414-.53-.805-.667a1.212 1.212 0 0 0-.4-.094.286.286 0 0 0-.224.101 1.09 1.09 0 0 0-.174.348L80.55 7.343c-.065.188-.101.333-.094.435.007.102.058.181.16.254.101.072.268.152.514.24.022.007.022.028.008.065-.015.036-.03.05-.051.043-.218-.08-.384-.145-.508-.196l-.754-.283-.725-.254c-.13-.043-.312-.101-.544-.181-.015-.007-.015-.03 0-.065.014-.037.029-.051.036-.051.24.087.42.138.551.145.124.007.225-.022.298-.094.072-.073.145-.204.21-.392l1.545-4.288c.058-.16.087-.283.08-.37a.316.316 0 0 0-.11-.218 1.427 1.427 0 0 0-.355-.181c-.362-.116-.718-.116-1.044.029ZM87.46 10.027a.074.074 0 0 1 .037.044c.007.021.014.029.007.036-.312.399-.573.769-.783 1.125-.03.043-.05.072-.08.08-.029.007-.065 0-.116-.03l-3.677-2.17c-.014-.006-.014-.028.007-.064.022-.037.036-.044.058-.037.189.116.341.182.443.203.101.022.196 0 .275-.058a1.41 1.41 0 0 0 .269-.348l2.313-3.925c.102-.167.16-.305.174-.399a.342.342 0 0 0-.087-.276c-.072-.087-.203-.181-.384-.29-.015-.007-.015-.029.007-.065.022-.037.036-.044.058-.037L89.506 5.9c.058.036.072.072.036.123l-.63 1.11c-.008.015-.03.007-.059 0-.036-.014-.05-.029-.043-.05.246-.726.043-1.278-.61-1.662l-.34-.196c-.204-.123-.37-.167-.494-.145-.13.022-.246.123-.348.297l-1.022 1.727.812.479c.624.37 1.059.341 1.298-.08.007-.014.03-.014.065 0 .03.022.044.036.03.051l-.443.733-.225.406a7.228 7.228 0 0 1-.24.45c-.006.014-.028.007-.057-.015-.036-.021-.05-.036-.044-.043.283-.486.116-.914-.515-1.292l-.805-.471-1.131 1.922c-.109.19-.152.334-.123.45.029.116.13.225.312.334l.413.247c.754.45 1.45.363 2.089-.254-.008-.007.007 0 .029.007ZM92.218 16.085c-.029.029-.05.029-.08.007-.094-.087-.239-.225-.435-.413a15.26 15.26 0 0 0-.435-.421 20.656 20.656 0 0 0-.442-.377c-.174-.138-.305-.254-.4-.334-.021-.015-.014-.044.008-.073.029-.029.05-.036.073-.014.137.13.26.203.355.232a.214.214 0 0 0 .24-.065c.064-.073.137-.233.21-.487l.652-2.314-1.32-1.197-1.704.754a1.204 1.204 0 0 0-.45.312c-.152.167-.21.356-.167.552.044.196.175.392.392.595.022.021.022.05 0 .08-.029.029-.05.029-.072.007-.088-.08-.21-.196-.37-.356a22.288 22.288 0 0 0-.465-.45c-.13-.116-.29-.253-.47-.399a6.345 6.345 0 0 1-.4-.333c-.022-.022-.022-.051 0-.08.03-.03.051-.036.073-.015a.921.921 0 0 0 .413.232c.138.03.32.015.53-.043.21-.058.5-.174.87-.334l4.758-2.111c.021-.007.05.007.087.036.036.03.043.058.036.073l-1.472 5.224c-.145.508-.218.87-.225 1.102 0 .233.058.407.196.53.036.022.036.05.014.08Zm-1.32-5.558 1.153 1.045.5-1.77-1.653.725ZM96.564 12.93c-.356-.059-.77 0-1.248.188-.007.007-.029 0-.05-.03-.022-.028-.022-.05-.008-.057.218-.13.5-.305.849-.523.34-.217.594-.384.754-.508.029-.021.05-.014.072.015.022.029.022.05-.007.072-.116.088-.065.276.153.574.319.464.71 1 1.16 1.603.232.312.479.639.754.972l.406.53c.153.203.269.334.363.406.094.073.189.095.29.058a.058.058 0 0 1 .065.022c.022.03.015.044 0 .065-.174.11-.435.276-.776.508-.34.232-.616.421-.82.573-.014.015-.035 0-.057-.029s-.03-.05-.015-.065c.363-.355.573-.704.617-1.037.043-.334-.051-.675-.305-1.002a1.251 1.251 0 0 0-.283-.297.274.274 0 0 0-.246-.036 1.249 1.249 0 0 0-.341.195l-3.634 2.714c-.16.123-.268.225-.319.312-.05.087-.05.189-.007.305.043.116.145.275.297.479.015.014 0 .036-.029.058-.029.021-.05.029-.065.014-.138-.181-.24-.334-.32-.442l-.47-.653-.465-.61a14.197 14.197 0 0 1-.348-.45c-.007-.007.007-.029.036-.05.03-.022.051-.03.058-.022.153.203.276.348.378.42.101.08.195.11.297.08.102-.021.232-.094.392-.21l3.648-2.72c.138-.102.224-.19.268-.262a.304.304 0 0 0 .029-.24c-.022-.086-.087-.203-.196-.348-.232-.326-.522-.515-.877-.573Z"/></svg>