<svg xmlns="http://www.w3.org/2000/svg" width="100" height="103" fill="none"><g fill-rule="evenodd" clip-rule="evenodd" opacity=".1"><path fill="#fff" d="M7.507 71.584c.5.948 1.065 1.86 1.69 2.73.58.84 1.34 1.57 1.86 2.45a18.499 18.499 0 0 0 3.55 4.42c1.48 1.33 2.69 2.93 4.5 3.92a15.433 15.433 0 0 1 3.52 2.72 40.386 40.386 0 0 0 7.84 5.62 56.52 56.52 0 0 0 7.13 3.68c3.49 1.5 7.06 2.8 10.62 4.13.74.205 1.502.319 2.27.34 1.22.12 2.45.19 3.67.31.76.08 1.51.25 2.28.3 2.91.22 5.83.35 8.74.61 2.675.204 5.365.052 8-.45a12.66 12.66 0 0 1 2.29-.22c3.281.02 6.531-.634 9.55-1.92 1.28-.52 2.63-.85 4-1.26.652-.14 1.29-.334 1.91-.58 2-1 4-1.92 5.85-3.08a5.34 5.34 0 0 0 2.32-2c.467-1.079.646-2.26.52-3.43a3 3 0 0 0-1-2.34 24.902 24.902 0 0 1-1.7-2c-1.12-1.34-2.15-2.76-3.37-4a59.617 59.617 0 0 1-7.12-8.27c-1.07-1.59-2.18-3.26-3.41-4.86-2-2.67-4.1-5.27-6.12-7.94a6.755 6.755 0 0 1-.64-1.72c-.55 0-1-.38-1.52-1a59.65 59.65 0 0 1-4.54-5.74c-2.39-3.53-5-6.88-7.55-10.32-.63-.87-1.15-1.81-1.8-2.67a74.14 74.14 0 0 1-6.93-10.78c-.66-1.27-1.48-2.46-2.26-3.67-.9-1.43-1.84-2.84-2.76-4.26a48.029 48.029 0 0 0-2.73-4.11 57.565 57.565 0 0 1-5.26-8c-1.58-2.76-3-5.68-6.13-7.12a.51.51 0 0 1-.24-.17c-.52-1.17-1.52-.9-2.4-.82-.978.092-1.939.31-2.86.65a32.38 32.38 0 0 0-9.74 5.27c-2.35 1.91-4.52 4-6.74 6.1a23.772 23.772 0 0 0-4 4 70.259 70.259 0 0 0-5.19 9.28 32.76 32.76 0 0 0-3.3 10.84 65.677 65.677 0 0 0-.29 6.16 22.78 22.78 0 0 0 .24 4.29c.43 2.57 1.06 5.12 1.59 7.69.21 1 .31 2.13.58 3.17.41 1.54 1 3 1.38 4.57a41.08 41.08 0 0 0 3.7 9.48Z"/><path fill="#101A24" d="M7.507 71.584c.5.948 1.065 1.86 1.69 2.73.58.84 1.34 1.57 1.86 2.45a18.499 18.499 0 0 0 3.55 4.42c1.48 1.33 2.69 2.93 4.5 3.92a15.433 15.433 0 0 1 3.52 2.72 40.386 40.386 0 0 0 7.84 5.62 56.52 56.52 0 0 0 7.13 3.68c3.49 1.5 7.06 2.8 10.62 4.13.74.205 1.502.319 2.27.34 1.22.12 2.45.19 3.67.31.76.08 1.51.25 2.28.3 2.91.22 5.83.35 8.74.61 2.675.204 5.365.052 8-.45a12.66 12.66 0 0 1 2.29-.22c3.281.02 6.531-.634 9.55-1.92 1.28-.52 2.63-.85 4-1.26.652-.14 1.29-.334 1.91-.58 2-1 4-1.92 5.85-3.08a5.34 5.34 0 0 0 2.32-2c.467-1.079.646-2.26.52-3.43a3 3 0 0 0-1-2.34 24.902 24.902 0 0 1-1.7-2c-1.12-1.34-2.15-2.76-3.37-4a59.617 59.617 0 0 1-7.12-8.27c-1.07-1.59-2.18-3.26-3.41-4.86-2-2.67-4.1-5.27-6.12-7.94a6.755 6.755 0 0 1-.64-1.72c-.55 0-1-.38-1.52-1a59.65 59.65 0 0 1-4.54-5.74c-2.39-3.53-5-6.88-7.55-10.32-.63-.87-1.15-1.81-1.8-2.67a74.14 74.14 0 0 1-6.93-10.78c-.66-1.27-1.48-2.46-2.26-3.67-.9-1.43-1.84-2.84-2.76-4.26a48.029 48.029 0 0 0-2.73-4.11 57.565 57.565 0 0 1-5.26-8c-1.58-2.76-3-5.68-6.13-7.12a.51.51 0 0 1-.24-.17c-.52-1.17-1.52-.9-2.4-.82-.978.092-1.939.31-2.86.65a32.38 32.38 0 0 0-9.74 5.27c-2.35 1.91-4.52 4-6.74 6.1a23.772 23.772 0 0 0-4 4 70.259 70.259 0 0 0-5.19 9.28 32.76 32.76 0 0 0-3.3 10.84 65.677 65.677 0 0 0-.29 6.16 22.78 22.78 0 0 0 .24 4.29c.43 2.57 1.06 5.12 1.59 7.69.21 1 .31 2.13.58 3.17.41 1.54 1 3 1.38 4.57a41.08 41.08 0 0 0 3.7 9.48Zm9.92-50.45a13.236 13.236 0 0 0-.51 2.55 2.47 2.47 0 0 1-1.51 2.11c-.4.21-.78.46-1.23.73-.47-1.44.36-2.57.6-3.78.31-1.343.725-2.66 1.24-3.94.5-1.34 1-2.71 2.46-3.34.209-.062.423-.102.64-.12-.61 2.06-1.18 3.92-1.69 5.79Zm2.74-5.32c.4-1.09.82-2.25 2.35-2.61-.18.53-.3 1-.47 1.37-.89 2.24-1.8 4.47-2.68 6.71a4.277 4.277 0 0 0-.35 1.32c0 .8-.51 1-1.44 1.22.32-1 .58-1.81.84-2.61.6-1.81 1.1-3.63 1.75-5.4Zm-2.24 9.91-.42 1.47c-.49-.96-.49-.96.42-1.47Zm14 57.91a3.93 3.93 0 0 1-2.67-2.57c-.19 0-.44.14-.56.06a7.58 7.58 0 0 1-2.52-2.46c.58-.23.82.09 1.09.37l2 2 2.66 2.6Zm1.32 2.79-.34.74c-.19 0-.3.08-.38 0-2.7-1.32-4.91-3.34-7.27-5.15a1.1 1.1 0 0 1-.22-.93c.169-.524.39-1.03.66-1.51l7.55 6.85Zm1 .5 7.56 5.22-2 .47c-1.65-1.14-3.39-2.3-5.08-3.53-.98-.66-1.02-1.01-.5-2.16h.02Zm-9.45-7.6c-3.25-2.57-5.39-5.86-7.86-8.95l.79-1.79c2.49 3.27 4.69 6.47 7.84 9l-.77 1.74Zm-13.22-35.58c.2 2.64.37 5.06.58 7.48a9.049 9.049 0 0 0 .43 3c.67 1.45-.22 2-1.08 2.86a4.587 4.587 0 0 1-.49-1.14c-.39-3.1-.76-6.2-1.09-9.31a2.9 2.9 0 0 1 1.65-2.89Zm-2.47.67c.11-2.22.17-4 .3-5.86.13-1.86.34-3.76.52-5.64a3.31 3.31 0 0 1 2.28-3.12c-.15 1.76-.27 3.37-.44 5a33.479 33.479 0 0 0-.42 6.71 1.4 1.4 0 0 1-.29 1c-.51.55-1.11 1.08-1.95 1.91Zm4.35 12.16c.49 1.34.9 2.55 1.38 3.73.66 1.61 1.27 3.25 2.07 4.79.8 1.54.18 2.8-.65 4.36a17.747 17.747 0 0 1-1.78-2.84c-.89-2.4-1.66-4.85-2.41-7.3-.29-.94-.05-1.2 1.39-2.74Zm5.56 10.75c1.08 1.88 2.16 3.74 3.24 5.6l-.2.14c-.27-.38-.53-.78-.83-1.15-.79-1-1.6-2-2.4-3-.58-.75-.56-.85.19-1.59Zm-3.17-9.27a22.228 22.228 0 0 0 2.17 6.73c.17.36.61.77.09 1.31-.57-1.24-1.19-2.4-1.66-3.62-.74-1.92-1.36-3.88-2.06-5.82a1.47 1.47 0 0 1 .44-1.79 16.15 16.15 0 0 1 1.05 3.19h-.03Zm-2.44-3.59c-.2-1.7-.42-3.15-.53-4.61-.15-1.94-.2-3.89-.34-5.83a3.879 3.879 0 0 1 1.86-3.64c0 1.37-.05 2.57 0 3.76.07 3 .16 5.92.25 8.88.02.59.04.59-1.21 1.44h-.03Zm.51-15c-.57.56-1.11 1.14-1.67 1.71l-.23-.17c0-1 0-2 .15-3 .3-2.54.72-5.06 1-7.6a4.53 4.53 0 0 1 2.68-3.68c-.16 1-.31 1.89-.44 2.75-.28 1.81-.59 3.62-.82 5.44a5.666 5.666 0 0 0 .14 1.83 2.671 2.671 0 0 1-.78 2.7l-.03.02Zm2.9-11.81.38.12c-.25.7-.5 1.4-.74 2.09a2.6 2.6 0 0 1 .39-2.23l-.03.02Zm-2.38-7c-.42 1.8-.86 3.59-1.29 5.39a3.57 3.57 0 0 1-2.44 2.91c.22-1.09.36-2.08.62-3 .54-1.93 1.12-3.84 1.71-5.75a2.999 2.999 0 0 1 1.85-1.86c-.13.79-.25 1.53-.42 2.26l-.03.05Zm-4 5.76a17.614 17.614 0 0 1-.27 1.95 8.402 8.402 0 0 1-1 2.33c-.712.94-1.473 1.84-2.28 2.7-.31-.86.11-3.59 1-6.51a11.35 11.35 0 0 1 3.55-5.73c-.33 1.85-.67 3.5-.97 5.21l-.03.05Zm-2.64 8a5 5 0 0 1 .88-1.6l.36.12c-.02.67-.02 1.36-.02 2.07-.193 2.667-.39 5.334-.59 8 0 .21-.14.45-.06.61.86 1.91-.69 2.87-1.53 4.1l-.33-.08a10.17 10.17 0 0 1 0-1.46c.38-3.97.81-7.88 1.32-11.78l-.03.02Zm1.3 12.65c.09 1 .18 2 .26 3a29.247 29.247 0 0 0 1.19 7.42 1.44 1.44 0 0 1-.15 1.11c-.47.67-.82 1.61-2.06 1.35-.29-2-.6-4-.89-6a19.161 19.161 0 0 0-.26-2.28c-.54-1.95.36-3.34 1.91-4.6Zm6 22.56a1.9 1.9 0 0 1-.08 2.45 7.27 7.27 0 0 1-1.91-2.88c-.74-1.87-1.6-3.68-2.4-5.52-.23-.52-.38-1.07-.63-1.57-.48-1-.18-1.66.84-2.25.334.596.618 1.218.85 1.86a28.476 28.476 0 0 0 3.37 7.91h-.04Zm.77 5.7c.39.4.74.72 1.05 1.07 1.5 1.75 3 3.51 4.51 5.25.255.256.567.448.91.56.49.19.79 0 .81-.56a21.439 21.439 0 0 1-6.42-7.11 2.006 2.006 0 0 0-.27-.37c-.92-1-.92-1.23.17-2.51l7.5 8.54c-.29 1.17-.56 2.24-.85 3.44a3.998 3.998 0 0 1-.84-.46c-2-1.82-3.92-3.63-5.82-5.51a1.94 1.94 0 0 1-.71-2.34h-.04Zm15.68 15.88c-2-1.15-3.91-2.19-5.75-3.39a2.54 2.54 0 0 1-1.46-2.35c.152.162.316.313.49.45 2 1.34 4 2.66 6 4 .41.27 1.01.45.72 1.29Zm.25-1.84a16.878 16.878 0 0 1-3.78-2.08c-1-.54-1.78-1.28-2.66-1.88-1.36-1-1.37-.94-.73-2.79l5.09 3.9c.65.5 1.31 1 2 1.45.69.45.51.81.08 1.4Zm10.13 6.75a38.64 38.64 0 0 1-7.81-4.32c-.48-.35-1-.71-.77-1.51.07-.28-.28-.67-.59-1.34.91.5 1.54.8 2.11 1.17 1.72 1.11 3.42 2.25 5.12 3.38a3.91 3.91 0 0 1 1.94 2.62Zm9 2.58c-2.1-.58-4.18-1.21-6.28-1.74a2.59 2.59 0 0 1-1.82-1.52c.317.015.632.062.94.14 2 .76 4 1.52 6 2.32.41.227.795.495 1.15.8h.05c.71-.37.72-.37 1.52.15l-1.56-.15Zm-6.26-3.51c.84-.26.84-.26 1.81.55l-1.81-.55Zm3.5 1.35.16-.36 3.08 1.16c-1.21.19-2.19-.42-3.23-.8h-.01Zm6.23 2.93-.77-.26.15-.32.71.35-.09.23Zm-3-2.91-7.55-3a1.52 1.52 0 0 1-.74-.66c.256-.015.514-.015.77 0 2.51.14 4.72 1.23 7 2.13.984.334 1.985.615 3 .84.31.1.61.25 1.2.5-1.46.37-2.54.64-3.69.19h.01Zm3.16 1.52c1-.41 4.71.58 7.34 2a8.098 8.098 0 0 1-7.35-2h.01Zm7.92 1-6.46-1.98c-.13 0-.22-.19-.34-.29.1-.63.41-.71 1-.56 1.62.46 3.27.83 4.9 1.26.88.23 1.75.5 2.76.79a1.58 1.58 0 0 1-1.87.71l.01.07Zm4 1.19a2.51 2.51 0 0 0-.33-.88c-.17-.17-.53-.17-1.06-.31.44-.24.69-.5.92-.48 2.13.17 4.27.38 6.41.6.12 0 .24.13.52.28-1.29.79-3.64 1.05-6.45.74l-.01.05Zm7.38-.31c1.67-1.36 3.62-.57 5.56-.75-.76.58-2.75.88-5.55.7l-.01.05Zm19-6c-1.885.67-3.847 1.1-5.84 1.28-.764.073-1.522.197-2.27.37-1.6.5-3.25.14-4.87.29a15.634 15.634 0 0 0-3.19.23 4.06 4.06 0 0 1-2-.1c-1.53-.356-3.1-.51-4.67-.46a27.92 27.92 0 0 1-7.87-1c-2.95-.67-5.9-1.29-8.84-2-2-.46-4-.91-6-1.51a26.495 26.495 0 0 1-3.24-1.46c.05-.42.1-.77.14-1.14.162-.024.328-.024.49 0 .79.23 1.564.508 2.32.83a45.003 45.003 0 0 0 8 2.7c1.4.39 2.88.53 4.32.79 1.11.19 2.23.35 3.32.6a43.428 43.428 0 0 0 15 .74c2-.246 4.037-.48 6.11-.7 1.15-.12 2.31-.25 3.47-.32 2.726-.302 5.41-.909 8-1.81.77-.21 1.57-.63 2.29.21a17 17 0 0 1-4.63 2.44l-.04.02Zm2.16-8.53c.48.66.91 1.34 1.26 1.85l-.72 1.53c-.24.48-.55.72-1.06.31-.3-.23-.61-.44-.92-.66-.15.41-.29.81-.45 1.21a2.538 2.538 0 0 1-.15.27.941.941 0 0 1-1.34-.23.64.64 0 0 0-1.19.24 1.1 1.1 0 0 1-1 .94l-1.61-.94c-.15.38-.3.76-.54 1.34l-.83.23a1.791 1.791 0 0 0-.21-.61c-.19-.21-.5-.54-.66-.49-.16.05-.69.4-.71.64-.05.71-.27 1.07-.74 1l-1.44-1.31-1 1.56-.79.14c-1.79-.82-1.79-.82-1.81.16a2.54 2.54 0 0 1-1-.06c-1.41-.75-1.4-.77-2.59-.39-.29-.5-.68-1.08-1.38-.86-.27.09-.42.56-.73 1-.76-.07-1.82.34-2.53-.78-.1-.15-.58-.19-.82-.1a6.403 6.403 0 0 0-1.12.71c-.22-.48-.42-.92-.6-1.29-1.08-.26-1.43.49-1.91 1.29l-1.41-1.07c-1.44.44-1.44.44-2.22-.61-.86.91-1.68.62-2.54.12a1.88 1.88 0 0 0-1.09-.21c-.78.09-1.51.15-2.06-.58a1 1 0 0 0-.63-.25c-.59-.07-1.19-.09-1.75-.13-.06-.46-.11-.78-.17-1.29-.65.41-1.15.71-1.76 1.08l-1.13-.45 1-2a6.53 6.53 0 0 0-2.57 1.52l-1.44-.51.78-1.55-.21-.19-1.89 1.26-1.32-.45.48-1.19c-.28-.06-.55-.19-.63-.11-1.15 1.1-2 .35-2.94-.36.12-.54.23-1.05.39-1.79a7.627 7.627 0 0 0-.88.42 6.446 6.446 0 0 0-.63.6l-1.32-.68c-.31-.81.78-1.34 0-2.1-.43.3-.87.59-1.41 1l-1.21-.7c.35-.65.64-1.22 1-1.81-.94-.69-1.09.55-1.81.56-1.43-.41-.3-1.59-.55-2.48l-1.55.63c-.39-1.51-2-1.76-2.81-2.84-.57-.72-1.07-1.22-.39-2.09.06-.08 0-.28-.09-.56l-1.43.27c-1.36-.81-.3-1.92-.27-3l-1.7.79c-1.73-1.09-.25-2.33-.11-3.49-.92-.51-1.09.66-2 .66a4.73 4.73 0 0 1-.72-1.68c0-.57.5-1.13.93-2l-1.64.34c-1.19-1.71-1.19-1.71 0-3.71-.69-1.07-1.19.28-1.8.15-1.28-1 .39-1.52.34-2.53h-1.37c-.61-.86-.88-1.72.24-2.55-.54-.16-1.06-.16-1.3-.42a3.24 3.24 0 0 1-.45-1.15c.09-.91 1.34-1 1.11-2.1l-1.48.11c-.46-1.45 1.76-1.27 1.59-2.71l-1.59.29c-.42-.85.13-1.34.71-1.78a13.67 13.67 0 0 0 1.14-.8c.16-.16.11-.53.15-.81-.24 0-.51-.17-.71-.1-.442.204-.87.438-1.28.7a2.52 2.52 0 0 1 1.27-2.78c.67-.49.68-.48.78-1.39l-1.6.37c-.53-1.74 1.69-1.77 1.88-3.18l-1.34-.32c-.38-1.67 1.7-1.72 2-2.94-.67-.44-.67-.44-2.46.39.25-1.33 1.9-1.39 2.25-2.73l-1.55-.15c.52-1.39 1.71-2 2.86-2.7-.31-.81-.87-.67-1.4-.46-.53.21-.95.46-1.4-.17.72-1.38 2.38-1.87 3.37-3l-.27-.43-2 .38c0-1.82 2.34-1.71 2.68-3.39l-1.5.14c-.17-1.77 1.79-1.91 2.74-3.48l-1.42-.14c0-.11-.06-.25 0-.3a2.47 2.47 0 0 0 .8-2c0-.67.61-1.38 1-2.06a870.279 870.279 0 0 0 4.59-9.01c.54-1 1.1-2.09 1.77-3.37.2 1.61-.65 2.67-1 3.85-.76 2.82-1.93 5.54-2.5 8.39-.93 4.62-2.52 9.1-2.82 13.87a44.38 44.38 0 0 0-.12 8.55c.219 2.193.302 4.397.25 6.6.13 2.926.648 5.821 1.54 8.61.44 1.59.9 3.17 1.45 4.71.55 1.54 1.19 3 1.76 4.45.22.59.34 1.22.56 2 1.53.4 1.62 2.22 2.5 3.42.53.72.84 1.63 1.43 2.29a27.748 27.748 0 0 0 5.4 5c.48.31 1 .51 1 1.2 1 .39 1.12 2 2.53 1.86.253.033.486.153.66.34a30 30 0 0 0 8.13 4.57c1.43.58 2.83 1.23 4.26 1.78.752.167 1.493.377 2.22.63 1.35.536 2.772.873 4.22 1a34.3 34.3 0 0 0 7.5.5c2.608.01 5.216-.12 7.81-.39 2.53-.32 5.12-.4 7.55-1.44 1.83-.78 3.76-1.33 5.64-2 1.05-.4 1.36-.33 1.97.56Zm-2.39-2.27.33-.08.24.75a2.33 2.33 0 0 1-.37.06 6.047 6.047 0 0 1-.17-.73h-.03Zm-11-13.83c.49.67.15 1-.58 1.16v-1.43c.31.13.54.15.63.27h-.05Zm-8.6-10.76v.5a1.999 1.999 0 0 1-.57-.26s.06-.26.1-.4a2 2 0 0 1 .52.16h-.05Zm-21.38-30.56c1.71 2.56 3.4 5.14 5 7.75.81 1.3 1.52 2.68 2.25 4 1.61 3 4 5.36 6.09 7.94 1.43 1.75 2.78 3.56 4.13 5.36.69.91 1.32 1.85 2 2.78.275.308.462.685.54 1.09a1.44 1.44 0 0 1-.49 1.08.81.81 0 0 1-1.15-.62 7.078 7.078 0 0 0-.32-1l-1.28.43-1.4-1.42a5.576 5.576 0 0 1-.91.06c-1-.07-1.19-.41-1.06-1.48.008-.2-.02-.4-.08-.59 0-.09-.14-.14-.31-.3-.26.12-.56.29-.87.4-.59.19-1.09-.17-.9-.71.19-.54.33-1-.21-1.17-.37-.13-.87.14-1.51.28a1.12 1.12 0 0 1-.56-1.44c.18-.62-.22-.88-.93-.76-1 .17-1.25-.12-1-1.14s.12-1.1-.93-1a5.462 5.462 0 0 1-1.18-.15c.323-.441.614-.906.87-1.39a.91.91 0 0 0-.14-.81c-.14-.12-.55 0-.79.06a2.07 2.07 0 0 1-1 .35 7.66 7.66 0 0 0 .55-1c.24-.59-.1-1-.74-.93-.42.06-.85.52-1.22-.28.168-.195.313-.41.43-.64.11-.325.187-.66.23-1a6.355 6.355 0 0 0-1-.17c-.17 0-.35.14-.49.21-1-.74-.72-1.53 0-2.53l-1.8-.27c-.19-.42-.43-.92-.65-1.4 0-.69 1.23-.94.65-1.73-.21-.29-.75-.33-1.28-.54-.93-1.57-.93-1.57.26-2.87-.2-1.11-1.08-.37-1.53-.72-.4-1.14 1.15-1.4 1.06-2.61l-1.53-.4c-.76-1.07 1-1.6.79-2.64-.49-.45-1.58-.27-1.49-1.27 0-.36.42-.69.78-1.23 1.15 1.65 2.18 2.98 3.12 4.42Zm-4.51-6.2c.17.28.39.66.32.92-.165.41-.395.792-.68 1.13l-.35-.09a7.14 7.14 0 0 1-.18-1.29c.034-.28.16-.54.36-.74a.56.56 0 0 1 .53.02v.05Zm-1.22 3.86c.24 1.13.57 2.17-.57 3.22a1.37 1.37 0 0 1 1.35 1.29c.19 1.06.5 2.1.62 3.17-.02.49-.121.974-.3 1.43.472.866.88 1.765 1.22 2.69.97 3.104 2.51 6 4.54 8.54 1.16 1.56 2.15 3.27 3.42 4.75a25.836 25.836 0 0 0 6.73 6 61.156 61.156 0 0 0 5.83 2.79 6.69 6.69 0 0 0 4.37.45 1.86 1.86 0 0 1 2.09.9c1.77 2.39 3.58 4.74 5.5 7.26l-1.39.12c.78 2.19.61 2.74-1.07 3.06 0-.87 0-1.71.05-2.58-1-.43-1.43.23-1.94.74 1.08 1.88.84 2.6-.89 2.75.08-.85.15-1.7.22-2.53-1.18-.28-1.27-.25-1.38.54.004.46-.04.92-.13 1.37-.12.34-.5.59-1 1.15-.41-1.12-.7-1.89-1-2.85-.73-.38-1.08.24-1.39 1l-1.38-.32c0-.45 0-.86.05-1.26a.679.679 0 0 0-.74-.79c-.45 0-.8.21-.69.78a2.003 2.003 0 0 1-.1.51l-.89-.5c-.23-.65.63-1.31-.19-1.76-.82-.45-.9.48-1.29.69-1.56-.34-.21-2.18-1.66-2.6l-.78 1c-.3-.2-.83-.36-.91-.65a1.37 1.37 0 0 0-1.32-1 2.17 2.17 0 0 1-.9-.52c-.07-.88.1-1.85-.22-2.05-.32-.2-1.3-.07-2.3-.07a3.588 3.588 0 0 1-.44-1c-.14-.83-.36-1.35-1.38-1.16-.58.1-.91-.19-.88-.9 0-1.41-.09-1.49-1.41-1.06-.9-.68-.23-1.37.1-2.1l-1-.86-.66 1.06a.84.84 0 0 1-.79-1.18c.31-.6.55-1.11-.21-1.69-.32.22-.68.45-1.11.72-.15-.27-.44-.55-.41-.77a1.57 1.57 0 0 0-.69-1.57c-.58-.49-.47-1.07 0-1.64.276-.369.527-.756.75-1.16.22-.44.11-.8-.49-1l-1.26 1.33c-.56-.76-1-1.36-.72-2.3.28-.94.22-1-.83-1.38a1.32 1.32 0 0 1-.57-.91c-.05-.25.22-.55.33-.84.35-.85.12-1.13-.87-1.09h-.47a4.905 4.905 0 0 1-.26-.58c-.1-.29-.17-.59-.28-1 .249-.232.464-.498.64-.79a1.24 1.24 0 0 0 .05-.94c-.28-.47-.6-.1-.89.1a1.58 1.58 0 0 1-.32.09c-.43-.44-.72-.9-.18-1.44.38-.38.61-.84.17-1.18-.27-.21-.8-.09-1.4-.12-.44-.58-.41-1.18.39-1.77a1.21 1.21 0 0 0 .38-1c-.16-.5-.63-.53-1.15-.35-.52.18-.56.13-1.44-.46l2.15-1.64c-.72-1.77-1.57.26-2.36-.29a1.22 1.22 0 0 1 .68-1.79c.13-.07.32-.13.38-.24.15-.3.39-.67.31-.91-.16-.49-.59-.47-1-.23-.2.12-.43.2-.68.32-.66-1.76 1.41-1.59 1.62-3l-.55-.83-1.33 1c-.25-.54-.41-.94.17-1.24.41-.21.83-.4 1.24-.62.7-.39.7-.39 1-1.41-1.24-1.2-1.58.94-2.61.68-.18-.91-.08-1.65 1-2.06a4.18 4.18 0 0 0 1.39-1c.19-.18.13-.62.18-.94-.32 0-.68-.18-1-.08-.43.196-.836.44-1.21.73-.51-.87-.37-1.38.47-1.77a7.81 7.81 0 0 0 1.68-1.09c.22-.18.24-.59.35-.9-.33-.05-.7-.22-1-.11-.575.284-1.124.619-1.64 1v-1.49l2.79-1.85 3.76 6c-1.24 1.99-.47 4.01-.05 5.98Zm-6.37-11.74c0-.81 0-1.25.06-1.78.67-.12 1.31-.58 2 .34l-2.06 1.44Zm-2.15-8c.83 1.07 1.5 2 2.22 2.89-1.74 2.95-1.39 6.19-1.6 9.37-.15 2.82-.12 5.645.09 8.46a46.997 46.997 0 0 0 3 14.13c.114.438.2.882.26 1.33.037.294.162.57.36.79a3.82 3.82 0 0 1 1.33 2.8c.04.305.135.6.28.87 1.3 2.55 2.56 5.14 4 7.64.62.946 1.33 1.83 2.12 2.64.89 1 1.84 2 2.7 3.12.303.5.554 1.03.75 1.58a2.871 2.871 0 0 1 2.4 1.87c.16.37.71.56 1 .89 2.81 2.9 6.24 5 9.55 7.22a12.999 12.999 0 0 0 9.72 2.16 13.85 13.85 0 0 0 7-3.08c1.72 1.94 3 4.11 4.58 6.19-.52.4-.86.57-1.1 0-.24-.57-.53-1.13-1.35-.83-.06.57-.11 1.11-.16 1.64l-.3.06c-.23-.66-.11-1.54-1.23-1.52-.44 1-.09 2.75-2.06 2.32-.53-.41 0-1.87-1.51-1.42v1.76l-1.33.2c-.42-.41 0-1.32-.79-1.35-1.11 0-.6 1.15-1.22 1.68l-2 .11v-1.38c0-.44-.23-.83-.72-.81-.49.02-.64.4-.56.88-.004.236-.034.471-.09.7l-1.49-.2a1.2 1.2 0 0 1-.16-.35c-.06-.5.05-1.18-.62-1.25-.85-.08-.59.76-.8 1.4l-1.37-.43c-.42-.5.34-1.5-.65-1.53-.4 0-.81.53-1.32.89a3.794 3.794 0 0 1-.07-.65c0-.45 0-.84-.51-1-.51-.16-.75.19-.92.62-.092.174-.196.34-.31.5l-1.72-.71c.12-.35.32-.65.27-.89a1.3 1.3 0 0 0-.55-.8.81.81 0 0 0-.76.24c-.33.85-.77.38-1.3.12-.09-.52.7-1.42-.54-1.7l-.87 1c-1.57-.55-.23-1.72-.7-2.62l-.93-.29c-.19.66-.35 1.24-.53 1.89l-1.52-.65c.13-.4.21-.74.34-1.06.13-.32.31-1-.23-1.19-.54-.19-1 0-1.07.69a2.471 2.471 0 0 1-.3.67c-.58-.87.25-1.59-.05-2.31-1.1-.63-1.07.76-1.74 1-.7-.53-1.26-1.06-.69-2a.59.59 0 0 0 .09-.44 1.36 1.36 0 0 0-.44-.7c-.13-.08-.52.06-.65.22a5.932 5.932 0 0 0-.59 1c-.79 0-.89-.37-.66-1a5.63 5.63 0 0 0 .75-2.68c-.73-.28-1.19-.1-1.38.66-.12.48-.23 1-.37 1.54-.86-.45-1.47-.82-1.06-1.72.22-.49.52-1 0-1.38-.32-.21-.92 0-1.54 0 .08-.47.17-1 .25-1.53-.11-.14-.16-.26-.23-.29-1.67-.44-1.67-.43-.77-1.87.112-.204.212-.414.3-.63-.69-1-1.17.2-1.89 0 .11-.3.23-.55.3-.8.07-.25.11-.53.17-.8l-1.13-.15-.46-1 1-1.27-.16-.31-1.56.21c-.32-.53-.42-1 .19-1.45.37-.26.61-.57.21-1.1l-1.22.3c-.92-.54 0-1.21-.16-1.87-.48-.16-1.4-.16-1.35-1.16.34-.38.68-.77 1-1.15l-.17-.31-1.54.1-.45-.83 1.25-1.48c0-.12-.1-.23-.16-.35l-1.38.02c-.64-1-.64-1 .12-1.82.36-.36.36-.36.2-1.22l-1.36.31c-.15-.37-.29-.74-.44-1.16l2.06-1.93a3.521 3.521 0 0 1-.16-.34l-1.7.22c-.65-1.06-.64-1.13.16-1.71.39-.27.76-.56 1.25-.93a2.521 2.521 0 0 0-2.16-.06l-.5-1.28 1.56-1.25c-.62-.86-1.31-.16-2-.29l-.86-1 2.67-1.41c-.86-.93-1.68-.14-2.59-.08-.09-.38-.18-.75-.27-1.1.57-.41 1.12-.79 1.66-1.16l-.12-.34-1.8-.18 2.52-2.25c-.82-1-1.45.12-2.2.1a.998.998 0 0 1 .55-1.48 2.14 2.14 0 0 0 .66-.39c.15-.247.268-.512.35-.79a6.316 6.316 0 0 0-.93-.23 1.42 1.42 0 0 0-.54.2c-.82-1.5.7-1.79 1.37-2.66l-1.39-.56c-.47-1.4 1.33-.91 1.48-1.95l-1.25-.59c-.35-1.73 1.31-1.31 2.11-1.86-.23-1.1-1.21-.57-1.83-.94 0-.353.04-.743.12-1.17l2.32-1.07-1.86-.49c-.21-.81.2-1.15.93-1.42.52-.19 1.3-.16 1.4-1.19l-1.76-.17c-.44-1.59 1.49-.89 1.74-2l-1-.64c.26-.48.62-1.05 1.07-1.79v-.01Zm-2.46-1.28c.21-.44.49-.84 1.06-.44.57.4.45.78 0 1.14a3.83 3.83 0 0 0-1.16 2.29 75.67 75.67 0 0 0-2.08 13.21 66.2 66.2 0 0 0 .57 14.41c.64 3.52 1.15 7.07 2 10.56a58.778 58.778 0 0 0 2.2 6.39c.076.136.137.28.18.43.45 2.87 2.2 5.17 3.33 7.74.2.45.28 1 .45 1.41.107.27.241.528.4.77.55.86 1.08 1.73 1.68 2.55.344.436.73.838 1.15 1.2 2 2 4 4 6.15 5.83 1.164.922 2.42 1.72 3.75 2.38 2.83 1.54 5.69 3.06 8.57 4.51a18.13 18.13 0 0 0 9.59 1.77c3.47-.27 6.93-.84 10.37-1.39a20.235 20.235 0 0 0 3.21-1.09c1.38-.48 1.38-.4 2.34.67.81.91 1.79 1.67 2.69 2.51.182.19.352.39.51.6l-1.07.73c.19.558.32 1.135.39 1.72 0 .16-.63.31-1 .47-.93-2.22-.93-2.22-2.13-1.83.24.67.48 1.36.77 2.19l-1.47.43c-.84-.62-.18-2.37-2-2 .16.83.3 1.6.47 2.53l-1.66.1a10.633 10.633 0 0 0-.31-1.62c-.08-.21-.52-.52-.65-.46s-.59.46-.59.71c.036.544.137 1.08.3 1.6l-1.4.2a5.686 5.686 0 0 0-.28-1.24c-.11-.22-.52-.5-.68-.44a1.31 1.31 0 0 0-.64.69c-.09.25 0 .58.09 1.11l-2.33-.11c-.089-.467-.21-.928-.36-1.38a.872.872 0 0 0-.6-.35c-.12 0-.36.22-.4.39-.11.478-.19.962-.24 1.45h-2.14c-.23-.59-.41-1-.59-1.54a1.31 1.31 0 0 0-1.51.79c-.4.68-1.09.65-1.36 0-.19-.49-.24-1.15-.91-1a2.93 2.93 0 0 0-1.21 1c-.69.18-1.33.21-1.6-.76-.13-.46-.68-.44-1-.11-.32.33-.32.71-.92.61-.6-.1-.84-.49-1.06-1-.06-.13-.2-.22-.36-.37-.8.29-1.6 1-2.37.36-.23-.76-.26-1.56-.56-1.68-.84-.33-.85.63-1.17 1-1.2.28-.8-.95-1.24-1.33l-2.09.05c-.2-.71-.18-1.44-.5-1.65-.77-.49-.9.52-1.28.8-1.11 0-1-1.09-1.69-1.52l-2 .36c-.23-.78.51-1.55-.36-2-.47.22-1.1.73-1.36.58-.26-.15-.49-.89-.74-1.44l-1.62.18c-.08-.87.85-1.92-.67-2.25l-1 1.25c-.64-1.1.89-1.48.37-2.55a5.11 5.11 0 0 0-1 .77c-.56.69-1 .49-1.65-.16l1.21-2.09c-1.07-.28-1.38.72-2.15 1.22l-1.32-1.2c.5-.66.93-1.21 1.43-1.85-1.19-.47-1.65.66-2.46.92a.94.94 0 0 1-.4-1.51c.32-.52.76-1 1.12-1.46.188-.284.355-.581.5-.89-1.62 0-2 1.32-3 2-.62-.2-.84-.59-.41-1.23.268-.32.518-.653.75-1 .094-.297.141-.608.14-.92a2.5 2.5 0 0 0-.94.18 6.84 6.84 0 0 0-1 1c-.81-.76-.91-.23 1.16-3.46-.74-.44-.74-.44-2.3.9-1.58-1.44.35-2.25.67-3.44-1.09-.54-1.34.71-2.17.91-.7-1.42.89-2 1.15-3.08-.31-.47-.74-.46-1.2-.05-.26.24-.47.54-.74.78-.43.38-.74.16-1-.38.25-.41.54-.88.84-1.34.3-.46.55-.76.82-1.15-1.13-.73-1.41.64-2.17.57-.51-.56-.07-1 .2-1.37.38-.484.734-.988 1.06-1.51.13-.24 0-.61 0-1.24l-2.03 1.52c-.78-.68-.33-1.3.08-1.9.41-.6 1-1.38 1.51-2.12-1.46-.84-1.52.92-2.39.93-.8-1.45-.8-1.62.13-2.7.47-.55 1-1 1.49-1.56.3-.32.74-.65.18-1.22-1.07.22-1.69 1.18-2.59 1.77a1.25 1.25 0 0 1 .18-1.91c.86-.87 1.73-1.75 2.57-2.64.16-.267.288-.552.38-.85-1.81-.18-2.18 1.74-3.62 2a1.5 1.5 0 0 1 .39-1.93 26.247 26.247 0 0 0 2-2.29c.149-.28.256-.58.32-.89-1.41-.15-1.9 1-2.84 1.59-.43-.87-.48-1.53.36-2.16.685-.59 1.33-1.224 1.93-1.9-.36-.9-.78-.5-1.21-.2-.43.3-.84.53-1.52 1 .39-1.87 2-2.68 2.6-4.18-1.35-.4-1.53 1.09-2.52 1.21a1.43 1.43 0 0 1 .68-1.89c.552-.422 1.06-.898 1.52-1.42-1.11-1.35-1.38.26-2.05.36-.59-1.19.69-1.58 1-2.42l-.95-.21c.15-1.64 2.45-1.77 2.62-3.73l-2.12 1.28c-.33-2 1.76-2.61 2.16-4.25l-1.32.03c-.21-1.66 1.55-2 2.28-3.47l-1.28-.19c-.24-1.05.34-1.78 1.21-2.46-1-1.37-.28-2.36.58-3.17a5.998 5.998 0 0 1 0-1.83c.59-2 1.28-4 2-6 .258-.763.558-1.51.9-2.24Zm-3.56-1c.305-.376.64-.727 1-1.05l.28.19c-.29.55-.59 1.09-.85 1.66-.26.57-.41 1.16-.68 1.71-2.2 4.29-4.44 8.56-6.62 12.86a32.611 32.611 0 0 0-2.28 6.46c0 .2 0 .46-.13.59-1.27 1.38-.72 3.26-1.36 4.83a49.968 49.968 0 0 0-1.45 5.11l.78-.44c0 .08.13.2.11.24a3.31 3.31 0 0 0-.55 2.16v.15c-1 1.22-.5 2.74-.76 4.1a35.87 35.87 0 0 0-.07 15 31.993 31.993 0 0 0 2 6.28l.14-.06-.08.2c.27.55.56 1.1.88 1.64 1.5 2.45 3.15 4.82 4.69 7.25a21.469 21.469 0 0 0 4.33 5c.485.527.94 1.081 1.36 1.66a32.129 32.129 0 0 0 7.38 6.22c1.37.8 2.64 1.77 4 2.73l-.44 1.07a1.858 1.858 0 0 1-.55-.09c-2.61-1.21-5.18-2.47-7-4.87-.09-.12-.16-.28-.28-.35-2.82-1.44-4.95-3.7-7.08-6-.455-.676-.834-1.4-1.13-2.16-1 .08-1.23-1.16-1.93-1.84a10.758 10.758 0 0 1-1.58-2.08c-1.23-2.06-2.41-4.16-3.54-6.11l.87-2.15-.06-.14-1.36.51c-.1-.1-.185-.214-.25-.34a29.997 29.997 0 0 1-2-7.72c-.327-2.853-.6-5.706-.82-8.56.002-.856.06-1.71.17-2.56.06-1 0-2 .12-2.93.3-2.74.53-5.5 1-8.21a38.765 38.765 0 0 1 1.53-4.84c.47-1.47.87-3 1.39-4.4.65-1.83 1.51-3.59 2.05-5.45a32.687 32.687 0 0 1 2.87-6.1 30.218 30.218 0 0 1 3.46-5.59c.94-1.09 1.61-2.39 2.44-3.56v-.02Zm-3.07 0 .35.19a263.419 263.419 0 0 0-3.19 4.88c.46-1.99 1.09-3.86 2.84-5.05v-.02Zm-5 7.48a3.3 3.3 0 0 1-2.51 1.38c1.42-2.37 2-5 4.37-6.55a48.126 48.126 0 0 1-1.83 5.19l-.03-.02Zm-4.83-.9c1-.68 1.93-1.31 3.18-2.15-.1.475-.23.942-.39 1.4-.44 1-1 1.91-1.35 2.93a3.479 3.479 0 0 1-1.9 2.1l-2.29 1.06c.68-1.63 1.22-3 1.84-4.32a2.83 2.83 0 0 1 .94-1l-.03-.02Zm-2.72 2.43a43.393 43.393 0 0 1-1.49 4.11c-.25.51-1 .8-1.63 1.29a7.85 7.85 0 0 1 3.15-5.38l-.03-.02Zm-3.47 3.35a4.8 4.8 0 0 1-1.16 3.3c-1.64 1.95-3.38 3.81-4.91 5.85a1.72 1.72 0 0 1-.46.32 34.65 34.65 0 0 1 6.53-9.47Zm-6.36 12.28c.26-.53.32-1.17.53-1.74.152-.283.34-.545.56-.78l.17.17c-.41 2.67-.76 5.35-1.25 8a10.58 10.58 0 0 1-1.1 2.31 1.79 1.79 0 0 1-.42-1.6 20.1 20.1 0 0 1 1.51-6.36Zm-3.67 9.95a10 10 0 0 0 .37-3.8 9.55 9.55 0 0 1 1.49-5.12c-.11 1-.18 1.75-.25 2.45-.21 1.93-.43 3.86-.63 5.8a3.05 3.05 0 0 1-.05.75c-.24.62-.55 1.2-.83 1.8l-.34-.11c.032-.595.113-1.187.24-1.77Zm-.18 2.41c.44.14.66.15.71.24a22.44 22.44 0 0 1-.09 6.77c-.19-2.27-.76-4.51-.62-7.01Zm1.85 9.69c0-2.95-.34-5.91.5-8.84.2-.67-.27-1.49-.41-2.49l2.31-3.19c0 .59.06.83 0 1.06-.207 3.14-.427 6.27-.66 9.39a3.53 3.53 0 0 0 0 1.07c.5 1.64-.23 3-1.34 4.39a5.62 5.62 0 0 1-.4-1.39Zm-1.12.11h.37c.19 1 1.14 1.93 0 3.06l-.37-3.06Zm3.21 9.33c-.28-.93-.55-1.87-.78-2.82-.4-1.64-.76-3.3.44-4.8.126-.147.266-.281.42-.4.116.283.213.574.29.87.52 3 .75 6.11 1.72 9.06a1.91 1.91 0 0 1-.54 2.18c-1.05-1.26-1.19-2.72-1.55-4.09Zm7.18 15.23.31-.19a6.783 6.783 0 0 0-.48-.88 21.589 21.589 0 0 1-3.16-5.64 34.59 34.59 0 0 1-1.28-4.09c-.09-.36.2-.81.32-1.2.84.09 1 .62 1.18 1.07.81 1.84 1.57 3.7 2.41 5.52.6 1.31 1.29 2.57 1.95 3.85.228.337.4.709.51 1.1 0 .28-.26.59-.55 1.17.19.508.464.982.81 1.4 2.47 2.44 5 4.81 7.5 7.25.327.402.6.846.81 1.32l-.37.22c-2.95-2.91-5.89-5.84-8.88-8.72a27.08 27.08 0 0 1-6.1-8.8 3.34 3.34 0 0 1-.08-1.79c1.44 2.95 2.59 6.1 5.1 8.41Zm-7.18-11.29c.68.86 2 1.51 1 3.15-.36-1.18-.66-2.17-1-3.15Z"/></g></svg>