<svg xmlns="http://www.w3.org/2000/svg" width="91" height="82" fill="none"><g opacity=".1"><path fill="#fff" d="M62.95.034a13.085 13.085 0 0 0-3.916 2.315 9.283 9.283 0 0 1-1.259 1.108 4.257 4.257 0 0 0-1.892 2.647 9.46 9.46 0 0 1-.443 1.802 1.893 1.893 0 0 0 .16 2.014c.373.543.695 1.117 1.007 1.68.232.404.222.786-.261 1.008-.484.221-.353.412-.202.755.1.245.1.52 0 .765-.533 1.188-1.158 2.335-1.64 3.533a28.926 28.926 0 0 1-2.739 4.641c-.513.805-1.278 1.44-1.842 2.205-1.007 1.38-2.205 2.607-3.181 4.027-1.611 2.325-3.453 4.46-5.245 6.674a28.59 28.59 0 0 0-3.705 6.343c-.393.916-.856 1.802-1.289 2.687-.775 1.601-1.57 3.181-2.305 4.782-.503 1.077-.896 2.195-1.38 3.272a131.198 131.198 0 0 1-1.791 3.796c-.916 1.902-1.762 3.835-2.789 5.678a33.564 33.564 0 0 1-5.97 7.248 1.82 1.82 0 0 1-.694.442c-1.785.544-3.577 1.071-5.376 1.581a4.22 4.22 0 0 0-2.014 1.007c-1.006 1.007-2.073 2.013-3.09 3.08-.489.522-1.13.874-1.832 1.007-.519.11-1.043.19-1.57.242-.454 0-.907-.091-1.36-.06a2.667 2.667 0 0 0-1.65.815 4.552 4.552 0 0 1-1.3 1.007 6.61 6.61 0 0 0-2.526 1.963A9.286 9.286 0 0 0 0 81.517c.795.292 1.349.483 2.013.171.665-.312 1.581-.705 2.376-1.077a8.242 8.242 0 0 1 3.08-1.007 25.547 25.547 0 0 1 3.726.07c.513.06 1.033.002 1.52-.17a11.485 11.485 0 0 0 2.265-1.3 5.773 5.773 0 0 1 2.567-1.247 12.01 12.01 0 0 1 2.88-.141c2.234.2 4.459.493 6.684.805 2.29.424 4.622.563 6.946.413 1.46-.152 2.92-.192 4.37-.342a17.296 17.296 0 0 0 4.227-.715c.304-.07.616-.094.926-.07 1.28 0 2.558 0 3.826-.102 1.45-.12 2.89-.402 4.34-.583a21.765 21.765 0 0 0 5.496-1.692c2.214-.906 4.389-1.902 6.573-2.879.835-.33 1.643-.723 2.417-1.178 1.67-1.077 3.342-2.154 4.933-3.322 1.59-1.168 3.473-2.063 4.64-3.755a.503.503 0 0 1 .192-.19 4.026 4.026 0 0 0 1.52-1.541c.106-.153.224-.298.352-.433a32.078 32.078 0 0 0 3.262-3.876 62.819 62.819 0 0 0 4.147-5.86 22.002 22.002 0 0 0 2.487-5.214c.272-1.077.675-2.134 1.007-3.211.423-1.46.886-2.93 1.167-4.42.455-2.125.516-4.316.182-6.463-.201-1.188-.242-2.406-.403-3.614-.1-.735-.352-1.45-.433-2.195a19.388 19.388 0 0 0-1.44-4.912c-.623-1.691-1.349-3.353-1.902-5.034a6.628 6.628 0 0 0-1.58-2.799 7.666 7.666 0 0 1-.776-.936 20.44 20.44 0 0 0-4.319-4.852c-1.006-.735-1.842-1.792-3.16-2.104a.316.316 0 0 1-.202-.171c-.423-.926-1.379-1.33-2.013-2.014a.805.805 0 0 0-.484-.251 9.817 9.817 0 0 0-2.758-.383 2.376 2.376 0 0 1-1.732-.534A14.346 14.346 0 0 0 64.56.265a2.758 2.758 0 0 0-1.61-.231Z"/><path fill="#101A24" d="M62.95.034a13.085 13.085 0 0 0-3.916 2.315 9.283 9.283 0 0 1-1.259 1.108 4.257 4.257 0 0 0-1.892 2.647 9.46 9.46 0 0 1-.443 1.802 1.893 1.893 0 0 0 .16 2.014c.373.543.695 1.117 1.007 1.68.232.404.222.786-.261 1.008-.484.221-.353.412-.202.755.1.245.1.52 0 .765-.533 1.188-1.158 2.335-1.64 3.533a28.926 28.926 0 0 1-2.739 4.641c-.513.805-1.279 1.44-1.842 2.205-1.007 1.38-2.205 2.607-3.181 4.027-1.611 2.325-3.453 4.46-5.245 6.674a28.59 28.59 0 0 0-3.705 6.343c-.393.916-.856 1.802-1.289 2.687-.775 1.601-1.57 3.181-2.305 4.782-.503 1.077-.896 2.195-1.38 3.272a131.198 131.198 0 0 1-1.791 3.796c-.916 1.902-1.762 3.835-2.789 5.678a33.564 33.564 0 0 1-5.97 7.248 1.82 1.82 0 0 1-.694.442c-1.785.544-3.577 1.071-5.376 1.581a4.22 4.22 0 0 0-2.014 1.007c-1.006 1.007-2.073 2.013-3.09 3.08-.489.522-1.13.874-1.832 1.007-.519.11-1.043.19-1.57.242-.454 0-.907-.091-1.36-.06a2.667 2.667 0 0 0-1.65.815 4.552 4.552 0 0 1-1.3 1.007 6.61 6.61 0 0 0-2.526 1.963A9.286 9.286 0 0 0 0 81.517c.795.292 1.349.483 2.013.171.665-.312 1.581-.705 2.376-1.077a8.242 8.242 0 0 1 3.08-1.007 25.547 25.547 0 0 1 3.726.07c.513.06 1.033.002 1.52-.17a11.49 11.49 0 0 0 2.265-1.3 5.773 5.773 0 0 1 2.567-1.247 12.01 12.01 0 0 1 2.88-.141c2.234.2 4.459.493 6.684.805 2.29.424 4.622.563 6.946.413 1.46-.152 2.92-.192 4.37-.342a17.296 17.296 0 0 0 4.227-.715c.304-.07.616-.094.927-.07 1.278 0 2.557 0 3.825-.102 1.45-.12 2.89-.402 4.34-.583a21.765 21.765 0 0 0 5.496-1.692c2.214-.906 4.389-1.902 6.573-2.879.835-.33 1.643-.723 2.417-1.178 1.67-1.077 3.342-2.154 4.933-3.322 1.59-1.168 3.473-2.063 4.64-3.755a.503.503 0 0 1 .192-.19 4.026 4.026 0 0 0 1.52-1.541c.106-.153.224-.298.352-.433a32.078 32.078 0 0 0 3.262-3.876 62.819 62.819 0 0 0 4.147-5.86 22.002 22.002 0 0 0 2.487-5.214c.272-1.077.675-2.134 1.007-3.211.423-1.46.886-2.93 1.167-4.42.455-2.125.516-4.316.182-6.463-.201-1.188-.242-2.406-.403-3.614-.1-.735-.352-1.45-.433-2.195a19.388 19.388 0 0 0-1.44-4.912c-.623-1.691-1.349-3.353-1.902-5.034a6.628 6.628 0 0 0-1.58-2.799 7.666 7.666 0 0 1-.776-.936 20.44 20.44 0 0 0-4.319-4.852c-1.006-.735-1.842-1.792-3.16-2.104a.316.316 0 0 1-.202-.171c-.423-.926-1.379-1.33-2.013-2.014a.805.805 0 0 0-.484-.251 9.817 9.817 0 0 0-2.758-.383 2.376 2.376 0 0 1-1.732-.534A14.346 14.346 0 0 0 64.56.265a2.758 2.758 0 0 0-1.61-.231Zm.08 1.63 1.007 1.712c-.846 0-1.007-.805-1.661-1.007-.443.896.825 1.007.674 1.712-.453.292-.694-.141-1.006-.373a10.88 10.88 0 0 1-.826-.916l1.812-1.127ZM60.644 13a1.763 1.763 0 0 0-.765-.946c-.493-.352-1.107-.614-1.228-1.329a.288.288 0 0 0-.161-.201c-.715-.171-.896-.846-1.228-1.34a2.74 2.74 0 0 1 .1-3.02c.07.272.121.544.212.806.061.206.168.395.312.554.07.08.272 0 .423 0 0-.131 0-.252-.05-.383l-.484-1.57c.489-.542 1.1-.96 1.782-1.218-.231 0-.373-.182-.14-.353.483-.372 1.006-.704 1.479-1.006.332.483.624.875.886 1.308.067.17.098.352.09.534a2.012 2.012 0 0 1-.533-.181 10.806 10.806 0 0 1-.816-.776l-1.007.524c.937-.05 1.49.584 1.29 1.661l-1.007-1.188c-.685-.06-.08.665-.463.846a6.784 6.784 0 0 0-.896.624c-.07.262-.142.543-.212.825a.795.795 0 0 1 .705.735c.08 1.34 1.117 2.124 1.731 3.151.135.197.244.41.323.634a1.337 1.337 0 0 0 1.741.896 1.902 1.902 0 0 1-1.62-1.409c.624.393 1.107.674 1.56 1.007.08.06 0 .262.06.412a13.68 13.68 0 0 0 1.56.112c.544-.04 1.086-.111 1.621-.212l1.007 1.6-.876.212c-.1-.765-.352-1.33-1.148-1.39 0 .524 0 .524.333 1.249-.221.191-.403.373-.634 0-.355-.48-.787-.9-1.28-1.238v1.087l-.553-.493c-.12.11-.262.181-.322.302a.534.534 0 0 1-.349.292.524.524 0 0 1-.446-.091A2.432 2.432 0 0 1 60.645 13Zm9-4.62a14.233 14.233 0 0 1-3.2 2.123c-.372.165-.773.251-1.179.252a15.905 15.905 0 0 0 3.846-3.372c-.343-.05-.554-.151-.665-.08-.452.206-.86.5-1.198.865a8.393 8.393 0 0 1-3.16 2.235 7.256 7.256 0 0 1-1.29.543c-.221.081-.503.152-.603-.291l3.08-1.792c.08-.05.191-.071.242-.141.463-.635.916-1.279 1.48-2.074a2.31 2.31 0 0 0-.625.191c-.422.312-.825.644-1.228 1.007a10.481 10.481 0 0 1-2.597 1.56c-.322.151-.715.09-1.007.534-.292.443-.584-.212-.846-.473 1.923-1.57 4.279-2.447 5.82-4.57.714.352 1.55.603 1.943 1.51.128.214.308.394.523.523l1.913 1.44-.705.664v-.836a1.57 1.57 0 0 0-.544.181Zm12.695 9.986c0 .312 0 .634-.07.946h-.121l-.323-.714c.182-.09.343-.192.514-.272l.644-.625c.524.816.524.816 0 1.229l-.685-.604.041.04Zm-5.396 3.242 1.38.08c.12.564.22 1.007.331 1.61l-1.52-.23c-.05-.424-.11-.877-.191-1.46Zm-.796 1.319c-.473-.282-.493-.383-.291-1.43.352.624.352.624.291 1.43Zm-6.543 6.956-1.218-.121 1.007.855c0 .293-.091.595-.151 1.007l-1.913-.785c.342.816 1.188 1.007 1.7 1.57 0 .383-.1.766-.18 1.259l-2.608-1.38 1.41-4.49c.654.333 1.248.595 1.802.917.554.322.322.715.15 1.168Zm1.51.896-.906-.474c0-.332.09-.623.131-.916 1.137.111 1.258.343.775 1.39Zm-1.067.402c1.087.302 1.097.302.846 1.39l-1.007-.524c.05-.372.11-.634.16-.866Zm-.262 1.652 1.007.433c-.101.372-.212.745-.332 1.187-.363-.171-.665-.312-1.007-.493.09-.433.201-.765.332-1.158v.03Zm.926-5.81c.756.122.856.202.876.856v1.31c-1.228-.826-1.228-.826-.876-2.196v.03Zm-.946 1.008c-.805-.252-.835-.413-.443-1.823l.805.292-.362 1.53Zm-1.43-.605c-.372.05-.583-.05-.553-.372.13-1.822.272-3.645.422-5.598.605.323.474.705.494 1.007-.04.617-.04 1.236 0 1.853.09.564-.322 1.007-.201 1.6.024.49-.03.979-.162 1.45v.06Zm2.477-1.5c0-.533.423-.513.846-.694v1.228c-.444-.14-.805-.151-.846-.594v.06Zm-.816-.191c-.794-.201-1.006-.543-.724-1.49 1.037.383 1.047.413.724 1.43v.06Zm.846-2.677c1.007.412 1.007.432.655 1.64-.977-.322-.252-1.218-.655-1.701v.06Zm-.694.835c-.796 0-.897-.14-.836-.786 0-.332.09-.664.151-1.066.936.493 1.007.473.685 1.792v.06Zm.765-2.416c.554 0 .634.342.624.885-.524-.241-.836-.392-.624-.946v.06Zm-.786.272-.815-.373c.05-.302.09-.564.13-.836.826.192.826.192.685 1.148v.06Zm1.178-2.014.101 1.107c-.654-.593-.654-.593-.1-1.177v.07Zm-.926.393a4.172 4.172 0 0 1-.584-.141 2.573 2.573 0 0 1-.322-.171c-.01-.154-.01-.31 0-.464.04-.19.09-.378.151-.563.725.09.614.664.755 1.319v.02Zm-1.721.855h-.201c0-.916.1-1.822.17-2.93.28.932.29 1.923.03 2.86v.07Zm.805-5.718h.232c.285.98.41 2 .372 3.02-.231-.15-.453-.221-.463-.312-.07-.886-.14-1.822-.14-2.708Zm-.644 2.447c-.232-.161-.413-.212-.413-.292-.08-.873.02-1.754.292-2.588a4.57 4.57 0 0 1 .11 2.88h.01Zm1.812-1.631c.374.786.51 1.664.393 2.526a4.198 4.198 0 0 1-.393-2.526Zm2.013-.564c.624-.201.906 0 1.007.614l-.624.312c.11.12.16.222.221.222a.713.713 0 0 1 .725.593c.262 1.169.554 2.336.856 3.625l-1.097.201c-.343-1.863-.705-3.674-1.068-5.537l-.02-.03Zm-5.456-3.463c.272.604.513 1.168.765 1.732l-.171.11-1.198-1.6.604-.242ZM63 12.215a2.577 2.577 0 0 1 2.225-.201 2.115 2.115 0 0 1-2.225.241v-.04Zm9.302 2.335c-.14-.412-.362-.855.171-1.369l.775 1.48c-.684.463-.765.413-.946-.07v-.04Zm3.614.454c.524-.192.665.2.886.734-.473 0-.856.353-1.007-.221-.06-.1.02-.443.121-.443v-.07ZM74.79 16.08c-.434-.07-.453-.403-.494-.735.634.05.634.05.494.735Zm4.026 1.117c-.623 0-.614-.453-.815-.674 0 .221 0 .453.09.795l-1.781.192-.252-1.007c.514 0 .916-.363 1.339.1.08.09.393 0 .604-.07l.372-.192.443.856Zm.504-.715c.372.242.382.232.674.766-.463-.162-.463-.162-.624-.725l-.05-.04ZM76.792 19l-.322-.805c1.55-.594 2.104-.423 2.396.695-.574.312-.514-.353-.856-.564a1.008 1.008 0 0 1-1.168.715l-.05-.041Zm-1.047.1h-.392a4.305 4.305 0 0 1-.283-.724c.262-.242.454-.211.544.05.063.221.107.447.131.675Zm-.836-1.509a4.944 4.944 0 0 1-.231-.866c.523.09.896.664.664.906a.468.468 0 0 1-.433-.03v-.01Zm5.134.393c.615.08.625.09.655.935-.705.04-.705.04-.654-.925v-.01Zm-4.54 1.67a.81.81 0 0 1 .496.582.811.811 0 0 1-.204.737 1.735 1.735 0 0 1-.292-1.319Zm3.564 2.195c.836-.463 1.299-.262 1.54 1.45-1.137.262-1.319.1-1.57-1.45h.03Zm2.426 1.158c-.07-.322-.2-.634-.342-1.067l.715-.191a3.2 3.2 0 0 1 .513 1.68c-.493.162-.835.132-.916-.422h.03Zm-4.58-1.893c0-.543-.07-.916-.101-1.4l1.108-.1c.08.474.15.856.231 1.38l-1.238.12Zm1.68-1.389a.725.725 0 0 1 .917.241c.373.464.403.504.272 1.169h-.796c-.13-.504-.261-.967-.392-1.46v.05Zm2.135 1.39c-.14-.444-.282-.907-.423-1.38 1.007-.17 1.4.212 1.38 1.52l-.957-.14Zm2.93-1.702c.664.896.654 1.057-.141 1.258-.453-.966-.453-.966.14-1.238v-.02Zm-2.014-1.56c-.594-.695-.322-1.168.816-1.43.342.805.342.805-.785 1.45l-.031-.02Zm-.815-1.299c0-.423 0-.745.08-.866a.69.69 0 0 1 1.118.09l-1.198.776Zm-2.255-1.118c-.866.333-1.007.292-1.39-.523l.836-.372c.231.352.413.623.584.916l-.03-.02Zm1.772-.775c.269-.161.548-.306.835-.432 0 .271.12.583.06.614a1.756 1.756 0 0 1-.906.312c-.2 0-.19-.333.041-.474l-.03-.02Zm-5.316-1.158c-.09-.593-.916-.905-.372-1.62.725.695.845 1.067.402 1.64l-.03-.02Zm1.007-1.44 1.48 1.833c.004.057.004.115 0 .171-.212 0-.514.06-.614-.06a11.68 11.68 0 0 1-1.088-1.792l.222-.151Zm-2.376 1.763c-.11-.292-.201-.564-.362-1.007.825.423.865.584.342 1.027l.02-.02Zm-4.198-.524c-.221.282-.463.423-.704.11-.242-.31-.645-.956-1.007-1.48.15-.09.302-.22.342-.2.573.41 1.041.947 1.37 1.57Zm-3.524-1.62 1.31-.313a.875.875 0 0 1-1.36.312h.05ZM60.302 8.6c-.171-.946 0-1.42.725-1.712.724-.291 1.379-.533 2.013-.835.348-.184.684-.39 1.007-.614.433-.242.856-.504 1.299-.705.237-.063.49-.041.715.06a24.06 24.06 0 0 1-5.81 3.806h.05ZM18.785 71.017a4.812 4.812 0 0 1 2.356-.574l-2.315.775-.04-.2Zm8.396 5.537-.392-1.007 1.68-.644 2.306 1.48a6.101 6.101 0 0 1-3.594.171Zm-5.547-1.913.685.644a.61.61 0 0 0-.07.142l-1.601-.242.986-.544Zm-2.013.362-.574-.11v-.171l.584.09a1.303 1.303 0 0 0-.06.191h.05Zm20.587-7.147c.221.151.443.292.685.433-1.007.856-1.088 1.006-2.266-.362l.856-.544c.212.181.443.332.675.473h.05Zm0-.826 1.007-.624 1.288.846c-1.016.906-1.369.866-2.295-.222Zm-2.305 1.34c.433.211.835.493 1.258.754-.513.534-.513.534-1.772-.483.232-.12.433-.312.514-.272Zm-8.366 4.258c1.671-1.178 1.671-.766 2.678.03l-1.641.805a34.849 34.849 0 0 1-1.037-.835Zm.252 1.007c-.886.704-1.198.694-2.205-.121 1.047-.785 1.047-.785 2.205.14v-.02Zm4.59-2.094-1.47.775-.936-.745 1.248-.765 1.158.735Zm-.292-1.007c1.007-.665 1.007-.665 2.014.251l-1.057.504-.957-.755Zm-.483 2.255c.775-.625 1.117-.745 1.742-.695l1.369-.846.825.434v-.705l1.228-.534.685.534a30.085 30.085 0 0 1-5.295 2.748l-.554-.936Zm2.225-3.08c1.007-.816 1.107-.806 2.013.11-.594.906-1.319.825-2.013-.11Zm.06-1.078c-.715.634-.715.634-1.48.191l-1.66-.946v-.252l1.006-.564 2.134 1.57Zm-1.61 1.007-.866.463-2.205-1.37 1.138-.533c.332.735 1.288.785 1.933 1.41v.03Zm-1.581.745-1.49.725-1.792-1.007 1.007-.906 2.275 1.188Zm-2.718 1.006c-1.52.826-1.077 1.007-2.668-.18 1.097-.705 1.883-.665 2.668.241v-.06Zm-2.134 1.168-1.007.523-1.218-.794c.604-.907 1.137-.836 2.225.291v-.02Zm-3.564-.342 1.892 1.248c-.463.302-.785.534-1.117.725a.382.382 0 0 1-.362 0c-.826-.523-1.631-1.067-2.447-1.61 0 0-.05-.111-.11-.252l1.46-.785.684.674Zm3.392 2.315c-.744 0-1.409.806-2.265.101 1.33-.855 1.651-.936 2.265-.08v-.02Zm-5.869-1.238c-.443.473-.483.463-1.238-.423a.912.912 0 0 1 .713-.04.916.916 0 0 1 .525.483v-.02Zm-1.67.353c-.585.12-.585.12-.756-.483l.755.483Zm3.875 1.067-.856.543c-.392-.382-.745-.745-1.137-1.117.845-.383 1.208-.262 2.023.574h-.03Zm2.275 1.65-1.369-.13c.846-.755.956-.755 1.4.13h-.03Zm11.738 0a19.239 19.239 0 0 1-5.698.494c1.148-.302 2.316-.554 3.433-.926a2.015 2.015 0 0 1 2.296.392l-.03.04Zm3.02-.452-.412.06c.005-.06.005-.12 0-.181h.413a.494.494 0 0 1 .02.08l-.02.04Zm-3.19-.514a1.491 1.491 0 0 1 2.184-.07c-.705.493-1.38.815-2.164.03l-.02.04Zm4.64.332c-.191.06-.463-.21-.775-.382.755-.544 1.41-.916 2.295-.252-.426.349-.95.557-1.5.594l-.02.04Zm11.416-7.047c-.573.886-.715.937-1.51.534l-.785-.453.473-.463c.131-.131.272-.252.463-.413l1.36.795Zm-.805-1.258.745-.715.805.352.715.363c-.826 1.007-.826 1.007-2.265 0Zm2.83 2.326c-.585.694-.867.694-1.843 0 .734-.705.906-.705 1.842-.01v.01Zm-5.306-.947c-.917.876-1.007.876-1.923.292.735-.906.956-.946 1.922-.302v.01Zm.382.252 1.43.715c-.695.785-.947 1.006-2.215-.06l.785-.655Zm2.165 1.007.644.231.614.242c-1.007.755-1.007.866-2.014.19l.756-.663Zm-2.135.765c-1.117.856-1.117.856-2.073.1l.734-.795 1.34.695Zm1.641.715c-.483.221-.846.402-1.218.533-.11 0-.262-.07-.423-.12.715-.776.715-.776 1.641-.393v-.02Zm-3.443.302c-.644.745-.644.745-1.54.17.624-.724.785-.744 1.54-.15v-.02Zm-3.261.11c-.917 1.007-1.057 1.007-2.527.262l1.48-.866 1.047.604Zm1.006.352.936.494c-.724.846-.895.866-2.073.251l1.137-.745Zm-3.02.927c-.735.886-1.57.553-2.507.251 1.067-.956 1.43-.946 2.567-.23l-.06-.021Zm2.154.634c-1.328 1.158-1.288 1.007-2.386.352.816-.473 1.51-1.138 2.447-.332l-.06-.02Zm-4.56.413c-.352.594-.352.594-1.893.09.745-.553 1.34-.291 1.953-.07l-.06-.02Zm3.866 1.077c.846-.584 1.59-1.158 2.386-1.621a8.517 8.517 0 0 1 1.64-.533c0-.08 0-.302-.06-.534.312-.201.564-.594 1.118-.312l-.645.574a4.772 4.772 0 0 0 2.014-.473c.561-.278 1.14-.52 1.732-.725-1.208 1.53-6.293 4.198-8.125 3.644l-.06-.02Zm12.594-2.627a16.95 16.95 0 0 1-3.373 1.067c.785-.514 1.57-1.007 2.376-1.52.473-.242.655.18 1.057.473l-.06-.02Zm.755-.484a6.69 6.69 0 0 1-2.154-1.38c-.635.252-.161.635-.131.907-3.151 2.426-6.604 4.027-8.155 3.644.107-.082.222-.152.343-.211a21.898 21.898 0 0 0 6.04-3.614c.543-.443 1.288-.624 1.66-1.309a.381.381 0 0 1 .685.08c.151.665.675.917 1.138 1.26.25.171.466.39.634.643l-.06-.02Zm3.302-3.553c.292-.283.412-.484.523-.484.614 0 1.007.433 1.51.866-.885.645-1.178-.362-1.973-.362l-.06-.02Zm3.835-.142c-.2.424-.422.655-1.006.444.402-.333.604-.564 1.067-.423l-.06-.02Zm1.158-.704-.745.362c.292-.533.292-.533.805-.342l-.06-.02Zm1.5-1.168c-.674.725-.674.725-1.148.232.413-.182.635-.695 1.209-.212l-.061-.02Zm1.631-1.007c-.876.725-.876.725-1.4.162.665-.725.665-.725 1.46-.111l-.06-.05Zm1.309-1.007c-.574.615-.574.615-1.44.101.695-.734.695-.734 1.5-.08l-.06-.02Zm1.58-1.218c-.473.796-.634.826-1.64.282.543-.886 1.147-.231 1.7-.261l-.06-.02Zm.806-.664-.282.383-1.118-.534c.494-.053.993.005 1.46.171l-.06-.02Zm1.006-1.007c-.523.554-.765.544-2.597-.11.12-.242.231-.463.342-.665l2.255.775Zm1.47-1.349c-.795.947-.906 1.007-2.014.483l-.744-.342c.815-.12 1.45.534 2.134-.07-.373-.523-1.007-.333-1.48-.594-.48-.214-.974-.392-1.48-.533-.15.302-.262.513-.352.724h-1.268l.815.866c-.383.654-1.188.634-1.802 1.107l1.007 1.007c-.272.433-.605.493-1.067.191a6.864 6.864 0 0 0-1.007-.412c-.504 1.006.835.623.835 1.319-.171.291-.402.533-.875.18a7.676 7.676 0 0 0-1.007-.523c-.272.523-.272.523.674 1.248-.292.735-.654.645-1.138.302-.483-.342-1.006-.634-1.459-.946a.68.68 0 0 0 .039.827.693.693 0 0 0 .232.18c.353.241.726.453 1.098.674-.463.826-.594.866-1.299.323-.17-.131-.302-.333-.493-.413a1.72 1.72 0 0 0-.564 0c0 .201 0 .453.121.573.318.284.654.547 1.007.786-.161.13-.282.251-.413.372l-1.802-1.379a.667.667 0 0 0-.036.887c.07.083.157.149.257.19.323.221.675.413 1.128.675l-.755.664c-.694-.342-1.289-.694-1.268-1.671-.302.171-.645.241-.806.453a1.202 1.202 0 0 1-.797.614 1.197 1.197 0 0 1-.985-.212c.11.464.192.766.252 1.007.87.192 1.653.666 2.225 1.35-.262.271-.483.322-.735.07-.493-.483-1.007-.946-1.49-1.42h-.161c-.232-.06-.504-.241-.635.111-.13.353.172.373.373.524.514.392 1.007.835 1.46 1.238-.191.493-.443.483-.765.261a54.497 54.497 0 0 0-1.853-1.248 5.39 5.39 0 0 0-.734-.332c-.282.634.13.826.463 1.007.543.332 1.117.634 1.892 1.007l-1.268.513a6.32 6.32 0 0 1-2.265-2.265c.715-.554 1.47-1.097 2.194-1.681.384-.312.747-.649 1.088-1.007.251-.272.231-.292 0-.836a4.569 4.569 0 0 0-.393.343 13.445 13.445 0 0 1-3.342 2.688.745.745 0 0 1-.856 0c-.342-.201-.705-.363-1.087-.574a1.392 1.392 0 0 1 1.248-.805c.428.093.84.253 1.218.473l.1-.171-.855-.806c.151-.292.644-.543.212-1.097l-1.128.795-1.6-.825c.704-.655 1.349-1.269 2.013-1.883a.677.677 0 0 1 .856-.15l1.47.844c-.564.595-1.068.876-1.793.464a.754.754 0 0 0-.936 0c.575.364 1.19.66 1.833.886.583.13 1.006.815 1.791.493-.231-.574-.886-.383-1.168-.806.423-.372.806-.795 1.44-.332.262.192.514.121.735-.231l-.675-.474a18.307 18.307 0 0 1 2.014-2.536c.262-.191.614-.484.363-1.007-.192.09-.434.13-.554.282a10.447 10.447 0 0 0-1.923 2.124c-.353.705-.664.775-1.34.392-.372-.2-.724-.432-1.107-.674.705-.735 1.34-1.359 1.933-2.013.192-.222.514-.554-.06-.876-.584.624-1.158 1.279-1.762 1.883a139.338 139.338 0 0 1-3.302 3.15c-.218.153-.46.269-.714.343a4.18 4.18 0 0 1-.454.735c-.402.392-.835.755-1.268 1.107-.614.514-.614.514-1.43-.1a6.049 6.049 0 0 0 1.007-.836c.222-.282.775-.534.312-1.138-.413.393-.775.765-1.167 1.098-.393.332-.494.593-.947.503a.287.287 0 0 0-.211.11c-.07.746-.846.715-1.148 1.168l-1.077-.433c.322 1.148 1.45.937 2.013 1.53-.17.464-.664.514-1.006.766a12.25 12.25 0 0 0-2.336-.826c.342.715 1.138.766 1.691 1.239a.732.732 0 0 1-.773.47.737.737 0 0 1-.304-.108 5.839 5.839 0 0 1-.886-.493 1.01 1.01 0 0 0-1.339.15c-.14.161-.307.297-.493.403-1.56.846-3.1 1.702-4.681 2.507a19.43 19.43 0 0 1-5.255 1.843h-.272c-.604.16-1.248.553-1.782.442a5.962 5.962 0 0 1-1.711-1.087l-.816-.594c.937-.594 1.289-.594 2.014 0 .251.192.453.433.704.604.252.171.423.222.413-.171a1.893 1.893 0 0 0-.252-.413c-.251-.262-.533-.483-.885-.785l1.64-.745.937.705c-.443.513-1.289.503-1.44 1.238a34.98 34.98 0 0 0 5.457-2.376 87.842 87.842 0 0 0 3.15-1.792c.264-.193.51-.409.735-.644-.553-.262-.875.07-1.208.232-.332.16-.704.11-1.006-.353l2.275-1.309c.382 0 .755.806 1.258.05l-.654-.563.765-.614 1.077.534-.564.623a2.73 2.73 0 0 0 .675-.06 20.023 20.023 0 0 0 4.39-2.788c.342-.312.744-.544 1.117-.826.1-.08.18-.201.352-.383a1.348 1.348 0 0 0-1.007.363c-1.097.715-2.205 1.4-3.272 2.154a1.562 1.562 0 0 1-1.922 0c.684-.513 1.338-1.006 2.013-1.5a50.365 50.365 0 0 0 2.013-1.57c.323-.282.323-.363.282-.906-.493 0-.765.342-1.087.604-1.097.855-2.184 1.731-3.292 2.587-.225.148-.46.28-.705.393l-1.218-.886a12.498 12.498 0 0 1 3.01-2.638 14.182 14.182 0 0 0 3.333-2.506c.09-.111.231-.222.261-.363a.466.466 0 0 0-.1-.403.416.416 0 0 0-.403 0 14.6 14.6 0 0 1-1.107 1.128 149.903 149.903 0 0 1-4.33 3.231c-1.006.745-2.083 1.44-3.13 2.165l-1.832-1.41c-.161 1.128.886 1.138 1.178 1.712-.685.534-.886.523-1.5 0-.351-.258-.718-.493-1.098-.705-.07.554-.07.554 1.007 1.45-.131.352-.393.503-.715.332-.664-.383-1.288-.815-2.013-1.278.896-.715 1.701-1.37 2.527-2.014 1.006-.795 2.013-1.53 3.02-2.355.414-.42.782-.882 1.097-1.38a.572.572 0 0 0 0-.453 53.172 53.172 0 0 1-7.752 6.04 86.065 86.065 0 0 1-8.436 5.034l-.664-.453c.553-.302 1.006-.564 1.52-.836.513-.271.795-.482 1.178-.754.382-.272.956-.675 1.42-1.007.212-.197.411-.409.593-.635l-.12-.16c-.158.025-.31.072-.454.14-1.238.776-2.416 1.672-3.715 2.316-1.63.825-3.352 1.46-5.033 2.154a4.297 4.297 0 0 1-.735.09c-.624.142-1.238.302-2.013.484.573.825 1.238.362 1.832.423v.624l-2.265.493c-.356.437-.743.848-1.158 1.228-.664.514-1.39.937-2.094 1.4-.1.07-.252.11-.302.201-.725 1.168-2.013 1.067-3.08 1.178a19.476 19.476 0 0 1-3.152-.181l5.256-.493c-.111-.595-.433-.534-.796-.494-1.45.15-2.91.272-4.359.423a5.617 5.617 0 0 0-.815.201c.16.172.211.262.292.292.146.03.294.051.443.06a4.896 4.896 0 0 0-1.158.061c-.455.158-.894.36-1.309.604a3.666 3.666 0 0 1-1.731.755 6.4 6.4 0 0 1 .523-.483c.936-.665 1.883-1.329 2.84-2.014.199-.14.43-.227.674-.251a5.632 5.632 0 0 1 2.587.16c.584.253 1.077-.14 1.62-.17a.179.179 0 0 0 .132-.091c.261-.946 1.107-1.41 1.731-2.013a22.89 22.89 0 0 1 2.013-1.893c.43-.29.88-.546 1.35-.765l.765.423c.503-.148.99-.35 1.45-.605a10.002 10.002 0 0 1 2.788-.925c.94-.317 1.86-.687 2.758-1.108a12.05 12.05 0 0 0 1.6-1.077c.58-.359 1.131-.76 1.652-1.198 1.007-1.007 2.013-2.104 3.02-3.141-.232-.412-.473-.262-.654-.1-.685.583-1.37 1.167-2.014 1.782-.644.614-1.147 1.127-1.711 1.7l-.171-.13c.109-.189.23-.37.362-.544.534-.564 1.087-1.117 1.62-1.671a19.472 19.472 0 0 0 2.77-4.127 35.063 35.063 0 0 0 1.741-3.413c.866-1.953 1.63-3.957 2.507-5.91.775-1.721 1.64-3.403 2.466-5.104.493-1.006.946-2.013 1.47-3.02.765-1.49 1.49-3.02 2.396-4.42 1.53-2.335 3.252-4.55 4.782-6.885 1.41-2.165 3.02-4.148 4.53-6.282a218.605 218.605 0 0 0 4.117-6.04c.705-1.098 1.299-2.265 1.913-3.413.523-1.007 1.007-1.933 1.5-2.91.171-.352.312-.724.473-1.107.373.06.463.262.323.534l-1.903 3.563-.222.413-1.43 2.84a424.516 424.516 0 0 1-1.52 3.02 20.33 20.33 0 0 1-1.379 2.295c-.815 1.158-1.51 2.406-2.265 3.644a.582.582 0 0 0 .522.106.57.57 0 0 0 .384-.368c.705-1.268 1.812-2.315 2.185-3.775a.739.739 0 0 1 .171-.332c.821-.85 1.501-1.825 2.013-2.89.518-.893.985-1.813 1.4-2.758.825-1.711 1.61-3.423 2.426-5.134 0-.1.161-.161.413-.393-.463 2.276-1.792 3.927-2.537 5.83-.745 1.902-1.59 3.744-2.426 5.687.16 0 .332 0 .422-.07a2.94 2.94 0 0 0 1.209-2.416 1.105 1.105 0 0 1 .312-.917 9.208 9.208 0 0 0 1.913-3.594c.19-.573.603-1.097.473-1.762a.179.179 0 0 1 0-.09l1.268-1.762c.07.121.241.272.211.373a4.424 4.424 0 0 1-.553 1.57 2.792 2.792 0 0 0-.383.876c-.352 1.007-.735 2.013-1.178 2.93a222.99 222.99 0 0 1-3.483 7.4c-.574 1.137-1.248 2.214-1.883 3.321l-2.154 3.816a2.741 2.741 0 0 0 1.4-1.239 46.488 46.488 0 0 0 3.02-5.345c.795-1.822 1.791-3.564 2.688-5.346.18-.362.291-.755.462-1.117.172-.363.313-.585.474-.886.946.432 1.198 1.359 1.852 2.013-.09.332-.191.675-.322 1.118l-1.751-1.57-.152.09c.031.177.093.347.182.503.261.302.593.553.855.855.675.776.685 1.007.131 1.964-.674-.484-.674-.484-.614-1.329l-1.269.04c.655.574.323 1.087 0 1.641-.23.403-.392.836-.644 1.38.886-.323 1.239.331 1.661.785.685.724 1.32 1.5 1.944 2.275.204.305.386.624.543.956.171.292 0 .443-.222.695l-3.382-3.463-.141.07c0 .09 0 .232.05.282.745.624.655 1.33.14 2.134l-.714-.604c-.17.534.343.665.474 1.098l-.332.765c-.122.252-.232.503-.353.765l-.654-.161c.694 1.107 0 1.852-.453 2.728l-.846-.745c.103.559.365 1.076.755 1.49.67.974 1.396 1.908 2.174 2.799a1.004 1.004 0 0 1 .101 1.389l-.292.453a29.61 29.61 0 0 1-3.18-3.484l-.655 1.48.745-.523a.622.622 0 0 1 .18.08l2.226 3.091c.271.372.11.634-.302.936l-2.698-3.1-.161.12c.764 1.357 1.6 2.671 2.506 3.936l-.453.494-2.849-3.02c.07.846.745 1.288 1.138 1.903.392.614.936 1.237 1.4 1.832-4.4 7.339-9.343 14.195-15.927 19.772.243-.077.476-.182.695-.313a24.573 24.573 0 0 0 2.013-1.6 42.492 42.492 0 0 0 3.342-3.262c1.208-1.329 2.326-2.738 3.453-4.148 1.128-1.409 2.114-2.607 3.081-4.026.966-1.42 2.013-3.121 3.02-4.682.564-.865 1.168-1.701 1.681-2.587.514-.886.816-1.6 1.218-2.396.574-1.178 1.208-2.315 1.712-3.523.503-1.209.785-2.296 1.178-3.443.594-1.712 1.248-3.393 1.771-5.124a104.585 104.585 0 0 0 1.712-6.323c.288-1.328.496-2.673.624-4.027.121-1.077.1-2.174.161-3.453l.574.534c-.05-.403-.09-.684-.141-1.007l.876-.272c.1 1.007.211 1.863.262 2.759a27.53 27.53 0 0 1-.514 4.54c-.201 1.641-.554 3.252-.825 4.893 0 .282-.212.594.12.886a4.242 4.242 0 0 0 .695-1.923c.272-1.822.423-3.654.765-5.456a25.8 25.8 0 0 0 .242-4.823c.018-.301.062-.601.13-.896.464 0 .423.262.423.494v2.013c.005.338.04.675.101 1.007.177.742.15 1.518-.08 2.245a6.039 6.039 0 0 0-.181 1.671c-.061 1.178-.091 2.366-.152 3.554 0 .362 0 .805-.634.715.157.24.28.5.363.774a2.116 2.116 0 0 1-.172.715c-.644 2.114-1.218 4.259-2.013 6.342-.453 1.269-.755 2.568-1.148 3.836-.473 1.51-1.188 2.95-1.791 4.42-.121.301-.262.603-.444 1.006a1.303 1.303 0 0 0 .836-.845 29.344 29.344 0 0 0 2.316-5.809c.293-1.047.65-2.076 1.066-3.08.192-.524.403-1.007.615-1.601.18.07.355.154.523.251 1.007.645 2.104 1.32 3.161 2.014.524.322.534.312.272 1.107a29.945 29.945 0 0 1-3.725-2.013c.181.574.171.574 1.591 1.57.584.403 1.198.786 1.832 1.198l-.13.907c-1.45-.383-2.407-1.642-3.927-1.752 1.118.765 2.205 1.55 3.342 2.285a.713.713 0 0 1 .272 1.127l-2.366-1.198c.263.576.7 1.055 1.248 1.37.152.11.343.16.504.261.503.332.503.353.181 1.128-.785-.473-1.57-.926-2.376-1.4 0 .534.353.856 2.145 2.185.013.11.013.222 0 .332-.06.102-.128.2-.201.292-.776-.231-1.178-1.006-2.135-1.178a7.124 7.124 0 0 0 1.45 1.54c.483.373.473.383.15 1.158l-2.325-1.51c.101.302.111.494.212.584.513.443 1.006.866 1.58 1.289.312.252.473.503.06.875l-1.117-.795-.181.191 1.067 1.32c0 .231-.06.462-.11.775l1.147-.313a2.82 2.82 0 0 1 .695-2.798c0-.08.15-.161.14-.232-.21-1.198.544-2.194.705-3.312.161-1.117.383-1.953.594-2.93.039-.247.113-.488.222-.714.49-1.132.829-2.323 1.006-3.544.243-1.023.431-2.058.564-3.1a35.32 35.32 0 0 0 .181-4.027c0-2.014-.12-4.098-.211-6.152 0-.674-.13-1.338-.211-2.012.503 0 .553.332.593.583.256 1.973.5 3.947.735 5.92a2.94 2.94 0 0 0 0 .282c.19 1.41.263 2.835.222 4.258a1.19 1.19 0 0 0 .433 1.007c.26-.68.326-1.42.191-2.135-.1-1.812-.221-3.614-.342-5.415v-.534h1.117c.114 1.338.404 2.655.866 3.916h.191c0-.614.05-1.239.08-2.014.591 1.345.916 2.79.957 4.259-.584.654-1.188-.343-1.872 0 .563.644 1.359.402 2.013.725.272 1.842.554 3.715.836 5.648l-1.007.09-.06.171.845.332v1.57h-1.117c.08.766.765.404 1.007.756-.081.292-.151.614-.252.956.755.11.523-.624.875-.846l2.336.142-.242 1.63-2.456-.362c.303.564.745.513 1.097.583.353.071.796.122 1.3.202-.112.483-.202.896-.323 1.39l-1.4-.212c.252.634.826.403 1.108.695.191.684-.231 1.167-.624 1.731l-.684-.1a.7.7 0 0 0-.061.13l.755.564-.795 2.678-1.591-.362c.362.463 1.007.765 2.557 1.228a12.077 12.077 0 0 1-1.359 4.339 23.56 23.56 0 0 1-3.02 4.812 13.763 13.763 0 0 0-1.218 2.235c1.007.574 2.426.422 3.383 1.369-.222.261-.434.483-.625.725l-.02-.03Zm-15.252-29.9-3.422-3.301c.18-.393.362-.795.563-1.208.876.393.776 1.007.534 1.852l.735-.433 2.104 2.477c0 .14-.131.402-.232.674a.777.777 0 0 1-.282-.06Zm-1.369-3.744c.192-.453.342-.826.504-1.198a2.7 2.7 0 0 1 1.007 1.44c.048.11.12.21.21.292.182.191.504.352.534.553-.005.397-.07.79-.19 1.168l-2.065-2.255Zm2.215-1.712c.785.574.795.605.483 1.54-.845-.381-.876-.462-.483-1.54Zm-.755.283c-.694-.534-.694-.534-.312-1.56.845.432.342 1.006.312 1.56Zm1.208-2.638a1.466 1.466 0 0 1 .666.904 1.454 1.454 0 0 1-.172 1.11 1.277 1.277 0 0 1-.494-2.014Zm-.694.534c-.745-.06-.564-.765-1.007-1.007-.35-.241-.685-.5-1.007-.775l.684-1.007c.595.382.262 1.007.474 1.45l.483-.312c.835.453.272 1.077.403 1.65h-.03Zm-2.115-2.88a5.43 5.43 0 0 1-.322.625c-.18-.302-.432-.544-.382-.685.22-.885.61-1.72 1.147-2.456.06.302.171.493.111.604-.235.619-.41 1.26-.523 1.912h-.03Zm1.249-1.43c.372.444.15.665-.131.887.07-.252.1-.504.16-.886h-.03Zm1.771 2.175c.906.625.906.625.705 1.37-.553-.363-.986-.695-.705-1.37Zm-.714 0c-.343-.463-.1-.745 0-1.218.342.534.12.785 0 1.218Zm1.329-2.416c.926.463.513 1.168.462 1.812-.925-.402-.946-.513-.462-1.802v-.01Zm-1.007.705c-.514-.644 0-1.128 0-1.742.413.635.413.675-.02 1.752l.02-.01Zm-1.007-1.007c-.322-.745.171-1.087.191-1.56l.313.09c-.182.474-.323.917-.534 1.51l.03-.04Zm-.855-.906c-.101-.201-.152-.262-.142-.302.131-.352.272-.705.474-1.218.201.745-.182 1.057-.362 1.56l.03-.04Zm3.473-.815v1.117c-.423-.412-.423-.412-.03-1.077l.03-.04Zm-1.34.272c.071-.474.132-.876.192-1.36.413.806.393.937-.221 1.4l.03-.04Zm-.573-.907h-.242c0-.321.091-.644.151-1.006.403.392.01.715.06 1.047l.03-.04ZM57.16 34.634a.716.716 0 0 1-.171-.855c.151-.342.261-.695.483-1.299.544.695 1.007 1.218 1.37 1.742.215.285.417.58.603.885.343.554 0 1.007-.302 1.551l-1.983-2.024Zm1.681 3.192c-.15.463-.302.916-.503 1.55l-2.93-3.02c.303-.312.524-.523.725-.755.201-.232.353-.433.554-.685.867.85 1.594 1.833 2.154 2.91Zm.614-3.957c-.241-.201-.443-.432-.684-.624-.826-.654-1.289-1.37-.383-2.436l1.722 2.013c.362.433.15.866-.05 1.41-.222-.121-.433-.232-.605-.363Zm20.437-9.895c1.187 0 1.308.13 1.66 1.71l-4.036-.24c-.08-.564-.171-1.078-.242-1.571a1.537 1.537 0 0 1 1.265-.12 1.55 1.55 0 0 1 .93.865l.423-.644Zm1.822.22.624-.12.845 1.722h-1.006c-.182-.655-.313-1.078-.463-1.601Zm2.013.877c-.423-.423-.362-.725 0-1.007.131.392.131.392-.04 1.006h.04Zm1.671-.353c.222 1.007.222 1.007-.463 1.007-.13-.402-.372-.856.423-1.007h.04Zm-3.855 3.504-3.725-.252c-.06-.715-.131-1.349-.201-2.124l4.258.262a2.087 2.087 0 0 1-.332 2.114Zm2.174-.876v.876c-.188.01-.376.01-.564 0-.815-.07-.835-.121-.765-1.007a7.9 7.9 0 0 0 0-1.007c1.168.05 1.239.121 1.289 1.138h.04Zm-2.174 3.201c-.222 0-.443-.332-.715-.564-.191.413-.614.433-1.087.343-.474-.09-1.098-.171-1.692-.262-.09-.503-.18-1.007-.282-1.48a4.03 4.03 0 0 1 2.085 0c.644 0 1.288.181 1.942.272l.353.886h.191c.07-.292.14-.574.201-.835a.688.688 0 0 1 .201-.081c1.32.12 1.37.211 1.007 1.842-.755 0-.755 0-1.157-.453-.33.165-.683.277-1.047.332Zm.754 2.064-1.349.06c.081-.543.152-1.067.242-1.68l1.107.16v1.46Zm.806-1.319.735.242v1.299l-.896-.06c-.02-.514.05-.987.12-1.48h.041Zm-4.087 1.087c-.443-.08-.745-.261-.705-.795a6.29 6.29 0 0 0-.171-1.007l2.275.333c.034.101.057.206.07.311-.1 1.31-.221 1.41-1.51 1.158h.04Zm2.325.786c.755.16 1.53.231 2.346.352 0 .604-.07 1.007-.1 1.53l-2.397-.574a4.782 4.782 0 0 1-2.718-.271v-1.41c1.228-.07 1.56.08 1.822.856a1.006 1.006 0 0 1 1.007-.453l.04-.03Zm.695 3.423a.43.43 0 0 1-.332 0 .393.393 0 0 1-.182-.272c0-.363 0-.725.071-1.087l.222-.152c.17.141.482.282.482.423a3.595 3.595 0 0 1-.302 1.088h.04Zm1.128-.907c.392.595.392.655-.152 1.068.01-.333.06-.675.111-1.068h.04Zm-2.396 1.007-2.387-.221c0-.574.05-1.067.08-1.651l2.528.372c-.11.433-.181.906-.262 1.49l.04.01Zm1.096 1.812c0 .302-.19.533-.654.292.111-.483.232-1.007.363-1.55.624.383.282.856.251 1.248l.04.01Zm1.007-.704c.625.272.202.785.363 1.258-.745-.222-.745-.222-.433-1.269l.07.01Zm.212 2.013a90.74 90.74 0 0 1-.483 1.41l-1.893-.413c.07-.323.158-.642.262-.957.06-.16.231-.392.322-.372.183.064.344.179.463.332.08.08.09.211.15.362.353-.07.454-.845 1.108-.372l.071.01Zm-1.63 1.843c-.222.533-.434 1.066-.665 1.64l-.806-.12c-.18-1.722.09-2.014 1.4-1.53l.07.01Zm-.676 4.026.766.322c-.192.473-.282.946-1.057.725.05-.342.11-.644.221-1.057l.07.01Zm-1.52.735a.448.448 0 0 1-.15-.362c0-.534.261-.645 1.006-.433-.126.262-.27.514-.433.755a.421.421 0 0 1-.493.03l.07.01Zm-1.218 12.08c-.272.524-.443.695-.886.453a18.276 18.276 0 0 0-2.013-.936c-.312-.13-.262-.271-.151-.453l3.05.937Zm.846-1.137c-.493.705-.816.725-1.762.12.494-.754.775-.774 1.762-.12Zm.383-1.772.624.202.16.12-.503.735-1.46-.382c.494-.916.494-.916 1.178-.685v.01Zm2.123-1.248-.855 1.007-1.42-.574c.504-1.098.766-1.148 2.275-.433Zm.937-1.43-.654.826-1.53-.544.523-.916a2.88 2.88 0 0 1 1.66.624v.01Zm1.007-1.872-.625 1.178-.886-.252c-.23-.08-.463-.191-.684-.282.594-1.309.795-1.37 2.245-.654l-.05.01Zm.916-1.59-.433.925-.846-.231-.684-.222c.322-.926.815-1.047 2.013-.483l-.05.01Zm.916-2.014c-.222.453-.383.795-.594 1.208l-1.48-.343.614-1.238 1.46.373Zm.564-1.35-.474.877c-.17-.594.172-.745.282-1.007l.192.13Zm1.137-2.818-1.52-.231a8.918 8.918 0 0 0-1.007-.131c-.26.019-.516.084-.755.191v.322c.282.171.685.483.866.393.735-.373 1.37 0 2.013.1-.11.846-.11.846-.584 1.329-.422-.332 0-.835-.261-1.208-.645-.08-.484.614-.846.896h-1.007c-.261 0-.573 0-.503.383a.768.768 0 0 0 .493.433c.305.035.612.035.916 0-.06.785-.08.795-.634.715l-1.651-.172c0 .584 0 .584.483 1.007-.08.201-.12.503-.281.634a1.463 1.463 0 0 0-.655 1.329c0 .181-.372.432-.614.574-.214.069-.44.1-.664.09-.332.574.221.584.413.836l-.413.675-1.128-.182c-.12.013-.238.04-.352.08 0 .252 0 .504.06.796l.896-.1a1.412 1.412 0 0 1-.564 1.006c-.352-.09-.805-.504-1.107 0-.302.503.272.594.594.866-.292.463-.584.735-1.107.604a.742.742 0 0 0-.363 0 .423.423 0 0 0-.241.715c.04.062.1.109.17.13.142.06.292.101.454.162-.13.523-.403.684-.936.493-.534-.191-.625-.171-.735.523l.795.242c-.493 1.077-1.188.181-1.943.312a6.51 6.51 0 0 1 .382-.815c.625-.886 1.34-1.722 1.873-2.658.745-1.298 1.369-2.648 2.013-4.027.083-.297.144-.6.181-.906.117-.384.265-.758.444-1.118.15-.302.402-.23.674 0 0 .705-.533 1.209-.795 1.883l.614.09a6.242 6.242 0 0 0 1.107-1.872c.143-.662.227-1.336.252-2.013l-1.44-.796-1.006.242c.11-.553.19-.926.302-1.44l3.02 1.007c0-.654 0-.654-1.33-1.238l.404-1.621c.463-.09.614.121.543.554-.07.433-.322.815 0 1.258.705-.201.474-.886.665-1.258a14.914 14.914 0 0 1 4.198-.171c-.141.332-.252.695-.383 1.087Zm.715-2.87c-.07.433-.121.806-.191 1.25l-.816-.243c.06-.362.1-.694.172-1.117l.835.11Zm.15-.644-.814-.07c.15-.846.15-.846 1.006-.865l-.191.935Zm-1.892-.231c-.13 0-.362-.222-.342-.322 0-.433.382-.373.805-.302 0 .393-.02.695-.483.624h.02Zm-1.007-.171-1.006.433.876 1.147c.614.121.442-1.006 1.268-.684-.05.312-.1.654-.15 1.007l-2.487.15c0-.12-.08-.23 0-.291.627-1.625.892-3.367.775-5.104a7.662 7.662 0 0 1 0-.836c.181-1.39.372-2.778.574-4.158.027-.237.11-.465.241-.664 0 1.087.514 2.104.09 3.241a3.635 3.635 0 0 0 .071 1.792 1.403 1.403 0 0 1-.458 1.59c-.157.12-.337.206-.529.253.283.17.494.231.585.372.09.141.17.483.09.554-.463.393-.373.795 0 1.198h.06Zm1.923-5.96c.222 1.309.181 1.37-.815 1.32-.161-1.008-.161-1.008.755-1.32h.06Zm1.35 4.722-2.537.12c0-.372.06-.604.09-1.006l2.486-.443c-.04.503-.07.875-.1 1.329h.06Zm-2.205-1.54c-.353-1.007-.272-1.088.895-1.168v.916l-.895.251Zm2.466-.292h-1.007a7.697 7.697 0 0 0 .181-2.8c0-.503 0-.503.786-.583-.04 1.127-.03 2.225-.02 3.383h.06Zm-2.466-3.293c-.07-.443-.131-.825-.201-1.248l1.006-.453c0 .302.1.513.121.725.02.212 0 .362 0 .584l-.926.392Zm2.406-1.278c0 .544-.363.563-.816.614a2.022 2.022 0 0 1 .292-1.67l-.856-.475-1.218.756c0-.494-.06-.805-.09-1.248l2.416-.886c.07 1.076.151 1.993.211 2.909h.06Zm-.293-3.423-2.506.785c0-.372 0-.694-.09-1.006l.795-.282.322.694c.13-.422.212-.664.302-.936l.886-.181c.04.282.13.594.231.926h.06Zm-2.808-1.238c-.201-.413.09-.604.513-.735l.373.705c-.443.191-.735.453-.947.03h.061Zm2.335-1.56v1.268l-1.006.16a.729.729 0 0 1 .118-.911.728.728 0 0 1 .284-.165 4.98 4.98 0 0 0 .534-.352l-1.238-.07c-.06-.353-.131-.676-.191-1.008l.735-.271.704 1.368.06-.02Zm-.966-3.182c-.12 1.39-.302 1.55-2.013 1.792-.111-.302-.222-.614-.363-1.006.424-.116.84-.253 1.249-.413.322-.151.644-.474 1.127-.373Zm-3.473.625c0-.313.07-.484.1-.665h.484c.12-.433 0-1.057.765-1.127.1.23.221.493.373.855l-1.722.937Zm3.211-1.33-.865.373a3.263 3.263 0 0 1-.232-.896c0-.221.272-.403.533-.755.202.493.363.795.554 1.279h.01Zm-.744-1.68-.725.342c-.202-.383-.403-.745-.584-1.098.856-.715.956-.654 1.309.755Zm-.635-1.883-.886.483-.493-1.077.936-.584c.181.433.302.765.464 1.178h-.02Zm-.624-2.285c-.07.503-.312.835-.725.875-.221 0-.473-.251-.705-.402.363-.705.856-.604 1.45-.473h-.02Zm-1.007-.866-.775.664-.19-.1c0-.171 0-.393.08-.504.08-.11.483-.443.906-.06h-.02Zm-.573-.816-.635.403c-.362-.292-.362-.554 0-.775.363-.222.453.04.635.372ZM76.51 7.363a31.338 31.338 0 0 1 4.792 4.691s.11.1.11.15v.565c-.19 0-.463 0-.553-.11-.393-.484-.715-1.008-1.077-1.531-.191-.272-.393-.574-.946-.403a24.818 24.818 0 0 0 2.094 3.151l-1.158.564c-.544-.946-1.007-1.862-1.6-2.759-.248-.32-.52-.62-.816-.895-.534-.554-1.007-1.138-1.591-1.672a.788.788 0 0 1-.15-1.006l2.909 2.275a1.007 1.007 0 0 0-.474-1.158c-.765-.664-1.52-1.339-2.275-2.013l.15-.192c.205.099.4.213.585.343Zm-3.02-.645a.634.634 0 0 1-.282.937c-.08.604.715 1.006.423 1.63l-.745.343c.292.402-.252.382-.262.493.016.28.088.554.211.805-.523.584-.724-.634-1.298-.18l.342.835-.463.523-1.53-1.006h-.05c-.232.332 0 .523.221.744.222.222.11.443-.282.574a58.328 58.328 0 0 1-.755-1.137l.816-.181a.603.603 0 0 1 .573-.514c.775-.09 1.198-.745 1.782-1.127a.884.884 0 0 0 .292-.574c.08-.52.12-1.045.121-1.57a1.2 1.2 0 0 0-.302-.635c-.433-.584-.886-1.158-1.37-1.792a2.698 2.698 0 0 1 2.558 1.832Zm-4.923-2.315c.695.08 1.007.684 1.44 1.107.387.415.753.848 1.097 1.299a1.143 1.143 0 0 1-.141.171 3.543 3.543 0 0 1-1.742-1.198 4.097 4.097 0 0 0-1.5-1.49 7.878 7.878 0 0 1-.765-.634c.927-.262 1.037.674 1.611.745Zm-3.02-2.175a.595.595 0 0 1 .161.584c-.08.151-.392.222-.604.202-.212-.02-.282-.212-.413-.343l-1.148-1.107c.887.252 1.46.423 2.044.664h-.04ZM34.44 55.947c-.344.717-.77 1.393-1.269 2.013L33 57.88c0-.165.028-.328.08-.484.856-1.903 1.732-3.785 2.568-5.688.402-.906.714-1.842 1.067-2.768.118-.385.277-.756.473-1.107.886-1.32 1.268-2.91 2.335-4.128a7.19 7.19 0 0 1 1.54-2.728c1.007-1.39 1.581-3.02 2.638-4.35 1.44-1.822 2.789-3.714 4.168-5.586.232-.302.453-.574.846-.584.322.271.12.473 0 .664-1.228 1.56-2.477 3.1-3.665 4.691-.553.735-1.006 1.57-1.46 2.346-.22.342-.473.644-.704 1.006-1.148 1.682-2.014 3.504-3.11 5.245a41.115 41.115 0 0 0-2.729 5.497 279.42 279.42 0 0 0-2.607 6.04Zm38.355-3.383a18.895 18.895 0 0 1-3.876 5.637c-.2.192-.412.353-.624.534l-.211-.15c.17-.273.332-.555.513-.816.806-1.218 1.682-2.396 2.416-3.645.957-1.63 1.792-3.332 2.709-5.033.553-.972.989-2.006 1.298-3.08.26-.794.596-1.56 1.007-2.286a3.25 3.25 0 0 0 .644-2.184c.574.08.534.473.433.775-.22.613-.486 1.208-.795 1.781a6.105 6.105 0 0 0-.806 2.688 2.913 2.913 0 0 1-.372 1.128c-.755 1.55-1.59 3.08-2.336 4.651ZM48.584 32.903c.231.765-.252 1.148-.504 1.6-.543.947-1.137 1.853-1.731 2.759-.594.906-1.319 1.792-1.903 2.738-1.006 1.61-2.335 3.02-2.94 4.842a.382.382 0 0 1-.08.171c-1.258 1.108-1.42 2.79-2.174 4.158a.688.688 0 0 1-.161.222h-.302a4.49 4.49 0 0 1 .674-2.235c.725-1.45 1.44-2.9 2.275-4.269.836-1.368 1.702-2.406 2.557-3.654.665-1.007 1.279-2.013 1.943-3.02.665-1.007 1.34-1.943 2.014-2.92.07-.1.16-.322.332-.392Zm.05 24.453c.053-.211.135-.414.242-.604 1.007-1.359 2.094-2.698 3.08-4.027.987-1.329 1.792-2.688 2.709-4.027.714-1.007 1.46-2.073 2.184-3.12.15-.222.292-.474.433-.705l.695-1.178.291.12a7.628 7.628 0 0 1-.422 1.28c-.312.573-.725 1.087-1.078 1.64-.352.554-.573 1.007-.895 1.51a46.542 46.542 0 0 1-1.249 1.852c-.433.605-1.006 1.42-1.57 2.075a.652.652 0 0 0-.081.936c-.946.18-1.268.956-1.721 1.59-.453.634-.755 1.138-1.158 1.702a2.181 2.181 0 0 1-1.46.956Zm-1.48-2.678c2.165-3.12 3.826-6.574 6.141-9.584l.161.07a.195.195 0 0 1 0 .081.376.376 0 0 1 0 .181c-.32.74-.683 1.459-1.087 2.155-1.62 2.496-3.02 5.154-5.033 7.359-.05.06-.161.07-.303.13.013-.147.054-.29.121-.422v.03Zm13.088-7.651c-.464.654-1.007 1.289-1.4 1.953-.231.353-.342.795-.584 1.138a19.924 19.924 0 0 1-2.305 3.13c-.896.877-1.58 1.913-2.426 2.809a7.349 7.349 0 0 1-.604.514l-.202-.202c.957-1.197 1.933-2.386 2.85-3.624.916-1.238 1.852-2.617 2.748-3.946.483-.725.906-1.48 1.359-2.215.078-.135.18-.254.302-.352.08-.06.272-.1.332-.05s.221.261.202.372a1.26 1.26 0 0 1-.222.443l-.05.03Zm-2.134 13.188c-1.571 1.661-3.252 3.231-4.893 4.832-.16.116-.332.214-.514.292-.362-.332-.493-.594-.11-.896.563-.433 1.097-.916 1.681-1.309a19.061 19.061 0 0 0 4.782-4.771c.886-1.218 1.62-2.547 2.556-4.027-.15.463-.22.735-.321 1.007a14.999 14.999 0 0 1-3.181 4.872Zm12.956-9.493a31.131 31.131 0 0 0 1.47-3.433.839.839 0 0 1 .805-.685 8.269 8.269 0 0 1-.373 1.53c-.392.846-.906 1.632-1.318 2.457-.312.604-.504 1.268-.836 1.852-.584 1.007-1.238 2.014-1.882 3.02-.14.239-.306.461-.494.665-.241.251-.513.483-.765.724l-.161-.12a2.13 2.13 0 0 1 .171-.443c1.128-1.863 2.326-3.675 3.383-5.567Zm-16.41 7.953c.765-.896 1.41-1.752 2.165-2.507a30.86 30.86 0 0 0 3.584-4.701c.16-.242.342-.474.523-.705l.191.1c-.158.49-.367.963-.624 1.41a23.563 23.563 0 0 1-3.503 4.54 2.105 2.105 0 0 1-.493.413 1.503 1.503 0 0 0-.876.896.807.807 0 0 1-.967.554Zm11.79 5.225c-.122.12-.227.255-.313.402a7.674 7.674 0 0 0-2.89 2.376c-.483-.16-.503-.503-.261-.785a4.69 4.69 0 0 1 1.218-1.107 18.994 18.994 0 0 0 5.366-4.259c.11.624.11.675-.413 1.117a95.44 95.44 0 0 1-2.708 2.256ZM43.6 46.17c1.6-2.456 3.19-4.922 4.882-7.54.023.26.003.522-.06.775a103.19 103.19 0 0 1-1.752 3.292c-.242.433-.574.806-.825 1.228-.544.997-1.5 1.51-2.205 2.296l-.04-.05Zm18.11 18.695 4.44-4.188c.171.262.07.514-.12.775-.323.453-.635.927-.947 1.38-.09.12-.192.281-.312.332a7.498 7.498 0 0 0-2.356 1.792c-.211.251-.483.392-.705-.09Zm13.843-27.544h-.212a6.667 6.667 0 0 1-.07-1.006c.166-1.731.166-3.474 0-5.205 0 0 .07-.09.161-.192.604.162.654.786.644 1.169a22.87 22.87 0 0 1-.523 5.234Zm-4.38 9.474.574-1.652 1.54-4.429a1.137 1.137 0 0 1 .273 1.279 28.714 28.714 0 0 1-1.843 4.46.738.738 0 0 1-.544.342ZM53.667 57.759c.585-.645 1.199-1.269 1.792-1.903.088-.133.2-.246.333-.332.161-.08.453-.212.534-.141.251.221.07.443-.121.624l-.675.644-3.402 3.302c-.192.181-.343.403-.524.604l-.211-.18c.755-.867 1.51-1.753 2.274-2.618Zm8.236.724c-.524.474-.785 1.259-1.712 1.48l5.598-6.785a4.324 4.324 0 0 1-.957 1.812c-.473.574-.916 1.178-1.39 1.752-.474.613-.99 1.195-1.54 1.742Zm-11.457 6.09c0-.15 0-.29.07-.341 1.552-1.092 3-2.322 4.33-3.675 0 0 .12 0 .261-.07-.362 1.198-2.466 3.03-4.66 4.087Zm16.641-9.784a7.202 7.202 0 0 1-2.849 3.886 15.536 15.536 0 0 1 2.85-3.886Zm6.474-9.192a29.237 29.237 0 0 1 1.218-4.288c.493.11.574.332.483.604-.141.473-.312.936-.494 1.39-.18.452-.432 1.157-.674 1.72-.113.243-.3.444-.533.574Zm-5.034 7.118a16.638 16.638 0 0 1 1.762-3.936c.483.684.09 1.177-.09 1.59a5.377 5.377 0 0 1-1.662 2.346h-.01Zm7.822-1.61 1.299-2.236h.21c.042.237.042.478 0 .715-.341.725-.573 1.369-1.499 1.52h-.01ZM49.33 64.06a4.892 4.892 0 0 1 2.376-1.953 7.456 7.456 0 0 1-2.376 1.953Zm.1-3.685a3.262 3.262 0 0 1 1.642-1.64 4.353 4.353 0 0 1-1.642 1.64Zm16.803-2.013.16.12-1.207 1.52c.08-.704.08-.704 1.047-1.64Zm-7.259-48.131-.151.05c0-.12-.07-.241-.11-.362l.15-.05c.04.17.081.24.111.362ZM24.161 72.195a.34.34 0 0 1 .141.05v.161l-.493.413c-.06-.1-.171-.212-.151-.292a.404.404 0 0 1 .503-.332Z"/></g></svg>