<svg xmlns="http://www.w3.org/2000/svg" width="28" height="28" fill="none"><path stroke="#EA6D27" stroke-miterlimit="10" stroke-width="2.1" d="M25.73 20.661c-.936-.942-3.2-2.317-4.299-2.87-1.43-.721-1.549-.78-2.673.055-.75.558-1.249 1.056-2.127.869-.878-.188-2.786-1.243-4.456-2.908-1.67-1.666-2.787-3.629-2.975-4.504-.188-.875.318-1.367.87-2.12.779-1.06.72-1.236.055-2.667C9.606 5.403 8.19 3.16 7.245 2.23c-1.011-1-1.011-.823-1.663-.552a9.43 9.43 0 0 0-1.52.81c-.943.627-1.466 1.147-1.831 1.928-.366.781-.53 2.613 1.358 6.044 1.888 3.43 3.213 5.184 5.955 7.918 2.742 2.735 4.85 4.205 7.933 5.934 3.813 2.136 5.276 1.72 6.06 1.354.783-.365 1.306-.883 1.933-1.825.317-.48.589-.989.812-1.52.272-.649.448-.649-.553-1.66Z"/></svg>