<svg xmlns="http://www.w3.org/2000/svg" width="323" height="86" fill="none"><path fill="#EA6D27" d="M50.938 7.969c.624 1.646.906 4.531.843 8.656-.041 4.104-.406 7.719-1.093 10.844-1.584 7.104-3.417 12.99-5.5 17.656-2.084 4.646-4.865 9.052-8.344 13.219-2.417 2.896-4.854 5.146-7.313 6.75-2.458 1.583-5.51 2.896-9.156 3.937l-4.281 1.25-1.657 5c-1.02 3.209-1.906 5.438-2.656 6.688-.896 1.437-1.885 2.27-2.969 2.5-1.062.25-1.947-.156-2.656-1.219-.354-.542-.593-1.344-.718-2.406-.125-1.042-.209-3-.25-5.875l-.063-6.906-1.469-1.22c-.75-.645-1.52-1.666-2.312-3.062C.573 62.385.187 61.333.187 60.625c0-.583.24-.865.72-.844.645.042 1.27.5 1.874 1.375l.313.5c.396.75.781 1.407 1.156 1.969.375.563.688.98.938 1.25.27.25.458.323.562.219.146-.125.646-1.813 1.5-5.063 1.542-5.937 4.219-13.01 8.031-21.218 2.209-4.855 3.313-7.834 3.313-8.938 0-1.23-.271-3.51-.813-6.844-.52-3.354-.99-5.791-1.406-7.312-.77-2.688-1.125-4.188-1.063-4.5.105-.209.355-.313.75-.313.917 0 1.625.656 2.125 1.969.521 1.313 1.136 4.042 1.844 8.188.646 3.645 1.032 5.53 1.157 5.656.041.041.135-.042.28-.25a17.71 17.71 0 0 0 1.25-2.125c1.48-2.688 3.386-5.646 5.72-8.875 2.354-3.25 4.406-5.75 6.156-7.5 1.458-1.48 2.604-2.521 3.437-3.125a9.446 9.446 0 0 1 2.813-1.438c4.937-1.625 8.302-.104 10.093 4.563ZM10.53 78.844c.542-1.271 1.125-2.886 1.75-4.844.646-1.958.969-3.146.969-3.563 0-.229-.885-.395-2.656-.5-1.75-.124-2.719.032-2.906.47-.167.416-.24 2.04-.22 4.874.022 2.834.126 4.584.313 5.25.5 1.792 1.417 1.23 2.75-1.687Zm4.875-16.719c1.23-5.333 2.177-10.51 2.844-15.531.688-5.021.813-7.771.375-8.25-.125-.125-.5.427-1.125 1.656-.625 1.208-1.375 2.823-2.25 4.844-.875 2.02-1.75 4.135-2.625 6.343-.854 2.188-1.813 5.303-2.875 9.344-.896 3.48-1.25 5.521-1.063 6.125.188.604 1.26.917 3.22.938h2.25l1.25-5.469Zm32.782-35.25c1.708-8.5 1.802-14.635.28-18.406C47.26 5.552 45.23 4.563 42.376 5.5c-1.313.417-2.75 1.25-4.313 2.5-3.812 2.98-8.468 9.354-13.968 19.125L21.625 31.5l-.281 7.25c-.292 7.604-1.438 15.51-3.438 23.719-.541 2.27-.781 3.604-.718 4 .062.5.458.687 1.187.562.375-.062 1.458-.364 3.25-.906 3.104-.98 6.156-2.77 9.156-5.375 3.021-2.604 5.844-5.917 8.469-9.938 2.083-3.187 3.833-6.677 5.25-10.468 1.417-3.792 2.646-8.282 3.688-13.469Zm30.434 29.813.188.062a.39.39 0 0 1 .313.219c.083.104.104.27.062.5-.063.27-.417.718-1.063 1.343-.624.626-1.666 1.448-3.124 2.47a46.247 46.247 0 0 1-4.907 2.906c-1.875.979-3.437 1.583-4.687 1.812-1.23.208-2.365.073-3.406-.406-1.73-.792-2.594-2.177-2.594-4.156v-1.5l-3.469 2.468c-1.52 1.063-2.604 1.74-3.25 2.032-.625.27-1.344.374-2.156.312-.584-.042-1.052-.208-1.407-.5a1.822 1.822 0 0 1-.656-1.094 4.813 4.813 0 0 1-.062-1.343c.062-.459.166-.928.312-1.407.417-1.333 1.24-2.614 2.469-3.843 1.25-1.25 2.552-2.073 3.906-2.47.854-.25 1.542-.364 2.063-.343.52.02 1.24.198 2.156.531l2.156.782 2.407-1.876c2.02-1.583 3.24-1.99 3.656-1.218.083.166.125.375.125.625 0 .437-.771 1.427-2.313 2.968-1.333 1.271-2.302 2.615-2.906 4.032-.604 1.396-.646 2.406-.125 3.031.75.938 2.104 1.083 4.063.438 1.979-.646 4.885-2.198 8.718-4.657.646-.416 1.24-.77 1.782-1.062.562-.292.979-.48 1.25-.563.291-.104.458-.135.5-.093Zm-19.937.406c.23-.375-.01-.625-.719-.75a4.148 4.148 0 0 0-2.781.406c-1.208.646-2.365 1.708-3.469 3.188-.979 1.312-1.281 2.114-.906 2.406a.512.512 0 0 0 .281.062c.334 0 1.615-.812 3.844-2.437a45.157 45.157 0 0 0 2.469-1.782c.77-.583 1.198-.947 1.281-1.093ZM95.058 36.25c7.416-1.02 13.489-1.333 18.218-.938 4.75.376 7.125 1.386 7.125 3.032 0 .396-.104.666-.312.812-.188.125-.511.146-.969.063-.458-.104-1.094-.334-1.906-.688-.729-.333-1.656-.552-2.781-.656-1.125-.104-2.928-.146-5.407-.125-3.291.02-7.156.281-11.593.781-4.417.48-6.865.917-7.344 1.313-.396.333-1.886 3.375-4.469 9.125s-4.365 9.968-5.344 12.656c-1.646 4.563-2.906 8.813-3.781 12.75-.854 3.917-1.208 6.969-1.063 9.156.084.896.073 1.469-.03 1.719-.105.25-.397.417-.876.5-.416.063-.729.01-.937-.156-.188-.146-.344-.469-.469-.969-.667-2.667-.031-7.51 1.906-14.531 1.959-7.042 4.719-14.448 8.282-22.219 1.145-2.48 1.718-4.094 1.718-4.844 0-.604.282-1.25.844-1.937.396-.459.542-.709.438-.75-.105-.063-.771-.01-2 .156-1.542.23-5.01.896-10.407 2-5.375 1.083-9.208 1.906-11.5 2.469-2.875.666-4.375.604-4.5-.188-.02-.208.021-.448.125-.718.146-.396 2.365-1.105 6.657-2.126 4.27-1.041 9.374-2.114 15.312-3.218l8.281-1.5 5.532-10.688c2.208-4.27 3.74-7.114 4.593-8.531.875-1.438 1.51-2.156 1.907-2.156 1.354 0 1.51 2.031.468 6.094-.541 2.041-1.198 3.854-1.968 5.437-.771 1.563-1.928 3.406-3.47 5.531l-2.593 3.625 2.313-.281Zm14.747 19.219c1.021-.125 1.635-.146 1.844-.063.208.063.312.344.312.844 0 .688-.458 1.208-1.375 1.563-.916.333-2.073.406-3.468.218-1.063-.146-1.99-.52-2.782-1.125-.791-.625-1.583-1.573-2.375-2.843-.271-.438-.5-.626-.687-.563-.188.042-.656.427-1.406 1.156-.438.417-1.063 1.271-1.875 2.563a52.405 52.405 0 0 0-2.25 4c-1.73 3.52-2.98 5.27-3.75 5.25-.271-.021-.49-.24-.657-.656-.146-.459.271-2.75 1.25-6.876 1.021-4.041 1.427-6.53 1.219-7.468-.167-.75-.042-1.365.375-1.844.438-.5.958-.646 1.563-.438.479.167.718 1.105.718 2.813v2.531l2.157-2.093c1.354-1.313 2.416-1.938 3.187-1.876.771.042 1.552.792 2.344 2.25.687 1.23 1.427 2.032 2.219 2.407.812.375 1.958.458 3.437.25Zm26.872-.157c.563-.062.959.146 1.188.626.229.479.083 1.03-.438 1.656-.416.458-.875.948-1.375 1.468-.5.5-1.343 1.271-2.531 2.313a41.99 41.99 0 0 1-3.562 2.813c-1.188.812-2.594 1.604-4.219 2.374-1.625.771-3.198 1.303-4.719 1.594-2.208.417-4.166.084-5.875-1-1.708-1.104-2.666-2.646-2.875-4.625-.208-2.083-.083-4.26.375-6.531.396-1.917.886-3.302 1.469-4.156.583-.854 1.198-1.073 1.844-.657.291.167.437.563.437 1.188 0 .604-.135.99-.406 1.156-.292.188-.625 1.542-1 4.063-.25 1.604-.375 2.74-.375 3.406.021.646.187 1.344.5 2.094.583 1.416 1.719 2.208 3.406 2.375 1.709.146 3.49-.156 5.344-.906a21.323 21.323 0 0 0 5.156-2.938 68.01 68.01 0 0 0 3.281-2.781 405.326 405.326 0 0 1 2.875-2.563c.709-.604 1.209-.927 1.5-.968Zm-19.031-7.937c-.229.23-.521.344-.875.344s-.656-.115-.906-.344a1.294 1.294 0 0 1-.344-.906c0-.354.115-.646.344-.875.25-.25.552-.375.906-.375s.646.125.875.375c.25.229.375.52.375.875 0 .354-.125.656-.375.906Zm37.748 8c.416.375.031 1.094-1.156 2.156-.688.604-2.271 1.782-4.75 3.532-2.48 1.729-4.23 2.833-5.25 3.312-2.792 1.25-4.969 1.188-6.532-.188-1.083-.937-1.51-2.218-1.281-3.843a16.254 16.254 0 0 1 2.406-6.469c1.375-2.333 2.729-3.948 4.063-4.844 1.333-.896 2.427-.916 3.281-.062.625.625.76 1.875.406 3.75-.333 1.854-.916 3-1.75 3.437-.479.25-.875.292-1.187.125-.313-.166-.469-.468-.469-.906 0-.458.146-1 .438-1.625.812-1.542 1.031-2.365.656-2.469-.354-.125-1.021.5-2 1.875l-.469.688c-1.604 2.5-2.562 4.52-2.875 6.062-.312 1.521.063 2.448 1.125 2.782.708.25 1.698.072 2.969-.532s3.406-1.906 6.406-3.906c2.271-1.52 3.76-2.448 4.469-2.781.708-.354 1.208-.386 1.5-.094Zm24.06.656c.146.25.146.49 0 .719-.125.23-.511.542-1.156.938-.646.374-1.532.812-2.657 1.312s-2.687 1.167-4.687 2c-4.334 1.833-7.427 3.01-9.281 3.531-1.834.521-3.584.698-5.25.531l-2.407-.187-1.406 3.438c-1.062 2.583-1.854 4.874-2.375 6.874-.521 2-.854 4.063-1 6.188-.208 2.625-.573 3.969-1.094 4.031-.208.042-.479-.104-.812-.437-.771-.75-.865-2.896-.281-6.438.562-3.541 1.593-7.125 3.093-10.75a223.993 223.993 0 0 0 2.438-6.344c.687-1.874 1.614-3.812 2.781-5.812a316.308 316.308 0 0 0 5.063-9.375c2.166-4.063 4.75-8.74 7.75-14.031 3.145-5.521 5.25-9.25 6.312-11.188 1.688-3.083 3.094-4.27 4.219-3.562.75.458.614 1.25-.406 2.375-.396.437-1.553 2.312-3.469 5.625-7.104 12.562-10.656 18.968-10.656 19.218 0 .167.979-.656 2.937-2.468 2.917-2.688 4.99-3.625 6.219-2.813.625.396.864.802.719 1.219-.125.417-.594.667-1.407.75-.854.083-2.343 1.135-4.468 3.156-2.105 2.021-4.25 4.396-6.438 7.125-2.187 2.709-3.802 5.052-4.844 7.032-.416.77-.729 1.385-.937 1.843a7.72 7.72 0 0 0-.406 1.157c-.084.333-.053.572.093.718.146.125.344.219.594.282.271.062.656.093 1.156.093 1.188 0 2.823-.343 4.907-1.031 2.104-.708 5.125-1.927 9.062-3.656 3.063-1.313 5.104-2.094 6.125-2.344 1.021-.27 1.677-.177 1.969.281Zm71.776-4.5c1.979 0 .615 2.032-4.094 6.094-6.958 6.083-12.083 10.51-15.375 13.281-3.291 2.75-5.864 4.792-7.719 6.125a58.06 58.06 0 0 1-5.968 3.75c-3.146 1.73-6.198 2.813-9.157 3.25-2.958.459-5.489.281-7.593-.531-2.104-.792-3.594-2.094-4.469-3.906-.875-1.813-1.344-4.021-1.406-6.625-.063-2.604.187-5.26.75-7.969.583-2.73 1.437-5.708 2.562-8.938 1.146-3.229 2.344-6.25 3.594-9.062 1.25-2.813 2.646-5.74 4.187-8.781 9.355-18.334 18.407-27.938 27.157-28.813 4-.396 6.739.792 8.218 3.563 1.605 3.02 1.459 8.125-.437 15.312-.5 1.875-1.677 4.74-3.531 8.594-1.854 3.854-3.677 7.302-5.469 10.344-1.771 3.041-2.833 4.562-3.188 4.562-.375 0-.739-.27-1.093-.812-.188-.313-.084-.938.312-1.875.417-.959 1.292-2.594 2.625-4.907 7.729-13.354 10.688-22.75 8.875-28.187-.437-1.333-1.198-2.302-2.281-2.906-1.063-.625-2.344-.865-3.844-.719-1.479.125-3.208.74-5.187 1.844-1.959 1.083-3.969 2.604-6.032 4.562-2.229 2.104-4.406 4.709-6.531 7.813-2.104 3.104-4.406 7.093-6.906 11.968-6.646 12.834-10.375 23.678-11.188 32.532-.125 1.52.011 3.01.407 4.469.416 1.437 1.198 2.729 2.343 3.874 1.167 1.167 2.615 1.844 4.344 2.032 1.625.187 3.344.041 5.156-.438 1.834-.479 4.084-1.375 6.75-2.687 2.271-1.146 4.938-2.906 8-5.281 3.063-2.376 7.875-6.396 14.438-12.063 2.979-2.604 5.615-4.833 7.906-6.688 2.313-1.854 3.594-2.78 3.844-2.78Zm25.06 4.094c.5-.313.958-.354 1.375-.125.542.27.479.792-.188 1.563-.145.145-.312.302-.5.468-3.979 3.542-6.854 5.459-8.625 5.75-1.166.209-2.187.177-3.062-.093-.875-.271-1.656-.98-2.344-2.126-.291-.479-.75-1.479-1.375-3-.625-1.52-.937-2.291-.937-2.312-.146-.146-.532.094-1.157.719-.604.625-1.354 1.52-2.25 2.687a58.874 58.874 0 0 0-2.687 3.75A16.57 16.57 0 0 1 252.977 65c-.52.563-.875.844-1.062.844-.479 0-.854-.625-1.125-1.875-.354-1.771-.063-4.177.875-7.219.937-3.063 2.687-7.292 5.25-12.688 1.542-3.229 3.729-8.03 6.562-14.406 1.855-4.166 3.115-6.854 3.782-8.062.666-1.23 1.239-1.844 1.718-1.844.709 0 1.25.542 1.625 1.625.396 1.063.49 2.354.282 3.875a21.626 21.626 0 0 1-.938 3.719c-.416 1.187-1.177 2.74-2.281 4.656a113.702 113.702 0 0 1-2.906 4.844 1456.74 1456.74 0 0 1-4.532 7c-2.645 4-4.489 7.385-5.531 10.156l-1.406 3.938 3.219-3.532c1-1.083 1.843-1.916 2.531-2.5.708-.583 1.323-.937 1.844-1.062.541-.125.968-.01 1.281.343.333.355.604.948.812 1.782.334 1.354.719 2.52 1.157 3.5.458.958.906 1.656 1.343 2.093.459.438.865.75 1.219.938.375.167.709.23 1 .188.584-.105 1.49-.563 2.719-1.376a78.839 78.839 0 0 0 3.719-2.687c1.271-.98 1.989-1.52 2.156-1.625Zm18.591-1.156c.417-.104.698 0 .844.312.167.313.188.677.063 1.094-.105.417-.292.708-.563.875-.208.125-.531.24-.969.344-.437.104-1.208.343-2.312.718-1.084.376-2.396.896-3.938 1.563-2.271.98-3.802 1.719-4.593 2.219-.771.479-1.459 1.146-2.063 2-.979 1.375-1.979 2.281-3 2.718-1 .417-1.958.344-2.875-.218-.583-.375-1-.834-1.25-1.375-.25-.542-.333-1.073-.25-1.594.083-.542.167-.958.25-1.25.104-.292.208-.531.313-.719a4.7 4.7 0 0 1 .843-1.031c.354-.354.677-.594.969-.719.729-.291 1.094-.802 1.094-1.531.021-.792.531-2.02 1.531-3.688 1.021-1.666 1.938-2.791 2.75-3.374 1.125-.813 2.042-1.25 2.75-1.313.729-.063 1.354.208 1.875.813.313.354.521.635.625.843.125.188.219.552.281 1.094.063.542-.021 1.188-.25 1.938-.104.479-.26.979-.468 1.5-.188.52-.344.927-.469 1.218-.125.292-.188.448-.188.469.021.02.688-.188 2-.625l4.219-1.406c1.521-.5 2.448-.792 2.781-.875Zm-16.5 8.656c.417-.438.667-.73.75-.875.084-.146.094-.27.032-.375-.063-.104-.282-.25-.657-.438-.396-.229-.698-.312-.906-.25-.187.042-.385.26-.594.657-.187.375-.333.75-.437 1.125-.084.375-.104.687-.063.937.063.25.188.375.375.375.313 0 .813-.385 1.5-1.156Zm4.375-6.219c.979-1.687 1.469-2.896 1.469-3.625 0-.479-.052-.75-.156-.812-.104-.063-.365.031-.781.281-.542.354-1.25 1.281-2.125 2.781-.875 1.5-1.313 2.552-1.313 3.157 0 .729.271.958.813.687.645-.313 1.343-1.135 2.093-2.469Zm37.842-1.593c.562-.063.958.145 1.187.624.229.48.083 1.032-.437 1.657a75.37 75.37 0 0 1-1.375 1.468c-.5.5-1.344 1.271-2.532 2.313a41.99 41.99 0 0 1-3.562 2.813c-1.188.812-2.594 1.604-4.219 2.374-1.625.771-3.198 1.303-4.719 1.594-2.208.417-4.166.084-5.875-1-1.708-1.104-2.666-2.646-2.875-4.625-.208-2.083-.083-4.26.375-6.531.396-1.917.886-3.302 1.469-4.156.583-.854 1.198-1.073 1.844-.657.291.167.437.563.437 1.188 0 .604-.135.99-.406 1.156-.292.188-.625 1.542-1 4.063-.25 1.604-.375 2.74-.375 3.406.021.646.188 1.344.5 2.094.583 1.416 1.719 2.208 3.406 2.375 1.709.146 3.49-.156 5.344-.906a21.323 21.323 0 0 0 5.156-2.938 68.48 68.48 0 0 0 3.282-2.781 364.73 364.73 0 0 1 2.875-2.563c.708-.604 1.208-.927 1.5-.968Zm-19.032-7.938c-.229.23-.521.344-.875.344s-.656-.115-.906-.344a1.294 1.294 0 0 1-.344-.906c0-.354.115-.646.344-.875.25-.25.552-.375.906-.375s.646.125.875.375c.25.229.375.52.375.875 0 .354-.125.656-.375.906Z"/></svg>