<svg xmlns="http://www.w3.org/2000/svg" width="25" height="25" fill="none"><path fill="#fff" d="M12.593.419C5.923.419.516 5.79.516 12.416c0 4.912 2.976 9.132 7.23 10.99-.032-.835-.005-1.842.21-2.752l1.553-6.54s-.388-.766-.388-1.896c0-1.778 1.035-3.106 2.33-3.106 1.1 0 1.627.82 1.627 1.8 0 1.097-.706 2.736-1.067 4.257-.302 1.275.642 2.309 1.909 2.309 2.286 0 3.828-2.92 3.828-6.38 0-2.63-1.785-4.595-5.025-4.595-3.661 0-5.948 2.716-5.948 5.747 0 1.045.313 1.784.798 2.351.222.263.254.37.173.67-.06.22-.189.75-.248.964-.08.305-.329.413-.604.3-1.688-.686-2.475-2.517-2.475-4.585 0-3.406 2.896-7.493 8.633-7.493 4.61 0 7.645 3.316 7.645 6.872 0 4.708-2.636 8.221-6.519 8.221-1.304 0-2.528-.701-2.949-1.494 0 0-.7 2.764-.852 3.3-.253.926-.755 1.847-1.213 2.57 1.112.326 2.265.492 3.424.493 6.67 0 12.077-5.372 12.077-11.997 0-6.626-5.402-12.003-12.072-12.003Z"/></svg>