<svg xmlns="http://www.w3.org/2000/svg" width="77" height="76" fill="none"><path fill="#EA6D27" d="M21.539 71.516c-6.724-2.128-11.493-5.132-14.953-9.648C3.127 57.352 1.172 51.446.02 43.373a1.214 1.214 0 0 1 0-.426c0-2.623.915-5.157 2.582-7.158 1.253-1.556 3.04-2.667 5.44-3.531a7.604 7.604 0 0 1 2.017-4.446 8.923 8.923 0 0 1 4.963-2.617 17.889 17.889 0 0 1 8.956-4.871c3.61-.813 7.37-.547 10.835.762.22.089.934.45 1.58.781a.548.548 0 0 1 .219.178 14.102 14.102 0 0 1 7.326-2.992 15.167 15.167 0 0 1 5.32.388l8.48-17.206C58.506.71 59.741-.75 62.122.43a3.98 3.98 0 0 1 1.58 1.385c1.09 1.69.175 2.864-.628 4.319l-9.2 15.459c.69.489 1.323 1.06 1.88 1.702l.07.083a8.563 8.563 0 0 1 1.848 3.55c.803.229 1.573.49 2.3.769L70.627 9.685c.89-1.454 2.23-2.807 4.525-1.442a3.97 3.97 0 0 1 1.466 1.512c.946 1.772-.05 2.87-.99 4.249L64.492 30.099a15.322 15.322 0 0 1 2.807 2.54 11.138 11.138 0 0 1 2.626 9.832 1.67 1.67 0 0 1-.1.299c.044.14.069.279.069.425v.172a30.257 30.257 0 0 1-6.643 17.739c-3.685 4.446-9.068 8.18-16.613 10.454H46.6v3.894a.547.547 0 0 1-.539.546H22.28a.701.701 0 0 1-.696-.699v-3.766h-.044v-.02Zm29.98-32.526c-.752 0-1.36-.616-1.36-1.378 0-.762.608-1.378 1.36-1.378h3.222c.752 0 1.36.616 1.36 1.378 0 .762-.608 1.378-1.36 1.378H51.52Zm-.814-9.527c.683.311.99 1.118.69 1.81a1.355 1.355 0 0 1-1.793.7l-2.94-1.341a1.383 1.383 0 0 1-.689-1.81 1.355 1.355 0 0 1 1.793-.699l2.939 1.34Zm-16.294.82a1.386 1.386 0 0 1-.827-1.753 1.358 1.358 0 0 1 1.73-.839c.037.013.075.032.112.045l3.228 1.334a1.376 1.376 0 0 1 .77 1.772 1.346 1.346 0 0 1-1.748.78l-.044-.018-3.22-1.321Zm-1.178 8.707c-.752 0-1.36-.616-1.36-1.378 0-.762.608-1.378 1.36-1.378h3.221c.752 0 1.36.616 1.36 1.378 0 .762-.608 1.378-1.36 1.378h-3.221Zm-10.967-6.599a1.364 1.364 0 0 1-1.805-.711 1.398 1.398 0 0 1 .702-1.83l2.94-1.34a1.34 1.34 0 0 1 1.816.61c.339.68.07 1.5-.601 1.842a.67.67 0 0 1-.12.051l-2.932 1.378Zm-6.317 6.6c-.752 0-1.36-.617-1.36-1.379s.608-1.378 1.36-1.378h3.227c.753 0 1.36.616 1.36 1.378 0 .762-.608 1.378-1.36 1.378H15.95ZM3.246 41.917h64.028a8.428 8.428 0 0 0-2.03-7.443c-1.88-2.217-4.97-4.027-9.093-5.082a1.375 1.375 0 0 1-1.028-1.194 5.539 5.539 0 0 0-1.347-3.023l-.063-.063a9.506 9.506 0 0 0-4.036-2.636 12.508 12.508 0 0 0-5.47-.635 11.436 11.436 0 0 0-6.43 2.794c-.251.242-.59.375-.934.375a5.392 5.392 0 0 1-1.68-.686c-.57-.286-1.197-.635-1.328-.635a16.066 16.066 0 0 0-9.294-.635A15.045 15.045 0 0 0 16.67 27.5c-.22.247-.52.406-.846.438a6.24 6.24 0 0 0-3.804 1.842 4.993 4.993 0 0 0-1.348 3.392 1.373 1.373 0 0 1-.946 1.41c-2.356.743-4.017 1.657-5.051 2.94a7.418 7.418 0 0 0-1.429 4.395Zm57.36 6.542a.95.95 0 0 1 1.204-.616c.5.165.77.712.607 1.22a.542.542 0 0 1-.056.14 37.294 37.294 0 0 1-1.554 3.378 34.257 34.257 0 0 1-1.88 3.176.941.941 0 0 1-1.297.356.968.968 0 0 1-.27-1.436 33.063 33.063 0 0 0 1.799-3.01 34.85 34.85 0 0 0 1.498-3.176l-.05-.032Zm-5.245 8.848a.94.94 0 0 1 1.347-.095.976.976 0 0 1 .094 1.365 28.038 28.038 0 0 1-1.73 1.905 25.638 25.638 0 0 1-1.792 1.646.955.955 0 0 1-1.36-.108.986.986 0 0 1 .107-1.379c.57-.476 1.134-.997 1.686-1.55a27.435 27.435 0 0 0 1.617-1.784h.031Zm-46.77 2.991c3.072 4.053 7.446 6.77 13.606 8.733h23.895c6.894-2.114 11.845-5.512 15.197-9.584a27.3 27.3 0 0 0 5.966-14.989H2.764c1.103 6.872 2.895 11.991 5.828 15.84Z"/><path fill="#EA6D27" fill-rule="evenodd" d="M38.867 4.794a.992.992 0 0 1 .652-.368.97.97 0 0 1 .758.216c.2.165.332.4.363.66.038.274-.037.553-.206.77-1.987 2.527 2.274 5.245-.94 9.221a.976.976 0 0 1-1.386.14 1.017 1.017 0 0 1-.137-1.397c2.45-3.03-1.93-5.545.927-9.222l-.031-.02Zm-9.432.045a.997.997 0 0 1 .646-.394.978.978 0 0 1 .708.184.983.983 0 0 1 .395.655c.031.254-.032.508-.182.717-1.924 2.668 1.692 5.278-.902 9.178a.983.983 0 0 1-.627.413.944.944 0 0 1-.758-.146 1.008 1.008 0 0 1-.27-1.385v-.006c2.093-3.138-1.817-5.38.946-9.222l.044.006Zm4.72-.006a.966.966 0 0 1 .645-.4.972.972 0 0 1 1.115.806.993.993 0 0 1-.17.794c-2.167 3.004 2.075 5.176-.952 9.197a.961.961 0 0 1-.651.375.932.932 0 0 1-.759-.191 1.028 1.028 0 0 1-.376-.66 1.016 1.016 0 0 1 .195-.769c2.274-3.03-2.018-5.094.908-9.222l.044.07Z" clip-rule="evenodd"/></svg>