<svg xmlns="http://www.w3.org/2000/svg" width="26" height="21" fill="none"><path fill="#fff" d="M25.515 2.693c-.955.413-1.966.685-3 .807A5.149 5.149 0 0 0 24.814.674a10.533 10.533 0 0 1-3.32 1.239A5.29 5.29 0 0 0 17.678.294c-2.887 0-5.224 2.289-5.224 5.11-.002.392.043.784.135 1.165a14.969 14.969 0 0 1-5.954-1.54 14.88 14.88 0 0 1-4.818-3.802 5.022 5.022 0 0 0-.71 2.569c0 1.771.93 3.338 2.334 4.255a5.199 5.199 0 0 1-2.376-.638v.063c0 2.479 1.804 4.54 4.192 5.01-.45.12-.912.18-1.377.18-.33 0-.658-.032-.982-.096.664 2.03 2.596 3.507 4.885 3.55a10.633 10.633 0 0 1-6.491 2.188c-.417 0-.833-.025-1.247-.074a14.855 14.855 0 0 0 7.999 2.31c9.623 0 14.88-7.789 14.88-14.544 0-.222-.005-.443-.016-.66a10.498 10.498 0 0 0 2.607-2.647Z"/></svg>